<svg viewBox="0 0 26 26"><path class="icon__shape" d="M16.28 18a1 1 0 0 0-1.23.7 4.36 4.36 0 1 1-6.53-4.85 1 1 0 1 0-1.07-1.69A6.36 6.36 0 1 0 17 19.19a1 1 0 0 0-.72-1.19z"/><path class="icon__shape" d="M21.46 20.42l-3.14-5a1 1 0 0 0-.85-.47h-2.73l.88-2.95c.52-1.82.38-3.21-.43-4.13a3.42 3.42 0 0 0-2.94-1l-4 .5a1 1 0 0 0-.54.25l-3.14 2.8a1 1 0 0 0 1.33 1.49l2.9-2.59L11 9l-2 6.53a1 1 0 0 0 0 .31v.07a1 1 0 0 0 1 1h6.95l2.84 4.57a1 1 0 1 0 1.7-1.06zm-7.76-9l-1.05 3.5h-1.36l1.81-6a1 1 0 0 1 .58.29c.32.31.32 1.13.02 2.19z"/><circle class="icon__shape" cx="15.41" cy="4.23" r="2.08"/></svg>