<svg xmlns="http://www.w3.org/2000/svg" viewBox="0 0 24 24"><g transform="translate(3 1)"><path d="M12.3 16c-.5-.1-1.1.2-1.2.7-.6 2.3-3 3.7-5.4 3s-3.7-3-3-5.4c.3-1 1-1.9 1.9-2.5.5-.3.6-.9.3-1.4-.4-.4-1-.5-1.5-.2-3 1.9-3.8 5.8-2 8.8s5.8 3.8 8.8 2c1.3-.9 2.3-2.2 2.7-3.7.2-.6-.1-1.2-.6-1.3z"/><path d="M17.5 18.4l-3.1-5c-.2-.3-.5-.5-.9-.5h-2.7l.9-2.9c.5-1.8.4-3.2-.4-4.1-.8-.8-1.9-1.2-2.9-1l-4 .5c-.4 0-.5.1-.7.2L.6 8.4c-.4.4-.4 1 0 1.4.4.4.9.4 1.3.1l2.9-2.6L7 7l-2 6.5v.4c0 .6.4 1 1 1h6.9l2.8 4.6c.3.5.9.6 1.4.3.5-.3.7-.9.4-1.4zm-7.8-9l-1.1 3.5H7.3l1.8-6c.2 0 .4.1.6.3.3.3.3 1.1 0 2.2z"/><circle cx="11.4" cy="2.2" r="2.1"/></g></svg>