<svg viewBox="0 0 24 24"><path d="M22.5 11.5c-1.9-4-6-6.6-10.4-6.7-1.7 0-3.4.4-5 1.2L3.6 2.4c-.4-.5-1-.6-1.4-.2s-.6.9-.3 1.3c.1.1.2.2.2.3l14.1 14.1 3.9 3.9c.4.4 1.1.3 1.4-.1.3-.4.3-.9 0-1.3l-3-3c1.7-1.2 3.1-2.8 4-4.7.1-.2.1-.4.1-.6.1-.2 0-.4-.1-.6zm-5.4 4.4L15.2 14c1.1-1.7.5-3.9-1.2-5-1.2-.7-2.7-.7-3.8 0L8.6 7.5c1.1-.5 2.3-.7 3.5-.7 3.6.1 6.8 2.1 8.5 5.4-.8 1.4-2 2.7-3.5 3.7zm-5 1.6h-1c-3.2-.4-6-2.4-7.5-5.3.2-.4.4-.7.7-1.1.3-.6.2-1.2-.3-1.5-.4-.3-1-.2-1.3.3-.4.5-.7 1.1-1 1.6-.1.2-.1.4-.1.6 0 .2 0 .4.1.6 1.8 3.6 5.2 6.1 9.2 6.7.4 0 .8.1 1.2.1.6 0 1-.4 1-1s-.4-1.1-1-1c0-.1 0 0 0 0z"/></svg>
