<svg xmlns="http://www.w3.org/2000/svg" viewBox="0 0 24 24"><path d="M17.8 4.4V3.3c0-.6-.4-1-1-1h-2C14.3.7 12.6-.1 11 .4c-.9.3-1.6 1-1.9 1.9h-2c-.6 0-1 .4-1 1v1.1c-1.9.4-3.2 2-3.2 3.9v11.5c0 2.2 1.8 4 4 4h10c2.2 0 4-1.8 4-4V8.3c0-1.9-1.3-3.5-3.1-3.9zm-9.7-.1H10c.6 0 1-.5 1-1.1 0-.6.4-1 1-1s1 .4 1 1v.1c0 .6.4 1 1 1h1.8v2.1H8.1V4.3zM19 19.9c0 1.1-.9 2-2 2H7c-1.1 0-2-.9-2-2V8.3c0-.8.5-1.5 1.2-1.8v1c0 .6.4 1 1 1h9.6c.6 0 1-.4 1-1v-1c.7.3 1.2 1 1.2 1.8v11.6zm-4-9.3l-4.3 4.3L9 13.1c-.4-.4-1.1-.3-1.4.1-.3.4-.3.9 0 1.3l2.4 2.4.1.1c.4.4 1 .4 1.4 0l5-5c.4-.4.3-1.1-.1-1.4-.4-.5-1-.4-1.4 0z"/></svg>