<svg data-name="Layer 1" viewBox="0 0 26 26"><path d="M21.65 4.8H4.95a2 2 0 0 0-2 2v13a2 2 0 0 0 2 2h16.7a2 2 0 0 0 2-2v-13a2 2 0 0 0-2-2zm-16.7 15v-13h16.7v13z"/><path d="M12.95 11.55a.75.75 0 0 0-.75.75v2a.75.75 0 0 0 1.5 0v-2a.75.75 0 0 0-.75-.75zm3.15-2a.75.75 0 0 0-.75.75v6a.75.75 0 0 0 1.5 0v-6a.75.75 0 0 0-.75-.75zm3.15-1a.75.75 0 0 0-.75.75v8a.75.75 0 0 0 1.5 0v-8a.75.75 0 0 0-.75-.75zM10.34 9a1 1 0 0 0-1.12.4l-.9 1.35H7a1 1 0 0 0-1 1v3a1 1 0 0 0 1 1h1.31l.9 1.35a1 1 0 0 0 .83.45 1 1 0 0 0 .29 0 1 1 0 0 0 .71-1V10a1 1 0 0 0-.7-1z"/></svg>