<svg xmlns="http://www.w3.org/2000/svg" viewBox="0 0 24 24"><path d="M20.6 3.8H4c-1.1 0-2 .9-2 2v13c0 1.1.9 2 2 2h16.7c1.1 0 2-.9 2-2v-13c0-1.1-.9-2-2.1-2zm-16.7 15v-13h16.7v13H3.9z"/><path d="M11.9 10.6c-.4 0-.8.3-.8.8v2c0 .4.3.8.8.8s.8-.3.8-.8v-2c0-.5-.3-.8-.8-.8zm3.2-2c-.4 0-.8.3-.8.8v6c0 .4.3.7.8.7s.8-.3.8-.7v-6c0-.5-.4-.8-.8-.8zm3.1-1c-.4 0-.8.3-.8.8v8c0 .4.3.8.8.8s.8-.3.8-.8v-8c0-.5-.3-.9-.8-.8zM9.3 8c-.4-.1-.8 0-1.1.4l-.9 1.4H6c-.6 0-1 .4-1 1v3c0 .6.4 1 1 1h1.3l.9 1.4c.2.3.5.4.8.5h.3c.4-.1.7-.5.7-1V9c.1-.5-.2-.9-.7-1z"/></svg>