<svg viewBox="0 0 26 26"><path class="icon__shape" d="M9.5 16H3.8c-.5 0-1.4-.2-1.4-1.4v-3.7l3.8-8c.1-.3.4-.5.7-.6.3-.1.5 0 .7.1.6.4.6 1 .4 1.5L6.4 7.7v.2h.1s.1 0 .1-.1l5.6-5.6c.3-.1.5-.2.7-.2.2 0 .4.1.6.2.2.2.2.4.2.6 0 .2-.1.4-.2.6L9.6 7.2c-.1.1-.1.2 0 .3.1.1.2.1.3 0l3.9-3.9v-.1l.7-.7c.2-.2.4-.2.6-.2.2 0 .4.1.6.2.3.3.3.8 0 1.1L11 8.6v.3l.1.1s.1 0 .1-.1L15 5.1c.2-.2.4-.2.6-.2.2 0 .4.1.6.2.2.2.2.4.2.6 0 .2-.1.4-.2.6L12.5 10c-.1.1-.1.2 0 .3l.1.1s.1 0 .1-.1l.9-.9c0 .3.1.6.3.8l.7.7L9.5 16zm7.2-7.8c0 .2-.1.4-.2.5l-.2.3-.6-.6c-.2-.2-.5-.3-.8-.3l.4-.4c.2-.2.4-.2.6-.2.2 0 .4.1.6.2.1.1.2.3.2.5m-2.4 1.7c-.2-.2-.3-.4-.3-.6 0-.2.1-.4.2-.6.3-.3.8-.3 1.1 0l8.1 8.1v5.5c0 .4-.1.8-.3 1-.2.3-.6.4-1 .4h-3.7L13 21.2c-.3-.1-.5-.4-.6-.7-.1-.3 0-.5.1-.7.4-.6 1-.6 1.5-.4l1.4.7h.1s.1 0 .1-.1v-.2l-3.2-3.2c-.3-.3-.3-.8 0-1.1.3-.3.8-.3 1.1 0l1.1 1.1c.1.1.2.1.3 0 .1-.1.1-.2 0-.3l-1.1-1.1h-.1l-.2-.2c-.2-.1-.2-.3-.2-.6 0-.2.1-.4.2-.6.3-.3.8-.3 1.1 0l1.3 1.3c.1.1.2.1.3 0 .1-.1.1-.2 0-.3l-1-1c-.2-.2-.2-.4-.2-.6 0-.2.1-.4.2-.6.3-.3.8-.3 1.1 0l1 1c.1.1.2.1.3 0 .1-.1.1-.2 0-.3l-.6-.6-2.7-2.8zM26 22.4V3.6c0-2-1.6-3.6-3.6-3.6H3.6C1.6 0 0 1.6 0 3.6v18.9c0 2 1.6 3.6 3.6 3.6h18.9c1.9-.1 3.5-1.7 3.5-3.7"/></svg>