<svg xmlns="http://www.w3.org/2000/svg" viewBox="0 0 24 24"><path d="M10.6 19.9c.4.4 1 .4 1.4 0l5-5c.4-.4.3-1.1-.1-1.4-.4-.3-.9-.3-1.3 0l-4.3 4.3-1.5-1.5c-.4-.3-1.1-.3-1.4.1-.3.4-.3.9 0 1.3l2.2 2.2z"/><path d="M18 4.4V2.9c0-.6-.4-1-1-1s-1 .4-1 1v1.5H8V2.9c0-.6-.4-1-1-1s-1 .4-1 1v1.5c-2.2 0-4 1.8-4 4v11c0 2.2 1.8 4 4 4h12c2.2 0 4-1.8 4-4v-11c0-2.2-1.8-4-4-4zm-14 4c0-1.1.9-2 2-2v1.5c0 .6.4 1 1 1s1-.4 1-1V6.4h8v1.5c0 .6.4 1 1 1s1-.4 1-1V6.4c1.1 0 2 .9 2 2v1.5H4V8.4zm16 11c0 1.1-.9 2-2 2H6c-1.1 0-2-.9-2-2v-7.5h16v7.5z"/></svg>