<svg xmlns="http://www.w3.org/2000/svg" viewBox="0 0 24 24"><path d="M9.2 13.9c-.4 0-.8-.2-1.1-.5-.3-.4-.4-.9-.4-1.4 0-1.3.5-1.9 1.5-1.9.2 0 .4.1.6.2.3.2.5.4.6.7l1.5-.8c-.6-1-1.7-1.7-2.9-1.6-.9 0-1.7.3-2.3.9-.7.6-1 1.5-.9 2.4-.1.9.3 1.8.9 2.5.6.6 1.4.9 2.3.9 1.2 0 2.3-.7 2.9-1.7l-1.3-.7c-.3.6-.8 1-1.4 1z"/><path d="M22 7.8c-.5-1.3-1.3-2.5-2.3-3.5-2-2.1-4.8-3.2-7.8-3.2C9 1 6.3 2.2 4.3 4.2c-1 1-1.8 2.2-2.4 3.6-1.1 2.7-1.1 5.6 0 8.3.6 1.3 1.4 2.5 2.4 3.5s2.2 1.8 3.5 2.4c1.3.5 2.7.8 4.1.8 1.4 0 2.8-.3 4.2-.8 1.3-.6 2.6-1.4 3.6-2.4s1.8-2.2 2.3-3.5c.5-1.3.8-2.7.8-4.2 0-1.4-.3-2.8-.8-4.1zm-3.7 10.4c-.9.9-1.9 1.5-3 2-2.2.9-4.6.9-6.8 0s-3.9-2.7-4.8-4.9a8.9 8.9 0 0 1 0-6.8c.5-1.1 1.2-2.1 2-2.9C7.3 3.9 9.6 3 12 3s4.7.9 6.3 2.6c.8.8 1.5 1.8 1.9 2.9.4 1.1.7 2.2.7 3.4 0 2.4-.9 4.6-2.6 6.3z"/><path d="M15.4 13.9c-.4 0-.8-.2-1.1-.5-.3-.4-.4-.9-.4-1.4 0-1.3.5-1.9 1.5-1.9.2 0 .5.1.6.2.3.2.5.4.6.7l1.4-.8c-.6-1-1.7-1.7-2.9-1.6-.9 0-1.7.3-2.3.9-.5.6-.8 1.5-.8 2.4-.1.9.3 1.8.9 2.5.6.6 1.5.9 2.4.9.6 0 1.2-.2 1.6-.5.5-.3.9-.7 1.2-1.2l-1.4-.7c-.1.6-.7 1-1.3 1z"/></svg>