<svg xmlns="http://www.w3.org/2000/svg" viewBox="0 0 24 24"><path d="M12 8c.7.1 1.4-.4 1.5-1.1v-.4c.1-.7-.5-1.4-1.2-1.5H12c-.7-.1-1.4.4-1.5 1.2v.4c-.1.7.5 1.4 1.2 1.5.1-.1.2-.1.3-.1z"/><path d="M19.7 4.3c-2-2.1-4.8-3.2-7.7-3.2-2.9 0-5.6 1.1-7.6 3.2-2.1 2-3.2 4.8-3.2 7.7 0 2.9 1.1 5.7 3.2 7.7 2 2.1 4.8 3.2 7.6 3.2 2.9 0 5.7-1.1 7.8-3.2 2.1-2 3.2-4.8 3.1-7.6.1-3-1.1-5.8-3.2-7.8zm-1.3 14C16.7 20 14.4 21 12 21c-2.4 0-4.6-.9-6.3-2.6-1.7-1.7-2.6-4-2.6-6.4 0-2.4 1-4.6 2.7-6.3C7.4 4 9.7 3.1 12.1 3.1s4.6.9 6.3 2.6C20 7.4 21 9.6 20.9 12c.1 2.3-.8 4.6-2.5 6.3 0-.1 0 0 0 0z"/><path d="M14.3 8.6H9.8c-.4 0-.7.3-.7.7v4.4h1.2V19h3.4v-5.2H15V9.3c0-.2-.1-.4-.2-.5-.1-.1-.3-.2-.5-.2z"/></svg>