<svg xmlns="http://www.w3.org/2000/svg" viewBox="0 0 24 24"><path d="M19.6 4.2c-2-2.1-4.8-3.2-7.8-3.2C9 1 6.2 2.1 4.2 4.2 2.1 6.2 1 9 1 11.9c0 2.9 1.1 5.7 3.2 7.7 2 2.1 4.7 3.2 7.6 3.2 2.9 0 5.7-1.1 7.8-3.2 2.1-2 3.2-4.8 3.1-7.6.1-3-1.1-5.8-3.1-7.8zm-1.4 13.9c-1.7 1.7-3.9 2.7-6.3 2.7s-4.6-.9-6.3-2.6c-1.7-1.6-2.7-3.9-2.6-6.3 0-1 .2-2 .5-2.9L9 11.4l1.7.8 1.3.6 1 .4c.2.2.3.4.3.7 0 .3-.1.6-.4.8-.3.2-.6.3-1 .2-.9 0-1.8-.4-2.4-1l-1.4 1.5c.9.8 2.1 1.3 3.3 1.3v1.7h1.3v-1.7c.7 0 1.4-.3 2-.8.5-.4.9-1 1-1.7l4.1 1.8c-.5.9-1 1.5-1.6 2.1zm-3.3-6.4l-1.8-.8-1-.4-1.4-.6c-.1-.1-.1-.2-.1-.3 0-.3.1-.5.4-.7.3-.1.6-.2.9-.2.7 0 1.3.2 1.9.6l1.4-1.5c-.8-.6-1.7-1-2.7-1V5.3h-1.2V7c-.6 0-1.2.2-1.8.6-.5.3-.8.8-1 1.4L4.4 7l1.2-1.5c1.6-1.7 3.9-2.7 6.3-2.6 2.4 0 4.6.9 6.3 2.6 1.7 1.6 2.7 3.9 2.6 6.3 0 .8-.1 1.6-.3 2.3 0 .1-5.6-2.4-5.6-2.4z"/></svg>