<svg viewBox="0 0 26 26"><path class="icon__shape" d="M23 8.9c-.5-1.3-1.3-2.5-2.3-3.5-2-2.1-4.8-3.2-7.7-3.1-2.9-.1-5.6 1.1-7.6 3.1-1 1-1.9 2.2-2.4 3.5a10.6 10.6 0 0 0 0 8.2c.5 1.3 1.3 2.5 2.3 3.5 1 1 2.2 1.8 3.5 2.4 2.6 1.1 5.6 1.1 8.2 0 1.3-.6 2.6-1.4 3.6-2.4s1.8-2.2 2.3-3.5c.5-1.3.8-2.7.8-4.2.1-1.3-.2-2.7-.7-4zM13 4.2c2.4 0 4.6.9 6.2 2.6.8.8 1.5 1.8 1.9 2.8.4 1.1.7 2.2.7 3.4 0 1.2-.2 2.4-.7 3.5l-10.6-6.1c.7-1 1.9-1.6 3.2-1.5.8 0 1.5.2 2.2.5l.5-2.2c-.9-.4-2-.6-3-.5-2-.1-4 .8-5.3 2.4L5.9 7.8c.3-.4.6-.7.9-1 1.6-1.7 3.9-2.7 6.2-2.6zm3.3 17c-1.1.4-2.2.7-3.3.7-1.1 0-2.3-.2-3.4-.7-1.1-.5-2-1.1-2.9-1.9-.8-.8-1.5-1.8-2-2.9-.9-2.1-.9-4.6 0-6.7l.1-.2 2.5 1.4c-.2.7-.3 1.4-.3 2.1 0 3.4 2.1 6 6.3 6 1.1 0 2.1-.1 3.1-.5l-.4-2.1c-.7.3-1.5.4-2.3.4-2 .2-3.7-1.3-3.8-3.3v-1.1l10.2 5.8c-.3.4-.5.7-.9 1-.8.8-1.8 1.5-2.9 2z"/></svg>