<svg xmlns="http://www.w3.org/2000/svg" viewBox="0 0 24 24"><path d="M15.9 6.4h-10c-1.7 0-3 1.9-3 3.5v5.5c0 1.7 1.3 3 3 3h1.5v3c0 .4.2.8.6.9.4.2.8.1 1.1-.2l3.6-3.7h3.2c1.7 0 3-1.3 3-3V9.9c0-1.6-1.3-3.5-3-3.5zm1 9c0 .6-.4 1-1 1h-3.6c-.3 0-.5.1-.7.3l-2.1 2.2v-1.5c0-.6-.4-1-1-1H5.9c-.6 0-1-.4-1-1V9.9c0-.7.6-1.5 1-1.5h10c.4 0 1 .8 1 1.5v5.5z"/><path d="M19.9 2.4h-10c-1 0-1.9.6-2.4 1.4-.2.5-.1 1.1.4 1.4.4.3 1 .1 1.3-.3.1-.3.4-.5.7-.5h10c.4 0 1 .8 1 1.5v5.5c0 .4-.2.7-.5.9-.5.3-.7.9-.4 1.3.3.5.9.7 1.3.4h.1c.9-.5 1.5-1.5 1.5-2.6V5.9c0-1.6-1.3-3.5-3-3.5z"/></svg>