<svg viewBox="0 0 26 26"><path class="icon__shape" d="M20.07 5.93a9.85 9.85 0 0 0-7-2.89 10 10 0 0 0-7.15 17 9.85 9.85 0 0 0 7 2.89 10 10 0 0 0 7.15-17zM18.6 18.6a8 8 0 0 1-5.68 2.4 7.84 7.84 0 0 1-5.58-2.31A8 8 0 0 1 13.08 5a7.84 7.84 0 0 1 5.58 2.31 8 8 0 0 1-.06 11.29z"/><path class="icon__shape" d="M16.48 9.41a1 1 0 0 0-1.41 0l-2.12 2.12-2.13-2.12a1 1 0 0 0-1.41 1.41l2.12 2.12-2.12 2.13a1 1 0 1 0 1.41 1.41l2.12-2.12 2.12 2.12a1 1 0 1 0 1.41-1.41l-2.12-2.12 2.12-2.12a1 1 0 0 0 .01-1.42z"/></svg>