<svg xmlns="http://www.w3.org/2000/svg" viewBox="0 0 24 24"><path d="M19.1 4.9C17.2 3 14.7 2 12.1 2c-5.5 0-10 4.5-10 10 0 2.6 1 5.1 2.9 7 1.9 1.9 4.4 2.9 7 2.9 5.5 0 10-4.5 10-10-.1-2.6-1.1-5.1-2.9-7zm-1.5 12.7c-1.5 1.5-3.5 2.4-5.7 2.4-2.1 0-4.1-.8-5.6-2.3-3.1-3.1-3.1-8.2 0-11.3C7.8 4.8 9.9 4 12.1 4c2.1 0 4.1.8 5.6 2.3 3.1 3.1 3 8.2-.1 11.3z"/><path d="M15.5 8.4c-.4-.4-1-.4-1.4 0L12 10.5 9.8 8.4c-.4-.3-1-.3-1.4.1-.3.4-.3.9 0 1.3l2.1 2.1L8.4 14c-.4.4-.5 1-.1 1.4s1 .5 1.4.1l.1-.1 2.1-2.1 2.1 2.1c.4.4 1 .5 1.4.1s.5-1 .1-1.4l-.1-.1-2.1-2.1 2.1-2.1c.5-.4.5-1 .1-1.4z"/></svg>