<svg viewBox="0 0 26 26"><path class="icon__shape" d="M21 3.18H5.1a4 4 0 0 0-4 4v12a4 4 0 0 0 4 4H21a4 4 0 0 0 4-4v-12a4 4 0 0 0-4-4zm2 16a2 2 0 0 1-2 2H5.1a2 2 0 0 1-2-2v-12a2 2 0 0 1 2-2H21a2 2 0 0 1 2 2z"/><path class="icon__shape" d="M9.2 16.78c-1.47 0-2.42-1-2.42-3.42s.94-3.44 2.42-3.44a2.75 2.75 0 0 1 2.08.93l1.13-1.28A4.38 4.38 0 0 0 9.2 8.21c-2.88 0-4.25 2.16-4.25 5.14s1.38 5.13 4.25 5.13a4.16 4.16 0 0 0 3.31-1.58l-1.21-1.09a2.63 2.63 0 0 1-2.1.97zm8.37 0c-1.47 0-2.42-1-2.42-3.42s.94-3.44 2.42-3.44a2.75 2.75 0 0 1 2.08.93l1.13-1.28a4.38 4.38 0 0 0-3.21-1.35c-2.88 0-4.25 2.16-4.25 5.14s1.38 5.13 4.25 5.13a4.16 4.16 0 0 0 3.31-1.58l-1.22-1.09a2.63 2.63 0 0 1-2.09.96z"/></svg>