<svg xmlns="http://www.w3.org/2000/svg" viewBox="0 0 24 24"><path d="M20 2.2H4.1c-2.2 0-4 1.8-4 4v12c0 2.2 1.8 4 4 4H20c2.2 0 4-1.8 4-4v-12c0-2.2-1.8-4-4-4zm2 16c0 1.1-.9 2-2 2H4.1c-1.1 0-2-.9-2-2v-12c0-1.1.9-2 2-2H20c1.1 0 2 .9 2 2v12z"/><path d="M8.2 15.8c-1.5 0-2.4-1-2.4-3.4S6.7 9 8.2 9c.8 0 1.6.3 2.1.9l1.1-1.3c-.8-.9-2-1.4-3.2-1.4C5.3 7.2 4 9.4 4 12.3s1.4 5.1 4.2 5.1c1.3 0 2.5-.6 3.3-1.6l-1.2-1.1c-.5.7-1.3 1.1-2.1 1.1zm8.4 0c-1.5 0-2.4-1-2.4-3.4S15.1 9 16.6 9c.8 0 1.6.3 2.1.9l1.1-1.3c-.8-.9-2-1.4-3.2-1.3-2.9 0-4.2 2.2-4.2 5.1s1.4 5.1 4.2 5.1c1.3 0 2.5-.6 3.3-1.6l-1.2-1.1c-.6.6-1.3 1-2.1 1z"/></svg>