<svg xmlns="http://www.w3.org/2000/svg" viewBox="0 0 24 24"><path d="M19.5 10l-2.2-2.2c-.4-.4-1-.5-1.4-.1-.4.4-.5 1-.1 1.4l.1.1 1.6 1.6-1.6 1.6c-.4.4-.5 1-.1 1.4.4.4 1 .5 1.4.1l.1-.1 2.2-2.2c.2-.2.3-.5.3-.8 0-.3-.1-.6-.3-.8zM8.3 7.8c-.4-.4-1-.4-1.4 0L4.7 10c-.2.2-.3.5-.3.8 0 .3.1.6.3.8l2.2 2.2c.4.4 1.1.3 1.4-.1.3-.4.3-.9 0-1.3l-1.6-1.6 1.6-1.6c.4-.4.4-1 0-1.4zM19.7 2H4.4C2.1 2 .3 3.9.2 6.2V15c0 2.3 1.9 4.2 4.2 4.2h4.2v3H6.5c-.6 0-1 .4-1 1s.4 1 1 1h11.1c.6 0 1-.4 1-1s-.4-1-1-1h-2.2v-3h4.2c2.3 0 4.2-1.9 4.2-4.2V6.2C23.9 3.9 22 2 19.7 2zm-6.3 20.2h-2.8v-3h2.8v3zm8.5-7.2c0 1.2-1 2.2-2.2 2.2H4.4c-1.2 0-2.2-1-2.2-2.2V6.2C2.3 5 3.2 4 4.4 4h15.2c1.2 0 2.2 1 2.2 2.2.1 0 .1 8.7.1 8.8zm-7.5-9.7c-.5-.2-1.1 0-1.3.6l-3.4 8.5c-.2.5 0 1.1.6 1.3.5.2 1.1 0 1.3-.6L15 6.6c.2-.5-.1-1.1-.6-1.3z"/></svg>