<svg viewBox="0 0 26 26"><path class="icon__path" d="M20.49,10,18.28,7.81a1,1,0,1,0-1.41,1.41l1.63,1.63-1.63,1.63a1,1,0,1,0,1.41,1.41l2.21-2.21a1,1,0,0,0,.27-.84A1,1,0,0,0,20.49,10ZM9.29,7.81a1,1,0,0,0-1.41,0L5.66,10a1,1,0,0,0-.27.84,1,1,0,0,0,.27.84l2.21,2.21a1,1,0,0,0,1.41-1.41L7.65,10.86,9.29,9.23A1,1,0,0,0,9.29,7.81ZM20.68,2H5.45A4.22,4.22,0,0,0,1.24,6.19v8.75a4.22,4.22,0,0,0,4.21,4.21H9.69v3H7.52a1,1,0,0,0,0,2H18.61a1,1,0,0,0,0-2H16.44v-3h4.24a4.22,4.22,0,0,0,4.21-4.21V6.19A4.22,4.22,0,0,0,20.68,2ZM14.44,22.19H11.69v-3h2.75Zm8.45-7.24a2.22,2.22,0,0,1-2.21,2.21H5.45a2.22,2.22,0,0,1-2.21-2.21V6.19A2.21,2.21,0,0,1,5.45,4H20.68a2.21,2.21,0,0,1,2.21,2.21ZM15.41,5.31a1,1,0,0,0-1.3.56l-3.38,8.5a1,1,0,0,0,.56,1.3,1,1,0,0,0,.37.07,1,1,0,0,0,.93-.63L16,6.61A1,1,0,0,0,15.41,5.31Z"/></svg>
