<svg xmlns="http://www.w3.org/2000/svg" viewBox="0 0 24 24"><g transform="translate(1 1)"><path d="M21.5 10.9c0-.5-.4-.8-.8-.9-1.5-.1-2.7-1.1-3.2-2.5-.2-.5-.7-.7-1.1-.5-.1 0-.1 0-.2.1-.6.4-1.3.5-1.9.6-2.1 0-3.8-1.7-3.8-3.8 0-.6.2-1.2.4-1.7.1-.3.1-.6-.1-.9-.2-.3-.5-.4-.8-.4C4.2 1.4.1 6.6.8 12.3s5.8 9.8 11.6 9.1c5.3-.6 9.2-5.1 9.2-10.4-.1.1-.1 0-.1-.1zm-10.4 8.8c-4.8 0-8.6-3.9-8.6-8.6C2.5 7.3 5 4 8.7 2.9c-.1.3-.1.6-.1.9 0 3.1 2.5 5.6 5.6 5.6.7 0 1.4-.1 2-.4.8 1.3 2 2.3 3.5 2.7-.3 4.5-4.1 8.1-8.6 8z"/><circle cx="5.8" cy="10.2" r="1.2"/><circle cx="15.3" cy="3.8" r="1.3"/><circle cx="9.6" cy="11.6" r="1.2"/><circle cx="12.5" cy="16.1" r="1.2"/></g></svg>