<svg viewBox="0 0 26 26"><path class="icon__shape" d="M23.51 12.94a.9.9 0 0 0-.81-.88 3.84 3.84 0 0 1-3.23-2.51.9.9 0 0 0-1.31-.47 3.78 3.78 0 0 1-1.95.55 3.84 3.84 0 0 1-3.84-3.84 3.78 3.78 0 0 1 .43-1.71.9.9 0 0 0-.07-.92.87.87 0 0 0-.84-.38 10.42 10.42 0 1 0 11.63 10.34s0-.12-.01-.18zm-10.41 8.8a8.62 8.62 0 0 1-2.44-16.88 5.34 5.34 0 0 0-.08.93 5.65 5.65 0 0 0 5.64 5.64 5.52 5.52 0 0 0 2-.37 5.66 5.66 0 0 0 3.51 2.65 8.63 8.63 0 0 1-8.63 8.03z"/><circle class="icon__shape" cx="7.78" cy="12.24" r="1.25"/><circle class="icon__shape" cx="17.26" cy="5.8" r="1.25"/><circle class="icon__shape" cx="11.63" cy="13.6" r="1.25"/><circle class="icon__shape" cx="14.49" cy="18.11" r="1.25"/></svg>