<svg xmlns="http://www.w3.org/2000/svg" viewBox="0 0 24 24"><path d="M9.1 6.4C4.4 6.3.6 10.1.5 14.7c.1 4.7 3.9 8.4 8.6 8.3 1.4 0 2.9-.3 4.2-1l-1-2.1c-2.9 1.8-6.7.8-8.5-2.1-.6-.9-.9-2-.9-3.1 0-3.4 2.8-6.2 6.2-6.2 3.4 0 6.2 2.8 6.2 6.2 0 1.6-.6 2.7-1.6 2.7-.5 0-1-.4-1-1.5v-2.5c0-2-1.4-3-3.4-3-1.2 0-2.4.4-3.5 1l.9 1.8c.8-.4 1.7-.6 2.6-.6.4 0 1 .1 1 .6s-.5.5-.9.5c-1.7 0-3.9.2-3.9 2.6C5.5 18.1 7 19 8.7 19c1.1 0 1.7-.4 2.3-.4.3 0 .5.1.7.3.6.5 1.3.7 2 .7 2.2 0 3.9-1.9 3.9-4.9-.1-4.6-3.9-8.3-8.5-8.3zm-.2 10.7c-.6 0-1-.4-1-.7s.4-.8 1.1-.8c.4 0 .8 0 1.2-.1v.5c0 .3.1.6.1.9-.4.1-.9.1-1.4.2zm14-12.7h-2.7V1.8c0-.6-.4-1-1-1s-1 .4-1 1v2.6h-2.6c-.6 0-1 .4-1 1s.4 1 1 1h2.6V9c0 .6.4 1 1 1s1-.4 1-1V6.5h2.6c.6 0 1-.4 1-1s-.4-1-.9-1.1z"/></svg>