<svg viewBox="0 0 26 26"><path class="icon__path" d="M10.09,7.43a8.44,8.44,0,0,0-8.55,8.32,8.44,8.44,0,0,0,8.55,8.31,8.75,8.75,0,0,0,4.16-1l-1-2.08a6.17,6.17,0,0,1-9.34-5.18,6.16,6.16,0,0,1,12.33,0c0,1.61-.59,2.66-1.56,2.66-.52,0-1-.37-1-1.47V14.5c0-2-1.43-3-3.36-3a7.31,7.31,0,0,0-3.46,1l.91,1.77a7.15,7.15,0,0,1,2.59-.59c.35,0,1,.09,1,.58s-.54.46-.91.46c-1.66,0-3.92.21-3.92,2.55C6.49,19.11,8,20,9.69,20c1.08,0,1.66-.38,2.29-.38a1,1,0,0,1,.72.26,3.08,3.08,0,0,0,2,.73c2.19,0,3.88-1.92,3.88-4.88A8.44,8.44,0,0,0,10.09,7.43ZM9.88,18.06c-.65,0-1-.35-1-.72s.4-.8,1.15-.8a4.33,4.33,0,0,0,1.21-.14v.52a5,5,0,0,0,.14.93A7.44,7.44,0,0,1,9.88,18.06Zm14-12.61H21.22V2.85a1,1,0,0,0-2,0V5.46H16.61a1,1,0,0,0,0,2h2.61v2.61a1,1,0,0,0,2,0V7.46h2.61a1,1,0,0,0,0-2Z"/></svg>
