<svg xmlns="http://www.w3.org/2000/svg" viewBox="0 0 24 24"><path d="M3 7h10.4c.6 0 1-.4 1-1s-.4-1-1-1H3c-.6 0-1 .4-1 1s.4 1 1 1zm0 4.6h5.7c.6 0 1-.4 1-1s-.4-1-1-1H3c-.6 0-1 .4-1 1s.4 1 1 1zm1.9 2.6H3c-.6 0-1 .4-1 1s.4 1 1 1h1.9c.6 0 1-.4 1-1s-.5-1-1-1zm17.3-6l-3-3c-.4-.4-1-.4-1.4 0l-8.2 8.2c-.4.4-.4 1 0 1.4l3 3c.4.4 1 .4 1.4 0l8.2-8.2c.4-.4.4-1 0-1.4zm-9 7.5l-1.6-1.6 4.2-4.2 1.6 1.6-4.2 4.2zm5.7-5.6l-1.6-1.6 1.2-1.2L20 8.9l-1.1 1.2zm-8.1 8l-2 .5.4-2c.2-.6-.2-1.1-.7-1.2-.5-.1-1.1.2-1.2.8l-.8 3.5v.4c0 .1.1.2.1.3.1.1.1.2.2.2h.1c.1 0 .2.1.2.1h.4l3.6-.8c.6-.1.9-.7.8-1.2-.1-.4-.6-.8-1.1-.6-.1-.1 0 0 0 0z"/></svg>