<svg data-name="Layer 1" viewBox="0 0 26 26"><path d="M22.86 20.64v-9.58A2.85 2.85 0 0 0 20 8.21a.81.81 0 0 0-.15 0V3.36a.85.85 0 0 0-.85-.85H7a.85.85 0 0 0-.85.85v4.89a.81.81 0 0 0-.18 0 2.85 2.85 0 0 0-2.85 2.85v9.85a.83.83 0 0 0 0 .36A2.85 2.85 0 0 0 6 23.49h14a2.85 2.85 0 0 0 2.77-2.21.83.83 0 0 0 .05-.37c.03-.08.04-.17.04-.27zm-6.11-4.42l4.41-3v6.16zM20 9.91a1.15 1.15 0 0 1 1.15 1.15v.08l-1.3.89V9.88a.81.81 0 0 0 .15.03zm-1.84-5.7v9L13 16.72l-5.14-3.64V4.21zM4.83 13l4.48 3.16-4.48 3.21zM6 9.91a.81.81 0 0 0 .18 0v2L4.85 11A1.14 1.14 0 0 1 6 9.91zm14 11.88H6a1.13 1.13 0 0 1-.93-.5l5.73-4.06 1.73 1.22a.85.85 0 0 0 1 0l1.77-1.21 5.68 4a1.13 1.13 0 0 1-.98.55z"/></svg>