<svg xmlns="http://www.w3.org/2000/svg" viewBox="0 0 24 24"><path d="M8.5 2.9H5.2c-1.5 0-2.6 1.2-2.6 2.6v3.3c0 1.5 1.2 2.6 2.6 2.6h3.3c1.5 0 2.6-1.2 2.6-2.6V5.6c0-1.5-1.1-2.7-2.6-2.7zm.7 5.9c0 .4-.3.6-.6.6H5.2c-.4 0-.6-.3-.6-.6V5.6c0-.4.3-.6.6-.6h3.3c.4 0 .6.3.6.6v3.2zm9.5-5.9h-3.3c-1.5 0-2.6 1.2-2.6 2.6v3.3c0 1.5 1.2 2.6 2.6 2.6h3.3c1.5 0 2.6-1.2 2.6-2.6V5.6c0-1.5-1.1-2.7-2.6-2.7zm.7 5.9c0 .4-.3.6-.6.6h-3.3c-.4 0-.6-.3-.6-.6V5.6c0-.4.3-.6.6-.6h3.3c.4 0 .6.3.6.6v3.2zM8.5 13.1H5.2c-1.5 0-2.6 1.2-2.6 2.6V19c0 1.5 1.2 2.6 2.6 2.6h3.3c1.5 0 2.6-1.2 2.6-2.6v-3.2c0-1.5-1.1-2.7-2.6-2.7zm.6 5.9c0 .4-.3.6-.6.6H5.2c-.4 0-.6-.3-.6-.6v-3.2c0-.4.3-.6.6-.6h3.3c.4 0 .6.3.6.6.1 0 .1 3.2 0 3.2zm9.6-5.9h-3.3c-1.5 0-2.6 1.2-2.6 2.6V19c0 1.5 1.2 2.6 2.6 2.6h3.3c1.5 0 2.6-1.2 2.6-2.6v-3.2c.1-1.5-1.1-2.7-2.6-2.7zm.7 5.9c0 .4-.3.6-.6.6h-3.3c-.4 0-.6-.3-.6-.6v-3.2c0-.4.3-.6.6-.6h3.3c.4 0 .6.3.6.6V19z"/></svg>