<svg data-name="Layer 1" viewBox="0 0 26 26"><path d="M9.51 3.91H6.22a2.64 2.64 0 0 0-2.64 2.64v3.29a2.64 2.64 0 0 0 2.64 2.64h3.29a2.65 2.65 0 0 0 2.64-2.64V6.55a2.65 2.65 0 0 0-2.64-2.64zm.64 5.93a.65.65 0 0 1-.64.64H6.22a.65.65 0 0 1-.64-.64V6.55a.65.65 0 0 1 .64-.64h3.29a.65.65 0 0 1 .64.64zm9.57-5.93h-3.29a2.64 2.64 0 0 0-2.64 2.64v3.29a2.64 2.64 0 0 0 2.64 2.64h3.28a2.65 2.65 0 0 0 2.64-2.64V6.55a2.65 2.65 0 0 0-2.63-2.64zm.64 5.93a.65.65 0 0 1-.64.64h-3.29a.65.65 0 0 1-.64-.64V6.55a.65.65 0 0 1 .64-.64h3.28a.65.65 0 0 1 .64.64zM9.51 14.12H6.22a2.64 2.64 0 0 0-2.64 2.64V20a2.64 2.64 0 0 0 2.64 2.64h3.29A2.64 2.64 0 0 0 12.15 20v-3.24a2.65 2.65 0 0 0-2.64-2.64zm.64 5.88a.65.65 0 0 1-.64.64H6.22a.65.65 0 0 1-.64-.64v-3.24a.65.65 0 0 1 .64-.64h3.29a.65.65 0 0 1 .64.64zm9.57-5.88h-3.29a2.64 2.64 0 0 0-2.64 2.64V20a2.64 2.64 0 0 0 2.64 2.64h3.28A2.64 2.64 0 0 0 22.36 20v-3.24a2.65 2.65 0 0 0-2.64-2.64zm.64 5.88a.65.65 0 0 1-.64.64h-3.29a.65.65 0 0 1-.64-.64v-3.24a.65.65 0 0 1 .64-.64h3.28a.65.65 0 0 1 .64.64z"/></svg>