<svg xmlns="http://www.w3.org/2000/svg" viewBox="0 0 24 24"><path d="M9.2 9.6c0-1.2 1-2.2 2.2-2.2s2.2 1 2.2 2.2c0 .6.4 1 1 1s1-.4 1-1c0-2.3-1.9-4.2-4.2-4.2S7.2 7.2 7.2 9.6c0 .6.4 1 1 1s1-.5 1-1zm1 2.7c-.4-.4-1-.4-1.4 0l-6.3 6.4c-.5.3-.5 1-.2 1.4s1 .5 1.4.1l.1-.1 6.3-6.4c.5-.4.5-1 .1-1.4zM21.8.7c-.4-.4-1-.4-1.4 0l-2.2 2.2c-.4.4-.5 1-.1 1.4.4.4 1 .5 1.4.1l.1-.1 2.2-2.2c.4-.4.4-1 0-1.4z"/><path d="M11.4 1.7c-4.2 0-7.7 3.4-7.7 7.7 0 .6.4 1 1 1s1-.4 1-1c0-3.1 2.5-5.7 5.7-5.7s5.7 2.5 5.7 5.7c0 1.7-.8 3.4-2.2 4.5l-1.5 1.2c-1.1 1.2-1.8 2.8-1.8 4.5v.3c0 .9-.5 1.5-.9 1.5H9.4c-.6 0-1 .4-1 1s.4 1 1 1h1.3c1.8-.2 3.1-1.7 2.9-3.5v-.3c0-1.1.3-2.1 1-3l1.5-1.2c3.3-2.6 3.9-7.5 1.2-10.8-1.4-1.8-3.6-2.9-5.9-2.9z"/></svg>