<svg xmlns="http://www.w3.org/2000/svg" viewBox="0 0 24 24"><path d="M22 7.8c-.5-1.3-1.3-2.5-2.3-3.5-2-2.1-4.8-3.2-7.8-3.2C9 1 6.3 2.2 4.3 4.2c-1 1-1.8 2.2-2.4 3.6-1.1 2.7-1.1 5.6 0 8.3.6 1.3 1.4 2.5 2.4 3.5s2.2 1.8 3.5 2.4c1.3.5 2.7.8 4.1.8 1.4 0 2.8-.3 4.2-.8 1.3-.6 2.6-1.4 3.6-2.4s1.8-2.2 2.3-3.5c.5-1.3.8-2.7.8-4.2 0-1.4-.3-2.8-.8-4.1zm-3.7 10.4c-.9.9-1.9 1.5-3 2-2.2.9-4.6.9-6.8 0s-3.9-2.7-4.8-4.9a8.9 8.9 0 0 1 0-6.8c.5-1.1 1.2-2.1 2-2.9C7.3 3.9 9.6 3 12 3s4.7.9 6.3 2.6c.8.8 1.5 1.8 1.9 2.9.4 1.1.7 2.2.7 3.4 0 2.4-.9 4.6-2.6 6.3z"/><path d="M14.1 16.7h-1v-5.9c0-.5-.4-.8-.8-.8h-1.9c-.5 0-.8.4-.8.8s.4.8.8.8h1v5.1h-1c-.5 0-.8.4-.8.8s.4.8.8.8h3.7c.5 0 .8-.4.8-.8s-.4-.8-.8-.8z"/><circle cx="11.8" cy="6.6" r="1.6"/></svg>