<svg xmlns="http://www.w3.org/2000/svg" viewBox="0 0 24 24"><g transform="translate(2 2)"><path d="M19 6.1c0-.8-.2-1.6-.4-2.3-.5-1.3-1.5-2.3-2.8-2.8-.7-.3-1.5-.4-2.3-.4-1 0-1.3-.1-3.9-.1S6.7.5 5.7.6c-.7.1-1.5.2-2.2.5-1.2.5-2.2 1.5-2.7 2.8-.3.7-.5 1.5-.5 2.2 0 1-.1 1.3-.1 3.9s0 2.9.1 3.9c0 .8.2 1.6.4 2.3.5 1.3 1.5 2.3 2.8 2.8.7.3 1.5.4 2.3.4 1 0 1.3.1 3.9.1s2.9 0 3.9-.1c.8 0 1.6-.2 2.3-.4 1.3-.5 2.3-1.5 2.8-2.8.3-.7.4-1.5.4-2.3 0-1 .1-1.3.1-3.9S19 7.1 19 6.1zm-1.7 7.7c0 .6-.1 1.2-.3 1.8-.3.8-1 1.5-1.8 1.8-.6.2-1.1.3-1.7.3H5.9c-.6 0-1.2-.1-1.7-.3-.8-.3-1.5-1-1.8-1.8-.2-.6-.4-1.2-.4-1.8V6.2c0-.6.1-1.2.3-1.7.4-.8 1-1.5 1.8-1.8.6-.2 1.1-.3 1.7-.3h7.6c.6 0 1.2.1 1.7.3.9.3 1.6 1 1.9 1.8.2.6.3 1.1.3 1.7v7.6z"/><path d="M9.7 5.2C7 5.2 4.8 7.4 4.9 10c0 2.7 2.2 4.8 4.8 4.8s4.8-2.2 4.8-4.8c0-2.7-2.2-4.8-4.8-4.8zm0 8c-1.7 0-3.1-1.4-3.1-3.1S8 7 9.7 7c1.7 0 3.1 1.4 3.1 3.1 0 1.6-1.4 3-3.1 3.1 0-.1 0-.1 0 0z"/><circle cx="14.7" cy="5" r="1.1"/></g></svg>