<svg xmlns="http://www.w3.org/2000/svg" viewBox="0 0 24 24"><g transform="translate(2)"><path d="M15 .4H4.6c-2.2 0-4 1.8-4 4v18.3c0 .6.4 1 1 1s1-.4 1-1V4.4c0-1.1.9-2 2-2H15c1.1 0 2 .9 2 2v18.3c0 .6.4 1 1 1s1-.4 1-1V4.4c0-2.2-1.8-4-4-4z"/><path d="M12.4 8.2H7.2c-1.3 0-2.4 1.1-2.4 2.4v4.5c0 .6.4 1 1 1s1-.4 1-1v-4.5c0-.2.2-.4.4-.4h5.3c.2 0 .4.2.4.4v4.5c0 .6.4 1 1 1s1-.4 1-1v-4.5c0-1.3-1.1-2.4-2.5-2.4z"/><circle cx="9.8" cy="5.3" r="2.1"/><path d="M8.4 14.4c-.6 0-1 .4-1 1v7.4c0 .6.4 1 1 1s1-.4 1-1v-7.4c0-.6-.4-1-1-1zm3 0c-.6 0-1 .4-1 1v7.4c0 .6.4 1 1 1s1-.4 1-1v-7.4c0-.6-.4-1-1-1z"/></g></svg>