<svg viewBox="0 0 26 26"><path class="icon__shape" d="M18 1.45H7.6a4 4 0 0 0-4 4v18.3a1 1 0 0 0 2 0V5.45a2 2 0 0 1 2-2H18a2 2 0 0 1 2 2v18.3a1 1 0 1 0 2 0V5.45a4 4 0 0 0-4-4z"/><path class="icon__shape" d="M15.42 9.2h-5.25a2.43 2.43 0 0 0-2.43 2.43v4.47a1 1 0 1 0 2 0v-4.47a.43.43 0 0 1 .43-.43h5.25a.43.43 0 0 1 .43.43v4.47a1 1 0 0 0 2 0v-4.47a2.43 2.43 0 0 0-2.43-2.43z"/><circle cx="12.8" cy="6.32" r="2.08"/><path class="icon__shape" d="M11.42 15.35a1 1 0 0 0-1 1v7.4a1 1 0 1 0 2 0v-7.4a1 1 0 0 0-1-1zm3 0a1 1 0 0 0-1 1v7.4a1 1 0 1 0 2 0v-7.4a1 1 0 0 0-1-1z"/></svg>