<svg xmlns="http://www.w3.org/2000/svg" viewBox="0 0 24 24"><path d="M8.1 16.8c-1 1-2.6 1-3.6 0s-1-2.6 0-3.6l4.2-4.3c1.1-.9 2.7-.8 3.6.3.8 1 .8 2.4 0 3.3-.4.4-.3 1.1.1 1.4.4.3.9.3 1.3 0 1.7-1.9 1.5-4.8-.4-6.4C11.6 6 9 6 7.3 7.5l-4.2 4.3c-1.8 1.8-1.7 4.7.1 6.4 1.8 1.7 4.6 1.7 6.4 0 .4-.4.3-1.1-.1-1.4-.5-.4-1-.4-1.4 0zM20.8 5.4c-1.8-1.8-4.7-1.8-6.4 0-.4.4-.3 1.1.1 1.4.4.3.9.3 1.3 0 1-1 2.6-1 3.6.1 1 1 1 2.6 0 3.6l-4.2 4.2c-1 1-2.6 1-3.6 0s-1-2.6 0-3.6c.4-.4.3-1.1-.1-1.4-.4-.3-.9-.3-1.3 0-1.8 1.8-1.7 4.7.1 6.4 1.8 1.7 4.6 1.7 6.4 0l4.2-4.2c1.7-1.8 1.7-4.7-.1-6.5z"/></svg>