<svg xmlns="http://www.w3.org/2000/svg" viewBox="0 0 24 24"><path d="M20 3.4H4c-2.2 0-4 1.8-4 4v10c0 2.2 1.8 4 4 4h16c2.2 0 4-1.8 4-4v-10c0-2.2-1.8-4-4-4zm2 14c0 1.1-.9 2-2 2H4c-1.1 0-2-.9-2-2v-10c0-1.1.9-2 2-2h16c1.1 0 2 .9 2 2v10zm-3.2-6.7h-4.5c-.6 0-1 .4-1 1s.4 1 1 1h4.5c.6 0 1-.4 1-1s-.4-1-1-1zm-8.6 2.2c1.4-1.1 1.7-3.1.6-4.5s-3.1-1.7-4.5-.6-1.7 3.1-.6 4.5l.6.6c-1.6.7-2.6 2.4-2.6 4.1 0 .6.4 1 1 1h7.1c.6 0 1-.4 1-1 0-1.8-1-3.4-2.6-4.1zm-2-3.7c.7 0 1.2.5 1.2 1.2s-.5 1.2-1.2 1.2S7 11.1 7 10.4c.1-.7.6-1.2 1.2-1.2zM5.9 16c.6-1.3 2.1-1.9 3.3-1.3.6.3 1.1.7 1.3 1.3H5.9zm12.9-8.8h-4.5c-.6 0-1 .4-1 1s.4 1 1 1h4.5c.6 0 1-.4 1-1s-.4-1-1-1z"/></svg>