<svg data-name="Layer 1" viewBox="0 0 26 26"><path d="M21 4.43H5a4 4 0 0 0-4 4v10a4 4 0 0 0 4 4h16a4 4 0 0 0 4-4v-10a4 4 0 0 0-4-4zm2 14a2 2 0 0 1-2 2H5a2 2 0 0 1-2-2v-10a2 2 0 0 1 2-2h16a2 2 0 0 1 2 2zm-3.2-6.71h-4.5a1 1 0 0 0 0 2h4.5a1 1 0 0 0 0-2zm-8.62 2.15a3.18 3.18 0 1 0-3.86 0A4.53 4.53 0 0 0 4.71 18a1 1 0 0 0 1 1h7.07a1 1 0 0 0 1-1 4.53 4.53 0 0 0-2.6-4.13zm-1.93-3.69a1.18 1.18 0 1 1-1.18 1.18 1.18 1.18 0 0 1 1.18-1.18zM6.92 17a2.54 2.54 0 0 1 4.66 0zM19.8 8.18h-4.5a1 1 0 0 0 0 2h4.5a1 1 0 0 0 0-2z"/></svg>