<svg xmlns="http://www.w3.org/2000/svg" viewBox="0 0 24 24"><path d="M16.9 14.5c-1 0-2 .5-2.6 1.3l-5.4-2.2c.1-.5.1-1 0-1.4l4.4-2.4c1.7 2 4.6 2.3 6.6.6s2.3-4.6.6-6.6c-1.7-2-4.6-2.3-6.6-.6a4.6 4.6 0 0 0-1.7 3.6c0 .4.1.8.2 1.2l-4.6 2.5c-1.3-1.4-3.5-1.3-4.8.1s-1.2 3.5.2 4.8c1.3 1.2 3.4 1.2 4.7-.1l5.6 2.3v.3c0 1.9 1.5 3.4 3.4 3.4s3.4-1.5 3.4-3.4-1.4-3.4-3.4-3.4c.1 0 0 0 0 0zm0-10.5c1.5 0 2.7 1.2 2.7 2.7s-1.2 2.7-2.7 2.7c-1.5 0-2.7-1.2-2.7-2.7 0-1.5 1.2-2.7 2.7-2.7zM5.5 14.3c-.8 0-1.4-.6-1.4-1.4 0-.8.6-1.4 1.4-1.4.5 0 .9.2 1.2.6.1.2.2.5.2.7.1.8-.6 1.5-1.4 1.5zm11.4 5c-.8 0-1.4-.6-1.4-1.4s.6-1.4 1.4-1.4 1.4.6 1.4 1.4c.1.8-.5 1.4-1.4 1.4.1 0 .1 0 0 0z"/></svg>