<svg xmlns="http://www.w3.org/2000/svg" viewBox="0 0 24 24"><path d="M7.8 14.5c.3.4 1 .5 1.4.2.1 0 .1-.1.2-.2l4-5c.3-.4.2-1.1-.2-1.4-.4-.3-1-.3-1.4.2L9.6 11V7.9c0-1.7 1.3-3 3-3h7c.6 0 1-.4 1-1s-.4-1-1-1h-7c-2.8 0-5 2.2-5 5V11L5.3 8.2c-.3-.4-.9-.5-1.4-.1-.4.3-.5.9-.1 1.4l4 5z"/><path d="M22.1 15l-6-4c-.4-.3-.9-.2-1.3.1l-2 2c-.4.4-.4 1 0 1.4l2 2-.6.3-4.6.9L4.9 16c-.5-.2-1 0-1.3.5l-1 2c-.2.5-.1 1 .4 1.3l5 3c.2.1.3.1.5.1h13c.6 0 1-.4 1-1v-6c.1-.4-.1-.7-.4-.9zm-1.5 5.8H8.9l-4-2.4.1-.3 4.2 1.7c.2.1.4.1.6 0l5-1c.1 0 .2 0 .2-.1l2-1c.5-.2.7-.8.4-1.3 0-.1-.1-.2-.2-.3L15 13.9l.7-.7 4.9 3.2v4.4z"/></svg>