<svg xmlns="http://www.w3.org/2000/svg" viewBox="0 0 24 24"><path d="M12.7 6.5l-1.9-1.9c-.4-.4-1.1-.3-1.4.1-.3.4-.3.9 0 1.3l.3.3C4.2 6.8.2 9.1.2 12c0 2.6 3.2 4.8 8.1 5.5h.1c.6 0 1-.4 1.1-.9 0-.5-.4-1-.9-1.1-4.1-.6-6.4-2.3-6.4-3.5 0-1.5 3-3.2 7.3-3.7l-.1.1c-.4.4-.5 1-.1 1.4s1 .5 1.4.1l.1-.1 1.9-1.9c.4-.4.4-1 0-1.4zM23.6 12c0-2.6-3.2-4.8-8.2-5.6-.6-.1-1.1.3-1.1.9-.1.6.3 1.1.9 1.1 4.2.6 6.5 2.3 6.5 3.6 0 1.5-2.9 3.1-7.1 3.7l1-1c.4-.4.5-1 .1-1.4-.4-.4-1-.5-1.4-.1l-.1.1-2.8 2.7c-.4.3-.5 1-.2 1.4l.2.2 2.8 2.8c.3.4 1 .5 1.4.2.4-.3.5-1 .2-1.4l-.2-.2-1.3-1.3c5.5-.5 9.3-2.8 9.3-5.7z"/></svg>