<svg data-name="Layer 1" viewBox="0 0 26 26"><path d="M23 14.19l-4.29 1.09-3.71-2.2 3.7-2.2L23 12h.2a.8.8 0 0 0 .2-1.58l-2.74-.7L23 8.31a1 1 0 0 0-1-1.72L19.61 8l.69-2.74a.8.8 0 1 0-1.55-.39l-1.08 4.29L14 11.32V7.09L17.16 4A.8.8 0 1 0 16 2.83l-2 2V2.06a1 1 0 0 0-2 0v2.77l-2-2A.8.8 0 0 0 8.9 4L12 7.09v4.23L8.4 9.16 7.31 4.87a.8.8 0 0 0-1.55.39L6.45 8 4.07 6.59a1 1 0 1 0-1 1.72l2.36 1.41-2.74.7a.8.8 0 0 0 .2 1.58h.2l4.29-1.09 3.7 2.2-3.7 2.2-4.29-1.12a.8.8 0 1 0-.39 1.55l2.74.7-2.39 1.41a1 1 0 1 0 1 1.72l2.38-1.41-.7 2.74a.8.8 0 0 0 .58 1h.2a.8.8 0 0 0 .77-.6L8.4 17l3.6-2.16v4.23l-3.1 3.12a.8.8 0 1 0 1.1 1.13l2-2v2.77a1 1 0 1 0 2 0v-2.76l2 2a.8.8 0 0 0 1.13-1.13L14 19.06v-4.23L17.67 17l1.09 4.29a.8.8 0 0 0 .77.6h.2a.8.8 0 0 0 .58-1l-.7-2.74L22 19.57a1 1 0 1 0 1-1.72l-2.38-1.41 2.74-.7a.8.8 0 0 0-.36-1.55z" fill="#1d1d1d"/></svg>