<svg xmlns="http://www.w3.org/2000/svg" viewBox="0 0 24 24"><path d="M22 13.7l-4.3 1.1-3.7-2.2 3.7-2.3 4.3 1.2h.2c.4 0 .8-.3.8-.7.1-.4-.2-.8-.6-.9l-2.7-.7L22 7.6c.4-.3.5-.9.3-1.4-.2-.5-.8-.6-1.3-.4l-2.4 1.5.7-2.9c.1-.3 0-.6-.2-.8-.2-.2-.5-.3-.8-.2-.3.1-.5.3-.5.6l-1.1 4.5-3.7 2.2V6.3l3.2-3.2c.2-.2.3-.5.2-.8-.1-.3-.3-.5-.6-.6-.3-.1-.6 0-.8.2L13 4V1.1c0-.6-.4-1-1-1s-1 .5-1 1V4L9 1.9c-.3-.3-.8-.3-1.1 0-.3.3-.3.9 0 1.2L11 6.3v4.4L7.4 8.5 6.3 4c-.1-.4-.5-.7-1-.6-.4.2-.6.6-.5 1l.7 2.8-2.4-1.4c-.3-.2-.7-.2-1.1-.1-.3.2-.5.6-.5 1s.2.8.6.9l2.4 1.5-2.8.7c-.4.1-.7.5-.6.9 0 .4.4.7.8.7h.2l4.3-1.1 3.7 2.3-3.7 2.3-4.3-1.2c-.3-.1-.6 0-.8.2-.2.2-.3.5-.2.8.1.3.3.5.6.6l2.7.7L2 17.5c-.4.2-.6.5-.6.9s.2.8.5 1c.3.2.8.2 1.1-.1l2.4-1.5-.7 2.9c-.1.2 0 .5.1.6.1.2.3.3.5.4h.2c.4 0 .7-.3.8-.6l1.1-4.5 3.6-2.2v4.4L7.9 22c-.3.2-.4.5-.3.8.1.3.3.6.6.7.3.1.6-.1.8-.3l2-2.1V24c0 .6.4 1 1 1s1-.5 1-1v-2.9l2 2.1c.3.3.8.3 1.1 0 .3-.3.3-.8 0-1.1L13 18.8v-4.4l3.7 2.3 1.1 4.5c.1.4.4.6.8.6h.2c.2-.1.4-.2.5-.4.1-.2.1-.4.1-.6l-.7-2.9 2.4 1.5c.3.2.7.3 1.1.1.3-.2.5-.6.5-1s-.2-.7-.6-.9l-2.4-1.5 2.7-.7c.4-.1.6-.6.5-1-.1-.4-.5-.7-.9-.7z" fill="#1d1d1d"/></svg>