<svg xmlns="http://www.w3.org/2000/svg" viewBox="0 0 24 24"><path d="M4 19.2c-.6 0-1-.4-1-1v-12c0-1.7 1.3-3 3-3h7.5c.6 0 1 .4 1 1s-.4 1-1 1H6c-.6 0-1 .4-1 1v12c0 .6-.4 1-1 1z"/><path d="M4 21.2c-.3 0-.6-.1-.8-.4l-3-4c-.3-.4-.2-1.1.2-1.4.4-.3 1.1-.2 1.4.2L4 18.5l2.2-2.9c.3-.4 1-.5 1.4-.2s.5 1 .2 1.4l-3 4c-.2.2-.5.4-.8.4zm13.9 0h-7.4c-.6 0-1-.4-1-1s.4-1 1-1h7.4c.6 0 1-.4 1-1v-12c0-.6.4-1 1-1s1 .4 1 1v12c0 1.6-1.3 3-3 3z"/><path d="M22.9 9.2c-.3 0-.6-.1-.8-.4l-2.2-2.9-2.2 2.9c-.3.4-1 .5-1.4.2-.4-.3-.5-1-.2-1.4l3-4c.3-.4 1-.5 1.4-.2l.2.2 3 4c.4.5.3 1.1-.2 1.4-.1.1-.3.2-.6.2zM7 7.5h7.3v2H7v-2zm0 4h10.3v2H7v-2zm3 4h7.3v2H10v-2z"/></svg>