<svg xmlns="http://www.w3.org/2000/svg" viewBox="0 0 24 24"><path d="M.7 12.7c-.1 0-.2 0-.2.1l-.3 1.7.3 1.6c0 .1.1.1.2.1s.2 0 .2-.1l.4-1.7-.4-1.7c0 .1-.1 0-.2 0zm4.7-3.6c-.2 0-.3.1-.3.2l-.2 5.3.2 2.5c0 .1.2.2.3.2.2 0 .3-.1.3-.2l.3-2.5-.2-5.3c-.1-.1-.2-.2-.4-.2zM3 10.4c-.1 0-.3.1-.3.2l-.3 4 .3 2.5c0 .1.1.2.3.2.2 0 .3-.1.3-.2l.3-2.5-.4-3.9c.1-.2 0-.3-.2-.3zM7.8 9c-.2 0-.4.1-.4.2l-.2 5.3.2 2.5c0 .1.2.3.4.3s.4-.1.4-.3l.2-2.5-.2-5.3c0-.1-.2-.2-.4-.2zm12.9 2.4c-.4 0-.8.1-1.2.2-.3-2.7-2.6-4.8-5.4-4.7-.7 0-1.3.1-1.9.3-.2.1-.3.2-.3.4V17c0 .2.1.3.3.4h8.4c1.6.1 3-1.1 3.1-2.8s-1.1-3-2.8-3.1c0-.1-.1-.1-.2-.1zM10.2 8.2c-.2 0-.4.1-.4.3l-.2 6.1.1 2.4c0 .2.2.3.4.3s.4-.1.4-.3l.2-2.4-.2-6.1c.1-.2-.1-.3-.3-.3z"/></svg>