<svg data-name="Layer 1" viewBox="0 0 26 26"><path d="M10.45 11a1.13 1.13 0 1 0-1.12-1.08A1.13 1.13 0 0 0 10.45 11zM15 11a1.13 1.13 0 1 0-1.12-1.13A1.13 1.13 0 0 0 15 11zm-2.3 1.16a4.9 4.9 0 0 0-4 2.13 1 1 0 1 0 1.65 1.13 2.89 2.89 0 0 1 4.77 0 1 1 0 0 0 1.65-1.13 4.9 4.9 0 0 0-4.07-2.13zm11.81-.89l-2.6-2.6a1 1 0 0 0-1-.25 2.81 2.81 0 0 1-3.51-3.51 1 1 0 0 0-.25-1l-2.6-2.6a1 1 0 0 0-1.41 0L1.32 13.16a1 1 0 0 0 0 1.41l2.6 2.6a1 1 0 0 0 1 .25 2.81 2.81 0 0 1 3.51 3.51 1 1 0 0 0 .25 1l2.6 2.6a1 1 0 0 0 1.41 0l11.82-11.84a1 1 0 0 0 0-1.42zM12 22.4l-1.5-1.5a4.8 4.8 0 0 0-5.52-5.52l-1.5-1.5L13.86 3.45 15.36 5a4.8 4.8 0 0 0 5.52 5.52l1.5 1.5z"/></svg>
