<svg xmlns="http://www.w3.org/2000/svg" viewBox="0 0 24 24"><path d="M23.7 10.4l-2.6-2.6c-.3-.3-.6-.4-1-.2-1.5.4-3.1-.4-3.5-1.9-.2-.5-.2-1.1 0-1.7.1-.4 0-.7-.2-1L13.8.4c-.4-.4-1-.4-1.4 0L.5 12.3c-.4.4-.4 1 0 1.4l2.6 2.6c.3.3.6.4 1 .2 1.5-.5 3.1.4 3.5 1.9.2.5.2 1.1 0 1.6-.1.4 0 .7.2 1l2.6 2.6c.4.4 1 .4 1.4 0l11.8-11.9c.5-.3.5-.9.1-1.3zm-5.1 3.7l-.1-.1c-.4-.4-1-.4-1.4 0s-.4 1 0 1.4l.1.1-6 6L9.6 20c.4-2.6-1.4-5.1-4-5.5-.5-.1-1-.1-1.5 0L2.6 13l6-6 .1.1c.4.4 1 .4 1.4 0s.4-1 0-1.4l-.1-.1 3-3 1.5 1.5c-.4 2.6 1.3 5.1 4 5.5.5.1 1 .1 1.6 0l1.5 1.5c-.1 0-3 3-3 3z"/><path d="M12.3 7.8c-.4-.4-1.1-.3-1.4.1-.3.4-.3.9 0 1.3l.5.5c.4.4 1 .5 1.4.1s.5-1 .1-1.4l-.1-.1c0 .1-.5-.4-.5-.5zm3.2 3.3c-.4-.4-1.1-.3-1.4.1-.3.4-.3.9 0 1.3l.5.5c.4.4 1.1.3 1.4-.1.3-.4.3-.9 0-1.3.1 0-.5-.5-.5-.5z"/></svg>