<svg id="Layer_1" data-name="Layer 1" viewBox="0 0 26 26"><defs/><path class="cls-1" d="M17.31 13a1 1 0 1 0-1.41 1.41l.53.53a1 1 0 0 0 1.41-1.41z"/><path class="cls-1" d="M25.48 12.36l-2.6-2.6a1 1 0 0 0-1-.25A2.81 2.81 0 0 1 18.38 6a1 1 0 0 0-.25-1l-2.6-2.6a1 1 0 0 0-1.41 0L12.7 3.83a6.58 6.58 0 1 0-8.95 8.95l-1.47 1.47a1 1 0 0 0 0 1.41l2.6 2.6a1 1 0 0 0 1 .25A2.81 2.81 0 0 1 9.38 22a1 1 0 0 0 .25 1l2.6 2.6a1 1 0 0 0 1.41 0l11.84-11.83a1 1 0 0 0 0-1.41zM2.38 7A4.58 4.58 0 1 1 7 11.62 4.59 4.59 0 0 1 2.38 7zm18 9h-.15a1 1 0 1 0-1.41 1.41l.12.12-6 6L11.43 22a4.8 4.8 0 0 0-5.52-5.52L4.41 15l1.44-1.44a6.51 6.51 0 0 0 6.56-2.8 1 1 0 0 0 .25.51l.53.53a1 1 0 0 0 1.41-1.41l-.53-.53A1 1 0 0 0 13 9.58a6.44 6.44 0 0 0 .41-3.66l1.39-1.39L16.33 6a4.8 4.8 0 0 0 5.52 5.52l1.5 1.5z"/><path class="cls-1" d="M10 7.34a1 1 0 0 0-1-1H7.66V4.79a1 1 0 0 0-2 0v2.55a1 1 0 0 0 1 1H9a1 1 0 0 0 1-1z"/></svg>