<svg xmlns="http://www.w3.org/2000/svg" viewBox="0 0 24 24"><path d="M16 12c-.3-.4-.9-.4-1.3-.1-.4.3-.4.9-.1 1.3l.1.1.5.5c.4.3 1 .3 1.3-.1.3-.3.3-.9 0-1.2L16 12z"/><path d="M23.5 11.4L21.1 9c-.2-.2-.6-.3-.9-.2-1.4.4-2.8-.4-3.2-1.8-.1-.5-.1-1 0-1.5.1-.3 0-.7-.2-.9l-2.4-2.4c-.4-.4-.9-.4-1.3 0l-1.3 1.3C10.2.6 6.5-.5 3.5 1.1s-4 5.3-2.4 8.3c.5 1 1.4 1.8 2.4 2.4l-1.4 1.4c-.4.4-.4.9 0 1.3l2.4 2.4c.2.2.6.3.9.2 1.4-.4 2.8.4 3.2 1.7.1.5.1 1 0 1.5-.1.3 0 .7.2.9l2.4 2.4c.4.4.9.4 1.3 0l10.9-10.9c.5-.4.5-.9.1-1.3zM2.2 6.5c0-2.3 1.9-4.2 4.3-4.2s4.2 1.9 4.2 4.3c0 2.3-1.9 4.2-4.2 4.2-2.4-.1-4.3-1.9-4.3-4.3zm16.6 8.3h-.1c-.3-.4-.9-.4-1.3-.1-.4.3-.5.9-.1 1.3l.1.1.1.1-5.5 5.5-1.4-1.4c.4-2.4-1.2-4.7-3.6-5.1-.5-.1-1-.1-1.5 0l-1.4-1.4 1.3-1.3c2.4.4 4.7-.6 6.1-2.6 0 .2.1.3.2.5l.5.5c.4.3 1 .3 1.3-.1.3-.3.3-.9 0-1.2l-.5-.5c-.2-.3-.6-.4-1-.3.5-1.1.6-2.2.4-3.4l1.3-1.3 1.4 1.4c-.4 2.4 1.2 4.7 3.6 5.1.5.1 1 .1 1.5 0l1.4 1.4-2.8 2.8z"/><path d="M9.2 6.8c0-.5-.4-.9-.9-.9H7.1V4.4c0-.5-.4-.9-.9-.9s-1 .4-1 .9v2.4c0 .5.4.9.9.9h2.2c.5 0 .9-.4.9-.9z"/></svg>