<svg xmlns="http://www.w3.org/2000/svg" viewBox="0 0 24 24"><path d="M9.4 10c.6 0 1.1-.5 1.1-1.1S10 7.8 9.4 7.8c-.6 0-1.1.5-1.1 1.1S8.8 10 9.4 10zm4.6 0c.6 0 1.1-.5 1.1-1.1s-.5-1.2-1.1-1.2-1.1.5-1.1 1.1.5 1.2 1.1 1.2zm-2.3 1.2c-1.6 0-3.1.8-4 2.1-.3.5-.2 1.1.2 1.4.5.3 1.1.2 1.4-.3.9-1.3 2.7-1.7 4-.8.3.2.6.5.8.8.3.5.9.6 1.4.2.4-.3.6-.9.3-1.4-.9-1.3-2.5-2-4.1-2zm11.8-.9l-2.6-2.6c-.3-.3-.6-.4-1-.2-1.5.5-3.1-.4-3.5-1.9-.2-.5-.2-1.1 0-1.6.1-.4 0-.7-.2-1L13.6.4c-.4-.4-1-.4-1.4 0L.3 12.2c-.4.4-.4 1 0 1.4l2.6 2.6c.3.3.6.4 1 .2 1.5-.4 3.1.4 3.5 1.9.2.5.2 1.1 0 1.6-.1.4 0 .7.2 1l2.6 2.6c.4.4 1 .4 1.4 0l11.8-11.8c.5-.4.5-1 .1-1.4zM11 21.4l-1.5-1.5c.4-2.6-1.3-5.1-4-5.5-.5-.1-1-.1-1.6 0l-1.5-1.5L12.9 2.5 14.4 4c-.4 2.6 1.3 5.1 4 5.5.5.1 1 .1 1.6 0l1.5 1.5L11 21.4z"/></svg>