<svg xmlns="http://www.w3.org/2000/svg" viewBox="0 0 24 24"><path d="M21 18.6v-3.3c0-1.7-1.3-3-3-3h-5v-2.1c2.1-.6 3.4-2.7 2.9-4.9-.6-2.1-2.7-3.4-4.9-2.9S7.6 5.1 8.1 7.3c.4 1.4 1.5 2.5 2.9 2.9v2.1H6c-1.7 0-3 1.3-3 3v3.3c-1 .6-1.3 1.8-.7 2.7.5 1 1.7 1.3 2.7.7s1.3-1.8.7-2.7c-.1-.3-.4-.5-.7-.7v-3.3c0-.6.4-1 1-1h5v4.3c-1 .6-1.3 1.8-.7 2.7.6 1 1.8 1.3 2.7.7s1.3-1.8.7-2.7c-.2-.3-.4-.6-.7-.7v-4.3h5c.6 0 1 .4 1 1v3.3c-1 .6-1.3 1.8-.7 2.7.6 1 1.8 1.3 2.7.7s1.3-1.8.7-2.7c-.1-.3-.4-.5-.7-.7zM10 6.3c0-1.1.9-2 2-2s2 .9 2 2-.9 2-2 2-2-.9-2-2z"/></svg>