<svg xmlns="http://www.w3.org/2000/svg" viewBox="0 0 24 24"><g transform="translate(0 5)"><circle cx="6.5" cy="7.9" r="1"/><circle cx="18" cy="7.9" r="1"/><path d="M6.6 5.1c-1.5 0-2.8 1.2-2.8 2.8s1.2 2.8 2.8 2.8 2.8-1.2 2.8-2.8-1.2-2.8-2.8-2.8zm0 4.7c-1 0-1.9-.8-1.9-1.9S5.6 6 6.6 6s1.9.9 1.9 1.9-.8 1.9-1.9 1.9z"/><path d="M23.9 2.3h-3.8C17.8.9 15.2.1 12.5.2 9.7.1 7 .8 4.6 2.3H.9c.6.7 1 1.4 1.1 2.3-1.9 2.5-1.5 6.1 1.1 8s6.1 1.5 8-1.1c.5.6.9 1.2 1.3 1.8 0 0 .8-1.2 1.3-1.8 1.9 2.5 5.5 3 8 1s3-5.5 1-8c.3-.8.7-1.5 1.2-2.2zM6.7 12.5c-2.5 0-4.6-2.1-4.6-4.6 0-2.5 2.1-4.6 4.6-4.6 2.5 0 4.6 2.1 4.6 4.6 0 2.6-2.1 4.6-4.6 4.6zm0-10.3c1.8-.8 3.8-1.1 5.8-1.1 1.9 0 3.8.4 5.5 1.1-3.1.1-5.5 2.6-5.5 5.7-.1-3.1-2.6-5.7-5.8-5.7zm11.4 10.3c-2.5 0-4.6-2.1-4.6-4.6 0-2.5 2.1-4.6 4.6-4.6 2.5 0 4.6 2.1 4.6 4.6 0 2.6-2 4.6-4.6 4.6z"/><path d="M18.1 5.1c-1.5 0-2.8 1.2-2.8 2.8s1.2 2.8 2.8 2.8c1.5 0 2.8-1.2 2.8-2.8s-1.2-2.8-2.8-2.8zm0 4.7c-1.1 0-1.9-.9-1.9-1.9S17.1 6 18.1 6s1.9.9 1.9 1.9c0 1-.8 1.9-1.9 1.9z"/></g></svg>