<svg viewBox="0 0 26 26"><path class="icon__shape" d="M24 6.74L20.38 3.1a1 1 0 0 0-1.38 0l-6.37 6.33-2.1-2.11L12 5.89a1 1 0 0 0 0-1.41L8.62 1.14a1 1 0 0 0-1.41 0L3.32 5a7.63 7.63 0 0 0-2.2 4.81 5.23 5.23 0 0 0 1.67 3.81 1 1 0 0 0 1.41 0l2.4-2.37 2.11 2.11-4.06 4.06a1.87 1.87 0 0 0-.2.34L2.92 23v.08a1.24 1.24 0 0 0 0 .4v.08a1 1 0 0 0 .06.12.78.78 0 0 0 .22.32l.07.07a1 1 0 0 0 .32.17 1 1 0 0 0 .27 0 1 1 0 0 0 .27 0l5.11-1.47a1.86 1.86 0 0 0 .34-.2l4.06-4.06 5.77 5.77a1 1 0 0 0 1.41 0l2.51-2.51a1 1 0 0 0 0-1.41l-5.77-5.77L24 8.15a1 1 0 0 0 0-1.41zm-20.42 4.7a3 3 0 0 1-.46-1.59 5.66 5.66 0 0 1 1.61-3.41l3.18-3.18 1.93 1.92zM8 9.83l1.1-1.1 2.11 2.11-1.1 1.1zm.45 11l-3.12.9.9-3.12.5-.5L9 20.37zm12.88.17l-1.1 1.1-5.05-5.1 1.1-1.1zm-10.94-2l-2.23-2.27L16.9 8l2.23 2.23zM20.54 8.81l-2.23-2.23 1.36-1.36 2.23 2.22z"/></svg>