<svg viewBox="0 0 26 26"><path  d="M24,6.74,20.38,3.1A1,1,0,0,0,19,3.1L12.63,9.43,10.53,7.32,12,5.89a1,1,0,0,0,0-1.41L8.62,1.14a1,1,0,0,0-1.41,0L3.32,5a7.63,7.63,0,0,0-2.2,4.81,5.23,5.23,0,0,0,1.67,3.81,1,1,0,0,0,1.41,0L6.6,11.25l2.11,2.11L4.65,17.42l0,0a1.87,1.87,0,0,0-.2.34l0,0L2.92,23s0,.05,0,.08a1.24,1.24,0,0,0,0,.4s0,.05,0,.08a1,1,0,0,0,.06.12.78.78,0,0,0,.22.32l.07.07a1,1,0,0,0,.32.17h0a1,1,0,0,0,.27,0h0a1,1,0,0,0,.27,0l5.11-1.47,0,0a1.86,1.86,0,0,0,.34-.2l0,0,4.06-4.06,5.77,5.77a1,1,0,0,0,1.41,0l2.51-2.51a1,1,0,0,0,0-1.41l-5.77-5.77L24,8.15A1,1,0,0,0,24,6.74ZM3.58,11.44a3,3,0,0,1-.46-1.59A5.66,5.66,0,0,1,4.73,6.44L7.91,3.26,9.84,5.18ZM8,9.83l1.1-1.1,2.11,2.11-1.1,1.1Zm.45,11-3.12.9.9-3.12.5-.5L9,20.37ZM21.33,21l-1.1,1.1L15.18,17l1.1-1.1ZM10.39,19,8.16,16.73,16.9,8l2.23,2.23ZM20.54,8.81,18.31,6.58l1.36-1.36L21.9,7.44Z"/></svg>
