<svg data-name="Layer 1" viewBox="0 0 26 26"><path d="M18.8 4.2h-12a4 4 0 0 0-4 4v10a4 4 0 0 0 4 4h12a4 4 0 0 0 4-4v-10a4 4 0 0 0-4-4zm-14 4a2 2 0 0 1 2-2h12a2 2 0 0 1 2 2v2.3h-16zm16 10a2 2 0 0 1-2 2h-12a2 2 0 0 1-2-2v-5.7h16z"/><path d="M8.51 7.69a1 1 0 0 0-1.41 0 .87.87 0 0 0-.22.31 1 1 0 0 0-.08.39 1 1 0 0 0 .08.38.87.87 0 0 0 .22.32 1 1 0 0 0 .7.29 1 1 0 0 0 .38-.07.92.92 0 0 0 .33-.22 1 1 0 0 0 .21-.32.84.84 0 0 0 .08-.37.89.89 0 0 0-.08-.4 1 1 0 0 0-.21-.31zm9.29-.29h-7a1 1 0 1 0 0 2h7a1 1 0 0 0 0-2z"/></svg>