<svg id="Layer_1" data-name="Layer 1" xmlns="http://www.w3.org/2000/svg" viewBox="0 0 21 19"><defs><style>.cls-1{fill:#1d1d1d;}</style></defs><title>Comments copy</title><rect class="cls-1" x="4" y="4" width="13" height="1"/><rect class="cls-1" x="4" y="7" width="13" height="1"/><rect class="cls-1" x="4" y="10" width="13" height="1"/><path class="cls-1" d="M18,2a1.17,1.17,0,0,1,1,1v9a1.17,1.17,0,0,1-1,1H9a1,1,0,0,0-.71.29l-3,3a2.68,2.68,0,0,1-.29.26V14a1,1,0,0,0-1-1H3a1.17,1.17,0,0,1-1-1V3A1.17,1.17,0,0,1,3,2H18m0-1H3A2.15,2.15,0,0,0,1,3v9a2.15,2.15,0,0,0,2,2H4v3c0,.5.25.75.62.75A2.17,2.17,0,0,0,6,17l3-3h9a2.15,2.15,0,0,0,2-2V3a2.15,2.15,0,0,0-2-2Z"/></svg>