<svg id="Layer_1" data-name="Layer 1" xmlns="http://www.w3.org/2000/svg" viewBox="0 0 21 17">
  <title>Picture</title>
  <path class="icon-sprite__shape" fill="#1d1d1d" d="M18,4H15.48L15,3c-.52-1.06-.9-2-2-2H8c-1.1,0-1.67.9-2,2L5.63,4H3A2,2,0,0,0,1,6v8a2,2,0,0,0,2,2H18a2,2,0,0,0,2-2V6A2,2,0,0,0,18,4Zm1,10a1,1,0,0,1-1,1H3a1,1,0,0,1-1-1V6A1,1,0,0,1,3,5H6.32l.24-.65.38-1V3.29C7.34,2,7.8,2,8,2h5c.34,0,.5.19,1,1.22l.1.21.48,1,.27.57H18a1,1,0,0,1,1,1Z"/>
  <path class="icon-sprite__shape" fill="#1d1d1d" d="M10.79,6A3.51,3.51,0,1,0,14.3,9.5,3.51,3.51,0,0,0,10.79,6Zm0,6A2.51,2.51,0,1,1,13.3,9.5,2.51,2.51,0,0,1,10.79,12Z"/>
  <circle class="icon-sprite__shape" fill="#1d1d1d" cx="17" cy="8" r="1"/>
</svg>
