<svg viewBox="0 0 21.62 20.52"><defs><style>.cls-1{fill:none;}.cls-1,.cls-2{stroke:#1d1d1d;stroke-linecap:round;stroke-linejoin:round;stroke-width:2px;}.cls-2{fill:#1d1d1d;}</style></defs><path class="cls-1" d="M2.21,8.66a12.42,12.42,0,0,0-.9,1.5"/><path class="cls-1" d="M20.36,10.17A10.81,10.81,0,0,0,10.84,4,10,10,0,0,0,6,5.25"/><path class="cls-1" d="M10.84,16.67a9.94,9.94,0,0,1-1.1-.06,11,11,0,0,1-8.43-6.14"/><path class="cls-1" d="M20.36,10.48a11.6,11.6,0,0,1-4.68,4.94"/><path class="cls-2" d="M8.84,8.57a2.65,2.65,0,1,1,3.87,3.62"/><line class="cls-1" x1="1.56" y1="1.29" x2="19.62" y2="19.35"/></svg>
