<svg viewBox="0 0 18.5 22"><path fill="#1d1d1d" class="icon__shape" d="M9.3 17.4c-.4 0-.7 0-1-.1-3.5-.5-6.5-2.6-8-5.8-.1-.2-.1-.4-.1-.6 0-.2 0-.4.1-.6.2-.5.5-1 .8-1.4.3-.3.9-.5 1.4-.1.4.3.5.9.2 1.4-.2.3-.4.6-.5.8 1.3 2.4 3.6 4 6.3 4.4h.8c.6 0 1 .4 1 1s-.5 1-1 1zm4.1-1.1c-.3 0-.7-.2-.9-.5-.3-.5-.1-1.1.4-1.4 1.5-.8 2.6-2 3.4-3.5-1.4-2.6-4.1-4.3-7.1-4.4-1.2.1-2.5.4-3.6 1-.5.3-1.1.1-1.3-.3-.3-.5-.1-1.1.3-1.4C6 5 7.6 4.6 9.3 4.6c3.9.1 7.4 2.3 9 5.8.1.2.1.4.1.6 0 .2 0 .4-.1.6-1 2-2.5 3.6-4.4 4.6-.2.1-.3.1-.5.1z"/><path fill="#1d1d1d" class="icon__shape" d="M7.5 9.5c.8-.9 2.3-1 3.2-.2s1 2.3.2 3.2l-.1.1"/><path fill="#1d1d1d" class="icon__shape" d="M10.8 13.6c-.3 0-.5-.1-.7-.3-.4-.4-.4-1 0-1.4.2-.3.4-.6.3-.9 0-.3-.2-.6-.4-.9-.5-.5-1.3-.4-1.8.1-.4.4-1 .4-1.4.1-.4-.4-.4-1-.1-1.4.6-.6 1.4-1 2.3-1.1.9 0 1.7.3 2.4.8s1 1.4 1.1 2.3-.3 1.7-.8 2.4l-.1.1c-.2.1-.5.2-.8.2z"/><path fill="#1d1d1d" class="icon__shape" d="M16.7 19.7c-.3 0-.5-.1-.7-.3L.6 4c-.4-.4-.4-1 0-1.4s1-.4 1.4 0L17.5 18c.4.4.4 1 0 1.4-.2.2-.5.3-.8.3z"/></svg>