<svg viewBox="0 0 18.5 22">
	<path fill="#1d1d1d" class="icon__shape" d="M9.3,17.4c-0.4,0-0.7,0-1-0.1c-3.5-0.5-6.5-2.6-8-5.8c-0.1-0.2-0.1-0.4-0.1-0.6c0-0.2,0-0.4,0.1-0.6
		c0.2-0.5,0.5-1,0.8-1.4C1.4,8.6,2,8.4,2.5,8.8C2.9,9.1,3,9.7,2.7,10.2c-0.2,0.3-0.4,0.6-0.5,0.8c1.3,2.4,3.6,4,6.3,4.4
		c0.2,0,0.5,0,0.8,0c0.6,0,1,0.4,1,1S9.8,17.4,9.3,17.4z M13.4,16.3c-0.3,0-0.7-0.2-0.9-0.5c-0.3-0.5-0.1-1.1,0.4-1.4
		c1.5-0.8,2.6-2,3.4-3.5c-1.4-2.6-4.1-4.3-7.1-4.4C8,6.6,6.7,6.9,5.6,7.5C5.1,7.8,4.5,7.6,4.3,7.2C4,6.7,4.2,6.1,4.6,5.8
		C6,5,7.6,4.6,9.3,4.6c3.9,0.1,7.4,2.3,9,5.8c0.1,0.2,0.1,0.4,0.1,0.6c0,0.2,0,0.4-0.1,0.6c-1,2-2.5,3.6-4.4,4.6
		C13.7,16.3,13.6,16.3,13.4,16.3z"/>
	<path fill="#1d1d1d" class="icon__shape" d="M7.5,9.5c0.8-0.9,2.3-1,3.2-0.2s1,2.3,0.2,3.2c0,0,0,0-0.1,0.1"/>
	<path fill="#1d1d1d" class="icon__shape" d="M10.8,13.6c-0.3,0-0.5-0.1-0.7-0.3c-0.4-0.4-0.4-1,0-1.4c0.2-0.3,0.4-0.6,0.3-0.9c0-0.3-0.2-0.6-0.4-0.9
		c-0.5-0.5-1.3-0.4-1.8,0.1c-0.4,0.4-1,0.4-1.4,0.1c-0.4-0.4-0.4-1-0.1-1.4c0.6-0.6,1.4-1,2.3-1.1c0.9,0,1.7,0.3,2.4,0.8
		s1,1.4,1.1,2.3s-0.3,1.7-0.8,2.4c0,0-0.1,0.1-0.1,0.1C11.4,13.5,11.1,13.6,10.8,13.6z"/>
	<path fill="#1d1d1d" class="icon__shape" d="M16.7,19.7c-0.3,0-0.5-0.1-0.7-0.3L0.6,4c-0.4-0.4-0.4-1,0-1.4s1-0.4,1.4,0L17.5,18c0.4,0.4,0.4,1,0,1.4
		C17.3,19.6,17,19.7,16.7,19.7z"/>
</svg>
