<svg viewBox="0 0 21.62 20.52"><defs><style>.cls-1,.cls-2{fill:none;stroke:#1d1d1d;stroke-linecap:round;stroke-linejoin:round;stroke-width:2px}.cls-2{fill:#1d1d1d}</style></defs><path class="cls-1" d="M2.21 8.66a12.42 12.42 0 0 0-.9 1.5m19.05.01A10.81 10.81 0 0 0 10.84 4 10 10 0 0 0 6 5.25m4.84 11.42a9.94 9.94 0 0 1-1.1-.06 11 11 0 0 1-8.43-6.14m19.05.01a11.6 11.6 0 0 1-4.68 4.94"/><path class="cls-2" d="M8.84 8.57a2.65 2.65 0 1 1 3.87 3.62"/><path class="cls-1" d="M1.56 1.29l18.06 18.06"/></svg>