<svg viewBox="0 0 24 26">
  <path fill="#1d1d1d" class="icon__shape" d="M15.28,18a1,1,0,0,0-1.23.7,4.36,4.36,0,1,1-6.53-4.85,1,1,0,1,0-1.07-1.69A6.36,6.36,0,1,0,16,19.19,1,1,0,0,0,15.28,18Z"/>
  <path fill="#1d1d1d" class="icon__shape" d="M20.46,20.42l-3.14-5a1,1,0,0,0-.85-.47H13.74L14.62,12c.52-1.82.38-3.21-.43-4.13a3.42,3.42,0,0,0-2.94-1h0l-4,.5a1,1,0,0,0-.54.25l-3.14,2.8a1,1,0,0,0,1.33,1.49l2.9-2.59L10,9,8,15.53a1,1,0,0,0,0,.31s0,0,0,.07a1,1,0,0,0,1,1h6.95l2.84,4.57a1,1,0,1,0,1.7-1.06Zm-7.76-9-1.05,3.5H10.29l1.81-6a1,1,0,0,1,.58.29C13,9.52,13,10.34,12.7,11.4Z"/><circle cx="14.41" cy="4.23" r="2.08"/>
</svg>
