<svg id="Layer_1" viewBox="0 0 26 26"><style>.st0{fill:#231f20}</style><path class="st0" d="M10.7 10.6H9.1l.8-2.2.8 2.2zm.8 2.4h1.4l-2.2-6.1H9.2L7 13h1.3l.5-1.4H11l.5 1.4zm5.8-2.9c0 1.3-.7 1.8-1.5 1.8h-1.2V8h.9c1.4 0 1.8.8 1.8 2.1m1.3-.2c0-2-1.2-3-2.7-3h-2.6V13h2.6c1.8 0 2.7-1.3 2.7-3.1m2.1 6.1c0 1.2-.6 1.8-1.8 1.8h-1.7v3.8l-3.8-3.8H6.6c-1.2 0-1.8-.6-1.8-1.8V3.6c0-1.2.6-1.8 1.8-1.8h12.3c1.2 0 1.8.6 1.8 1.8V16zm1.7.9V2.7c0-1.5-1.2-2.7-2.7-2.7h-14C4.3 0 3.1 1.2 3.1 2.7v14.2c0 1.5 1.2 2.7 2.7 2.7h6.9L19 26v-6.4h.9c1.4 0 2.5-1.2 2.5-2.7"/></svg>