<svg viewBox="0 0 26 26"><path fill="#1d1d1d" class="icon__shape" d="M21 3.22H5.11a4 4 0 0 0-4 4v12a4 4 0 0 0 4 4H21a4 4 0 0 0 4-4v-12a4 4 0 0 0-4-4zm2 16a2 2 0 0 1-2 2H5.11a2 2 0 0 1-2-2v-12a2 2 0 0 1 2-2H21a2 2 0 0 1 2 2z"/><path fill="#1d1d1d" class="icon__shape" d="M7.82 8.62L4 18.1l1.62.67.5-1.22c.18-.41.39-.71.69-.71h3.34c.3 0 .5.3.68.71l.5 1.22L13 18.1 9.16 8.62zm2.12 6.55h-2.9s.17-.34.26-.58l.84-2.26c.13-.35.31-1.14.31-1.14h.06s.19.79.31 1.14l.84 2.26c.11.24.28.58.28.58zm7.41-6.55H13.8v10h3.55c2.83 0 4.26-1.94 4.26-5s-1.43-5-4.26-5zm0 8.25h-1.72v-6.54h1.72c1.53 0 2.43.92 2.43 3.29s-.92 3.26-2.43 3.26z"/></svg>