<svg viewBox="0 0 26 26"><path fill="#1d1d1d" class="icon__shape" d="M10.16 10.57a2.25 2.25 0 0 1 4.5 0 1 1 0 0 0 2 0 4.25 4.25 0 0 0-8.5 0 1 1 0 0 0 2 0zM11.18 13.33a1 1 0 0 0-1.41 0l-6.35 6.35a1 1 0 1 0 1.41 1.41l6.35-6.35a1 1 0 0 0 0-1.41zM22.78 1.73a1 1 0 0 0-1.41 0l-2.21 2.21a1 1 0 1 0 1.41 1.41l2.21-2.21a1 1 0 0 0 0-1.41z"/><path fill="#1d1d1d" class="icon__shape" d="M12.41 2.72a7.68 7.68 0 0 0-7.67 7.67 1 1 0 0 0 2 0 5.67 5.67 0 1 1 9.18 4.45l-1.53 1.24a6.47 6.47 0 0 0-1.76 4.48v.33c0 .86-.48 1.5-.92 1.5H10.4a1 1 0 1 0 0 2h1.32a3.25 3.25 0 0 0 2.92-3.5v-.33a4.67 4.67 0 0 1 1-2.95l1.5-1.22a7.67 7.67 0 0 0-4.73-13.67z"/></svg>