<svg viewBox="0 0 26 26">
  <path fill="#1d1d1d" class="icon__shape" d="M21,3.22H5.11a4,4,0,0,0-4,4v12a4,4,0,0,0,4,4H21a4,4,0,0,0,4-4v-12A4,4,0,0,0,21,3.22Zm2,16a2,2,0,0,1-2,2H5.11a2,2,0,0,1-2-2v-12a2,2,0,0,1,2-2H21a2,2,0,0,1,2,2Z"/>
  <path fill="#1d1d1d" class="icon__shape" d="M7.82,8.62,4,18.1l1.62.67.5-1.22c.18-.41.39-.71.69-.71h3.34c.3,0,.5.3.68.71l.5,1.22L13,18.1,9.16,8.62Zm2.12,6.55s-.36,0-.54,0H7.58c-.18,0-.54,0-.54,0s.17-.34.26-.58l.84-2.26c.13-.35.31-1.14.31-1.14h.06s.19.79.31,1.14l.84,2.26C9.77,14.83,9.94,15.17,9.94,15.17Z"/>
  <path fill="#1d1d1d" class="icon__shape" d="M17.35,8.62H13.8v10h3.55c2.83,0,4.26-1.94,4.26-5S20.18,8.62,17.35,8.62Zm0,8.25H15.63V10.33h1.72c1.53,0,2.43.92,2.43,3.29S18.86,16.88,17.35,16.88Z"/>
</svg>
