<svg viewBox="0 0 26.67 20.33"><defs><style>.cls-1{fill:none;stroke:#1d1d1d;stroke-linecap:round;stroke-linejoin:round;stroke-width:2px}</style></defs><rect class="cls-1" x="1.15" y="1.21" width="24.4" height="18" rx="3" ry="3"/><path fill="#1d1d1d" class="icon__shape" d="M13.52 15.1l-1.62.67-.5-1.22c-.17-.41-.38-.71-.68-.71H7.39c-.3 0-.51.3-.69.71l-.5 1.22-1.62-.67 3.81-9.49h1.35zm-3.27-3.51l-.84-2.26C9.28 9 9.1 8.19 9.1 8.19H9s-.15.81-.28 1.14l-.84 2.26c-.09.24-.26.58-.26.58h2.92s-.2-.35-.29-.59zM18 15.57h-3.53v-10H18c2.83 0 4.26 1.93 4.26 5s-1.41 5-4.26 5zm0-8.25h-1.7v6.55H18c1.52 0 2.43-.92 2.43-3.26S19.55 7.32 18 7.32z"/></svg>