<svg viewBox="0 0 24 26">
  <path fill="#1d1d1d" class="icon__shape" d="M20,3.22H4.11a4,4,0,0,0-4,4v12a4,4,0,0,0,4,4H20a4,4,0,0,0,4-4v-12A4,4,0,0,0,20,3.22Zm2,16a2,2,0,0,1-2,2H4.11a2,2,0,0,1-2-2v-12a2,2,0,0,1,2-2H20a2,2,0,0,1,2,2Z"/>
  <path fill="#1d1d1d" class="icon__shape" d="M6.82,8.62,3,18.1l1.62.67.5-1.22c.18-.41.39-.71.69-.71H9.15c.3,0,.5.3.68.71l.5,1.22L12,18.1,8.16,8.62Zm2.12,6.55s-.36,0-.54,0H6.58c-.18,0-.54,0-.54,0s.17-.34.26-.58l.84-2.26c.13-.35.31-1.14.31-1.14h.06s.19.79.31,1.14l.84,2.26C8.77,14.83,8.94,15.17,8.94,15.17Z"/>
  <path fill="#1d1d1d" class="icon__shape" d="M16.35,8.62H12.8v10h3.55c2.83,0,4.26-1.94,4.26-5S19.18,8.62,16.35,8.62Zm0,8.25H14.63V10.33h1.72c1.53,0,2.43.92,2.43,3.29S17.86,16.88,16.35,16.88Z"/>
</svg>
