<svg viewBox="0 0 26 26">
  <path fill="#1d1d1d" class="icon__shape" d="M19,13.78,13.34,8.12a1,1,0,0,0-1.41,1.41l1.77,1.77-.3.3a4,4,0,0,0,0,5.66l.83.82a1,1,0,0,0,1.41-1.42l-.83-.82a2,2,0,0,1,0-2.83l.31-.31,2.48,2.47a2,2,0,0,1,0,2.83l-4.24,4.24a2,2,0,0,1-2.83,0L4.08,15.84a1,1,0,1,0-1.41,1.41l6.42,6.42a3.89,3.89,0,0,0,3.9,1,4,4,0,0,0,5.29-.3L19.7,23a4,4,0,0,0,.3-5.29A4,4,0,0,0,19,13.78Zm-.71,7.78L16.87,23a2,2,0,0,1-1.91.5l3.84-3.84A2,2,0,0,1,18.29,21.56Z"/>
  <path fill="#1d1d1d" class="icon__shape" d="M7.29,17.71A1,1,0,0,0,8.7,16.29L4.46,12A1,1,0,0,0,3,13.46Z"/>
  <path fill="#1d1d1d" class="icon__shape" d="M8.7,14.88a1,1,0,1,0,1.41-1.41l-5-4.95A1,1,0,0,0,3.75,9.93Z"/>
  <path fill="#1d1d1d" class="icon__shape" d="M10.82,12.76a1,1,0,0,0,1.41-1.41l-5-4.95A1,1,0,0,0,5.87,7.81Z"/>
  <path fill="#1d1d1d" class="icon__shape" d="M15.21.44a1,1,0,0,0,0,2,6.51,6.51,0,0,1,6.5,6.5,1,1,0,0,0,2,0A8.51,8.51,0,0,0,15.21.44Z"/>
  <path fill="#1d1d1d" class="icon__shape" d="M14.21,6.35A3.59,3.59,0,0,1,17.8,9.94a1,1,0,1,0,2,0,5.6,5.6,0,0,0-5.59-5.59,1,1,0,0,0,0,2Z"/>
</svg>
