<svg viewBox="0 0 26 26"><path fill="#1d1d1d" class="icon__shape" d="M19 13.78l-5.66-5.66a1 1 0 0 0-1.41 1.41l1.77 1.77-.3.3a4 4 0 0 0 0 5.66l.83.82a1 1 0 0 0 1.41-1.42l-.83-.82a2 2 0 0 1 0-2.83l.31-.31 2.48 2.47a2 2 0 0 1 0 2.83l-4.24 4.24a2 2 0 0 1-2.83 0l-6.45-6.4a1 1 0 1 0-1.41 1.41l6.42 6.42a3.89 3.89 0 0 0 3.9 1 4 4 0 0 0 5.29-.3L19.7 23a4 4 0 0 0 .3-5.29 4 4 0 0 0-1-3.93zm-.71 7.78L16.87 23a2 2 0 0 1-1.91.5l3.84-3.84a2 2 0 0 1-.51 1.9z"/><path fill="#1d1d1d" class="icon__shape" d="M7.29 17.71a1 1 0 0 0 1.41-1.42L4.46 12A1 1 0 0 0 3 13.46zM8.7 14.88a1 1 0 1 0 1.41-1.41l-5-4.95a1 1 0 0 0-1.36 1.41zM10.82 12.76a1 1 0 0 0 1.41-1.41l-5-4.95a1 1 0 0 0-1.36 1.41zM15.21.44a1 1 0 0 0 0 2 6.51 6.51 0 0 1 6.5 6.5 1 1 0 0 0 2 0 8.51 8.51 0 0 0-8.5-8.5z"/><path fill="#1d1d1d" class="icon__shape" d="M14.21 6.35a3.59 3.59 0 0 1 3.59 3.59 1 1 0 1 0 2 0 5.6 5.6 0 0 0-5.59-5.59 1 1 0 0 0 0 2z"/></svg>