<svg viewBox="0 0 26 26">
  <path fill="#1d1d1d" class="icon__shape" d="M21,3.18H5.1a4,4,0,0,0-4,4v12a4,4,0,0,0,4,4H21a4,4,0,0,0,4-4v-12A4,4,0,0,0,21,3.18Zm2,16a2,2,0,0,1-2,2H5.1a2,2,0,0,1-2-2v-12a2,2,0,0,1,2-2H21a2,2,0,0,1,2,2Z"/>
  <path fill="#1d1d1d" class="icon__shape" d="M9.2,16.78c-1.47,0-2.42-1-2.42-3.42S7.72,9.92,9.2,9.92a2.75,2.75,0,0,1,2.08.93l1.13-1.28A4.38,4.38,0,0,0,9.2,8.21c-2.88,0-4.25,2.16-4.25,5.14s1.38,5.13,4.25,5.13a4.16,4.16,0,0,0,3.31-1.58L11.3,15.81A2.63,2.63,0,0,1,9.2,16.78Z"/>
  <path fill="#1d1d1d" class="icon__shape" d="M17.57,16.78c-1.47,0-2.42-1-2.42-3.42s.94-3.44,2.42-3.44a2.75,2.75,0,0,1,2.08.93l1.13-1.28a4.38,4.38,0,0,0-3.21-1.35c-2.88,0-4.25,2.16-4.25,5.14s1.38,5.13,4.25,5.13a4.16,4.16,0,0,0,3.31-1.58l-1.22-1.09A2.63,2.63,0,0,1,17.57,16.78Z"/>
</svg>
