<svg viewBox="0 0 26.96 20.25"><defs><style>.cls-1{fill:none;stroke:#1d1d1d;stroke-linecap:round;stroke-linejoin:round;stroke-width:2px;}</style></defs><rect class="cls-1" x="1.44" y="1.17" width="24.4" height="18" rx="3" ry="3"/><path class="icon__shape" fill="#1d1d1d" d="M12.81,14.14A4.16,4.16,0,0,1,9.5,15.72c-2.87,0-4.25-2.15-4.25-5.13S6.62,5.45,9.5,5.45A4.38,4.38,0,0,1,12.71,6.8L11.58,8.08A2.75,2.75,0,0,0,9.5,7.15c-1.48,0-2.42,1-2.42,3.44S8,14,9.5,14a2.63,2.63,0,0,0,2.09-1Z"/><path class="icon__shape" fill="#1d1d1d" d="M21.38,14.14a4.16,4.16,0,0,1-3.31,1.58c-2.87,0-4.25-2.15-4.25-5.13s1.37-5.14,4.25-5.14A4.38,4.38,0,0,1,21.28,6.8L20.15,8.08a2.75,2.75,0,0,0-2.08-.93c-1.48,0-2.42,1-2.42,3.44s1,3.42,2.42,3.42a2.63,2.63,0,0,0,2.09-1Z"/></svg>
