<svg viewBox="0 0 24 26">
  <path fill="#1d1d1d" class="icon__shape" d="M17,1.45H6.6a4,4,0,0,0-4,4v18.3a1,1,0,0,0,2,0V5.45a2,2,0,0,1,2-2H17a2,2,0,0,1,2,2v18.3a1,1,0,1,0,2,0V5.45A4,4,0,0,0,17,1.45Z"/>
  <path fill="#1d1d1d" class="icon__shape" d="M14.42,9.2H9.17a2.43,2.43,0,0,0-2.43,2.43V16.1a1,1,0,1,0,2,0V11.63a.43.43,0,0,1,.43-.43h5.25a.43.43,0,0,1,.43.43V16.1a1,1,0,0,0,2,0V11.63A2.43,2.43,0,0,0,14.42,9.2Z"/><circle cx="11.8" cy="6.32" r="2.08"/>
  <path fill="#1d1d1d" class="icon__shape" d="M10.42,15.35a1,1,0,0,0-1,1v7.4a1,1,0,1,0,2,0v-7.4A1,1,0,0,0,10.42,15.35Z"/>
  <path fill="#1d1d1d" class="icon__shape" d="M13.42,15.35a1,1,0,0,0-1,1v7.4a1,1,0,1,0,2,0v-7.4A1,1,0,0,0,13.42,15.35Z"/>
</svg>
