<svg viewBox="0 0 18.5 22">
  <path fill="#1d1d1d" class="icon__shape" d="M16,21.7c-0.6,0-1-0.4-1-1V4.1c0-0.9-0.8-1.7-1.7-1.7H5.2c-0.9,0-1.7,0.8-1.7,1.7v16.5c0,0.6-0.4,1-1,1
    s-1-0.4-1-1V4.1c0-2,1.7-3.7,3.7-3.7h8.1c2,0,3.7,1.7,3.7,3.7v16.5C17,21.2,16.6,21.7,16,21.7z"/>
  <path fill="#1d1d1d" class="icon__shape" d="M12.9,14.7c-0.6,0-1-0.4-1-1v-4c0-0.2-0.1-0.3-0.3-0.3H6.9c-0.2,0-0.3,0.1-0.3,0.3v4c0,0.6-0.4,1-1,1
    s-1-0.4-1-1v-4c0-1.3,1-2.3,2.3-2.3h4.7c1.3,0,2.3,1,2.3,2.3v4C13.9,14.3,13.5,14.7,12.9,14.7z"/>
  <circle fill="#1d1d1d" class="icon__shape" cx="9.2" cy="4.9" r="1"/>
  <path fill="#1d1d1d" class="icon__shape" d="M9.2,6.9c-1.1,0-2-0.9-2-2s0.9-2,2-2s2,0.9,2,2S10.3,6.9,9.2,6.9z M9.3,4.9L9.3,4.9C9.3,4.9,9.3,4.9,9.3,4.9z
    "/>
  <path fill="#1d1d1d" class="icon__shape" d="M10.7,21.7c-0.6,0-1-0.4-1-1V14c0-0.6,0.4-1,1-1s1,0.4,1,1v6.7C11.7,21.2,11.3,21.7,10.7,21.7z M8,21.7
    c-0.6,0-1-0.4-1-1V14c0-0.6,0.4-1,1-1s1,0.4,1,1v6.7C9,21.2,8.6,21.7,8,21.7z"/>
</svg>
