<svg viewBox="0 0 18.5 22"><path fill="#1d1d1d" class="icon__shape" d="M16 21.7c-.6 0-1-.4-1-1V4.1c0-.9-.8-1.7-1.7-1.7H5.2c-.9 0-1.7.8-1.7 1.7v16.5c0 .6-.4 1-1 1s-1-.4-1-1V4.1c0-2 1.7-3.7 3.7-3.7h8.1c2 0 3.7 1.7 3.7 3.7v16.5c0 .6-.4 1.1-1 1.1z"/><path fill="#1d1d1d" class="icon__shape" d="M12.9 14.7c-.6 0-1-.4-1-1v-4c0-.2-.1-.3-.3-.3H6.9c-.2 0-.3.1-.3.3v4c0 .6-.4 1-1 1s-1-.4-1-1v-4c0-1.3 1-2.3 2.3-2.3h4.7c1.3 0 2.3 1 2.3 2.3v4c0 .6-.4 1-1 1z"/><circle fill="#1d1d1d" class="icon__shape" cx="9.2" cy="4.9" r="1"/><path fill="#1d1d1d" class="icon__shape" d="M9.2 6.9c-1.1 0-2-.9-2-2s.9-2 2-2 2 .9 2 2-.9 2-2 2zm.1-2zM10.7 21.7c-.6 0-1-.4-1-1V14c0-.6.4-1 1-1s1 .4 1 1v6.7c0 .5-.4 1-1 1zm-2.7 0c-.6 0-1-.4-1-1V14c0-.6.4-1 1-1s1 .4 1 1v6.7c0 .5-.4 1-1 1z"/></svg>