<svg viewBox="0 0 22 25.5"><defs><style>.cls-1{fill:none;stroke:#1d1d1d;stroke-linecap:round;stroke-linejoin:round;stroke-width:2px}</style></defs><path class="cls-1" d="M13.15 17.11l-.82-.82a3 3 0 0 1 0-4.24l.53-.53M11.57 23.4a3 3 0 0 0 4.24 0l1.41-1.4a3 3 0 0 0 0-4.24"/><path class="cls-1" d="M10.86 8.55l5.66 5.66a3 3 0 0 1 0 4.24l-4.24 4.24a3 3 0 0 1-4.24 0l-6.43-6.42m.37-3.79l4.24 4.24M2.69 8.94l4.95 4.95M4.81 6.82l4.95 4.95m3.68-10.6a7.5 7.5 0 0 1 7.5 7.5m-8.5-3.59A4.59 4.59 0 0 1 17 9.67"/></svg>