<svg id="Layer_1" data-name="Layer 1" xmlns="http://www.w3.org/2000/svg" viewBox="0 0 29 19"><defs><style>.cls-1{fill:#231f20;fill-rule:evenodd;}</style></defs><title>Artboard 1 copy 19</title><path class="cls-1" d="M9.85,8.33v2.81H14.5a4.43,4.43,0,0,1-4.65,3.54,5.18,5.18,0,0,1,0-10.35,4.61,4.61,0,0,1,3.27,1.26l2.22-2.14A7.86,7.86,0,0,0,9.85,1.31a8.2,8.2,0,1,0,0,16.39c4.73,0,7.87-3.33,7.87-8a7.54,7.54,0,0,0-.13-1.36Z"/><polygon class="cls-1" points="27.41 8.33 25.07 8.33 25.07 5.99 22.73 5.99 22.73 8.33 20.39 8.33 20.39 10.68 22.73 10.68 22.73 13.02 25.07 13.02 25.07 10.68 27.41 10.68 27.41 8.33"/></svg>