<svg xmlns="http://www.w3.org/2000/svg" viewBox="0 0 19 19"><path class="icon-sprite__shape" fill="#1d1d1d" d="M17.95,6a6.24,6.24,0,0,0-.4-2.06,4.17,4.17,0,0,0-1-1.51,4.17,4.17,0,0,0-1.51-1A6.24,6.24,0,0,0,13,1.05C12.1,1,11.81,1,9.5,1S6.9,1,6,1.05a6.24,6.24,0,0,0-2.06.4,4.17,4.17,0,0,0-1.51,1,4.17,4.17,0,0,0-1,1.51A6.24,6.24,0,0,0,1.05,6C1,6.9,1,7.19,1,9.5s0,2.6.05,3.5a6.24,6.24,0,0,0,.4,2.06,4.35,4.35,0,0,0,2.49,2.49,6.24,6.24,0,0,0,2.06.4c.91,0,1.2.05,3.5.05s2.6,0,3.5-.05a6.24,6.24,0,0,0,2.06-.4,4.35,4.35,0,0,0,2.49-2.49,6.24,6.24,0,0,0,.4-2.06c0-.91.05-1.2.05-3.5S18,6.9,17.95,6Zm-1.53,6.94a4.7,4.7,0,0,1-.29,1.58,2.81,2.81,0,0,1-1.61,1.61,4.7,4.7,0,0,1-1.58.29c-.9,0-1.16,0-3.43,0s-2.54,0-3.43,0a4.7,4.7,0,0,1-1.58-.29,2.81,2.81,0,0,1-1.61-1.61,4.7,4.7,0,0,1-.29-1.58c0-.9,0-1.17,0-3.43s0-2.54,0-3.43a4.7,4.7,0,0,1,.29-1.58,2.63,2.63,0,0,1,.64-1,2.63,2.63,0,0,1,1-.64,4.7,4.7,0,0,1,1.58-.29c.9,0,1.17,0,3.43,0s2.54,0,3.43,0a4.7,4.7,0,0,1,1.58.29,2.82,2.82,0,0,1,1.61,1.61,4.7,4.7,0,0,1,.29,1.58c0,.9,0,1.17,0,3.43S16.46,12,16.42,12.93Z"/><path class="icon-sprite__shape" fill="#1d1d1d" d="M9.5,5.14A4.36,4.36,0,1,0,13.86,9.5,4.36,4.36,0,0,0,9.5,5.14Zm0,7.2A2.83,2.83,0,1,1,12.33,9.5,2.83,2.83,0,0,1,9.5,12.33Z"/><circle class="icon-sprite__shape" fill="#1d1d1d" cx="14.04" cy="4.96" r="1.02"/></svg>
