<svg viewBox="0 0 21 18"><path class="icon-sprite__shape" fill="#1d1d1d" d="M18.5 1h-16A1.5 1.5 0 0 0 1 2.5v13.06A1.45 1.45 0 0 0 2.5 17H10a.5.5 0 0 0 0-1H2.5a.45.45 0 0 1-.5-.44V2.5a.5.5 0 0 1 .5-.5h16a.5.5 0 0 1 .5.5v13a.5.5 0 0 1-.5.5H14v-3h.5a1.5 1.5 0 0 0 1.5-1.5v-2A1.5 1.5 0 0 0 14.5 8H14v-.5A2.5 2.5 0 0 0 11.5 5h-2A2.5 2.5 0 0 0 7 7.5V8h-.5A1.5 1.5 0 0 0 5 9.5v2A1.5 1.5 0 0 0 6.5 13H8V7.5A1.5 1.5 0 0 1 9.5 6h2A1.5 1.5 0 0 1 13 7.5v9a.5.5 0 0 0 .5.5h5a1.5 1.5 0 0 0 1.5-1.5v-13A1.5 1.5 0 0 0 18.5 1zM7 12h-.5a.5.5 0 0 1-.5-.5v-2a.5.5 0 0 1 .5-.5H7zm7.5-3a.5.5 0 0 1 .5.5v2a.5.5 0 0 1-.5.5H14V9z"/></svg>