<svg viewBox="0 0 21 16"><path class="icon-sprite__shape" fill="#1d1d1d" d="M18 1H3a2 2 0 0 0-2 2v10a2 2 0 0 0 2 2h15a2 2 0 0 0 2-2V3a2 2 0 0 0-2-2zm1 12a1 1 0 0 1-1 1H3a1 1 0 0 1-1-1V3a1 1 0 0 1 1-1h15a1 1 0 0 1 1 1z"/><path class="icon-sprite__shape" fill="#1d1d1d" d="M15.5 5.5a.5.5 0 0 0-.5.5v4a.5.5 0 0 0 1 0V6a.5.5 0 0 0-.5-.5zm-10-1A.5.5 0 0 0 5 5v6a.5.5 0 0 0 1 0V5a.5.5 0 0 0-.5-.5zm2 2A.5.5 0 0 0 7 7v2a.5.5 0 0 0 1 0V7a.5.5 0 0 0-.5-.5zm2-1A.5.5 0 0 0 9 6v4a.5.5 0 0 0 1 0V6a.5.5 0 0 0-.5-.5zm2-1a.5.5 0 0 0-.5.5v6a.5.5 0 0 0 1 0V5a.5.5 0 0 0-.5-.5zm2 2a.5.5 0 0 0-.5.5v2a.5.5 0 0 0 1 0V7a.5.5 0 0 0-.5-.5z"/></svg>