<svg viewBox="0 0 21 18"><path class="icon__shape" fill="#1d1d1d" d="M18.5 1h-4.88a3.93 3.93 0 0 0-3.12 2.21A3.93 3.93 0 0 0 7.38 1H2.5A1.51 1.51 0 0 0 1 2.52v11A1.47 1.47 0 0 0 2.5 15h4.88A2.81 2.81 0 0 1 10 16.67a.49.49 0 0 0 .15.19h.26a.5.5 0 0 0 .18 0l.09-.05a.49.49 0 0 0 .17-.22A2.82 2.82 0 0 1 13.62 15h4.88a1.47 1.47 0 0 0 1.5-1.48v-11A1.51 1.51 0 0 0 18.5 1zm.5 12.52a.48.48 0 0 1-.5.48h-4.88a3.76 3.76 0 0 0-3.12 1.51A3.75 3.75 0 0 0 7.38 14H2.5a.48.48 0 0 1-.5-.48v-11A.52.52 0 0 1 2.5 2h4.88C8.58 2 10 3.63 10 5v7a.5.5 0 0 0 1 0V5c0-1.4 1.4-3 2.62-3h4.88a.52.52 0 0 1 .5.52z"/></svg>