<svg viewBox="0 0 21 16"><path class="icon-sprite__shape" fill="#1d1d1d" d="M18 1H3a2 2 0 0 0-2 2v10a2 2 0 0 0 2 2h15a2 2 0 0 0 2-2V3a2 2 0 0 0-2-2zM3 2h15a1 1 0 0 1 1 1v9.78L17.17 11a2.54 2.54 0 0 0-2.17-.72 2.42 2.42 0 0 0-1.35.67l-.89.84-4.49-4.56a2.56 2.56 0 0 0-3.54 0L2 10V3a1 1 0 0 1 1-1zm0 12a1 1 0 0 1-1-1v-1.62l3.44-3.44a1.54 1.54 0 0 1 2.12 0L12 12.49a1 1 0 0 0 1.4 0l.9-.85a1.45 1.45 0 0 1 .65-.37 1.53 1.53 0 0 1 1.47.37l2.13 2.13A1 1 0 0 1 18 14z"/><path class="icon-sprite__shape" fill="#1d1d1d" d="M14.5 8.5a2 2 0 1 0-2-2 2 2 0 0 0 2 2zm0-3a1 1 0 1 1-1 1 1 1 0 0 1 1-1z"/></svg>