<svg viewBox="0 0 21 20"><path class="icon-sprite__shape" fill="#1d1d1d" d="M17.5 1a.5.5 0 0 0-.5.5V3H2.5A1.5 1.5 0 0 0 1 4.5v13a1.39 1.39 0 0 0 .38 1 2.53 2.53 0 0 0 1.85.5h.27a.5.5 0 0 0 .5-.5V17h13.5a2.49 2.49 0 0 0 2.5-2.25.48.48 0 0 0 0-.13V3.25A2.23 2.23 0 0 0 17.5 1zM19 3.25v9.28a2.49 2.49 0 0 0-1-.39V2a1.12 1.12 0 0 1 1 1.25zM3 18a1.57 1.57 0 0 1-.91-.18S2 17.73 2 17.5a.5.5 0 0 1 .5-.5H3zm14.5-2h-15a1.5 1.5 0 0 0-.5.09V4.5a.5.5 0 0 1 .5-.5H17v8.6a.5.5 0 0 0 .5.5 1.38 1.38 0 0 1 1.5 1.46A1.5 1.5 0 0 1 17.5 16z"/><path class="icon-sprite__shape" fill="#1d1d1d" d="M4.5 5.5A.5.5 0 0 0 4 6v8a.5.5 0 0 0 1 0V6a.5.5 0 0 0-.5-.5zm3 0A.5.5 0 0 0 7 6v8a.5.5 0 0 0 1 0V6a.5.5 0 0 0-.5-.5zm3 0a.5.5 0 0 0-.5.5v8a.5.5 0 0 0 1 0V6a.5.5 0 0 0-.5-.5zm3 0a.5.5 0 0 0-.5.5v8a.5.5 0 0 0 1 0V6a.5.5 0 0 0-.5-.5z"/></svg>