<svg viewBox="0 0 21 16"><path class="icon__shape" fill="#1d1d1d" d="M19.38 1.67A1.48 1.48 0 0 0 18 1.46l-4.34 1.46a.5.5 0 0 1-.32 0L8 1.13a1.51 1.51 0 0 0-.95 0L2.71 2.57A2.5 2.5 0 0 0 1 4.94v8.17a1.5 1.5 0 0 0 2 1.42l4.37-1.46a.5.5 0 0 1 .32 0l5.31 1.8a1.51 1.51 0 0 0 .95 0l4.32-1.44A2.5 2.5 0 0 0 20 11.06V2.89a1.48 1.48 0 0 0-.62-1.22zM2.66 13.59a.5.5 0 0 1-.66-.48V4.94a1.5 1.5 0 0 1 1-1.42l4-1.33V12a.47.47 0 0 0 0 .09zM19 11.06a1.5 1.5 0 0 1-1 1.42l-4 1.32V6a.5.5 0 0 0-1 0v7.85l-5-1.72A.48.48 0 0 0 8 12V2.19l5 1.68a1.51 1.51 0 0 0 .95 0l4.37-1.46a.5.5 0 0 1 .66.47z"/></svg>