<svg viewBox="0 0 19.5 23"><path fill="#1d1d1d" class="icon__shape" d="M15.2 19h-7c-2.2 0-4-1.8-4-4V4c0-2.2 1.8-4 4-4h5c.3 0 .5.1.7.3l5 5c.2.2.3.4.3.7v9c0 2.2-1.8 4-4 4zm-7-17c-1.1 0-2 .9-2 2v11c0 1.1.9 2 2 2h7c1.1 0 2-.9 2-2V6.4L12.8 2H8.2z"/><path fill="#1d1d1d" class="icon__shape" d="M11.2 23h-7c-2.2 0-4-1.8-4-4V8c0-2.2 1.8-4 4-4 .6 0 1 .4 1 1s-.4 1-1 1c-1.1 0-2 .9-2 2v11c0 1.1.9 2 2 2h7c1.1 0 2-.9 2-2 0-.6.4-1 1-1s1 .4 1 1c0 2.2-1.8 4-4 4zm7-14h-3c-2.2 0-4-1.8-4-4V1c0-.6.4-1 1-1s1 .4 1 1v4c0 1.1.9 2 2 2h3c.6 0 1 .4 1 1s-.4 1-1 1z"/></svg>