<svg xmlns="http://www.w3.org/2000/svg" viewBox="0 0 24 24"><defs><style>.cls-1{opacity:0.26;}.cls-2{fill:none;}</style></defs><title>Asset 28</title><g id="Layer_2" data-name="Layer 2"><g id="Layer_1-2" data-name="Layer 1"><g class="cls-1"><rect class="cls-2" width="24" height="24"/></g><path d="M21.67,2.33H2.33a1,1,0,0,0-1,1V9.67a1,1,0,0,0,1,1h.33V21a1,1,0,0,0,1,1H20.33a1,1,0,0,0,1-1V10.67h.33a1,1,0,0,0,1-1V3.33A1,1,0,0,0,21.67,2.33ZM19.33,20H4.67V10.67H19.33ZM20.67,7.67v1H3.33V4.33H20.67V7.67Z"/><path d="M9.67,14.17h4.67a.83.83,0,0,0,0-1.67H9.67a.83.83,0,0,0,0,1.67Z"/></g></g></svg>