<svg xmlns="http://www.w3.org/2000/svg" viewBox="0 0 24 24"><defs><style>.cls-1{fill:none;}</style></defs><title>Asset 27</title><g id="Layer_2" data-name="Layer 2"><g id="Layer_5" data-name="Layer 5"><rect class="cls-1" width="24" height="24"/><path d="M19.33,20H4.67a3,3,0,0,1-3-3V7a3,3,0,0,1,3-3H19.33a3,3,0,0,1,3,3V17A3,3,0,0,1,19.33,20ZM4.67,6a1,1,0,0,0-1,1V17a1,1,0,0,0,1,1H19.33a1,1,0,0,0,1-1V7a1,1,0,0,0-1-1Z"/><path d="M9.29,8,7.71,9.63l0,0H6.33a1,1,0,0,0-1,1v2a1,1,0,0,0,1,1H7.67l0,0,1.59,1.59c.39.39.71.26.71-.29V8.33C10,7.78,9.68,7.65,9.29,8Z"/><path d="M12,10a.67.67,0,0,0-.67.67v2a.67.67,0,1,0,1.33,0v-2A.67.67,0,0,0,12,10Z"/><path d="M14.67,8.67a.67.67,0,0,0-.67.67V14a.67.67,0,0,0,1.33,0V9.33A.67.67,0,0,0,14.67,8.67Z"/><path d="M17.33,7.33a.67.67,0,0,0-.67.67v7.33a.67.67,0,0,0,1.33,0V8A.67.67,0,0,0,17.33,7.33Z"/></g></g></svg>