<svg xmlns="http://www.w3.org/2000/svg" viewBox="0 0 24 24"><defs><style>.cls-1{fill:none;}</style></defs><title>Asset 32</title><g id="Layer_2" data-name="Layer 2"><g id="Layer_6" data-name="Layer 6"><rect class="cls-1" width="24" height="24"/><path d="M16.08,1.33H10a3,3,0,0,0-3,3V5H6.33a3,3,0,0,0-3,3V19.67a3,3,0,0,0,3,3h8a3,3,0,0,0,3-3V19H18a3,3,0,0,0,3-3V6.25ZM19,7.08v.59H16.67a1,1,0,0,1-1-1V3.75ZM15.33,19.67a1,1,0,0,1-1,1h-8a1,1,0,0,1-1-1V8a1,1,0,0,1,1-1H7v9a3,3,0,0,0,3,3h5.33ZM18,17H10a1,1,0,0,1-1-1V4.33a1,1,0,0,1,1-1h3.67V6.67a3,3,0,0,0,3,3H19V16A1,1,0,0,1,18,17Z"/></g></g></svg>