<svg xmlns="http://www.w3.org/2000/svg" viewBox="0 0 24 24"><defs><style>.cls-1{fill:none;opacity:0.26;}</style></defs><title>Asset 24</title><g id="Layer_2" data-name="Layer 2"><g id="Layer_1-2" data-name="Layer 1"><rect class="cls-1" width="24" height="24"/><path d="M22.5,1.88a1,1,0,0,0-1,0L15.33,5.44,9.17,1.88a1,1,0,0,0-1,0L1.5,5.73a1,1,0,0,0-.5.87V21.26a1,1,0,0,0,1.5.87l5.86-3.38H9l5.86,3.38a1,1,0,0,0,1,0l6.67-3.85a1,1,0,0,0,.5-.87V2.74A1,1,0,0,0,22.5,1.88ZM3,7.17,7.67,4.47V16.83L3,19.53Zm18,9.66-4.83,2.79v-10a.83.83,0,0,0-1.67,0v10L9.67,16.83V4.47l5.17,3a1,1,0,0,0,1,0l5.17-3Z"/></g></g></svg>