<svg xmlns="http://www.w3.org/2000/svg" viewBox="0 0 24 24"><defs><style>.cls-1{fill:none;}</style></defs><title>Asset 31</title><g id="Layer_2" data-name="Layer 2"><g id="Layer_1-2" data-name="Layer 1"><rect class="cls-1" width="24" height="24"/><path d="M19.33,6.67h-2l-4-4.09a1.33,1.33,0,0,0-2.65,0l-4,4.09h-2a3,3,0,0,0-3,3V19a3,3,0,0,0,3,3H19.33a3,3,0,0,0,3-3V9.67A3,3,0,0,0,19.33,6.67Zm-8-2.85a1.29,1.29,0,0,0,1.34,0l2.76,2.85H8.57ZM4.67,8.67H19.33a1,1,0,0,1,1,1v7.82l-2-2a2.17,2.17,0,0,0-3.06,0l-1.13,1.13L9.84,12.33a2.84,2.84,0,0,0-4,0L3.67,14.49V9.67A1,1,0,0,1,4.67,8.67ZM19.33,20H4.67a1,1,0,0,1-1-1V16.85L7,13.5a1.2,1.2,0,0,1,1.65,0L13.11,18a1.5,1.5,0,0,0,2.12,0l1.25-1.25a.52.52,0,0,1,.71,0l2.92,2.92A1,1,0,0,1,19.33,20Z"/><circle cx="16.33" cy="11.67" r="1.67"/></g></g></svg>