<svg xmlns="http://www.w3.org/2000/svg" viewBox="0 0 24 24"><defs><style>.cls-1{opacity:0.2;}.cls-2{fill:none;}</style></defs><title>Asset 21</title><g id="Layer_2" data-name="Layer 2"><g id="Layer_1-2" data-name="Layer 1"><g class="cls-1"><rect class="cls-2" width="24" height="24"/></g><path d="M19.67,1H6.33a3,3,0,0,0-3,3V17.67h-1a1,1,0,0,0-1,1V20a3,3,0,0,0,3,3H15.67a3,3,0,0,0,3-3V6.33h3a1,1,0,0,0,1-1V4A3,3,0,0,0,19.67,1ZM3.33,20v-.33h9.33V20a3,3,0,0,0,.18,1H4.33A1,1,0,0,1,3.33,20Zm12.33,1a1,1,0,0,1-1-1V18.67a1,1,0,0,0-1-1H5.33V4a1,1,0,0,1,1-1H16.84a3,3,0,0,0-.18,1V20A1,1,0,0,1,15.67,21Zm5-16.67h-2V4a1,1,0,1,1,2,0Z"/><rect x="7" y="5.67" width="8" height="2"/><rect x="7" y="9.33" width="8" height="2"/><rect x="7" y="13" width="8" height="2"/></g></g></svg>