<svg xmlns="http://www.w3.org/2000/svg" viewBox="0 0 24 24"><defs><style>.cls-1{opacity:0.26;}.cls-2{fill:none;}</style></defs><title>Asset 23</title><g id="Layer_2" data-name="Layer 2"><g id="Layer_1-2" data-name="Layer 1"><g class="cls-1"><rect class="cls-2" width="24" height="24"/></g><path d="M21.5,5.94l-9-5.2a1,1,0,0,0-1,0l-9,5.2A1,1,0,0,0,2,6.8V17.2a1,1,0,0,0,.5.87l9,5.2a1,1,0,0,0,1,0l9-5.2a1,1,0,0,0,.5-.87V6.8A1,1,0,0,0,21.5,5.94ZM20,14.1,13.87,3.84,20,7.38Zm-.93,2.34H4.93L12,4.62ZM10.13,3.84,4,14.1V7.38ZM12,21.24,7.16,18.44h9.68Z"/></g></g></svg>