<svg xmlns="http://www.w3.org/2000/svg" viewBox="0 0 24 24"><defs><style>.cls-1{fill:none;}</style></defs><title>Asset 34</title><g id="Layer_2" data-name="Layer 2"><g id="Layer_1-2" data-name="Layer 1"><rect class="cls-1" width="24" height="24"/><path d="M22.12,7a.83.83,0,0,0-.79-.07L17,8.8V8a3,3,0,0,0-3-3H4.67a3,3,0,0,0-3,3v8a3,3,0,0,0,3,3H14a3,3,0,0,0,3-3v-.8l4.33,1.9a.83.83,0,0,0,1.17-.76V7.67A.83.83,0,0,0,22.12,7ZM15,16a1,1,0,0,1-1,1H4.67a1,1,0,0,1-1-1V8a1,1,0,0,1,1-1H14a1,1,0,0,1,1,1Zm5.83-.94L17,13.38V10.62l3.83-1.68Z"/><path d="M9.17,9a3.17,3.17,0,1,0,3.17,3.17A3.17,3.17,0,0,0,9.17,9Zm0,4.67a1.5,1.5,0,1,1,1.5-1.5A1.5,1.5,0,0,1,9.17,13.67Z"/></g></g></svg>