<svg viewBox="0 0 22 25.5"><defs><style>.cls-1{fill:none;stroke:#1d1d1d;stroke-linecap:round;stroke-linejoin:round;stroke-width:2px;}</style></defs><path class="cls-1" d="M13.15,17.11l-.82-.82a3,3,0,0,1,0-4.24l.53-.53"/><path class="cls-1" d="M11.57,23.4a3,3,0,0,0,4.24,0L17.22,22a3,3,0,0,0,0-4.24"/><path class="cls-1" d="M10.86,8.55l5.66,5.66a3,3,0,0,1,0,4.24l-4.24,4.24a3,3,0,0,1-4.24,0L1.61,16.27"/><line class="cls-1" x1="1.98" y1="12.48" x2="6.22" y2="16.72"/><line class="cls-1" x1="2.69" y1="8.94" x2="7.64" y2="13.89"/><line class="cls-1" x1="4.81" y1="6.82" x2="9.76" y2="11.77"/><path class="cls-1" d="M13.44,1.17a7.5,7.5,0,0,1,7.5,7.5"/><path class="cls-1" d="M12.44,5.08A4.59,4.59,0,0,1,17,9.67"/></svg>
