<svg viewBox="0 0 24 24" xmlns="http://www.w3.org/2000/svg"><path d="m0 0h24v24h-24z" fill="none"/><path d="m19.33 3.33h-3.33a5 5 0 0 0 -4 2 5 5 0 0 0 -4-2h-3.33a2.67 2.67 0 0 0 -2.67 2.67v10a2.67 2.67 0 0 0 2.67 2.67h4c1.85 0 2.35 1.07 2.39 1.18a1 1 0 0 0 .94.67 1 1 0 0 0 .94-.65c.05-.12.55-1.19 2.4-1.19h4a2.67 2.67 0 0 0 2.66-2.68v-10a2.67 2.67 0 0 0 -2.67-2.67zm0 13.33h-4a4.74 4.74 0 0 0 -3.33 1.18 4.74 4.74 0 0 0 -3.33-1.17h-4a.67.67 0 0 1 -.67-.67v-10a.67.67 0 0 1 .67-.67h3.33a3 3 0 0 1 3 3v6.33a1 1 0 0 0 2 0v-6.33a3 3 0 0 1 3-3h3.33a.67.67 0 0 1 .67.67v10a.67.67 0 0 1 -.67.67z"/></svg>