<svg xmlns="http://www.w3.org/2000/svg" viewBox="0 0 24 24"><defs><style>.cls-1{fill:none;}</style></defs><title>Asset 22</title><g id="Layer_2" data-name="Layer 2"><g id="Layer_1-2" data-name="Layer 1"><rect class="cls-1" width="24" height="24"/><path d="M19.33,4H4.67a3,3,0,0,0-3,3V17a3,3,0,0,0,3,3H19.33a3,3,0,0,0,3-3V7A3,3,0,0,0,19.33,4ZM4.67,6H19.33a1,1,0,0,1,1,1v7.82l-2-2a2.17,2.17,0,0,0-3.06,0L14.17,14,9.84,9.66a2.84,2.84,0,0,0-4,0L3.67,11.82V7A1,1,0,0,1,4.67,6ZM19.33,18H4.67a1,1,0,0,1-1-1V14.18L7,10.84a1.17,1.17,0,0,1,1.65,0l4.45,4.45a1.5,1.5,0,0,0,2.12,0L16.48,14a.51.51,0,0,1,.71,0l3.13,3.13A1,1,0,0,1,19.33,18Z"/><circle cx="16.33" cy="9" r="1.67"/></g></g></svg>