<svg xmlns="http://www.w3.org/2000/svg" viewBox="0 0 24 24"><defs><style>.cls-1{fill:none;}</style></defs><title>Asset 30</title><g id="Layer_2" data-name="Layer 2"><g id="Layer_1-2" data-name="Layer 1"><rect class="cls-1" width="24" height="24"/><path d="M12,2A10,10,0,1,0,22,12,10,10,0,0,0,12,2Zm7,6.17H16.45a11.2,11.2,0,0,0-1.33-3.53A8.05,8.05,0,0,1,19,8.17ZM15.17,12A17.21,17.21,0,0,1,15,14.17H9A17.38,17.38,0,0,1,9,9.83H15A17.21,17.21,0,0,1,15.17,12ZM12,19.83c-1,0-2.13-1.57-2.73-4h5.45C14.13,18.26,13,19.83,12,19.83ZM9.27,8.17c.6-2.43,1.7-4,2.73-4s2.13,1.57,2.73,4Zm-.4-3.53A11.2,11.2,0,0,0,7.55,8.17H5A8.05,8.05,0,0,1,8.88,4.63ZM4.3,9.83h3a20.05,20.05,0,0,0,0,4.33h-3a8,8,0,0,1,0-4.33Zm.68,6H7.55a11.2,11.2,0,0,0,1.33,3.53A8.05,8.05,0,0,1,5,15.83Zm10.14,3.53a11.2,11.2,0,0,0,1.33-3.53H19A8.05,8.05,0,0,1,15.12,19.37Zm4.58-5.2h-3A19.83,19.83,0,0,0,16.83,12a19.83,19.83,0,0,0-.12-2.17h3a8,8,0,0,1,0,4.33Z"/></g></g></svg>