<svg xmlns="http://www.w3.org/2000/svg" width="24" height="24" viewBox="0 0 24 24">
  <g fill="none" fill-rule="evenodd" transform="translate(-24 -24)">
    <rect width="504" height="450" fill="#FFF"/>
    <g transform="translate(24 24)">
      <rect width="24" height="24"/>
      <path fill="#000" fill-rule="nonzero" d="M21.54,10.49 C19.6184064,6.4556466 15.5875337,3.84834504 11.12,3.75 C9.38738582,3.76460312 7.68336444,4.19317992 6.15,5 L2.55,1.4 C2.32270335,1.07476508 1.92461425,0.914683078 1.5354343,0.992016681 C1.14625435,1.06935029 0.839611325,1.36946899 0.753927108,1.75689606 C0.668242891,2.14432313 0.819727818,2.54576241 1.14,2.78 L15.25,16.89 L19.18,20.82 C19.5767603,21.1597768 20.1681942,21.1369323 20.5375632,20.7675632 C20.9069323,20.3981942 20.9297768,19.8067603 20.59,19.41 L17.54,16.36 C19.234205,15.1569865 20.6076287,13.5569479 21.54,11.7 C21.6301059,11.5101256 21.6580977,11.296688 21.62,11.09 C21.6559582,10.886538 21.6280108,10.6769328 21.54,10.49 L21.54,10.49 Z M16.1,14.91 L14.21,13 C15.1019195,11.5670758 14.8885137,9.70844759 13.6950331,8.51496694 C12.5015524,7.32148629 10.6429242,7.10808048 9.21,8 L7.65,6.46 C8.74708969,5.99219335 9.92733561,5.75070211 11.12,5.75 C14.7080914,5.8457581 17.9554182,7.89932765 19.58,11.1 C18.7522277,12.6377493 17.556671,13.9466778 16.1,14.91 L16.1,14.91 Z M11.12,16.45 C10.7859971,16.4519023 10.4521473,16.4352098 10.12,16.4 C6.91703859,15.9575673 4.13196312,13.9788944 2.66,11.1 C2.85921611,10.7212569 3.07956366,10.354011 3.32,10 C3.52542771,9.70704222 3.55895963,9.32674368 3.40796461,9.00235917 C3.25696958,8.67797466 2.94438735,8.4587859 2.58796461,8.42735917 C2.23154187,8.39593244 1.88542771,8.55704222 1.68,8.85 C1.30870796,9.36562691 0.974532718,9.90699079 0.68,10.47 C0.589894092,10.6598744 0.561902284,10.873312 0.6,11.08 C0.561902284,11.286688 0.589894092,11.5001256 0.68,11.69 C2.43223908,15.3230157 5.89244435,17.8326977 9.89,18.37 C10.2917592,18.4153328 10.6956934,18.4387009 11.1,18.44 C11.6522847,18.44 12.1,17.9922847 12.1,17.44 C12.1,16.8877153 11.6522847,16.44 11.1,16.44 L11.12,16.45 Z" transform="translate(1 1)"/>
    </g>
  </g>
</svg>
