<svg xmlns="http://www.w3.org/2000/svg" viewBox="0 0 24 24"><path class="icon__shape" fill="currentColor" fill-rule="nonzero" d="M22.54 11.49a11.83 11.83 0 0 0-10.42-6.74A10.87 10.87 0 0 0 7.15 6l-3.6-3.6a1 1 0 1 0-1.41 1.38l14.11 14.11 3.93 3.93a1 1 0 0 0 1.41-1.41l-3.05-3.05a12.71 12.71 0 0 0 4-4.66 1 1 0 0 0 .08-.61 1 1 0 0 0-.08-.6zm-5.44 4.42L15.21 14a3.63 3.63 0 0 0-5-5L8.65 7.46a8.86 8.86 0 0 1 3.47-.71 9.78 9.78 0 0 1 8.46 5.35 10.58 10.58 0 0 1-3.48 3.81zm-4.98 1.54a9 9 0 0 1-1-.05 9.9 9.9 0 0 1-7.46-5.3c.2-.379.42-.746.66-1.1a1.002 1.002 0 0 0-1.64-1.15 13.41 13.41 0 0 0-1 1.62 1 1 0 0 0-.08.61 1 1 0 0 0 .08.61 12 12 0 0 0 9.21 6.68c.402.045.806.069 1.21.07a1 1 0 0 0 0-2l.02.01z"/></svg>
