<svg width="24" height="24" viewBox="0 0 24 24" fill="none" xmlns="http://www.w3.org/2000/svg">
  <g clip-path="url(#clip0_1591_4883)">
    <path class="icon__shape" fill="currentColor"
      d="M20.7 0H3.3C1.48 0 0 1.48 0 3.31V20.7C0 22.52 1.48 24 3.3 24H20.7C22.52 24 24 22.52 24 20.7V3.31C24 1.48 22.52 0 20.7 0ZM19.09 3.99C19.09 5.09 18.23 5.98 17.17 5.98C16.11 5.98 15.25 5.09 15.25 3.99C15.25 2.89 16.12 2 17.17 2C18.22 2 19.09 2.89 19.09 3.99ZM5.76 12.19L7.25 13.74C6.76 14.56 6.69 14.65 6.6 15.93C6.48 18.09 8.3 19.84 10.39 19.84C11.16 19.84 11.9 19.59 12.5 19.16H12.52L14.01 20.72C13.01 21.54 11.54 22 10.39 21.99C6.6 21.76 4.5 19.29 4.5 15.93C4.57 13.5 5.21 12.94 5.76 12.19ZM19.63 11.98H19.62L19.14 18.13C19.09 18.75 18.59 19.22 17.99 19.22H17.89C17.26 19.16 16.79 18.6 16.84 17.94L17.22 13.15L15.66 13.24C16.05 14.04 16.26 14.96 16.26 15.92C16.26 17.53 15.65 18.99 14.66 20.08L13.18 18.54C13.79 17.85 14.17 16.92 14.17 15.92C14.17 13.76 12.47 12.01 10.39 12.01C8.31 12.01 7.72 12.9 7.72 12.9L6.36 11.49C7.2 10.68 8.25 10.12 9.44 9.92L12.29 6.57L10.68 5.6L8.73 7.39C8.25 7.83 7.53 7.79 7.11 7.29C6.69 6.8 6.73 6.05 7.21 5.61L9.78 3.24C10.15 2.9 10.7 2.85 11.12 3.1C11.12 3.1 16.38 6.26 16.4 6.26C16.67 6.43 16.85 6.72 16.91 7.01C17.03 7.45 16.93 7.94 16.62 8.31L14.42 10.91L18.43 10.68C18.76 10.68 19.08 10.79 19.32 11.03C19.5 11.22 19.61 11.47 19.63 11.75V11.98Z" />
  </g>
  <defs>
    <clipPath id="clip0_1591_4883">
      <rect width="24" height="24" fill="white" />
    </clipPath>
  </defs>
</svg>
