<svg width="24" height="24" viewBox="0 0 24 24" fill="none" xmlns="http://www.w3.org/2000/svg">
<path fill-rule="evenodd" clip-rule="evenodd" d="M22 7.75C21.4685 6.43752 20.6758 5.24675 19.67 4.25C17.6305 2.16833 14.8238 1.01819 11.91 1.07C9.04345 1.01491 6.28437 2.1606 4.3 4.23C3.2721 5.24599 2.4563 6.45608 1.9 7.79C0.805469 10.4415 0.805469 13.4185 1.9 16.07C2.45312 17.389 3.26201 18.5853 4.28 19.59C5.28365 20.6167 6.47976 21.4357 7.8 22C9.10464 22.5462 10.5056 22.8251 11.92 22.82C13.3505 22.825 14.7679 22.5463 16.09 22C17.4393 21.4404 18.6658 20.6217 19.7 19.59C20.7028 18.6046 21.4865 17.4188 22 16.11C22.5308 14.7808 22.7991 13.3613 22.79 11.93C22.7996 10.4987 22.5313 9.07909 22 7.75ZM18.31 18.16C17.4489 19.0146 16.43 19.6938 15.31 20.16C13.1461 21.0578 10.7139 21.0578 8.55 20.16C6.37429 19.2223 4.64417 17.4815 3.72 15.3C2.80243 13.1435 2.80243 10.7065 3.72 8.55C4.19469 7.45822 4.87351 6.46713 5.72 5.63C7.34974 3.90834 9.62977 2.95349 12 3C14.3749 2.96451 16.6587 3.91279 18.31 5.62C19.1355 6.4386 19.7884 7.41453 20.23 8.49C20.6723 9.57563 20.8966 10.7377 20.89 11.91C20.9497 14.2639 20.0128 16.5336 18.31 18.16ZM11.9658 8.04537C12.7919 8.04537 13.4615 7.36364 13.4615 6.52269C13.4615 5.68173 12.7919 5 11.9658 5C11.1397 5 10.4701 5.68173 10.4701 6.52269C10.4701 7.36364 11.1397 8.04537 11.9658 8.04537ZM12.9377 8.74978C12.5647 8.77106 12.2471 8.77579 12.0047 8.77579H11.9953C11.753 8.77579 11.4353 8.77106 11.0624 8.74978C11.0624 8.74978 10.7906 8.73441 10.5483 8.71312C9.6896 8.63614 8.25132 8.30264 7.27548 8.07638C7.18706 8.05588 7.10244 8.03626 7.02239 8.01779C6.99768 8.01187 6.93533 7.99768 6.8518 8.00005C6.53886 8.00951 6.09651 8.24838 6.01416 8.69538C5.92945 9.15894 6.22827 9.60476 6.68945 9.69936L10.4659 10.4373C10.7142 11.997 10.4977 13.1205 10.2377 13.8749C10.1581 14.1054 9.44252 16.1356 9.06853 17.1968C8.9397 17.5623 8.8514 17.8128 8.84357 17.8352C8.8071 17.9393 8.79651 18.0457 8.79651 18.0457C8.79651 18.0457 8.7918 18.0907 8.7918 18.1356C8.7918 18.4868 8.99651 18.8132 9.33768 18.9421C9.78121 19.1136 10.2765 18.8901 10.4389 18.4443L11.9589 14.4366C11.9753 14.394 11.993 14.342 12.0012 14.2994C12.0094 14.342 12.0259 14.394 12.0436 14.4366L13.5636 18.4443C13.7259 18.8901 14.2212 19.1136 14.6647 18.9421C15.0059 18.8132 15.2106 18.488 15.2106 18.1356C15.2106 18.0907 15.2059 18.0457 15.2059 18.0457C15.2059 18.0457 15.1953 17.9393 15.1589 17.8352C15.1479 17.8034 14.9789 17.3238 14.7617 16.7077C14.3742 15.608 13.8334 14.0735 13.7647 13.8749C13.5036 13.1205 13.2871 11.997 13.5365 10.4373L17.3106 9.69936C17.7718 9.60476 18.0706 9.15894 17.9847 8.69538C17.9024 8.24838 17.46 8.00951 17.1483 8.00005C17.0659 7.99768 17.0024 8.01187 16.9777 8.01779C16.8929 8.03735 16.803 8.05822 16.7088 8.08006C15.7333 8.30641 14.3059 8.63763 13.4518 8.71312C13.2094 8.73441 12.9377 8.74978 12.9377 8.74978Z" fill="#121212"/>
</svg>
