<svg width="24" height="24" viewBox="0 0 24 24" fill="none" xmlns="http://www.w3.org/2000/svg">
  <path
    d="M19.2847 11.0683C19.0449 10.8223 18.7099 10.6924 18.3676 10.7111L14.2246 10.9418L16.5046 8.34502C16.8294 7.97512 16.9222 7.48203 16.7966 7.04141C16.7304 6.73948 16.5475 6.46476 16.2666 6.28925C16.258 6.28309 10.8166 3.12205 10.8166 3.12205C10.3723 2.86394 9.81237 2.92081 9.42893 3.26281L6.77088 5.63384C6.28116 6.07065 6.23827 6.82177 6.67511 7.31152C7.11199 7.80121 7.86313 7.84423 8.35282 7.40726L10.368 5.60969L12.0339 6.57711L9.0933 9.92619C7.87392 10.1251 6.77679 10.6869 5.91553 11.4971L7.45115 13.0327C8.14533 12.4015 9.06705 12.0163 10.077 12.0163C12.2313 12.0163 13.984 13.769 13.984 15.9233C13.984 16.9333 13.5987 17.8549 12.9676 18.5491L14.5031 20.0847C15.5261 18.9973 16.1538 17.5341 16.1538 15.9233C16.1538 14.9636 15.931 14.056 15.5349 13.249L17.1386 13.1597L16.7485 17.945C16.6951 18.599 17.1822 19.1724 17.8363 19.2258C17.8691 19.2285 17.9017 19.2298 17.9341 19.2298C18.5466 19.2298 19.0665 18.7592 19.1171 18.138L19.6179 11.9941C19.6458 11.6518 19.5243 11.3142 19.2847 11.0683Z"
    class="icon__shape" fill="currentColor" />
  <path
    d="M17.0838 5.97805C18.1822 5.97805 19.0726 5.08757 19.0726 3.98904C19.0726 2.89057 18.1822 2 17.0838 2C15.9852 2 15.0947 2.89057 15.0947 3.98904C15.0947 5.08757 15.9851 5.97805 17.0838 5.97805Z"
    class="icon__shape" fill="currentColor" />
  <path
    d="M10.0769 19.8302C7.92254 19.8302 6.16985 18.0775 6.16985 15.9231C6.16985 15.1112 6.41896 14.3566 6.84449 13.7311L5.29229 12.179C4.48351 13.2111 4 14.5103 4 15.9231C4 19.2793 6.72067 22 10.0769 22C11.4898 22 12.7889 21.5165 13.821 20.7076L12.2688 19.1555C11.6433 19.5809 10.8887 19.8302 10.0769 19.8302Z"
    class="icon__shape" fill="currentColor" />
</svg>
