<svg xmlns="http://www.w3.org/2000/svg" width="24" height="24" viewBox="0 0 24 24">
  <g fill="none" fill-rule="evenodd" transform="translate(-120 -24)">
    <rect width="504" height="450" fill="#FFF"/>
    <g transform="translate(120 24)">
      <rect width="24" height="24"/>
      <path fill="#000" fill-rule="nonzero" d="M15.75,4.38 L15.75,3.28 C15.75,2.72771525 15.3022847,2.28 14.75,2.28 L12.75,2.28 C12.3361737,1.06417793 11.1943191,0.246643678 9.91,0.246643678 C8.62568091,0.246643678 7.48382631,1.06417793 7.07,2.28 L5.07,2.28 C4.51771525,2.28 4.07,2.72771525 4.07,3.28 L4.07,4.38 C2.20733498,4.76021486 0.869611993,6.39892553 0.87,8.3 L0.87,19.84 C0.87,22.049139 2.660861,23.84 4.87,23.84 L14.87,23.84 C17.079139,23.84 18.87,22.049139 18.87,19.84 L18.87,8.29 C18.8737456,6.41692249 17.5771914,4.79207413 15.75,4.38 L15.75,4.38 Z M6.15,4.29 L8,4.29 C8.56889019,4.24778521 9.00684612,3.77041324 9,3.2 C9,2.64771525 9.44771525,2.2 10,2.2 C10.5522847,2.2 11,2.64771525 11,3.2 L11,3.29 C11,3.84228475 11.4477153,4.29 12,4.29 L13.81,4.29 L13.81,6.43 L6.15,6.43 L6.15,4.29 Z M16.95,19.85 C16.95,20.9545695 16.0545695,21.85 14.95,21.85 L4.95,21.85 C3.8454305,21.85 2.95,20.9545695 2.95,19.85 L2.95,8.29 C2.95120364,7.49585583 3.42215361,6.77765712 4.15,6.46 L4.15,7.46 C4.15,8.01228475 4.59771525,8.46 5.15,8.46 L14.75,8.46 C15.3022847,8.46 15.75,8.01228475 15.75,7.46 L15.75,6.46 C16.4778464,6.77765712 16.9487964,7.49585583 16.95,8.29 L16.95,19.85 Z M13,10.59 L8.73,14.86 L7,13.07 C6.60323972,12.7302232 6.01180583,12.7530677 5.64243678,13.1224368 C5.27306773,13.4918058 5.2502232,14.0832397 5.59,14.48 L7.96,16.86 C8.00688727,16.8977815 8.05709122,16.9312508 8.11,16.96 C8.50003745,17.3477236 9.12996255,17.3477236 9.52,16.96 L14.52,11.96 C14.898315,11.5402636 14.8647364,10.8933151 14.445,10.515 C14.0252636,10.136685 13.3783151,10.1702636 13,10.59 Z" transform="translate(2)"/>
    </g>
  </g>
</svg>
