<svg xmlns="http://www.w3.org/2000/svg" width="24" height="24" viewBox="0 0 24 24">
  <g fill="none" fill-rule="evenodd" transform="translate(-168 -24)">
    <rect width="504" height="450" fill="#FFF"/>
    <g transform="translate(168 24)">
      <rect width="24" height="24"/>
      <g fill="#000" fill-rule="nonzero" transform="translate(1 4)">
        <path d="M18.5,0.3 L3.5,0.3 C1.84314575,0.3 0.5,1.64314575 0.5,3.3 L0.5,13.3 C0.5,14.9568542 1.84314575,16.3 3.5,16.3 L18.5,16.3 C20.1568542,16.3 21.5,14.9568542 21.5,13.3 L21.5,3.3 C21.5,1.64314575 20.1568542,0.3 18.5,0.3 Z M3.5,2.3 L18.5,2.3 C19.0522847,2.3 19.5,2.74771525 19.5,3.3 L19.5,4.1 L2.5,4.1 L2.5,3.3 C2.5,2.74771525 2.94771525,2.3 3.5,2.3 L3.5,2.3 Z M19.5,13.3 C19.5,13.8522847 19.0522847,14.3 18.5,14.3 L3.5,14.3 C2.94771525,14.3 2.5,13.8522847 2.5,13.3 L2.5,6.1 L19.5,6.1 L19.5,13.3 Z"/>
        <path d="M13,7.7 L9,7.7 C7.61928813,7.7 6.5,8.81928813 6.5,10.2 C6.5,11.5807119 7.61928813,12.7 9,12.7 L13,12.7 C14.3807119,12.7 15.5,11.5807119 15.5,10.2 C15.5,8.81928813 14.3807119,7.7 13,7.7 Z M13,10.7 L9,10.7 C8.72385763,10.7 8.5,10.4761424 8.5,10.2 C8.5,9.92385763 8.72385763,9.7 9,9.7 L13,9.7 C13.2761424,9.7 13.5,9.92385763 13.5,10.2 C13.5,10.4761424 13.2761424,10.7 13,10.7 Z"/>
      </g>
    </g>
  </g>
</svg>
