<svg xmlns="http://www.w3.org/2000/svg" width="24" height="24" viewBox="0 0 24 24">
  <g fill="none" fill-rule="evenodd" transform="translate(-216 -24)">
    <rect width="504" height="450" fill="#FFF"/>
    <g transform="translate(216 24)">
      <rect width="24" height="24"/>
      <path fill="#000" fill-rule="nonzero" d="M20.7,8.6 L13.2,1.1 C12.8,0.7 12.2,0.7 11.8,1.1 C11.4,1.5 11.4,2.1 11.8,2.5 L17.6,8.3 L1.9,8.3 C1.3,8.3 0.9,8.7 0.9,9.3 C0.9,9.9 1.3,10.3 1.9,10.3 L17.6,10.3 L11.8,16.1 C11.4,16.5 11.4,17.1 11.8,17.5 C12,17.7 12.3,17.8 12.5,17.8 C12.7,17.8 13,17.7 13.2,17.5 L20.7,10 C21.1,9.6 21.1,9 20.7,8.6 Z" transform="translate(1 3)"/>
    </g>
  </g>
</svg>
