<svg xmlns="http://www.w3.org/2000/svg" width="24" height="24" viewBox="0 0 24 24">
  <g fill="none" fill-rule="evenodd" transform="translate(-264 -24)">
    <rect width="504" height="450" fill="#FFF"/>
    <g fill="#000" fill-rule="nonzero" transform="translate(267 27)">
      <path d="M16,0.37 L3.5,0.37 C1.84314575,0.37 0.5,1.71314575 0.5,3.37 L0.5,15.92 C0.5,17.5768542 1.84314575,18.92 3.5,18.92 L16,18.92 C17.6568542,18.92 19,17.5768542 19,15.92 L19,3.37 C19,1.71314575 17.6568542,0.37 16,0.37 Z M17,15.92 C17,16.4722847 16.5522847,16.92 16,16.92 L3.5,16.92 C2.94771525,16.92 2.5,16.4722847 2.5,15.92 L2.5,3.37 C2.5,2.81771525 2.94771525,2.37 3.5,2.37 L16,2.37 C16.5522847,2.37 17,2.81771525 17,3.37 L17,15.92 Z"/>
      <path d="M4.48,8.81 L9.44,8.81 L9.44,10.81 L4.48,10.81 L4.48,8.81 Z M4.48,4.38 L14.77,4.38 L14.77,6.38 L4.48,6.38 L4.48,4.38 Z M4.48,13.23 L9.44,13.23 L9.44,15.23 L4.48,15.23 L4.48,13.23 Z M11.02,8.73 L14.82,8.73 L14.82,15.17 L11.02,15.17 L11.02,8.73 Z"/>
    </g>
  </g>
</svg>
