<svg xmlns="http://www.w3.org/2000/svg" width="24" height="24" viewBox="0 0 24 24">
  <g fill="none" fill-rule="evenodd" transform="translate(-312 -24)">
    <rect width="504" height="450" fill="#FFF"/>
    <g transform="translate(312 24)">
      <rect width="24" height="24"/>
      <path fill="#000" fill-rule="nonzero" d="M19.57,8.13 L14.25,2.81 C13.8599625,2.42227641 13.2300375,2.42227641 12.84,2.81 L5.21,10.44 C4.00601931,11.6439808 4.00601934,13.5960192 5.21000006,14.7999999 C6.41398079,16.0039807 8.36601923,16.0039807 9.57,14.8 L14.57,9.8 C14.9097768,9.40323972 14.8869323,8.81180583 14.5175632,8.44243678 C14.1481942,8.07306773 13.5567603,8.0502232 13.16,8.39 L8.16,13.39 C7.73750216,13.8124978 7.05249785,13.8124978 6.63000003,13.39 C6.20750221,12.9675021 6.20750219,12.2824978 6.63,11.86 L13.56,4.93 L17.46,8.83 L10.17,16.11 C8.43582589,17.8441741 5.62417411,17.8441741 3.89,16.11 C2.15582589,14.3758259 2.15582589,11.5641741 3.89,9.83 L11.89,1.83 C12.2297768,1.43323972 12.2069323,0.841805828 11.8375632,0.472436779 C11.4681942,0.10306773 10.8767603,0.0802232041 10.48,0.42 L2.48,8.42 C-0.0356570355,10.935657 -0.0356570355,15.014343 2.48,17.53 C4.99565704,20.045657 9.07434296,20.045657 11.59,17.53 L19.59,9.53 C19.9656427,9.13573306 19.9567519,8.51337559 19.57,8.13 Z" transform="translate(2 2)"/>
    </g>
  </g>
</svg>
