<svg width="24" height="24" viewBox="0 0 24 24" fill="none" xmlns="http://www.w3.org/2000/svg">
<g clip-path="url(#clip0_1632_3483)">
<path d="M9.76965 11.1598H8.38965L9.08965 9.02979L9.76965 11.1598Z" fill="black"/>
<path d="M16.0698 8.99982C15.8998 8.69982 15.5398 8.55982 15.0298 8.55982H13.9798V12.0898H15.0298C15.5698 12.0898 15.9398 11.8198 16.1498 11.2998C16.2698 11.0198 16.3198 10.8198 16.3198 10.2698C16.3198 9.71982 16.2398 9.29982 16.0698 8.99982ZM16.0698 8.99982C15.8998 8.69982 15.5398 8.55982 15.0298 8.55982H13.9798V12.0898H15.0298C15.5698 12.0898 15.9398 11.8198 16.1498 11.2998C16.2698 11.0198 16.3198 10.8198 16.3198 10.2698C16.3198 9.71982 16.2398 9.29982 16.0698 8.99982ZM16.0698 8.99982C15.8998 8.69982 15.5398 8.55982 15.0298 8.55982H13.9798V12.0898H15.0298C15.5698 12.0898 15.9398 11.8198 16.1498 11.2998C16.2698 11.0198 16.3198 10.8198 16.3198 10.2698C16.3198 9.71982 16.2398 9.29982 16.0698 8.99982ZM16.0698 8.99982C15.8998 8.69982 15.5398 8.55982 15.0298 8.55982H13.9798V12.0898H15.0298C15.5698 12.0898 15.9398 11.8198 16.1498 11.2998C16.2698 11.0198 16.3198 10.8198 16.3198 10.2698C16.3198 9.71982 16.2398 9.29982 16.0698 8.99982ZM17.6398 4.56982H6.3598C5.3098 4.56982 4.7998 4.98982 4.7998 5.83982V15.2398C4.7998 16.0998 5.3098 16.5098 6.3598 16.5098H12.6698L15.9798 19.2698V16.5098H17.6398C18.6898 16.5098 19.1998 16.0798 19.1998 15.2398V5.83982C19.1998 4.97982 18.6898 4.56982 17.6398 4.56982ZM10.4398 12.9898L10.0898 11.8798H8.0898L7.7198 12.9898H6.5298L8.4698 7.59982H9.7598L11.6698 12.9898H10.4398ZM17.0498 11.9898C16.6598 12.6498 16.0498 12.9898 15.2298 12.9898H12.8898V7.59982H15.2298C15.5698 7.59982 15.8398 7.63982 16.0698 7.71982C16.4498 7.83982 16.7498 8.06982 16.9898 8.40982H16.9998C17.1898 8.66982 17.3198 8.96982 17.3898 9.27982C17.4598 9.58982 17.4898 9.44982 17.4898 10.1698C17.4898 10.8898 17.3298 11.4998 17.0498 11.9898ZM15.0298 8.55982H13.9798V12.0898H15.0298C15.5698 12.0898 15.9398 11.8198 16.1498 11.2998C16.2698 11.0198 16.3198 10.8198 16.3198 10.2698C16.3198 9.71982 16.2398 9.29982 16.0698 8.99982C15.8998 8.69982 15.5398 8.55982 15.0298 8.55982ZM16.0698 8.99982C15.8998 8.69982 15.5398 8.55982 15.0298 8.55982H13.9798V12.0898H15.0298C15.5698 12.0898 15.9398 11.8198 16.1498 11.2998C16.2698 11.0198 16.3198 10.8198 16.3198 10.2698C16.3198 9.71982 16.2398 9.29982 16.0698 8.99982ZM16.0698 8.99982C15.8998 8.69982 15.5398 8.55982 15.0298 8.55982H13.9798V12.0898H15.0298C15.5698 12.0898 15.9398 11.8198 16.1498 11.2998C16.2698 11.0198 16.3198 10.8198 16.3198 10.2698C16.3198 9.71982 16.2398 9.29982 16.0698 8.99982ZM16.0698 8.99982C15.8998 8.69982 15.5398 8.55982 15.0298 8.55982H13.9798V12.0898H15.0298C15.5698 12.0898 15.9398 11.8198 16.1498 11.2998C16.2698 11.0198 16.3198 10.8198 16.3198 10.2698C16.3198 9.71982 16.2398 9.29982 16.0698 8.99982ZM16.0698 8.99982C15.8998 8.69982 15.5398 8.55982 15.0298 8.55982H13.9798V12.0898H15.0298C15.5698 12.0898 15.9398 11.8198 16.1498 11.2998C16.2698 11.0198 16.3198 10.8198 16.3198 10.2698C16.3198 9.71982 16.2398 9.29982 16.0698 8.99982Z" fill="black"/>
<path d="M20.7 0H3.3C1.48 0 0 1.48 0 3.31V20.7C0 22.52 1.48 24 3.3 24H20.7C22.52 24 24 22.52 24 20.7V3.31C24 1.48 22.52 0 20.7 0ZM21 15.9C21 17.09 19.85 18.06 18.43 18.06H17.77V23L11.84 18.06H5.55C4.15 18.06 3 17.1 3 15.9V5.16C3 3.97 4.15 3 5.55 3H18.45C19.86 3.01 21 3.97 21 5.16V15.9Z" fill="black"/>
</g>
<defs>
<clipPath id="clip0_1632_3483">
<rect width="24" height="24" fill="white"/>
</clipPath>
</defs>
</svg>
