<svg width="24" height="24" viewBox="0 0 24 24" fill="none" xmlns="http://www.w3.org/2000/svg">
  <path fill-rule="evenodd" clip-rule="evenodd"
    d="M5.21993 4.53074H18.7799C19.7862 4.53074 20.2749 4.93049 20.2749 5.76899V14.934C20.2749 15.753 19.7862 16.1722 18.7799 16.1722H17.1891V18.8632L14.017 16.1722H5.21993C4.21368 16.1722 3.72493 15.7725 3.72493 14.934V5.76899C3.72493 4.94024 4.21368 4.53074 5.21993 4.53074ZM22 15.5775C22 16.7378 20.8979 17.6835 19.5371 17.6835H18.9046V22.5L12.4717 17.6835H4.44375C3.10208 17.6835 2 16.7475 2 15.5775V5.106C2 3.94575 3.10208 3 4.44375 3H19.5563C20.9075 3.00975 22 3.94575 22 5.106V15.5775ZM7.60614 11.4691H9.3684L8.50004 8.70177L7.60614 11.4691ZM10.224 13.8466L9.77709 12.4045H7.22308L6.75059 13.8466H5.23096L7.70834 6.84387H9.35568L11.7948 13.8466H10.224ZM16.9552 8.66278C16.7381 8.27302 16.2784 8.09113 15.6271 8.09113H14.2863V12.5474H15.6271C16.3167 12.5474 16.7892 12.1966 17.0574 11.521C17.2106 11.1573 17.2745 10.8974 17.2745 10.1828C17.2745 9.46828 17.1723 9.05254 16.9552 8.66278ZM18.2067 12.5474C17.7087 13.4049 16.9297 13.8466 15.8826 13.8466H12.8944V6.84387H15.8826C16.3167 6.84387 16.6615 6.89584 16.9552 6.99978C17.4405 7.15568 17.8236 7.4545 18.1301 7.89623H18.1428C18.3855 8.23403 18.5515 8.62379 18.6409 9.02655C18.6631 9.12689 18.6822 9.19094 18.6984 9.24502C18.747 9.40802 18.7686 9.48046 18.7686 10.1828C18.7686 11.1183 18.5643 11.9108 18.2067 12.5474Z"
    class="icon__shape" fill="currentColor" />
</svg>
