<svg xmlns="http://www.w3.org/2000/svg" width="24" height="24" viewBox="0 0 24 24">
  <g fill="none" fill-rule="evenodd" transform="translate(-408 -24)">
    <rect width="504" height="450" fill="#FFF"/>
    <g transform="translate(408 24)">
      <rect width="24" height="24"/>
      <g fill="#000" fill-rule="nonzero" transform="translate(1 3)">
        <path d="M19.65,0.8 L2.95,0.8 C1.8454305,0.8 0.95,1.6954305 0.95,2.8 L0.95,15.8 C0.95,16.9045695 1.8454305,17.8 2.95,17.8 L19.65,17.8 C20.7545695,17.8 21.65,16.9045695 21.65,15.8 L21.65,2.8 C21.65,1.6954305 20.7545695,0.8 19.65,0.8 Z M2.95,15.8 L2.95,2.8 L19.65,2.8 L19.65,15.8 L2.95,15.8 Z"/>
        <path d="M10.95,7.55 C10.5357864,7.55 10.2,7.88578644 10.2,8.3 L10.2,10.3 C10.2,10.7142136 10.5357864,11.05 10.95,11.05 C11.3642136,11.05 11.7,10.7142136 11.7,10.3 L11.7,8.3 C11.7,7.88578644 11.3642136,7.55 10.95,7.55 L10.95,7.55 Z M14.1,5.55 C13.6857864,5.55 13.35,5.88578644 13.35,6.3 L13.35,12.3 C13.35,12.7142135 13.6857865,13.05 14.1,13.05 C14.5142135,13.05 14.85,12.7142135 14.85,12.3 L14.85,6.3 C14.85,5.88578644 14.5142136,5.55 14.1,5.55 L14.1,5.55 Z M17.25,4.55 C16.8357864,4.55 16.5,4.88578644 16.5,5.3 L16.5,13.3 C16.5,13.7142136 16.8357864,14.05 17.25,14.05 C17.6642136,14.05 18,13.7142136 18,13.3 L18,5.3 C18,4.88578644 17.6642136,4.55 17.25,4.55 Z M8.34,5 C7.91933029,4.87272514 7.46486896,5.03503276 7.22,5.4 L6.32,6.75 L5,6.75 C4.44771525,6.75 4,7.19771525 4,7.75 L4,10.75 C4,11.3022847 4.44771525,11.75 5,11.75 L6.31,11.75 L7.21,13.1 C7.39398349,13.3793852 7.7054809,13.5482694 8.04,13.55 C8.13615315,13.5640911 8.23384685,13.5640911 8.33,13.55 C8.76728287,13.4179485 9.05950364,13.0063699 9.04,12.55 L9.04,6 C9.06076594,5.5463999 8.77330924,5.13574747 8.34,5 L8.34,5 Z"/>
      </g>
    </g>
  </g>
</svg>
