<svg width="24" height="24" viewBox="0 0 24 24" fill="none" xmlns="http://www.w3.org/2000/svg">
  <path fill-rule="evenodd" clip-rule="evenodd"
    d="M8.53247 10.971H9.85497L9.2033 8.89426L8.53247 10.971ZM10.4971 12.7552L10.1617 11.673H8.245L7.89042 12.7552H6.75L8.60917 7.5H9.84542L11.6758 12.7552H10.4971Z"
    fill="#292929" />
  <path fill-rule="evenodd" clip-rule="evenodd"
    d="M15.8922 8.86501C15.7293 8.57251 15.3843 8.43601 14.8956 8.43601H13.8893V11.7803H14.8956C15.4131 11.7803 15.7676 11.517 15.9689 11.01C16.0839 10.737 16.1318 10.542 16.1318 10.0057C16.1318 9.4695 16.0551 9.15751 15.8922 8.86501ZM16.8314 11.7803C16.4576 12.4238 15.8731 12.7552 15.0872 12.7552H12.8447V7.5H15.0872C15.4131 7.5 15.6718 7.539 15.8922 7.617C16.2564 7.734 16.5439 7.95825 16.7739 8.28975H16.7835C16.9656 8.54325 17.0901 8.83575 17.1572 9.138C17.1739 9.2133 17.1883 9.26137 17.2004 9.30195C17.2368 9.42428 17.2531 9.47864 17.2531 10.0058C17.2531 10.7078 17.0997 11.3025 16.8314 11.7803Z"
    fill="#292929" />
  <path fill-rule="evenodd" clip-rule="evenodd"
    d="M17.7799 4.53074H6.21993C5.21368 4.53074 4.72493 4.94024 4.72493 5.76899V14.934C4.72493 15.7725 5.21368 16.1722 6.21993 16.1722H13.017L16.1891 18.8632V16.1722H17.7799C18.7862 16.1722 19.2749 15.753 19.2749 14.934V5.76899C19.2749 4.93049 18.7862 4.53074 17.7799 4.53074ZM18.5371 17.6835C19.8979 17.6835 21 16.7378 21 15.5775V5.106C21 3.94575 19.9075 3.00975 18.5563 3H5.44375C4.10208 3 3 3.94575 3 5.106V15.5775C3 16.7475 4.10208 17.6835 5.44375 17.6835H11.4717L17.9046 22.5V17.6835H18.5371Z"
    fill="#292929" />
</svg>
