<svg xmlns="http://www.w3.org/2000/svg" width="24" height="24" viewBox="0 0 24 24">
  <g fill="none" fill-rule="evenodd" transform="translate(-360 -24)">
    <rect width="504" height="450" fill="#FFF"/>
    <g transform="translate(360 24)">
      <rect width="24" height="24"/>
      <g fill="#000" fill-rule="nonzero">
        <path d="M15.9323077,9.10153846 L14.4646154,9.10153846 L14.4646154,15.0553846 L16.3107692,15.0553846 C17.5015385,15.0553846 18.6369231,14.3169231 18.6369231,12.2215385 C18.6184615,10.32 17.9630769,9.10153846 15.9323077,9.10153846 Z M7.12615385,9.68307692 L5.91692308,13.1446154 L8.32615385,13.1446154 L7.15384615,9.68307692 L7.12615385,9.68307692 L7.12615385,9.68307692 Z"/>
        <path d="M20.6953846,0 L3.30461538,0 C1.4795267,-1.11754451e-16 2.23508901e-16,1.4795267 0,3.30461538 L0,20.6953846 C2.23508901e-16,22.5204733 1.4795267,24 3.30461538,24 L20.6953846,24 C22.5204733,24 24,22.5204733 24,20.6953846 L24,3.30461538 C24,1.4795267 22.5204733,1.11754451e-16 20.6953846,0 Z M9.56307692,16.8 L8.86153846,14.6953846 L5.38153846,14.6953846 L4.61538462,16.8 L2.57538462,16.8 L6.11076923,7.38461538 L8.20615385,7.38461538 L11.6953846,16.8 L9.56307692,16.8 Z M16.4307692,16.8 L12.4153846,16.8 L12.4153846,7.38461538 L16.4307692,7.38461538 C18.8492308,7.38461538 20.6584615,8.91692308 20.6584615,12.0553846 C20.6676923,14.7692308 19.2830769,16.8 16.44,16.8 L16.4307692,16.8 Z"/>
      </g>
    </g>
  </g>
</svg>
