<svg width="24" height="24" viewBox="0 0 24 24" fill="none" xmlns="http://www.w3.org/2000/svg">
  <g clip-path="url(#clip0_8324_4086)">
    <path d="M9.77014 11.16H8.39014L9.09014 9.03003L9.77014 11.16Z" class="icon__shape" fill="currentColor" />
    <path
      d="M16.0698 9.00006C15.8998 8.70006 15.5398 8.56006 15.0298 8.56006H13.9798V12.0901H15.0298C15.5698 12.0901 15.9398 11.8201 16.1498 11.3001C16.2698 11.0201 16.3198 10.8201 16.3198 10.2701C16.3198 9.72006 16.2398 9.30006 16.0698 9.00006ZM16.0698 9.00006C15.8998 8.70006 15.5398 8.56006 15.0298 8.56006H13.9798V12.0901H15.0298C15.5698 12.0901 15.9398 11.8201 16.1498 11.3001C16.2698 11.0201 16.3198 10.8201 16.3198 10.2701C16.3198 9.72006 16.2398 9.30006 16.0698 9.00006ZM16.0698 9.00006C15.8998 8.70006 15.5398 8.56006 15.0298 8.56006H13.9798V12.0901H15.0298C15.5698 12.0901 15.9398 11.8201 16.1498 11.3001C16.2698 11.0201 16.3198 10.8201 16.3198 10.2701C16.3198 9.72006 16.2398 9.30006 16.0698 9.00006ZM16.0698 9.00006C15.8998 8.70006 15.5398 8.56006 15.0298 8.56006H13.9798V12.0901H15.0298C15.5698 12.0901 15.9398 11.8201 16.1498 11.3001C16.2698 11.0201 16.3198 10.8201 16.3198 10.2701C16.3198 9.72006 16.2398 9.30006 16.0698 9.00006ZM17.6398 4.57007H6.3598C5.3098 4.57007 4.7998 4.99007 4.7998 5.84007V15.2401C4.7998 16.1001 5.3098 16.5101 6.3598 16.5101H12.6698L15.9798 19.2701V16.5101H17.6398C18.6898 16.5101 19.1998 16.0801 19.1998 15.2401V5.84007C19.1998 4.98007 18.6898 4.57007 17.6398 4.57007ZM10.4398 12.9901L10.0898 11.8801H8.0898L7.7198 12.9901H6.5298L8.4698 7.60007H9.7598L11.6698 12.9901H10.4398ZM17.0498 11.9901C16.6598 12.6501 16.0498 12.9901 15.2298 12.9901H12.8898V7.60007H15.2298C15.5698 7.60007 15.8398 7.64007 16.0698 7.72007C16.4498 7.84007 16.7498 8.07007 16.9898 8.41007H16.9998C17.1898 8.67007 17.3198 8.97007 17.3898 9.28007C17.4598 9.59007 17.4898 9.45007 17.4898 10.1701C17.4898 10.8901 17.3298 11.5001 17.0498 11.9901ZM15.0298 8.56006H13.9798V12.0901H15.0298C15.5698 12.0901 15.9398 11.8201 16.1498 11.3001C16.2698 11.0201 16.3198 10.8201 16.3198 10.2701C16.3198 9.72006 16.2398 9.30006 16.0698 9.00006C15.8998 8.70006 15.5398 8.56006 15.0298 8.56006ZM16.0698 9.00006C15.8998 8.70006 15.5398 8.56006 15.0298 8.56006H13.9798V12.0901H15.0298C15.5698 12.0901 15.9398 11.8201 16.1498 11.3001C16.2698 11.0201 16.3198 10.8201 16.3198 10.2701C16.3198 9.72006 16.2398 9.30006 16.0698 9.00006ZM16.0698 9.00006C15.8998 8.70006 15.5398 8.56006 15.0298 8.56006H13.9798V12.0901H15.0298C15.5698 12.0901 15.9398 11.8201 16.1498 11.3001C16.2698 11.0201 16.3198 10.8201 16.3198 10.2701C16.3198 9.72006 16.2398 9.30006 16.0698 9.00006ZM16.0698 9.00006C15.8998 8.70006 15.5398 8.56006 15.0298 8.56006H13.9798V12.0901H15.0298C15.5698 12.0901 15.9398 11.8201 16.1498 11.3001C16.2698 11.0201 16.3198 10.8201 16.3198 10.2701C16.3198 9.72006 16.2398 9.30006 16.0698 9.00006ZM16.0698 9.00006C15.8998 8.70006 15.5398 8.56006 15.0298 8.56006H13.9798V12.0901H15.0298C15.5698 12.0901 15.9398 11.8201 16.1498 11.3001C16.2698 11.0201 16.3198 10.8201 16.3198 10.2701C16.3198 9.72006 16.2398 9.30006 16.0698 9.00006Z"
      class="icon__shape" fill="currentColor" />
    <path
      d="M20.7 0H3.3C1.48 0 0 1.48 0 3.31V20.7C0 22.52 1.48 24 3.3 24H20.7C22.52 24 24 22.52 24 20.7V3.31C24 1.48 22.52 0 20.7 0ZM21 15.9C21 17.09 19.85 18.06 18.43 18.06H17.77V23L11.84 18.06H5.55C4.15 18.06 3 17.1 3 15.9V5.16C3 3.97 4.15 3 5.55 3H18.45C19.86 3.01 21 3.97 21 5.16V15.9Z"
      class="icon__shape" fill="currentColor" />
  </g>
  <defs>
    <clipPath id="clip0_8324_4086">
      <rect width="24" height="24" fill="white" />
    </clipPath>
  </defs>
</svg>
