<svg width="24" height="24" viewBox="0 0 24 24" fill="none" xmlns="http://www.w3.org/2000/svg">
  <g clip-path="url(#clip0_8256_890)">
    <path fill-rule="evenodd" clip-rule="evenodd"
      d="M3 0C1.34315 0 0 1.34315 0 3V21C0 22.6569 1.34315 24 3 24H21C22.6569 24 24 22.6569 24 21V3C24 1.34315 22.6569 0 21 0H3ZM18.7799 4.53074H5.21993C4.21368 4.53074 3.72493 4.94024 3.72493 5.76899V14.934C3.72493 15.7725 4.21368 16.1722 5.21993 16.1722H14.017L17.1891 18.8632V16.1722H18.7799C19.7862 16.1722 20.2749 15.753 20.2749 14.934V5.76899C20.2749 4.93049 19.7862 4.53074 18.7799 4.53074ZM19.5371 17.6835C20.8979 17.6835 22 16.7378 22 15.5775V5.106C22 3.94575 20.9075 3.00975 19.5563 3H4.44375C3.10208 3 2 3.94575 2 5.106V15.5775C2 16.7475 3.10208 17.6835 4.44375 17.6835H12.4717L18.9046 22.5V17.6835H19.5371ZM9.3684 11.4691H7.60614L8.50004 8.70177L9.3684 11.4691ZM9.77709 12.4045L10.224 13.8466H11.7948L9.35568 6.84387H7.70834L5.23096 13.8466H6.75059L7.22308 12.4045H9.77709ZM15.6271 8.09113C16.2784 8.09113 16.7381 8.27302 16.9552 8.66278C17.1723 9.05254 17.2745 9.46828 17.2745 10.1828C17.2745 10.8974 17.2106 11.1573 17.0574 11.521C16.7892 12.1966 16.3167 12.5474 15.6271 12.5474H14.2863V8.09113H15.6271ZM15.8826 13.8466C16.9297 13.8466 17.7087 13.4049 18.2067 12.5474C18.5643 11.9108 18.7686 11.1183 18.7686 10.1828C18.7686 9.48046 18.747 9.40802 18.6984 9.24502C18.6822 9.19094 18.6631 9.12689 18.6409 9.02655C18.5515 8.62379 18.3855 8.23403 18.1428 7.89623H18.1301C17.8236 7.4545 17.4405 7.15568 16.9552 6.99978C16.6615 6.89584 16.3167 6.84387 15.8826 6.84387H12.8944V13.8466H15.8826Z"
      class="icon__shape" fill="currentColor" />
  </g>
  <defs>
    <clipPath id="clip0_8256_890">
      <rect width="24" height="24" fill="white" />
    </clipPath>
  </defs>
</svg>
