<svg xmlns="http://www.w3.org/2000/svg" width="24" height="24" viewBox="0 0 24 24">
  <g fill="none" fill-rule="evenodd" transform="translate(-456 -24)">
    <rect width="504" height="450" fill="#FFF"/>
    <g transform="translate(456 24)">
      <rect width="24" height="24"/>
      <path fill="#000" fill-rule="nonzero" d="M18,0.3 L13.12,0.3 C11.8628951,0.394385408 10.7159655,1.05239953 10,2.09 C9.28504112,1.05130621 8.13754068,0.392964611 6.88,0.3 L2,0.3 C0.8954305,0.3 0,1.1954305 0,2.3 L0,13.3 C0,14.4045695 0.8954305,15.3 2,15.3 L6.88,15.3 C7.81529233,15.2569688 8.68257557,15.7876352 9.07,16.64 L9.07,16.71 C9.11535372,16.794416 9.17260581,16.8718747 9.24,16.94 L9.3,16.99 C9.38262177,17.0652215 9.47726599,17.1260642 9.58,17.17 C9.68838586,17.2129761 9.80345248,17.2366663 9.92,17.24 L10.23,17.24 L10.32,17.19 C10.3876409,17.1572659 10.4513766,17.1170117 10.51,17.07 L10.62,16.97 C10.6932232,16.8801871 10.7568996,16.7829968 10.81,16.68 C11.1995785,15.8295431 12.065426,15.2997552 13,15.34 L18,15.34 C19.1045695,15.34 20,14.4445695 20,13.34 L20,2.34 C20.0107487,1.80267076 19.8047898,1.28362611 19.4285457,0.899857138 C19.0523016,0.516088164 18.5374367,0.299892502 18,0.3 Z M18,13.3 L13.12,13.3 C11.9524223,13.2702574 10.8240611,13.7223251 10,14.55 C9.17593888,13.7223251 8.04757774,13.2702574 6.88,13.3 L2,13.32 L2,2.3 L6.88,2.3 C8.05504644,2.58378293 8.91202975,3.59437646 9,4.8 L9,11.8 C9,12.3522847 9.44771525,12.8 10,12.8 C10.5522847,12.8 11,12.3522847 11,11.8 L11,4.8 C11.0848633,3.59310867 11.9431951,2.58092488 13.12,2.3 L18,2.3 L18,13.3 Z" transform="translate(2 3)"/>
    </g>
  </g>
</svg>
