<svg xmlns="http://www.w3.org/2000/svg" viewBox="0 0 24 24"><path class="icon__shape" fill="currentColor" d="M6.48,9.84c-.22-.07-.5-.11-.84-.11h-1.55v1.54h1.74c.31,0,.56-.06.75-.17.19-.12.29-.32.29-.61,0-.33-.13-.54-.38-.64ZM6.55,12.53c-.17-.07-.41-.12-.71-.12h-1.76v1.86h1.73c.31,0,.55-.04.72-.12.31-.15.47-.44.47-.87,0-.36-.15-.61-.45-.75ZM6.55,12.53c-.17-.07-.41-.12-.71-.12h-1.76v1.86h1.73c.31,0,.55-.04.72-.12.31-.15.47-.44.47-.87,0-.36-.15-.61-.45-.75ZM6.57,11.09c.19-.12.29-.32.29-.61,0-.33-.13-.54-.38-.64-.22-.07-.5-.11-.84-.11h-1.55v1.54h1.74c.31,0,.56-.06.75-.17ZM20.66,0H3.35C1.51,0,0,1.51,0,3.35v17.31c0,1.84,1.51,3.35,3.35,3.35h17.31c1.84,0,3.35-1.51,3.35-3.35V3.35C24,1.51,22.5,0,20.66,0ZM8.2,14.49c-.13.22-.3.4-.5.55-.23.17-.5.29-.81.35-.31.06-.65.09-1.01.09h-3.22v-6.96h3.45c.87.01,1.49.26,1.85.74.22.3.33.65.33,1.06s-.11.77-.33,1.03c-.12.15-.3.28-.54.4.36.13.64.34.82.61.18.28.28.62.28,1.02s-.11.78-.32,1.11ZM14.5,15.04c-.5.42-1.22.63-2.14.63s-1.68-.21-2.22-.62c-.54-.41-.81-.98-.81-1.71h1.42c.05.32.14.56.27.71.25.29.67.43,1.27.43.36,0,.65-.04.87-.11.43-.14.64-.41.64-.81,0-.23-.1-.41-.31-.53-.21-.12-.54-.23-.99-.33l-.77-.16c-.76-.16-1.28-.34-1.57-.54-.48-.32-.72-.82-.72-1.51,0-.62.24-1.14.71-1.55.47-.41,1.16-.62,2.07-.62.76,0,1.41.19,1.95.58.54.39.82.95.84,1.7h-1.43c-.03-.42-.22-.72-.58-.89-.24-.12-.53-.17-.89-.17-.39,0-.71.08-.94.23-.23.15-.35.36-.35.63,0,.25.12.44.35.56.15.08.47.18.95.29l1.25.29c.55.13.96.29,1.24.51.43.33.64.8.64,1.42s-.25,1.17-.76,1.58ZM21.35,15.48h-5.06v-6.96h1.49v5.71h3.56v1.25ZM6.55,12.53c-.17-.07-.41-.12-.71-.12h-1.76v1.86h1.73c.31,0,.55-.04.72-.12.31-.15.47-.44.47-.87,0-.36-.15-.61-.45-.75ZM6.57,11.09c.19-.12.29-.32.29-.61,0-.33-.13-.54-.38-.64-.22-.07-.5-.11-.84-.11h-1.55v1.54h1.74c.31,0,.56-.06.75-.17Z"/></svg>