<svg viewBox="0 0 24 24" xmlns="http://www.w3.org/2000/svg"><path class="icon__shape" fill="currentColor" d="M21.7982 14.2272H18.2244V8.51941H16.7339V15.4806H21.7982V14.2272ZM15.7177 13.4651C15.7177 12.8384 15.4975 12.3641 15.0741 12.0423C14.8031 11.8391 14.3797 11.6697 13.8377 11.5342L12.5843 11.2463C12.0932 11.1277 11.7883 11.043 11.6358 10.9584C11.3987 10.8398 11.2802 10.6535 11.2802 10.3994C11.2802 10.1454 11.3987 9.92519 11.6358 9.77276C11.873 9.62032 12.1778 9.55258 12.5843 9.55258C12.9908 9.55258 13.2279 9.60339 13.4651 9.72195C13.8207 9.89132 14.0071 10.1962 14.0409 10.6196H15.4806C15.4467 9.87438 15.1757 9.31545 14.6337 8.9259C14.0917 8.53634 13.4481 8.35003 12.686 8.35003C11.9238 8.35003 11.0769 8.55328 10.6196 8.97671C10.1454 9.3832 9.90826 9.90826 9.90826 10.5349C9.90826 11.1616 10.1454 11.7205 10.6366 12.0423C10.9245 12.2287 11.4495 12.415 12.1948 12.5843L12.9739 12.7537C13.4312 12.8553 13.753 12.957 13.9732 13.0755C14.1764 13.1941 14.2781 13.3804 14.2781 13.6175C14.2781 14.0071 14.0579 14.2781 13.6344 14.4305C13.4143 14.4982 13.1263 14.549 12.7537 14.549C12.1609 14.549 11.7375 14.4135 11.4834 14.1256C11.3479 13.9732 11.2632 13.7361 11.2124 13.4143H9.7897C9.7897 14.1426 10.0607 14.7015 10.6027 15.1249C11.1447 15.5314 11.873 15.7516 12.8215 15.7516C13.7699 15.7516 14.4474 15.5483 14.9555 15.1249C15.4637 14.7015 15.7177 14.1764 15.7177 13.5328M8.97671 13.3804C8.97671 12.9739 8.89202 12.6351 8.70572 12.3641C8.51941 12.0762 8.24841 11.873 7.87579 11.7544C8.11291 11.6358 8.29922 11.5004 8.41778 11.3649C8.63797 11.1108 8.75653 10.7721 8.75653 10.3317C8.75653 9.89132 8.6549 9.56951 8.43472 9.26464C8.07904 8.7904 7.45236 8.53634 6.58857 8.51941H3.13338V15.4806H6.35145C6.70713 15.4806 7.04587 15.4467 7.36768 15.379C7.67255 15.3112 7.94354 15.1927 8.18066 15.0233C8.38391 14.8709 8.55328 14.6845 8.68878 14.4813C8.89202 14.1595 9.01059 13.7869 9.01059 13.3634M24 3.35356V20.6634C24 22.5095 22.4926 24.0169 20.6464 24.0169H3.35356C1.50741 24.0169 0 22.5095 0 20.6634V3.35356C0 1.50741 1.50741 0 3.35356 0H20.6634C22.5095 0 24.0169 1.50741 24.0169 3.35356M7.02893 11.0939C7.21524 10.9753 7.31687 10.7721 7.31687 10.4841C7.31687 10.1962 7.18137 9.94213 6.92731 9.84051C6.70713 9.77276 6.4192 9.73888 6.08045 9.73888H4.52223V11.2802H6.24982C6.55469 11.2802 6.80875 11.2294 7.012 11.1108M7.4693 13.2788C7.4693 13.7022 7.31687 13.9901 6.99506 14.1426C6.82569 14.2272 6.58857 14.2611 6.26676 14.2611H4.53917V12.398H6.30063C6.6055 12.398 6.84263 12.4488 7.012 12.5166C7.31687 12.6521 7.4693 12.9061 7.4693 13.2618" /></svg>