<svg xmlns="http://www.w3.org/2000/svg" viewBox="0 0 24 24"><path class="icon__shape" fill="currentColor" d="M12.72,18.71s-.08-.05-.12-.09l-4.54-.88c-.16,0-.24-.16-.24-.32s.16-.24.32-.24l4.5.96,1.12.16c0-.48-.32-.96-.8-1.04l-3.86-.8c-.16,0-.24-.16-.24-.32s.16-.24.32-.24l2.21.45c-.61-1.32-1.37-2.63-1.73-2.7-1.36-.08-2.73.24-3.94.96-.64.48-1.69,2.09-1.13,2.89.32.56.8,1.12,1.37,1.69,0,0,1.45,1.29,2.17.72.28-.21.5-.37.69-.49l-1.09-.23c-.16,0-.24-.16-.24-.32s.16-.24.32-.24l1.86.4h0l.07.02,2.57.55,1.21.16c0-.48-.32-.96-.8-1.04ZM12.72,18.71s-.08-.05-.12-.09l-4.54-.88c-.16,0-.24-.16-.24-.32s.16-.24.32-.24l4.5.96,1.12.16c0-.48-.32-.96-.8-1.04l-3.86-.8c-.16,0-.24-.16-.24-.32s.16-.24.32-.24l2.21.45c-.61-1.32-1.37-2.63-1.73-2.7-1.36-.08-2.73.24-3.94.96-.64.48-1.69,2.09-1.13,2.89.32.56.8,1.12,1.37,1.69,0,0,1.45,1.29,2.17.72.28-.21.5-.37.69-.49l-1.09-.23c-.16,0-.24-.16-.24-.32s.16-.24.32-.24l1.86.4h0l.07.02,2.57.55,1.21.16c0-.48-.32-.96-.8-1.04ZM12.72,18.71s-.08-.05-.12-.09l-4.54-.88c-.16,0-.24-.16-.24-.32s.16-.24.32-.24l4.5.96,1.12.16c0-.48-.32-.96-.8-1.04l-3.86-.8c-.16,0-.24-.16-.24-.32s.16-.24.32-.24l2.21.45c-.61-1.32-1.37-2.63-1.73-2.7-1.36-.08-2.73.24-3.94.96-.64.48-1.69,2.09-1.13,2.89.32.56.8,1.12,1.37,1.69,0,0,1.45,1.29,2.17.72.28-.21.5-.37.69-.49l-1.09-.23c-.16,0-.24-.16-.24-.32s.16-.24.32-.24l1.86.4h0l.07.02,2.57.55,1.21.16c0-.48-.32-.96-.8-1.04ZM14.91,11.27c-.04.08-.07.15-.1.2-.32.4-.8.56-1.37.48-.32,0-.4.16-.56.72v.08c-.23.76-.1,1.59.39,2.22l.17-1.18.08-.08c.56-.32,1.04-.72,1.53-1.2.24-.29.04-.85-.14-1.25ZM13.93,14.13l-.16,1.13c.24-.08.56-.24.72-.48.06-.06.21-.08.32-.05l.29-1.42c-.35.33-.72.6-1.17.82ZM15.78,9.87c-.08,0-.24.08-.32.24-.03.07-.13.27-.23.5h0c.04.08.18.31.3.61l.18-.86.08-.08.24-.24c-.08-.08-.16-.16-.24-.16ZM17.63,10.51l-.32-.08c-.24,0-.48.08-.64.16l-.32.16-.96,4.34h.64c.08,0,.48-.16,1.12-2.73.08-.16.08-.24.08-.24.08-.16.24-.16.4-.08.08.08.16.24.08.32v.16c-.48,2.17-1.04,3.13-1.61,3.13-.4.08-.88.08-1.29-.08l-.16-.08.02-.08c-.19.2-.41.35-.63.45.6.55,1.35.93,2.14,1.15.8.24,1.69,0,2.33-.64l.32-.24c.56-.4.88-1.69.88-3.46,0-1.53-1.45-1.93-2.09-2.17ZM14.91,11.27c-.04.08-.07.15-.1.2-.32.4-.8.56-1.37.48-.32,0-.4.16-.56.72v.08c-.23.76-.1,1.59.39,2.22l.17-1.18.08-.08c.56-.32,1.04-.72,1.53-1.2.24-.29.04-.85-.14-1.25ZM13.93,14.13l-.16,1.13c.24-.08.56-.24.72-.48.06-.06.21-.08.32-.05l.29-1.42c-.35.33-.72.6-1.17.82ZM15.78,9.87c-.08,0-.24.08-.32.24-.03.07-.13.27-.23.5h0c.04.08.18.31.3.61l.18-.86.08-.08.24-.24c-.08-.08-.16-.16-.24-.16ZM17.63,10.51l-.32-.08c-.24,0-.48.08-.64.16l-.32.16-.96,4.34h.64c.08,0,.48-.16,1.12-2.73.08-.16.08-.24.08-.24.08-.16.24-.16.4-.08.08.08.16.24.08.32v.16c-.48,2.17-1.04,3.13-1.61,3.13-.4.08-.88.08-1.29-.08l-.16-.08.02-.08c-.19.2-.41.35-.63.45.6.55,1.35.93,2.14,1.15.8.24,1.69,0,2.33-.64l.32-.24c.56-.4.88-1.69.88-3.46,0-1.53-1.45-1.93-2.09-2.17ZM14.89,4.09c-.24.08-.4.16-.56.32-.08.16-.16.4-.08.64.06.69.66,3.28.96,4.43.15-.1.32-.17.49-.17.32,0,.64.24.8.48.03-.01.05-.02.08-.03l-1.68-5.67ZM14.73,10.11c0-.14-.75-2.99-1.03-4.45-.53.18-.89.75-.82,1.31.31,1.45.68,2.9,1.27,4.29.04-.03.08-.07.1-.11.06-.12.31-.67.49-1.02,0,0,0-.02-.01-.02ZM12.72,18.71s-.08-.05-.12-.09l-4.54-.88c-.16,0-.24-.16-.24-.32s.16-.24.32-.24l4.5.96,1.12.16c0-.48-.32-.96-.8-1.04l-3.86-.8c-.16,0-.24-.16-.24-.32s.16-.24.32-.24l2.21.45c-.61-1.32-1.37-2.63-1.73-2.7-1.36-.08-2.73.24-3.94.96-.64.48-1.69,2.09-1.13,2.89.32.56.8,1.12,1.37,1.69,0,0,1.45,1.29,2.17.72.28-.21.5-.37.69-.49l-1.09-.23c-.16,0-.24-.16-.24-.32s.16-.24.32-.24l1.86.4h0l.07.02,2.57.55,1.21.16c0-.48-.32-.96-.8-1.04ZM12.72,18.71s-.08-.05-.12-.09l-4.54-.88c-.16,0-.24-.16-.24-.32s.16-.24.32-.24l4.5.96,1.12.16c0-.48-.32-.96-.8-1.04l-3.86-.8c-.16,0-.24-.16-.24-.32s.16-.24.32-.24l2.21.45c-.61-1.32-1.37-2.63-1.73-2.7-1.36-.08-2.73.24-3.94.96-.64.48-1.69,2.09-1.13,2.89.32.56.8,1.12,1.37,1.69,0,0,1.45,1.29,2.17.72.28-.21.5-.37.69-.49l-1.09-.23c-.16,0-.24-.16-.24-.32s.16-.24.32-.24l1.86.4h0l.07.02,2.57.55,1.21.16c0-.48-.32-.96-.8-1.04ZM14.91,11.27c-.04.08-.07.15-.1.2-.32.4-.8.56-1.37.48-.32,0-.4.16-.56.72v.08c-.23.76-.1,1.59.39,2.22l.17-1.18.08-.08c.56-.32,1.04-.72,1.53-1.2.24-.29.04-.85-.14-1.25ZM13.93,14.13l-.16,1.13c.24-.08.56-.24.72-.48.06-.06.21-.08.32-.05l.29-1.42c-.35.33-.72.6-1.17.82ZM15.78,9.87c-.08,0-.24.08-.32.24-.03.07-.13.27-.23.5h0c.04.08.18.31.3.61l.18-.86.08-.08.24-.24c-.08-.08-.16-.16-.24-.16ZM17.63,10.51l-.32-.08c-.24,0-.48.08-.64.16l-.32.16-.96,4.34h.64c.08,0,.48-.16,1.12-2.73.08-.16.08-.24.08-.24.08-.16.24-.16.4-.08.08.08.16.24.08.32v.16c-.48,2.17-1.04,3.13-1.61,3.13-.4.08-.88.08-1.29-.08l-.16-.08.02-.08c-.19.2-.41.35-.63.45.6.55,1.35.93,2.14,1.15.8.24,1.69,0,2.33-.64l.32-.24c.56-.4.88-1.69.88-3.46,0-1.53-1.45-1.93-2.09-2.17ZM17.63,10.51l-.32-.08c-.24,0-.48.08-.64.16l-.32.16-.96,4.34h.64c.08,0,.48-.16,1.12-2.73.08-.16.08-.24.08-.24.08-.16.24-.16.4-.08.08.08.16.24.08.32v.16c-.48,2.17-1.04,3.13-1.61,3.13-.4.08-.88.08-1.29-.08l-.16-.08.02-.08c-.19.2-.41.35-.63.45.6.55,1.35.93,2.14,1.15.8.24,1.69,0,2.33-.64l.32-.24c.56-.4.88-1.69.88-3.46,0-1.53-1.45-1.93-2.09-2.17ZM14.89,4.09c-.24.08-.4.16-.56.32-.08.16-.16.4-.08.64.06.69.66,3.28.96,4.43.15-.1.32-.17.49-.17.32,0,.64.24.8.48.03-.01.05-.02.08-.03l-1.68-5.67ZM15.78,9.87c-.08,0-.24.08-.32.24-.03.07-.13.27-.23.5h0c.04.08.18.31.3.61l.18-.86.08-.08.24-.24c-.08-.08-.16-.16-.24-.16ZM13.93,14.13l-.16,1.13c.24-.08.56-.24.72-.48.06-.06.21-.08.32-.05l.29-1.42c-.35.33-.72.6-1.17.82ZM14.91,11.27c-.04.08-.07.15-.1.2-.32.4-.8.56-1.37.48-.32,0-.4.16-.56.72v.08c-.23.76-.1,1.59.39,2.22l.17-1.18.08-.08c.56-.32,1.04-.72,1.53-1.2.24-.29.04-.85-.14-1.25ZM14.73,10.11c0-.14-.75-2.99-1.03-4.45-.53.18-.89.75-.82,1.31.31,1.45.68,2.9,1.27,4.29.04-.03.08-.07.1-.11.06-.12.31-.67.49-1.02,0,0,0-.02-.01-.02ZM12.72,18.71s-.08-.05-.12-.09l-4.54-.88c-.16,0-.24-.16-.24-.32s.16-.24.32-.24l4.5.96,1.12.16c0-.48-.32-.96-.8-1.04l-3.86-.8c-.16,0-.24-.16-.24-.32s.16-.24.32-.24l2.21.45c-.61-1.32-1.37-2.63-1.73-2.7-1.36-.08-2.73.24-3.94.96-.64.48-1.69,2.09-1.13,2.89.32.56.8,1.12,1.37,1.69,0,0,1.45,1.29,2.17.72.28-.21.5-.37.69-.49l-1.09-.23c-.16,0-.24-.16-.24-.32s.16-.24.32-.24l1.86.4h0l.07.02,2.57.55,1.21.16c0-.48-.32-.96-.8-1.04ZM12.72,18.71s-.08-.05-.12-.09l-4.54-.88c-.16,0-.24-.16-.24-.32s.16-.24.32-.24l4.5.96,1.12.16c0-.48-.32-.96-.8-1.04l-3.86-.8c-.16,0-.24-.16-.24-.32s.16-.24.32-.24l2.21.45c-.61-1.32-1.37-2.63-1.73-2.7-1.36-.08-2.73.24-3.94.96-.64.48-1.69,2.09-1.13,2.89.32.56.8,1.12,1.37,1.69,0,0,1.45,1.29,2.17.72.28-.21.5-.37.69-.49l-1.09-.23c-.16,0-.24-.16-.24-.32s.16-.24.32-.24l1.86.4h0l.07.02,2.57.55,1.21.16c0-.48-.32-.96-.8-1.04ZM14.91,11.27c-.04.08-.07.15-.1.2-.32.4-.8.56-1.37.48-.32,0-.4.16-.56.72v.08c-.23.76-.1,1.59.39,2.22l.17-1.18.08-.08c.56-.32,1.04-.72,1.53-1.2.24-.29.04-.85-.14-1.25ZM13.93,14.13l-.16,1.13c.24-.08.56-.24.72-.48.06-.06.21-.08.32-.05l.29-1.42c-.35.33-.72.6-1.17.82ZM15.78,9.87c-.08,0-.24.08-.32.24-.03.07-.13.27-.23.5h0c.04.08.18.31.3.61l.18-.86.08-.08.24-.24c-.08-.08-.16-.16-.24-.16ZM17.63,10.51l-.32-.08c-.24,0-.48.08-.64.16l-.32.16-.96,4.34h.64c.08,0,.48-.16,1.12-2.73.08-.16.08-.24.08-.24.08-.16.24-.16.4-.08.08.08.16.24.08.32v.16c-.48,2.17-1.04,3.13-1.61,3.13-.4.08-.88.08-1.29-.08l-.16-.08.02-.08c-.19.2-.41.35-.63.45.6.55,1.35.93,2.14,1.15.8.24,1.69,0,2.33-.64l.32-.24c.56-.4.88-1.69.88-3.46,0-1.53-1.45-1.93-2.09-2.17ZM17.63,10.51l-.32-.08c-.24,0-.48.08-.64.16l-.32.16-.96,4.34h.64c.08,0,.48-.16,1.12-2.73.08-.16.08-.24.08-.24.08-.16.24-.16.4-.08.08.08.16.24.08.32v.16c-.48,2.17-1.04,3.13-1.61,3.13-.4.08-.88.08-1.29-.08l-.16-.08.02-.08c-.19.2-.41.35-.63.45.6.55,1.35.93,2.14,1.15.8.24,1.69,0,2.33-.64l.32-.24c.56-.4.88-1.69.88-3.46,0-1.53-1.45-1.93-2.09-2.17ZM14.89,4.09c-.24.08-.4.16-.56.32-.08.16-.16.4-.08.64.06.69.66,3.28.96,4.43.15-.1.32-.17.49-.17.32,0,.64.24.8.48.03-.01.05-.02.08-.03l-1.68-5.67ZM15.78,9.87c-.08,0-.24.08-.32.24-.03.07-.13.27-.23.5h0c.04.08.18.31.3.61l.18-.86.08-.08.24-.24c-.08-.08-.16-.16-.24-.16ZM13.93,14.13l-.16,1.13c.24-.08.56-.24.72-.48.06-.06.21-.08.32-.05l.29-1.42c-.35.33-.72.6-1.17.82ZM14.91,11.27c-.04.08-.07.15-.1.2-.32.4-.8.56-1.37.48-.32,0-.4.16-.56.72v.08c-.23.76-.1,1.59.39,2.22l.17-1.18.08-.08c.56-.32,1.04-.72,1.53-1.2.24-.29.04-.85-.14-1.25ZM14.73,10.11c0-.14-.75-2.99-1.03-4.45-.53.18-.89.75-.82,1.31.31,1.45.68,2.9,1.27,4.29.04-.03.08-.07.1-.11.06-.12.31-.67.49-1.02,0,0,0-.02-.01-.02ZM12.72,18.71s-.08-.05-.12-.09l-4.54-.88c-.16,0-.24-.16-.24-.32s.16-.24.32-.24l4.5.96,1.12.16c0-.48-.32-.96-.8-1.04l-3.86-.8c-.16,0-.24-.16-.24-.32s.16-.24.32-.24l2.21.45c-.61-1.32-1.37-2.63-1.73-2.7-1.36-.08-2.73.24-3.94.96-.64.48-1.69,2.09-1.13,2.89.32.56.8,1.12,1.37,1.69,0,0,1.45,1.29,2.17.72.28-.21.5-.37.69-.49l-1.09-.23c-.16,0-.24-.16-.24-.32s.16-.24.32-.24l1.86.4h0l.07.02,2.57.55,1.21.16c0-.48-.32-.96-.8-1.04ZM12.72,18.71s-.08-.05-.12-.09l-4.54-.88c-.16,0-.24-.16-.24-.32s.16-.24.32-.24l4.5.96,1.12.16c0-.48-.32-.96-.8-1.04l-3.86-.8c-.16,0-.24-.16-.24-.32s.16-.24.32-.24l2.21.45c-.61-1.32-1.37-2.63-1.73-2.7-1.36-.08-2.73.24-3.94.96-.64.48-1.69,2.09-1.13,2.89.32.56.8,1.12,1.37,1.69,0,0,1.45,1.29,2.17.72.28-.21.5-.37.69-.49l-1.09-.23c-.16,0-.24-.16-.24-.32s.16-.24.32-.24l1.86.4h0l.07.02,2.57.55,1.21.16c0-.48-.32-.96-.8-1.04ZM14.91,11.27c-.04.08-.07.15-.1.2-.32.4-.8.56-1.37.48-.32,0-.4.16-.56.72v.08c-.23.76-.1,1.59.39,2.22l.17-1.18.08-.08c.56-.32,1.04-.72,1.53-1.2.24-.29.04-.85-.14-1.25ZM13.93,14.13l-.16,1.13c.24-.08.56-.24.72-.48.06-.06.21-.08.32-.05l.29-1.42c-.35.33-.72.6-1.17.82ZM15.78,9.87c-.08,0-.24.08-.32.24-.03.07-.13.27-.23.5h0c.04.08.18.31.3.61l.18-.86.08-.08.24-.24c-.08-.08-.16-.16-.24-.16ZM17.63,10.51l-.32-.08c-.24,0-.48.08-.64.16l-.32.16-.96,4.34h.64c.08,0,.48-.16,1.12-2.73.08-.16.08-.24.08-.24.08-.16.24-.16.4-.08.08.08.16.24.08.32v.16c-.48,2.17-1.04,3.13-1.61,3.13-.4.08-.88.08-1.29-.08l-.16-.08.02-.08c-.19.2-.41.35-.63.45.6.55,1.35.93,2.14,1.15.8.24,1.69,0,2.33-.64l.32-.24c.56-.4.88-1.69.88-3.46,0-1.53-1.45-1.93-2.09-2.17ZM17.63,10.51l-.32-.08c-.24,0-.48.08-.64.16l-.32.16-.96,4.34h.64c.08,0,.48-.16,1.12-2.73.08-.16.08-.24.08-.24.08-.16.24-.16.4-.08.08.08.16.24.08.32v.16c-.48,2.17-1.04,3.13-1.61,3.13-.4.08-.88.08-1.29-.08l-.16-.08.02-.08c-.19.2-.41.35-.63.45.6.55,1.35.93,2.14,1.15.8.24,1.69,0,2.33-.64l.32-.24c.56-.4.88-1.69.88-3.46,0-1.53-1.45-1.93-2.09-2.17ZM14.89,4.09c-.24.08-.4.16-.56.32-.08.16-.16.4-.08.64.06.69.66,3.28.96,4.43.15-.1.32-.17.49-.17.32,0,.64.24.8.48.03-.01.05-.02.08-.03l-1.68-5.67ZM15.78,9.87c-.08,0-.24.08-.32.24-.03.07-.13.27-.23.5h0c.04.08.18.31.3.61l.18-.86.08-.08.24-.24c-.08-.08-.16-.16-.24-.16ZM13.93,14.13l-.16,1.13c.24-.08.56-.24.72-.48.06-.06.21-.08.32-.05l.29-1.42c-.35.33-.72.6-1.17.82ZM14.91,11.27c-.04.08-.07.15-.1.2-.32.4-.8.56-1.37.48-.32,0-.4.16-.56.72v.08c-.23.76-.1,1.59.39,2.22l.17-1.18.08-.08c.56-.32,1.04-.72,1.53-1.2.24-.29.04-.85-.14-1.25ZM14.73,10.11c0-.14-.75-2.99-1.03-4.45-.53.18-.89.75-.82,1.31.31,1.45.68,2.9,1.27,4.29.04-.03.08-.07.1-.11.06-.12.31-.67.49-1.02,0,0,0-.02-.01-.02ZM12.72,18.71s-.08-.05-.12-.09l-4.54-.88c-.16,0-.24-.16-.24-.32s.16-.24.32-.24l4.5.96,1.12.16c0-.48-.32-.96-.8-1.04l-3.86-.8c-.16,0-.24-.16-.24-.32s.16-.24.32-.24l2.21.45c-.61-1.32-1.37-2.63-1.73-2.7-1.36-.08-2.73.24-3.94.96-.64.48-1.69,2.09-1.13,2.89.32.56.8,1.12,1.37,1.69,0,0,1.45,1.29,2.17.72.28-.21.5-.37.69-.49l-1.09-.23c-.16,0-.24-.16-.24-.32s.16-.24.32-.24l1.86.4h0l.07.02,2.57.55,1.21.16c0-.48-.32-.96-.8-1.04ZM12.72,18.71s-.08-.05-.12-.09l-4.54-.88c-.16,0-.24-.16-.24-.32s.16-.24.32-.24l4.5.96,1.12.16c0-.48-.32-.96-.8-1.04l-3.86-.8c-.16,0-.24-.16-.24-.32s.16-.24.32-.24l2.21.45c-.61-1.32-1.37-2.63-1.73-2.7-1.36-.08-2.73.24-3.94.96-.64.48-1.69,2.09-1.13,2.89.32.56.8,1.12,1.37,1.69,0,0,1.45,1.29,2.17.72.28-.21.5-.37.69-.49l-1.09-.23c-.16,0-.24-.16-.24-.32s.16-.24.32-.24l1.86.4h0l.07.02,2.57.55,1.21.16c0-.48-.32-.96-.8-1.04ZM14.91,11.27c-.04.08-.07.15-.1.2-.32.4-.8.56-1.37.48-.32,0-.4.16-.56.72v.08c-.23.76-.1,1.59.39,2.22l.17-1.18.08-.08c.56-.32,1.04-.72,1.53-1.2.24-.29.04-.85-.14-1.25ZM13.93,14.13l-.16,1.13c.24-.08.56-.24.72-.48.06-.06.21-.08.32-.05l.29-1.42c-.35.33-.72.6-1.17.82ZM15.78,9.87c-.08,0-.24.08-.32.24-.03.07-.13.27-.23.5h0c.04.08.18.31.3.61l.18-.86.08-.08.24-.24c-.08-.08-.16-.16-.24-.16ZM17.63,10.51l-.32-.08c-.24,0-.48.08-.64.16l-.32.16-.96,4.34h.64c.08,0,.48-.16,1.12-2.73.08-.16.08-.24.08-.24.08-.16.24-.16.4-.08.08.08.16.24.08.32v.16c-.48,2.17-1.04,3.13-1.61,3.13-.4.08-.88.08-1.29-.08l-.16-.08.02-.08c-.19.2-.41.35-.63.45.6.55,1.35.93,2.14,1.15.8.24,1.69,0,2.33-.64l.32-.24c.56-.4.88-1.69.88-3.46,0-1.53-1.45-1.93-2.09-2.17ZM17.63,10.51l-.32-.08c-.24,0-.48.08-.64.16l-.32.16-.96,4.34h.64c.08,0,.48-.16,1.12-2.73.08-.16.08-.24.08-.24.08-.16.24-.16.4-.08.08.08.16.24.08.32v.16c-.48,2.17-1.04,3.13-1.61,3.13-.4.08-.88.08-1.29-.08l-.16-.08.02-.08c-.19.2-.41.35-.63.45.6.55,1.35.93,2.14,1.15.8.24,1.69,0,2.33-.64l.32-.24c.56-.4.88-1.69.88-3.46,0-1.53-1.45-1.93-2.09-2.17ZM14.89,4.09c-.24.08-.4.16-.56.32-.08.16-.16.4-.08.64.06.69.66,3.28.96,4.43.15-.1.32-.17.49-.17.32,0,.64.24.8.48.03-.01.05-.02.08-.03l-1.68-5.67ZM15.78,9.87c-.08,0-.24.08-.32.24-.03.07-.13.27-.23.5h0c.04.08.18.31.3.61l.18-.86.08-.08.24-.24c-.08-.08-.16-.16-.24-.16ZM13.93,14.13l-.16,1.13c.24-.08.56-.24.72-.48.06-.06.21-.08.32-.05l.29-1.42c-.35.33-.72.6-1.17.82ZM14.91,11.27c-.04.08-.07.15-.1.2-.32.4-.8.56-1.37.48-.32,0-.4.16-.56.72v.08c-.23.76-.1,1.59.39,2.22l.17-1.18.08-.08c.56-.32,1.04-.72,1.53-1.2.24-.29.04-.85-.14-1.25ZM14.73,10.11c0-.14-.75-2.99-1.03-4.45-.53.18-.89.75-.82,1.31.31,1.45.68,2.9,1.27,4.29.04-.03.08-.07.1-.11.06-.12.31-.67.49-1.02,0,0,0-.02-.01-.02ZM12.72,18.71s-.08-.05-.12-.09l-4.54-.88c-.16,0-.24-.16-.24-.32s.16-.24.32-.24l4.5.96,1.12.16c0-.48-.32-.96-.8-1.04l-3.86-.8c-.16,0-.24-.16-.24-.32s.16-.24.32-.24l2.21.45c-.61-1.32-1.37-2.63-1.73-2.7-1.36-.08-2.73.24-3.94.96-.64.48-1.69,2.09-1.13,2.89.32.56.8,1.12,1.37,1.69,0,0,1.45,1.29,2.17.72.28-.21.5-.37.69-.49l-1.09-.23c-.16,0-.24-.16-.24-.32s.16-.24.32-.24l1.86.4h0l.07.02,2.57.55,1.21.16c0-.48-.32-.96-.8-1.04ZM12.72,18.71s-.08-.05-.12-.09l-4.54-.88c-.16,0-.24-.16-.24-.32s.16-.24.32-.24l4.5.96,1.12.16c0-.48-.32-.96-.8-1.04l-3.86-.8c-.16,0-.24-.16-.24-.32s.16-.24.32-.24l2.21.45c-.61-1.32-1.37-2.63-1.73-2.7-1.36-.08-2.73.24-3.94.96-.64.48-1.69,2.09-1.13,2.89.32.56.8,1.12,1.37,1.69,0,0,1.45,1.29,2.17.72.28-.21.5-.37.69-.49l-1.09-.23c-.16,0-.24-.16-.24-.32s.16-.24.32-.24l1.86.4h0l.07.02,2.57.55,1.21.16c0-.48-.32-.96-.8-1.04ZM14.73,10.11c0-.14-.75-2.99-1.03-4.45-.53.18-.89.75-.82,1.31.31,1.45.68,2.9,1.27,4.29.04-.03.08-.07.1-.11.06-.12.31-.67.49-1.02,0,0,0-.02-.01-.02ZM14.91,11.27c-.04.08-.07.15-.1.2-.32.4-.8.56-1.37.48-.32,0-.4.16-.56.72v.08c-.23.76-.1,1.59.39,2.22l.17-1.18.08-.08c.56-.32,1.04-.72,1.53-1.2.24-.29.04-.85-.14-1.25ZM13.93,14.13l-.16,1.13c.24-.08.56-.24.72-.48.06-.06.21-.08.32-.05l.29-1.42c-.35.33-.72.6-1.17.82ZM15.78,9.87c-.08,0-.24.08-.32.24-.03.07-.13.27-.23.5h0c.04.08.18.31.3.61l.18-.86.08-.08.24-.24c-.08-.08-.16-.16-.24-.16ZM14.89,4.09c-.24.08-.4.16-.56.32-.08.16-.16.4-.08.64.06.69.66,3.28.96,4.43.15-.1.32-.17.49-.17.32,0,.64.24.8.48.03-.01.05-.02.08-.03l-1.68-5.67ZM17.63,10.51l-.32-.08c-.24,0-.48.08-.64.16l-.32.16-.96,4.34h.64c.08,0,.48-.16,1.12-2.73.08-.16.08-.24.08-.24.08-.16.24-.16.4-.08.08.08.16.24.08.32v.16c-.48,2.17-1.04,3.13-1.61,3.13-.4.08-.88.08-1.29-.08l-.16-.08.02-.08c-.19.2-.41.35-.63.45.6.55,1.35.93,2.14,1.15.8.24,1.69,0,2.33-.64l.32-.24c.56-.4.88-1.69.88-3.46,0-1.53-1.45-1.93-2.09-2.17ZM17.63,10.51l-.32-.08c-.24,0-.48.08-.64.16l-.32.16-.96,4.34h.64c.08,0,.48-.16,1.12-2.73.08-.16.08-.24.08-.24.08-.16.24-.16.4-.08.08.08.16.24.08.32v.16c-.48,2.17-1.04,3.13-1.61,3.13-.4.08-.88.08-1.29-.08l-.16-.08.02-.08c-.19.2-.41.35-.63.45.6.55,1.35.93,2.14,1.15.8.24,1.69,0,2.33-.64l.32-.24c.56-.4.88-1.69.88-3.46,0-1.53-1.45-1.93-2.09-2.17ZM15.21,9.48c.15-.1.32-.17.49-.17.32,0,.64.24.8.48.03-.01.05-.02.08-.03l-1.68-5.67c-.24.08-.4.16-.56.32-.08.16-.16.4-.08.64.06.69.66,3.28.96,4.43ZM15.46,10.11c-.03.07-.13.27-.23.5h0c.04.08.18.31.3.61l.18-.86.08-.08.24-.24c-.08-.08-.16-.16-.24-.16s-.24.08-.32.24ZM14.49,14.77c.06-.06.21-.08.32-.05l.29-1.42c-.35.33-.72.6-1.17.82l-.16,1.13c.24-.08.56-.24.72-.48ZM14.91,11.27c-.04.08-.07.15-.1.2-.32.4-.8.56-1.37.48-.32,0-.4.16-.56.72v.08c-.23.76-.1,1.59.39,2.22l.17-1.18.08-.08c.56-.32,1.04-.72,1.53-1.2.24-.29.04-.85-.14-1.25ZM14.16,11.26s.08-.07.1-.11c.06-.12.31-.67.49-1.02,0,0,0-.02-.01-.02,0-.14-.75-2.99-1.03-4.45-.53.18-.89.75-.82,1.31.31,1.45.68,2.9,1.27,4.29ZM12.72,18.71s-.08-.05-.12-.09l-4.54-.88c-.16,0-.24-.16-.24-.32s.16-.24.32-.24l4.5.96,1.12.16c0-.48-.32-.96-.8-1.04l-3.86-.8c-.16,0-.24-.16-.24-.32s.16-.24.32-.24l2.21.45c-.61-1.32-1.37-2.63-1.73-2.7-1.36-.08-2.73.24-3.94.96-.64.48-1.69,2.09-1.13,2.89.32.56.8,1.12,1.37,1.69,0,0,1.45,1.29,2.17.72.28-.21.5-.37.69-.49l-1.09-.23c-.16,0-.24-.16-.24-.32s.16-.24.32-.24l1.86.4h0l.07.02,2.57.55,1.21.16c0-.48-.32-.96-.8-1.04ZM20.65,0H3.35C1.5,0,0,1.51,0,3.35v17.31C0,22.49,1.5,24,3.35,24h17.31c1.84,0,3.35-1.51,3.35-3.35V3.35C24,1.51,22.49,0,20.65,0ZM14.33,18.87l-.42-.06s.07.09.09.14c.16.4.24.8.08,1.21l-.08.24-1.69-.24-2.6-.55c-.39.24-.86.47-1.18.79-.24.16-.56.24-.8.24-.8-.08-1.53-.48-2.17-1.04-.56-.56-1.12-1.2-1.53-1.85-.8-1.2.56-3.13,1.29-3.69,1.37-.8,2.89-1.21,4.42-1.04.95.16,2.05,2.65,2.39,3.5l.98.2c.48.08.8.4,1.04.8.16.4.24.8.08,1.2l.08.16ZM19.07,16.54l-.32.24c-.56.48-1.29.8-2.01.8-.24,0-.56-.08-.8-.16-1.21-.32-2.33-1.04-3.05-2.09-.72-.8-.88-1.93-.56-2.89.16-.48.4-1.04,1.12-1.04.04,0,.07,0,.1,0-.57-1.42-.93-2.84-1.23-4.34-.07-.88.46-1.7,1.29-1.95,0-.02,0-.04,0-.05-.08-.4.08-.8.32-1.12.32-.32.72-.48,1.12-.56h.24l1.81,6.3c.12,0,.24.02.36.05.08,0,.16.08.24.08.72.24,2.49.8,2.49,2.73s-.32,3.53-1.13,4.02ZM17.63,10.51l-.32-.08c-.24,0-.48.08-.64.16l-.32.16-.96,4.34h.64c.08,0,.48-.16,1.12-2.73.08-.16.08-.24.08-.24.08-.16.24-.16.4-.08.08.08.16.24.08.32v.16c-.48,2.17-1.04,3.13-1.61,3.13-.4.08-.88.08-1.29-.08l-.16-.08.02-.08c-.19.2-.41.35-.63.45.6.55,1.35.93,2.14,1.15.8.24,1.69,0,2.33-.64l.32-.24c.56-.4.88-1.69.88-3.46,0-1.53-1.45-1.93-2.09-2.17ZM15.21,9.48c.15-.1.32-.17.49-.17.32,0,.64.24.8.48.03-.01.05-.02.08-.03l-1.68-5.67c-.24.08-.4.16-.56.32-.08.16-.16.4-.08.64.06.69.66,3.28.96,4.43ZM15.46,10.11c-.03.07-.13.27-.23.5h0c.04.08.18.31.3.61l.18-.86.08-.08.24-.24c-.08-.08-.16-.16-.24-.16s-.24.08-.32.24ZM14.49,14.77c.06-.06.21-.08.32-.05l.29-1.42c-.35.33-.72.6-1.17.82l-.16,1.13c.24-.08.56-.24.72-.48ZM14.91,11.27c-.04.08-.07.15-.1.2-.32.4-.8.56-1.37.48-.32,0-.4.16-.56.72v.08c-.23.76-.1,1.59.39,2.22l.17-1.18.08-.08c.56-.32,1.04-.72,1.53-1.2.24-.29.04-.85-.14-1.25ZM14.25,11.16c.06-.12.31-.67.49-1.02,0,0,0-.02-.01-.02,0-.14-.75-2.99-1.03-4.45-.53.18-.89.75-.82,1.31.31,1.45.68,2.9,1.27,4.29.04-.03.08-.07.1-.11ZM8.14,17.18l4.5.96,1.12.16c0-.48-.32-.96-.8-1.04l-3.86-.8c-.16,0-.24-.16-.24-.32s.16-.24.32-.24l2.21.45c-.61-1.32-1.37-2.63-1.73-2.7-1.36-.08-2.73.24-3.94.96-.64.48-1.69,2.09-1.13,2.89.32.56.8,1.12,1.37,1.69,0,0,1.45,1.29,2.17.72.28-.21.5-.37.69-.49l-1.09-.23c-.16,0-.24-.16-.24-.32s.16-.24.32-.24l1.86.4h0l.07.02,2.57.55,1.21.16c0-.48-.32-.96-.8-1.04-.05-.02-.08-.05-.12-.09l-4.54-.88c-.16,0-.24-.16-.24-.32s.16-.24.32-.24ZM12.72,18.71s-.08-.05-.12-.09l-4.54-.88c-.16,0-.24-.16-.24-.32s.16-.24.32-.24l4.5.96,1.12.16c0-.48-.32-.96-.8-1.04l-3.86-.8c-.16,0-.24-.16-.24-.32s.16-.24.32-.24l2.21.45c-.61-1.32-1.37-2.63-1.73-2.7-1.36-.08-2.73.24-3.94.96-.64.48-1.69,2.09-1.13,2.89.32.56.8,1.12,1.37,1.69,0,0,1.45,1.29,2.17.72.28-.21.5-.37.69-.49l-1.09-.23c-.16,0-.24-.16-.24-.32s.16-.24.32-.24l1.86.4h0l.07.02,2.57.55,1.21.16c0-.48-.32-.96-.8-1.04ZM14.73,10.11c0-.14-.75-2.99-1.03-4.45-.53.18-.89.75-.82,1.31.31,1.45.68,2.9,1.27,4.29.04-.03.08-.07.1-.11.06-.12.31-.67.49-1.02,0,0,0-.02-.01-.02ZM14.91,11.27c-.04.08-.07.15-.1.2-.32.4-.8.56-1.37.48-.32,0-.4.16-.56.72v.08c-.23.76-.1,1.59.39,2.22l.17-1.18.08-.08c.56-.32,1.04-.72,1.53-1.2.24-.29.04-.85-.14-1.25ZM13.93,14.13l-.16,1.13c.24-.08.56-.24.72-.48.06-.06.21-.08.32-.05l.29-1.42c-.35.33-.72.6-1.17.82ZM15.78,9.87c-.08,0-.24.08-.32.24-.03.07-.13.27-.23.5h0c.04.08.18.31.3.61l.18-.86.08-.08.24-.24c-.08-.08-.16-.16-.24-.16ZM14.89,4.09c-.24.08-.4.16-.56.32-.08.16-.16.4-.08.64.06.69.66,3.28.96,4.43.15-.1.32-.17.49-.17.32,0,.64.24.8.48.03-.01.05-.02.08-.03l-1.68-5.67ZM17.63,10.51l-.32-.08c-.24,0-.48.08-.64.16l-.32.16-.96,4.34h.64c.08,0,.48-.16,1.12-2.73.08-.16.08-.24.08-.24.08-.16.24-.16.4-.08.08.08.16.24.08.32v.16c-.48,2.17-1.04,3.13-1.61,3.13-.4.08-.88.08-1.29-.08l-.16-.08.02-.08c-.19.2-.41.35-.63.45.6.55,1.35.93,2.14,1.15.8.24,1.69,0,2.33-.64l.32-.24c.56-.4.88-1.69.88-3.46,0-1.53-1.45-1.93-2.09-2.17ZM17.63,10.51l-.32-.08c-.24,0-.48.08-.64.16l-.32.16-.96,4.34h.64c.08,0,.48-.16,1.12-2.73.08-.16.08-.24.08-.24.08-.16.24-.16.4-.08.08.08.16.24.08.32v.16c-.48,2.17-1.04,3.13-1.61,3.13-.4.08-.88.08-1.29-.08l-.16-.08.02-.08c-.19.2-.41.35-.63.45.6.55,1.35.93,2.14,1.15.8.24,1.69,0,2.33-.64l.32-.24c.56-.4.88-1.69.88-3.46,0-1.53-1.45-1.93-2.09-2.17ZM14.89,4.09c-.24.08-.4.16-.56.32-.08.16-.16.4-.08.64.06.69.66,3.28.96,4.43.15-.1.32-.17.49-.17.32,0,.64.24.8.48.03-.01.05-.02.08-.03l-1.68-5.67ZM15.78,9.87c-.08,0-.24.08-.32.24-.03.07-.13.27-.23.5h0c.04.08.18.31.3.61l.18-.86.08-.08.24-.24c-.08-.08-.16-.16-.24-.16ZM13.93,14.13l-.16,1.13c.24-.08.56-.24.72-.48.06-.06.21-.08.32-.05l.29-1.42c-.35.33-.72.6-1.17.82ZM14.91,11.27c-.04.08-.07.15-.1.2-.32.4-.8.56-1.37.48-.32,0-.4.16-.56.72v.08c-.23.76-.1,1.59.39,2.22l.17-1.18.08-.08c.56-.32,1.04-.72,1.53-1.2.24-.29.04-.85-.14-1.25ZM14.73,10.11c0-.14-.75-2.99-1.03-4.45-.53.18-.89.75-.82,1.31.31,1.45.68,2.9,1.27,4.29.04-.03.08-.07.1-.11.06-.12.31-.67.49-1.02,0,0,0-.02-.01-.02ZM12.72,18.71s-.08-.05-.12-.09l-4.54-.88c-.16,0-.24-.16-.24-.32s.16-.24.32-.24l4.5.96,1.12.16c0-.48-.32-.96-.8-1.04l-3.86-.8c-.16,0-.24-.16-.24-.32s.16-.24.32-.24l2.21.45c-.61-1.32-1.37-2.63-1.73-2.7-1.36-.08-2.73.24-3.94.96-.64.48-1.69,2.09-1.13,2.89.32.56.8,1.12,1.37,1.69,0,0,1.45,1.29,2.17.72.28-.21.5-.37.69-.49l-1.09-.23c-.16,0-.24-.16-.24-.32s.16-.24.32-.24l1.86.4h0l.07.02,2.57.55,1.21.16c0-.48-.32-.96-.8-1.04ZM12.72,18.71s-.08-.05-.12-.09l-4.54-.88c-.16,0-.24-.16-.24-.32s.16-.24.32-.24l4.5.96,1.12.16c0-.48-.32-.96-.8-1.04l-3.86-.8c-.16,0-.24-.16-.24-.32s.16-.24.32-.24l2.21.45c-.61-1.32-1.37-2.63-1.73-2.7-1.36-.08-2.73.24-3.94.96-.64.48-1.69,2.09-1.13,2.89.32.56.8,1.12,1.37,1.69,0,0,1.45,1.29,2.17.72.28-.21.5-.37.69-.49l-1.09-.23c-.16,0-.24-.16-.24-.32s.16-.24.32-.24l1.86.4h0l.07.02,2.57.55,1.21.16c0-.48-.32-.96-.8-1.04ZM14.73,10.11c0-.14-.75-2.99-1.03-4.45-.53.18-.89.75-.82,1.31.31,1.45.68,2.9,1.27,4.29.04-.03.08-.07.1-.11.06-.12.31-.67.49-1.02,0,0,0-.02-.01-.02ZM14.91,11.27c-.04.08-.07.15-.1.2-.32.4-.8.56-1.37.48-.32,0-.4.16-.56.72v.08c-.23.76-.1,1.59.39,2.22l.17-1.18.08-.08c.56-.32,1.04-.72,1.53-1.2.24-.29.04-.85-.14-1.25ZM13.93,14.13l-.16,1.13c.24-.08.56-.24.72-.48.06-.06.21-.08.32-.05l.29-1.42c-.35.33-.72.6-1.17.82ZM15.78,9.87c-.08,0-.24.08-.32.24-.03.07-.13.27-.23.5h0c.04.08.18.31.3.61l.18-.86.08-.08.24-.24c-.08-.08-.16-.16-.24-.16ZM14.89,4.09c-.24.08-.4.16-.56.32-.08.16-.16.4-.08.64.06.69.66,3.28.96,4.43.15-.1.32-.17.49-.17.32,0,.64.24.8.48.03-.01.05-.02.08-.03l-1.68-5.67ZM17.63,10.51l-.32-.08c-.24,0-.48.08-.64.16l-.32.16-.96,4.34h.64c.08,0,.48-.16,1.12-2.73.08-.16.08-.24.08-.24.08-.16.24-.16.4-.08.08.08.16.24.08.32v.16c-.48,2.17-1.04,3.13-1.61,3.13-.4.08-.88.08-1.29-.08l-.16-.08.02-.08c-.19.2-.41.35-.63.45.6.55,1.35.93,2.14,1.15.8.24,1.69,0,2.33-.64l.32-.24c.56-.4.88-1.69.88-3.46,0-1.53-1.45-1.93-2.09-2.17ZM17.63,10.51l-.32-.08c-.24,0-.48.08-.64.16l-.32.16-.96,4.34h.64c.08,0,.48-.16,1.12-2.73.08-.16.08-.24.08-.24.08-.16.24-.16.4-.08.08.08.16.24.08.32v.16c-.48,2.17-1.04,3.13-1.61,3.13-.4.08-.88.08-1.29-.08l-.16-.08.02-.08c-.19.2-.41.35-.63.45.6.55,1.35.93,2.14,1.15.8.24,1.69,0,2.33-.64l.32-.24c.56-.4.88-1.69.88-3.46,0-1.53-1.45-1.93-2.09-2.17ZM15.78,9.87c-.08,0-.24.08-.32.24-.03.07-.13.27-.23.5h0c.04.08.18.31.3.61l.18-.86.08-.08.24-.24c-.08-.08-.16-.16-.24-.16ZM13.93,14.13l-.16,1.13c.24-.08.56-.24.72-.48.06-.06.21-.08.32-.05l.29-1.42c-.35.33-.72.6-1.17.82ZM14.91,11.27c-.04.08-.07.15-.1.2-.32.4-.8.56-1.37.48-.32,0-.4.16-.56.72v.08c-.23.76-.1,1.59.39,2.22l.17-1.18.08-.08c.56-.32,1.04-.72,1.53-1.2.24-.29.04-.85-.14-1.25ZM12.72,18.71s-.08-.05-.12-.09l-4.54-.88c-.16,0-.24-.16-.24-.32s.16-.24.32-.24l4.5.96,1.12.16c0-.48-.32-.96-.8-1.04l-3.86-.8c-.16,0-.24-.16-.24-.32s.16-.24.32-.24l2.21.45c-.61-1.32-1.37-2.63-1.73-2.7-1.36-.08-2.73.24-3.94.96-.64.48-1.69,2.09-1.13,2.89.32.56.8,1.12,1.37,1.69,0,0,1.45,1.29,2.17.72.28-.21.5-.37.69-.49l-1.09-.23c-.16,0-.24-.16-.24-.32s.16-.24.32-.24l1.86.4h0l.07.02,2.57.55,1.21.16c0-.48-.32-.96-.8-1.04ZM12.72,18.71s-.08-.05-.12-.09l-4.54-.88c-.16,0-.24-.16-.24-.32s.16-.24.32-.24l4.5.96,1.12.16c0-.48-.32-.96-.8-1.04l-3.86-.8c-.16,0-.24-.16-.24-.32s.16-.24.32-.24l2.21.45c-.61-1.32-1.37-2.63-1.73-2.7-1.36-.08-2.73.24-3.94.96-.64.48-1.69,2.09-1.13,2.89.32.56.8,1.12,1.37,1.69,0,0,1.45,1.29,2.17.72.28-.21.5-.37.69-.49l-1.09-.23c-.16,0-.24-.16-.24-.32s.16-.24.32-.24l1.86.4h0l.07.02,2.57.55,1.21.16c0-.48-.32-.96-.8-1.04ZM14.73,10.11c0-.14-.75-2.99-1.03-4.45-.53.18-.89.75-.82,1.31.31,1.45.68,2.9,1.27,4.29.04-.03.08-.07.1-.11.06-.12.31-.67.49-1.02,0,0,0-.02-.01-.02ZM14.91,11.27c-.04.08-.07.15-.1.2-.32.4-.8.56-1.37.48-.32,0-.4.16-.56.72v.08c-.23.76-.1,1.59.39,2.22l.17-1.18.08-.08c.56-.32,1.04-.72,1.53-1.2.24-.29.04-.85-.14-1.25ZM13.93,14.13l-.16,1.13c.24-.08.56-.24.72-.48.06-.06.21-.08.32-.05l.29-1.42c-.35.33-.72.6-1.17.82ZM15.78,9.87c-.08,0-.24.08-.32.24-.03.07-.13.27-.23.5h0c.04.08.18.31.3.61l.18-.86.08-.08.24-.24c-.08-.08-.16-.16-.24-.16ZM14.89,4.09c-.24.08-.4.16-.56.32-.08.16-.16.4-.08.64.06.69.66,3.28.96,4.43.15-.1.32-.17.49-.17.32,0,.64.24.8.48.03-.01.05-.02.08-.03l-1.68-5.67ZM17.63,10.51l-.32-.08c-.24,0-.48.08-.64.16l-.32.16-.96,4.34h.64c.08,0,.48-.16,1.12-2.73.08-.16.08-.24.08-.24.08-.16.24-.16.4-.08.08.08.16.24.08.32v.16c-.48,2.17-1.04,3.13-1.61,3.13-.4.08-.88.08-1.29-.08l-.16-.08.02-.08c-.19.2-.41.35-.63.45.6.55,1.35.93,2.14,1.15.8.24,1.69,0,2.33-.64l.32-.24c.56-.4.88-1.69.88-3.46,0-1.53-1.45-1.93-2.09-2.17ZM17.63,10.51l-.32-.08c-.24,0-.48.08-.64.16l-.32.16-.96,4.34h.64c.08,0,.48-.16,1.12-2.73.08-.16.08-.24.08-.24.08-.16.24-.16.4-.08.08.08.16.24.08.32v.16c-.48,2.17-1.04,3.13-1.61,3.13-.4.08-.88.08-1.29-.08l-.16-.08.02-.08c-.19.2-.41.35-.63.45.6.55,1.35.93,2.14,1.15.8.24,1.69,0,2.33-.64l.32-.24c.56-.4.88-1.69.88-3.46,0-1.53-1.45-1.93-2.09-2.17ZM15.78,9.87c-.08,0-.24.08-.32.24-.03.07-.13.27-.23.5h0c.04.08.18.31.3.61l.18-.86.08-.08.24-.24c-.08-.08-.16-.16-.24-.16ZM13.93,14.13l-.16,1.13c.24-.08.56-.24.72-.48.06-.06.21-.08.32-.05l.29-1.42c-.35.33-.72.6-1.17.82ZM14.91,11.27c-.04.08-.07.15-.1.2-.32.4-.8.56-1.37.48-.32,0-.4.16-.56.72v.08c-.23.76-.1,1.59.39,2.22l.17-1.18.08-.08c.56-.32,1.04-.72,1.53-1.2.24-.29.04-.85-.14-1.25ZM12.72,18.71s-.08-.05-.12-.09l-4.54-.88c-.16,0-.24-.16-.24-.32s.16-.24.32-.24l4.5.96,1.12.16c0-.48-.32-.96-.8-1.04l-3.86-.8c-.16,0-.24-.16-.24-.32s.16-.24.32-.24l2.21.45c-.61-1.32-1.37-2.63-1.73-2.7-1.36-.08-2.73.24-3.94.96-.64.48-1.69,2.09-1.13,2.89.32.56.8,1.12,1.37,1.69,0,0,1.45,1.29,2.17.72.28-.21.5-.37.69-.49l-1.09-.23c-.16,0-.24-.16-.24-.32s.16-.24.32-.24l1.86.4h0l.07.02,2.57.55,1.21.16c0-.48-.32-.96-.8-1.04ZM12.72,18.71s-.08-.05-.12-.09l-4.54-.88c-.16,0-.24-.16-.24-.32s.16-.24.32-.24l4.5.96,1.12.16c0-.48-.32-.96-.8-1.04l-3.86-.8c-.16,0-.24-.16-.24-.32s.16-.24.32-.24l2.21.45c-.61-1.32-1.37-2.63-1.73-2.7-1.36-.08-2.73.24-3.94.96-.64.48-1.69,2.09-1.13,2.89.32.56.8,1.12,1.37,1.69,0,0,1.45,1.29,2.17.72.28-.21.5-.37.69-.49l-1.09-.23c-.16,0-.24-.16-.24-.32s.16-.24.32-.24l1.86.4h0l.07.02,2.57.55,1.21.16c0-.48-.32-.96-.8-1.04ZM14.73,10.11c0-.14-.75-2.99-1.03-4.45-.53.18-.89.75-.82,1.31.31,1.45.68,2.9,1.27,4.29.04-.03.08-.07.1-.11.06-.12.31-.67.49-1.02,0,0,0-.02-.01-.02ZM14.91,11.27c-.04.08-.07.15-.1.2-.32.4-.8.56-1.37.48-.32,0-.4.16-.56.72v.08c-.23.76-.1,1.59.39,2.22l.17-1.18.08-.08c.56-.32,1.04-.72,1.53-1.2.24-.29.04-.85-.14-1.25ZM13.93,14.13l-.16,1.13c.24-.08.56-.24.72-.48.06-.06.21-.08.32-.05l.29-1.42c-.35.33-.72.6-1.17.82ZM15.78,9.87c-.08,0-.24.08-.32.24-.03.07-.13.27-.23.5h0c.04.08.18.31.3.61l.18-.86.08-.08.24-.24c-.08-.08-.16-.16-.24-.16ZM14.89,4.09c-.24.08-.4.16-.56.32-.08.16-.16.4-.08.64.06.69.66,3.28.96,4.43.15-.1.32-.17.49-.17.32,0,.64.24.8.48.03-.01.05-.02.08-.03l-1.68-5.67ZM17.63,10.51l-.32-.08c-.24,0-.48.08-.64.16l-.32.16-.96,4.34h.64c.08,0,.48-.16,1.12-2.73.08-.16.08-.24.08-.24.08-.16.24-.16.4-.08.08.08.16.24.08.32v.16c-.48,2.17-1.04,3.13-1.61,3.13-.4.08-.88.08-1.29-.08l-.16-.08.02-.08c-.19.2-.41.35-.63.45.6.55,1.35.93,2.14,1.15.8.24,1.69,0,2.33-.64l.32-.24c.56-.4.88-1.69.88-3.46,0-1.53-1.45-1.93-2.09-2.17ZM17.63,10.51l-.32-.08c-.24,0-.48.08-.64.16l-.32.16-.96,4.34h.64c.08,0,.48-.16,1.12-2.73.08-.16.08-.24.08-.24.08-.16.24-.16.4-.08.08.08.16.24.08.32v.16c-.48,2.17-1.04,3.13-1.61,3.13-.4.08-.88.08-1.29-.08l-.16-.08.02-.08c-.19.2-.41.35-.63.45.6.55,1.35.93,2.14,1.15.8.24,1.69,0,2.33-.64l.32-.24c.56-.4.88-1.69.88-3.46,0-1.53-1.45-1.93-2.09-2.17ZM15.78,9.87c-.08,0-.24.08-.32.24-.03.07-.13.27-.23.5h0c.04.08.18.31.3.61l.18-.86.08-.08.24-.24c-.08-.08-.16-.16-.24-.16ZM13.93,14.13l-.16,1.13c.24-.08.56-.24.72-.48.06-.06.21-.08.32-.05l.29-1.42c-.35.33-.72.6-1.17.82ZM14.91,11.27c-.04.08-.07.15-.1.2-.32.4-.8.56-1.37.48-.32,0-.4.16-.56.72v.08c-.23.76-.1,1.59.39,2.22l.17-1.18.08-.08c.56-.32,1.04-.72,1.53-1.2.24-.29.04-.85-.14-1.25ZM12.72,18.71s-.08-.05-.12-.09l-4.54-.88c-.16,0-.24-.16-.24-.32s.16-.24.32-.24l4.5.96,1.12.16c0-.48-.32-.96-.8-1.04l-3.86-.8c-.16,0-.24-.16-.24-.32s.16-.24.32-.24l2.21.45c-.61-1.32-1.37-2.63-1.73-2.7-1.36-.08-2.73.24-3.94.96-.64.48-1.69,2.09-1.13,2.89.32.56.8,1.12,1.37,1.69,0,0,1.45,1.29,2.17.72.28-.21.5-.37.69-.49l-1.09-.23c-.16,0-.24-.16-.24-.32s.16-.24.32-.24l1.86.4h0l.07.02,2.57.55,1.21.16c0-.48-.32-.96-.8-1.04ZM12.72,18.71s-.08-.05-.12-.09l-4.54-.88c-.16,0-.24-.16-.24-.32s.16-.24.32-.24l4.5.96,1.12.16c0-.48-.32-.96-.8-1.04l-3.86-.8c-.16,0-.24-.16-.24-.32s.16-.24.32-.24l2.21.45c-.61-1.32-1.37-2.63-1.73-2.7-1.36-.08-2.73.24-3.94.96-.64.48-1.69,2.09-1.13,2.89.32.56.8,1.12,1.37,1.69,0,0,1.45,1.29,2.17.72.28-.21.5-.37.69-.49l-1.09-.23c-.16,0-.24-.16-.24-.32s.16-.24.32-.24l1.86.4h0l.07.02,2.57.55,1.21.16c0-.48-.32-.96-.8-1.04ZM14.73,10.11c0-.14-.75-2.99-1.03-4.45-.53.18-.89.75-.82,1.31.31,1.45.68,2.9,1.27,4.29.04-.03.08-.07.1-.11.06-.12.31-.67.49-1.02,0,0,0-.02-.01-.02ZM14.91,11.27c-.04.08-.07.15-.1.2-.32.4-.8.56-1.37.48-.32,0-.4.16-.56.72v.08c-.23.76-.1,1.59.39,2.22l.17-1.18.08-.08c.56-.32,1.04-.72,1.53-1.2.24-.29.04-.85-.14-1.25ZM13.93,14.13l-.16,1.13c.24-.08.56-.24.72-.48.06-.06.21-.08.32-.05l.29-1.42c-.35.33-.72.6-1.17.82ZM15.78,9.87c-.08,0-.24.08-.32.24-.03.07-.13.27-.23.5h0c.04.08.18.31.3.61l.18-.86.08-.08.24-.24c-.08-.08-.16-.16-.24-.16ZM14.89,4.09c-.24.08-.4.16-.56.32-.08.16-.16.4-.08.64.06.69.66,3.28.96,4.43.15-.1.32-.17.49-.17.32,0,.64.24.8.48.03-.01.05-.02.08-.03l-1.68-5.67ZM17.63,10.51l-.32-.08c-.24,0-.48.08-.64.16l-.32.16-.96,4.34h.64c.08,0,.48-.16,1.12-2.73.08-.16.08-.24.08-.24.08-.16.24-.16.4-.08.08.08.16.24.08.32v.16c-.48,2.17-1.04,3.13-1.61,3.13-.4.08-.88.08-1.29-.08l-.16-.08.02-.08c-.19.2-.41.35-.63.45.6.55,1.35.93,2.14,1.15.8.24,1.69,0,2.33-.64l.32-.24c.56-.4.88-1.69.88-3.46,0-1.53-1.45-1.93-2.09-2.17ZM14.91,11.27c-.04.08-.07.15-.1.2-.32.4-.8.56-1.37.48-.32,0-.4.16-.56.72v.08c-.23.76-.1,1.59.39,2.22l.17-1.18.08-.08c.56-.32,1.04-.72,1.53-1.2.24-.29.04-.85-.14-1.25ZM13.93,14.13l-.16,1.13c.24-.08.56-.24.72-.48.06-.06.21-.08.32-.05l.29-1.42c-.35.33-.72.6-1.17.82ZM15.78,9.87c-.08,0-.24.08-.32.24-.03.07-.13.27-.23.5h0c.04.08.18.31.3.61l.18-.86.08-.08.24-.24c-.08-.08-.16-.16-.24-.16ZM17.63,10.51l-.32-.08c-.24,0-.48.08-.64.16l-.32.16-.96,4.34h.64c.08,0,.48-.16,1.12-2.73.08-.16.08-.24.08-.24.08-.16.24-.16.4-.08.08.08.16.24.08.32v.16c-.48,2.17-1.04,3.13-1.61,3.13-.4.08-.88.08-1.29-.08l-.16-.08.02-.08c-.19.2-.41.35-.63.45.6.55,1.35.93,2.14,1.15.8.24,1.69,0,2.33-.64l.32-.24c.56-.4.88-1.69.88-3.46,0-1.53-1.45-1.93-2.09-2.17ZM12.72,18.71s-.08-.05-.12-.09l-4.54-.88c-.16,0-.24-.16-.24-.32s.16-.24.32-.24l4.5.96,1.12.16c0-.48-.32-.96-.8-1.04l-3.86-.8c-.16,0-.24-.16-.24-.32s.16-.24.32-.24l2.21.45c-.61-1.32-1.37-2.63-1.73-2.7-1.36-.08-2.73.24-3.94.96-.64.48-1.69,2.09-1.13,2.89.32.56.8,1.12,1.37,1.69,0,0,1.45,1.29,2.17.72.28-.21.5-.37.69-.49l-1.09-.23c-.16,0-.24-.16-.24-.32s.16-.24.32-.24l1.86.4h0l.07.02,2.57.55,1.21.16c0-.48-.32-.96-.8-1.04ZM12.72,18.71s-.08-.05-.12-.09l-4.54-.88c-.16,0-.24-.16-.24-.32s.16-.24.32-.24l4.5.96,1.12.16c0-.48-.32-.96-.8-1.04l-3.86-.8c-.16,0-.24-.16-.24-.32s.16-.24.32-.24l2.21.45c-.61-1.32-1.37-2.63-1.73-2.7-1.36-.08-2.73.24-3.94.96-.64.48-1.69,2.09-1.13,2.89.32.56.8,1.12,1.37,1.69,0,0,1.45,1.29,2.17.72.28-.21.5-.37.69-.49l-1.09-.23c-.16,0-.24-.16-.24-.32s.16-.24.32-.24l1.86.4h0l.07.02,2.57.55,1.21.16c0-.48-.32-.96-.8-1.04ZM12.72,18.71s-.08-.05-.12-.09l-4.54-.88c-.16,0-.24-.16-.24-.32s.16-.24.32-.24l4.5.96,1.12.16c0-.48-.32-.96-.8-1.04l-3.86-.8c-.16,0-.24-.16-.24-.32s.16-.24.32-.24l2.21.45c-.61-1.32-1.37-2.63-1.73-2.7-1.36-.08-2.73.24-3.94.96-.64.48-1.69,2.09-1.13,2.89.32.56.8,1.12,1.37,1.69,0,0,1.45,1.29,2.17.72.28-.21.5-.37.69-.49l-1.09-.23c-.16,0-.24-.16-.24-.32s.16-.24.32-.24l1.86.4h0l.07.02,2.57.55,1.21.16c0-.48-.32-.96-.8-1.04Z"/></svg>