<svg width="24" height="24" viewBox="0 0 24 24" fill="none" xmlns="http://www.w3.org/2000/svg">
  <g clip-path="url(#clip0_1591_4884)">
    <path class="icon__shape" fill="currentColor"
      d="M6.4771 9.83673C6.25697 9.76392 5.97587 9.72836 5.63381 9.72836H4.081V11.2642H5.81669C6.12658 11.2642 6.3772 11.2067 6.57024 11.0915C6.76498 10.9764 6.8615 10.7732 6.8615 10.4802C6.8615 10.1551 6.7328 9.94003 6.4771 9.83673ZM6.55161 12.5343C6.38228 12.4597 6.14521 12.4191 5.83871 12.4174H4.081V14.2733H5.81331C6.12319 14.2733 6.36365 14.2327 6.53637 14.1514C6.84964 13.999 7.00543 13.7094 7.00543 13.281C7.00543 12.9186 6.85472 12.6697 6.55161 12.5343ZM6.55161 12.5343C6.38228 12.4597 6.14521 12.4191 5.83871 12.4174H4.081V14.2733H5.81331C6.12319 14.2733 6.36365 14.2327 6.53637 14.1514C6.84964 13.999 7.00543 13.7094 7.00543 13.281C7.00543 12.9186 6.85472 12.6697 6.55161 12.5343ZM6.57024 11.0915C6.76498 10.9764 6.8615 10.7732 6.8615 10.4802C6.8615 10.1551 6.7328 9.94003 6.4771 9.83673C6.25697 9.76392 5.97587 9.72836 5.63381 9.72836H4.081V11.2642H5.81669C6.12658 11.2642 6.3772 11.2067 6.57024 11.0915ZM20.6539 0H3.34608C1.5054 0 0 1.50709 0 3.34777V20.6556C0 22.4946 1.5054 24.0017 3.34608 24.0017H20.6539C22.4946 24.0017 24 22.4946 24 20.6556V3.34777C24 1.50709 22.4946 0 20.6539 0ZM8.19417 14.4901C8.0604 14.7085 7.89106 14.8914 7.68955 15.0387C7.46095 15.2098 7.1917 15.3249 6.88182 15.3893C6.57193 15.4519 6.23665 15.4824 5.87427 15.4824H2.65688V8.5193H6.10626C6.97834 8.53115 7.59472 8.77838 7.9571 9.26099C8.17555 9.55733 8.28392 9.91124 8.28392 10.3227C8.28392 10.7342 8.17385 11.0898 7.95372 11.3489C7.83179 11.4945 7.64891 11.6266 7.41015 11.7451C7.77422 11.8755 8.04854 12.0804 8.23481 12.3598C8.41939 12.6409 8.51252 12.9813 8.51252 13.3809C8.51252 13.7806 8.40584 14.1633 8.19417 14.4901ZM14.4969 15.0438C13.9922 15.4638 13.2793 15.6754 12.3598 15.6754C11.4403 15.6754 10.68 15.4672 10.1415 15.054C9.60474 14.6391 9.3338 14.0701 9.3338 13.3454H10.7579C10.8053 13.6637 10.8951 13.9008 11.0306 14.0583C11.2778 14.3461 11.7011 14.4884 12.3023 14.4884C12.6613 14.4884 12.9525 14.4511 13.176 14.3749C13.6028 14.231 13.8144 13.9618 13.8144 13.5672C13.8144 13.3369 13.7111 13.1591 13.5029 13.0338C13.2929 12.9102 12.9627 12.8018 12.5105 12.707L11.7384 12.5427C10.9781 12.3785 10.4565 12.2007 10.172 12.0076C9.6911 11.6876 9.45065 11.1846 9.45065 10.5005C9.45065 9.87737 9.68602 9.3592 10.1568 8.94602C10.6275 8.53454 11.3184 8.32795 12.2311 8.32795C12.9915 8.32795 13.6417 8.52268 14.1802 8.91046C14.717 9.29994 14.9998 9.86383 15.0252 10.6055H13.5909C13.5655 10.1856 13.3742 9.88753 13.0152 9.71142C12.7781 9.59458 12.4818 9.53701 12.1278 9.53701C11.7333 9.53701 11.4183 9.61321 11.183 9.76392C10.9493 9.91463 10.8307 10.1263 10.8307 10.3972C10.8307 10.6462 10.9476 10.8324 11.1779 10.9543C11.3286 11.0356 11.6435 11.1322 12.1278 11.2422L13.3792 11.5301C13.9296 11.6571 14.3411 11.8247 14.6154 12.0364C15.0404 12.3649 15.2538 12.8374 15.2538 13.4588C15.2538 14.0803 15.0015 14.6239 14.4969 15.0438ZM21.3431 15.4841H16.2867V8.5193H17.7786V14.231H21.3431V15.4841ZM6.55161 12.5343C6.38228 12.4597 6.14521 12.4191 5.83871 12.4174H4.081V14.2733H5.81331C6.12319 14.2733 6.36365 14.2327 6.53637 14.1514C6.84964 13.999 7.00543 13.7094 7.00543 13.281C7.00543 12.9186 6.85472 12.6697 6.55161 12.5343ZM6.57024 11.0915C6.76498 10.9764 6.8615 10.7732 6.8615 10.4802C6.8615 10.1551 6.7328 9.94003 6.4771 9.83673C6.25697 9.76392 5.97587 9.72836 5.63381 9.72836H4.081V11.2642H5.81669C6.12658 11.2642 6.3772 11.2067 6.57024 11.0915Z"
      fill="#131313" />
  </g>
  <defs>
    <clipPath id="clip0_1591_4884">
      <rect width="24" height="24" fill="white" />
    </clipPath>
  </defs>
</svg>
