<svg width="24" height="24" viewBox="0 0 24 24" fill="none" xmlns="http://www.w3.org/2000/svg">
<g clip-path="url(#clip0_8420_840)">
<path class="icon__shape" fill="currentColor" d="M14.23 10.42C14.45 10.79 14.6 11.2 14.69 11.62C14.41 11.97 13.86 12.55 13.21 12.78C12.47 13.05 12.16 13.12 12.12 12.52C12.08 11.92 12.18 10.79 12.18 10.79C12.18 10.79 12.17 9.81 11.87 9.51C11.72 9.36 11.59 9.28 11.47 9.25C11.47 9.25 11.27 9.2 11.06 9.27C10.76 9.37 10.54 9.72 10.49 10.14C10.49 10.14 10.05 13.46 9.72 14.36C9.57 14.75 9.54 15.43 9.64 16.18C9.28 16.14 8.7 16.12 8.09 16.12C6.86 16.12 5.5 16.19 5.41 16.19H5.4C5.07 16.21 4.79 16.1 4.68 15.91C4.62 15.79 4.62 15.65 4.62 15.65C4.63 15.6 4.64 15.51 4.76 15.34C4.89 15.15 5.46 14.97 5.78 14.9C5.83 14.9 6.94 14.81 7.54 14.66C7.72 14.61 7.98 14.52 8.08 14.28C8.21 13.99 8.04 13.67 7.76 13.17C7.21 12.22 5.97 11.67 5.9 11.64C4.68 11.16 2.77 10.39 2.54 10.25C2.19 10.04 1.83 9.71 2.04 9.31C2.25 8.92 2.95 9.17 2.95 9.17C3.02 9.2 3.21 9.28 3.47 9.38C4.98 9.99 6.62 10.64 6.95 10.71C7.03 10.72 7.27 10.77 7.44 10.61C7.55 10.49 7.59 10.33 7.58 10.21C7.58 10.09 7.53 9.99 7.45 9.93L7.14 9.68C6.48 9.16 5.3 8.22 4.58 7.63C4.22 7.33 3.65 6.71 3.68 6.33C3.68 6.27 3.7 6.2 3.74 6.13C3.79 6.02 3.95 5.95 4.03 5.93C4.33 5.85 4.65 6.12 4.66 6.14C5.65 6.92 6.29 7.48 6.81 7.94C7.33 8.39 7.7 8.71 8.1 8.97C8.28 9.08 8.64 9.31 8.87 9.09C9.08 8.91 8.94 8.58 8.87 8.45C8.83 8.38 7.9 6.59 7.32 5.72L7.22 5.57C6.93 5.15 6.66 4.75 6.76 4.52C6.84 4.31 7.02 4.2 7.02 4.2C7.04 4.19 7.15 4.13 7.29 4.13C7.39 4.13 7.49 4.18 7.62 4.31C8.1 4.77 8.53 5.44 8.99 6.14C9.33 6.67 9.68 7.21 10.12 7.79C10.28 7.99 10.54 8.33 10.91 8.13C11.34 7.9 11.09 7.19 10.05 4.89C10.05 4.88 9.9 4.37 10.22 4.22C10.54 4.08 10.76 4.38 10.79 4.42C11.24 5.05 11.44 5.64 11.62 6.17C11.67 6.32 11.72 6.47 11.77 6.6L11.87 6.86C12.19 7.68 12.27 7.91 12.65 8.55C12.94 9.02 13.21 9.28 13.48 9.53C13.73 9.77 13.97 10 14.23 10.42ZM24 4V20C24 22.21 22.21 24 20 24H4C1.79 24 0 22.21 0 20V4C0 1.79 1.79 0 4 0H20C22.21 0 24 1.79 24 4ZM22.19 13.45C22.19 13.45 21.8 13.04 20.6 13.68C19.4 14.33 17.66 14.72 17.66 14.72C17.66 14.72 16.94 14.94 17.55 14.27C18.16 13.61 19.01 13.11 20.93 11.41C20.93 11.41 21.72 10.8 21.09 10.11C20.46 9.44 19.06 10.85 19.06 10.85L16.48 12.77C16.48 12.77 16.14 13 16.3 12.55C16.45 12.11 17.71 10.18 17.71 10.18L18.3 9.13C18.3 9.13 18.78 8.3 18.26 7.89C17.73 7.46 17.17 7.94 16.91 8.24C16.69 8.48 15.49 10.4 15.06 11.09C14.96 10.77 14.83 10.46 14.66 10.17C14.37 9.68 14.09 9.42 13.82 9.17C13.57 8.93 13.33 8.71 13.08 8.29C12.72 7.69 12.65 7.49 12.34 6.68L12.24 6.42C12.19 6.29 12.14 6.16 12.09 6.01C11.91 5.48 11.69 4.82 11.2 4.14C11.04 3.9 10.58 3.51 10.01 3.77C9.44 4.03 9.47 4.71 9.58 5.06C9.91 5.79 10.48 7.05 10.59 7.57C10.56 7.53 10.52 7.49 10.49 7.44C10.09 6.92 9.74 6.39 9.41 5.87C8.93 5.14 8.49 4.45 7.97 3.95C7.88 3.87 7.63 3.63 7.29 3.63H7.27C7.02 3.63 6.84 3.73 6.77 3.77C6.73 3.79 6.43 3.97 6.29 4.33C6.1 4.81 6.44 5.32 6.8 5.86L6.9 6C7.37 6.7 8.11 8.08 8.35 8.54C7.99 8.3 7.65 8.01 7.14 7.56C6.65 7.13 5.97 6.53 4.98 5.75C4.96 5.73 4.46 5.3 3.9 5.45C3.88 5.45 3.45 5.56 3.29 5.91C3.22 6.04 3.19 6.17 3.18 6.29C3.12 7.05 4.15 7.92 4.27 8.02C4.98 8.61 6.17 9.55 6.83 10.07L6.99 10.2C6.52 10.07 4.53 9.27 3.66 8.92C3.4 8.81 3.2 8.73 3.12 8.7C2.71 8.55 1.93 8.46 1.6 9.07C1.3 9.63 1.55 10.24 2.28 10.68C2.62 10.89 5.41 11.98 5.71 12.1C5.72 12.1 6.86 12.62 7.32 13.42C7.42 13.59 7.65 13.99 7.62 14.08C7.62 14.08 7.59 14.13 7.42 14.17C6.86 14.31 5.75 14.41 5.72 14.41C5.54 14.44 4.64 14.64 4.35 15.05C4.21 15.26 4.13 15.44 4.12 15.62C4.12 15.65 4.11 15.91 4.25 16.15C4.44 16.51 4.91 16.72 5.43 16.69C5.54 16.69 8.77 16.54 9.67 16.7H9.74C9.91 17.53 10.24 18.38 10.76 19.02C11.2 19.55 11.74 19.87 11.74 19.87C12.35 20.24 12.94 20.34 13.29 20.38C13.66 20.38 14.26 20.35 14.93 20.11C15.92 19.74 16.08 19.26 17.06 18.89C17.8 18.61 18 18.59 19.09 18.38C19.71 18.27 20.53 18.24 21.47 17.78C21.47 17.78 22.05 17.53 21.9 16.97C21.76 16.41 21.01 16.5 21.01 16.5C21.01 16.5 18.42 16.94 17.99 16.8C17.55 16.67 18.57 16.29 18.57 16.29C18.57 16.29 21.41 15.47 22.19 14.76C22.97 14.05 22.19 13.45 22.19 13.45Z" />
</g>
<defs>
<clipPath id="clip0_8420_840">
<rect width="24" height="24" fill="white"/>
</clipPath>
</defs>
</svg>
