<svg width="24" height="24" viewBox="0 0 24 24" fill="none" xmlns="http://www.w3.org/2000/svg">
  <g clip-path="url(#clip0_8324_4296)">
    <g clip-path="url(#clip1_8324_4296)">
      <path
        d="M12.7205 18.7099C12.6748 18.6862 12.6359 18.6574 12.6037 18.6219L8.06378 17.7447C7.90291 17.7447 7.82333 17.5839 7.82333 17.423C7.82333 17.2621 7.9825 17.1825 8.14337 17.1825L12.6426 18.1461L13.767 18.3069C13.767 17.826 13.447 17.3434 12.9644 17.2621L9.10859 16.4595C8.94772 16.4595 8.86644 16.2986 8.86644 16.1377C8.86644 15.9769 9.02731 15.8973 9.18817 15.8973L11.4031 16.3494C10.7884 15.032 10.0332 13.7196 9.67078 13.6485C8.30593 13.5672 6.93939 13.8889 5.73541 14.612C5.09194 15.0946 4.04713 16.6999 4.60933 17.5043C4.93107 18.0665 5.41367 18.6287 5.97587 19.1909C5.97587 19.1909 7.422 20.4761 8.14506 19.9139C8.42447 19.7039 8.64969 19.5448 8.83426 19.4212L7.74035 19.1909C7.57948 19.1909 7.49989 19.03 7.49989 18.8708C7.49989 18.7116 7.65907 18.6287 7.81994 18.6287L9.68094 19.0283H9.68264L9.75037 19.0435L12.3192 19.5939L13.5249 19.753C13.5249 19.2721 13.2031 18.7895 12.7205 18.7099ZM12.7205 18.7099C12.6748 18.6862 12.6359 18.6574 12.6037 18.6219L8.06378 17.7447C7.90291 17.7447 7.82333 17.5839 7.82333 17.423C7.82333 17.2621 7.9825 17.1825 8.14337 17.1825L12.6426 18.1461L13.767 18.3069C13.767 17.826 13.447 17.3434 12.9644 17.2621L9.10859 16.4595C8.94772 16.4595 8.86644 16.2986 8.86644 16.1377C8.86644 15.9769 9.02731 15.8973 9.18817 15.8973L11.4031 16.3494C10.7884 15.032 10.0332 13.7196 9.67078 13.6485C8.30593 13.5672 6.93939 13.8889 5.73541 14.612C5.09194 15.0946 4.04713 16.6999 4.60933 17.5043C4.93107 18.0665 5.41367 18.6287 5.97587 19.1909C5.97587 19.1909 7.422 20.4761 8.14506 19.9139C8.42447 19.7039 8.64969 19.5448 8.83426 19.4212L7.74035 19.1909C7.57948 19.1909 7.49989 19.03 7.49989 18.8708C7.49989 18.7116 7.65907 18.6287 7.81994 18.6287L9.68094 19.0283H9.68264L9.75037 19.0435L12.3192 19.5939L13.5249 19.753C13.5249 19.2721 13.2031 18.7895 12.7205 18.7099ZM12.7205 18.7099C12.6748 18.6862 12.6359 18.6574 12.6037 18.6219L8.06378 17.7447C7.90291 17.7447 7.82333 17.5839 7.82333 17.423C7.82333 17.2621 7.9825 17.1825 8.14337 17.1825L12.6426 18.1461L13.767 18.3069C13.767 17.826 13.447 17.3434 12.9644 17.2621L9.10859 16.4595C8.94772 16.4595 8.86644 16.2986 8.86644 16.1377C8.86644 15.9769 9.02731 15.8973 9.18817 15.8973L11.4031 16.3494C10.7884 15.032 10.0332 13.7196 9.67078 13.6485C8.30593 13.5672 6.93939 13.8889 5.73541 14.612C5.09194 15.0946 4.04713 16.6999 4.60933 17.5043C4.93107 18.0665 5.41367 18.6287 5.97587 19.1909C5.97587 19.1909 7.422 20.4761 8.14506 19.9139C8.42447 19.7039 8.64969 19.5448 8.83426 19.4212L7.74035 19.1909C7.57948 19.1909 7.49989 19.03 7.49989 18.8708C7.49989 18.7116 7.65907 18.6287 7.81994 18.6287L9.68094 19.0283H9.68264L9.75037 19.0435L12.3192 19.5939L13.5249 19.753C13.5249 19.2721 13.2031 18.7895 12.7205 18.7099ZM14.9134 11.2761C14.8762 11.3557 14.8423 11.4251 14.8152 11.4793C14.4935 11.8806 14.0109 12.0415 13.4487 11.9602C13.1286 11.9602 13.0473 12.1211 12.8865 12.6833V12.7646C12.6596 13.5232 12.79 14.3546 13.281 14.9862L13.4504 13.8094L13.53 13.7281C14.0921 13.4063 14.5748 13.005 15.0557 12.5241C15.291 12.2294 15.0963 11.6757 14.9134 11.2761ZM13.9313 14.1294L13.7704 15.2555C14.0126 15.1742 14.3326 15.0133 14.4935 14.7729C14.5544 14.7119 14.7051 14.6967 14.8101 14.7272L15.098 13.3098C14.7509 13.6417 14.3817 13.9059 13.9313 14.1294ZM15.7787 9.87229C15.6991 9.87229 15.5383 9.95188 15.457 10.1127C15.4231 10.1805 15.3317 10.3803 15.225 10.6106C15.269 10.6936 15.4045 10.9239 15.523 11.2185L15.6991 10.3549L15.7787 10.2736L16.0209 10.0332C15.9396 9.95188 15.86 9.87229 15.7787 9.87229ZM17.6262 10.5141L17.3061 10.4345C17.064 10.4345 16.8235 10.5141 16.6627 10.5954L16.3409 10.7562L15.3774 15.0946H16.0209C16.1005 15.0946 16.5018 14.9337 17.1453 12.3632C17.2249 12.2024 17.2249 12.1211 17.2249 12.1211C17.3061 11.9602 17.467 11.9602 17.6262 12.0415C17.7075 12.1211 17.7871 12.2819 17.7075 12.3632V12.5241C17.2249 14.6916 16.6627 15.6568 16.1005 15.6568C15.6991 15.7364 15.2165 15.7364 14.8152 15.5755L14.6543 15.4959L14.6696 15.4197C14.4765 15.6196 14.2615 15.7686 14.0397 15.8668C14.6391 16.4121 15.3893 16.7964 16.1801 17.0217C16.9844 17.2638 17.8683 17.0217 18.5101 16.3799L18.8319 16.1394C19.3941 15.7364 19.7158 14.4511 19.7158 12.6833C19.7158 11.1576 18.2697 10.7562 17.6262 10.5141ZM14.9134 11.2761C14.8762 11.3557 14.8423 11.4251 14.8152 11.4793C14.4935 11.8806 14.0109 12.0415 13.4487 11.9602C13.1286 11.9602 13.0473 12.1211 12.8865 12.6833V12.7646C12.6596 13.5232 12.79 14.3546 13.281 14.9862L13.4504 13.8094L13.53 13.7281C14.0921 13.4063 14.5748 13.005 15.0557 12.5241C15.291 12.2294 15.0963 11.6757 14.9134 11.2761ZM13.9313 14.1294L13.7704 15.2555C14.0126 15.1742 14.3326 15.0133 14.4935 14.7729C14.5544 14.7119 14.7051 14.6967 14.8101 14.7272L15.098 13.3098C14.7509 13.6417 14.3817 13.9059 13.9313 14.1294ZM15.7787 9.87229C15.6991 9.87229 15.5383 9.95188 15.457 10.1127C15.4231 10.1805 15.3317 10.3803 15.225 10.6106C15.269 10.6936 15.4045 10.9239 15.523 11.2185L15.6991 10.3549L15.7787 10.2736L16.0209 10.0332C15.9396 9.95188 15.86 9.87229 15.7787 9.87229ZM17.6262 10.5141L17.3061 10.4345C17.064 10.4345 16.8235 10.5141 16.6627 10.5954L16.3409 10.7562L15.3774 15.0946H16.0209C16.1005 15.0946 16.5018 14.9337 17.1453 12.3632C17.2249 12.2024 17.2249 12.1211 17.2249 12.1211C17.3061 11.9602 17.467 11.9602 17.6262 12.0415C17.7075 12.1211 17.7871 12.2819 17.7075 12.3632V12.5241C17.2249 14.6916 16.6627 15.6568 16.1005 15.6568C15.6991 15.7364 15.2165 15.7364 14.8152 15.5755L14.6543 15.4959L14.6696 15.4197C14.4765 15.6196 14.2615 15.7686 14.0397 15.8668C14.6391 16.4121 15.3893 16.7964 16.1801 17.0217C16.9844 17.2638 17.8683 17.0217 18.5101 16.3799L18.8319 16.1394C19.3941 15.7364 19.7158 14.4511 19.7158 12.6833C19.7158 11.1576 18.2697 10.7562 17.6262 10.5141ZM14.8948 4.08777C14.6526 4.16736 14.4918 4.24864 14.3309 4.40951C14.2513 4.57038 14.1717 4.81084 14.2513 5.05129C14.314 5.7388 14.9117 8.32795 15.2115 9.47774C15.3588 9.37783 15.5281 9.3101 15.6991 9.3101C16.0209 9.3101 16.3409 9.55055 16.5018 9.79101C16.5272 9.77916 16.5526 9.7673 16.578 9.75714L14.8948 4.08777ZM14.7339 10.1127C14.7339 9.97559 13.9804 7.11889 13.7044 5.66768C13.1777 5.84887 12.8137 6.41445 12.8831 6.98003C13.1896 8.43124 13.5672 9.88414 14.1565 11.2659C14.2005 11.2354 14.2327 11.1999 14.253 11.1576C14.314 11.0356 14.5612 10.4921 14.7458 10.1348C14.7407 10.128 14.7373 10.1195 14.7339 10.1127ZM12.7205 18.7099C12.6748 18.6862 12.6359 18.6574 12.6037 18.6219L8.06378 17.7447C7.90291 17.7447 7.82333 17.5839 7.82333 17.423C7.82333 17.2621 7.9825 17.1825 8.14337 17.1825L12.6426 18.1461L13.767 18.3069C13.767 17.826 13.447 17.3434 12.9644 17.2621L9.10859 16.4595C8.94772 16.4595 8.86644 16.2986 8.86644 16.1377C8.86644 15.9769 9.02731 15.8973 9.18817 15.8973L11.4031 16.3494C10.7884 15.032 10.0332 13.7196 9.67078 13.6485C8.30593 13.5672 6.93939 13.8889 5.73541 14.612C5.09194 15.0946 4.04713 16.6999 4.60933 17.5043C4.93107 18.0665 5.41367 18.6287 5.97587 19.1909C5.97587 19.1909 7.422 20.4761 8.14506 19.9139C8.42447 19.7039 8.64969 19.5448 8.83426 19.4212L7.74035 19.1909C7.57948 19.1909 7.49989 19.03 7.49989 18.8708C7.49989 18.7116 7.65907 18.6287 7.81994 18.6287L9.68094 19.0283H9.68264L9.75037 19.0435L12.3192 19.5939L13.5249 19.753C13.5249 19.2721 13.2031 18.7895 12.7205 18.7099ZM12.7205 18.7099C12.6748 18.6862 12.6359 18.6574 12.6037 18.6219L8.06378 17.7447C7.90291 17.7447 7.82333 17.5839 7.82333 17.423C7.82333 17.2621 7.9825 17.1825 8.14337 17.1825L12.6426 18.1461L13.767 18.3069C13.767 17.826 13.447 17.3434 12.9644 17.2621L9.10859 16.4595C8.94772 16.4595 8.86644 16.2986 8.86644 16.1377C8.86644 15.9769 9.02731 15.8973 9.18817 15.8973L11.4031 16.3494C10.7884 15.032 10.0332 13.7196 9.67078 13.6485C8.30593 13.5672 6.93939 13.8889 5.73541 14.612C5.09194 15.0946 4.04713 16.6999 4.60933 17.5043C4.93107 18.0665 5.41367 18.6287 5.97587 19.1909C5.97587 19.1909 7.422 20.4761 8.14506 19.9139C8.42447 19.7039 8.64969 19.5448 8.83426 19.4212L7.74035 19.1909C7.57948 19.1909 7.49989 19.03 7.49989 18.8708C7.49989 18.7116 7.65907 18.6287 7.81994 18.6287L9.68094 19.0283H9.68264L9.75037 19.0435L12.3192 19.5939L13.5249 19.753C13.5249 19.2721 13.2031 18.7895 12.7205 18.7099ZM14.9134 11.2761C14.8762 11.3557 14.8423 11.4251 14.8152 11.4793C14.4935 11.8806 14.0109 12.0415 13.4487 11.9602C13.1286 11.9602 13.0473 12.1211 12.8865 12.6833V12.7646C12.6596 13.5232 12.79 14.3546 13.281 14.9862L13.4504 13.8094L13.53 13.7281C14.0921 13.4063 14.5748 13.005 15.0557 12.5241C15.291 12.2294 15.0963 11.6757 14.9134 11.2761ZM13.9313 14.1294L13.7704 15.2555C14.0126 15.1742 14.3326 15.0133 14.4935 14.7729C14.5544 14.7119 14.7051 14.6967 14.8101 14.7272L15.098 13.3098C14.7509 13.6417 14.3817 13.9059 13.9313 14.1294ZM15.7787 9.87229C15.6991 9.87229 15.5383 9.95188 15.457 10.1127C15.4231 10.1805 15.3317 10.3803 15.225 10.6106C15.269 10.6936 15.4045 10.9239 15.523 11.2185L15.6991 10.3549L15.7787 10.2736L16.0209 10.0332C15.9396 9.95188 15.86 9.87229 15.7787 9.87229ZM17.6262 10.5141L17.3061 10.4345C17.064 10.4345 16.8235 10.5141 16.6627 10.5954L16.3409 10.7562L15.3774 15.0946H16.0209C16.1005 15.0946 16.5018 14.9337 17.1453 12.3632C17.2249 12.2024 17.2249 12.1211 17.2249 12.1211C17.3061 11.9602 17.467 11.9602 17.6262 12.0415C17.7075 12.1211 17.7871 12.2819 17.7075 12.3632V12.5241C17.2249 14.6916 16.6627 15.6568 16.1005 15.6568C15.6991 15.7364 15.2165 15.7364 14.8152 15.5755L14.6543 15.4959L14.6696 15.4197C14.4765 15.6196 14.2615 15.7686 14.0397 15.8668C14.6391 16.4121 15.3893 16.7964 16.1801 17.0217C16.9844 17.2638 17.8683 17.0217 18.5101 16.3799L18.8319 16.1394C19.3941 15.7364 19.7158 14.4511 19.7158 12.6833C19.7158 11.1576 18.2697 10.7562 17.6262 10.5141ZM17.6262 10.5141L17.3061 10.4345C17.064 10.4345 16.8235 10.5141 16.6627 10.5954L16.3409 10.7562L15.3774 15.0946H16.0209C16.1005 15.0946 16.5018 14.9337 17.1453 12.3632C17.2249 12.2024 17.2249 12.1211 17.2249 12.1211C17.3061 11.9602 17.467 11.9602 17.6262 12.0415C17.7075 12.1211 17.7871 12.2819 17.7075 12.3632V12.5241C17.2249 14.6916 16.6627 15.6568 16.1005 15.6568C15.6991 15.7364 15.2165 15.7364 14.8152 15.5755L14.6543 15.4959L14.6696 15.4197C14.4765 15.6196 14.2615 15.7686 14.0397 15.8668C14.6391 16.4121 15.3893 16.7964 16.1801 17.0217C16.9844 17.2638 17.8683 17.0217 18.5101 16.3799L18.8319 16.1394C19.3941 15.7364 19.7158 14.4511 19.7158 12.6833C19.7158 11.1576 18.2697 10.7562 17.6262 10.5141ZM14.8948 4.08777C14.6526 4.16736 14.4918 4.24864 14.3309 4.40951C14.2513 4.57038 14.1717 4.81084 14.2513 5.05129C14.314 5.7388 14.9117 8.32795 15.2115 9.47774C15.3588 9.37783 15.5281 9.3101 15.6991 9.3101C16.0209 9.3101 16.3409 9.55055 16.5018 9.79101C16.5272 9.77916 16.5526 9.7673 16.578 9.75714L14.8948 4.08777ZM15.7787 9.87229C15.6991 9.87229 15.5383 9.95188 15.457 10.1127C15.4231 10.1805 15.3317 10.3803 15.225 10.6106C15.269 10.6936 15.4045 10.9239 15.523 11.2185L15.6991 10.3549L15.7787 10.2736L16.0209 10.0332C15.9396 9.95188 15.86 9.87229 15.7787 9.87229ZM13.9313 14.1294L13.7704 15.2555C14.0126 15.1742 14.3326 15.0133 14.4935 14.7729C14.5544 14.7119 14.7051 14.6967 14.8101 14.7272L15.098 13.3098C14.7509 13.6417 14.3817 13.9059 13.9313 14.1294ZM14.9134 11.2761C14.8762 11.3557 14.8423 11.4251 14.8152 11.4793C14.4935 11.8806 14.0109 12.0415 13.4487 11.9602C13.1286 11.9602 13.0473 12.1211 12.8865 12.6833V12.7646C12.6596 13.5232 12.79 14.3546 13.281 14.9862L13.4504 13.8094L13.53 13.7281C14.0921 13.4063 14.5748 13.005 15.0557 12.5241C15.291 12.2294 15.0963 11.6757 14.9134 11.2761ZM14.7339 10.1127C14.7339 9.97559 13.9804 7.11889 13.7044 5.66768C13.1777 5.84887 12.8137 6.41445 12.8831 6.98003C13.1896 8.43124 13.5672 9.88414 14.1565 11.2659C14.2005 11.2354 14.2327 11.1999 14.253 11.1576C14.314 11.0356 14.5612 10.4921 14.7458 10.1348C14.7407 10.128 14.7373 10.1195 14.7339 10.1127ZM12.7205 18.7099C12.6748 18.6862 12.6359 18.6574 12.6037 18.6219L8.06378 17.7447C7.90291 17.7447 7.82333 17.5839 7.82333 17.423C7.82333 17.2621 7.9825 17.1825 8.14337 17.1825L12.6426 18.1461L13.767 18.3069C13.767 17.826 13.447 17.3434 12.9644 17.2621L9.10859 16.4595C8.94772 16.4595 8.86644 16.2986 8.86644 16.1377C8.86644 15.9769 9.02731 15.8973 9.18817 15.8973L11.4031 16.3494C10.7884 15.032 10.0332 13.7196 9.67078 13.6485C8.30593 13.5672 6.93939 13.8889 5.73541 14.612C5.09194 15.0946 4.04713 16.6999 4.60933 17.5043C4.93107 18.0665 5.41367 18.6287 5.97587 19.1909C5.97587 19.1909 7.422 20.4761 8.14506 19.9139C8.42447 19.7039 8.64969 19.5448 8.83426 19.4212L7.74035 19.1909C7.57948 19.1909 7.49989 19.03 7.49989 18.8708C7.49989 18.7116 7.65907 18.6287 7.81994 18.6287L9.68094 19.0283H9.68264L9.75037 19.0435L12.3192 19.5939L13.5249 19.753C13.5249 19.2721 13.2031 18.7895 12.7205 18.7099ZM12.7205 18.7099C12.6748 18.6862 12.6359 18.6574 12.6037 18.6219L8.06378 17.7447C7.90291 17.7447 7.82333 17.5839 7.82333 17.423C7.82333 17.2621 7.9825 17.1825 8.14337 17.1825L12.6426 18.1461L13.767 18.3069C13.767 17.826 13.447 17.3434 12.9644 17.2621L9.10859 16.4595C8.94772 16.4595 8.86644 16.2986 8.86644 16.1377C8.86644 15.9769 9.02731 15.8973 9.18817 15.8973L11.4031 16.3494C10.7884 15.032 10.0332 13.7196 9.67078 13.6485C8.30593 13.5672 6.93939 13.8889 5.73541 14.612C5.09194 15.0946 4.04713 16.6999 4.60933 17.5043C4.93107 18.0665 5.41367 18.6287 5.97587 19.1909C5.97587 19.1909 7.422 20.4761 8.14506 19.9139C8.42447 19.7039 8.64969 19.5448 8.83426 19.4212L7.74035 19.1909C7.57948 19.1909 7.49989 19.03 7.49989 18.8708C7.49989 18.7116 7.65907 18.6287 7.81994 18.6287L9.68094 19.0283H9.68264L9.75037 19.0435L12.3192 19.5939L13.5249 19.753C13.5249 19.2721 13.2031 18.7895 12.7205 18.7099ZM14.9134 11.2761C14.8762 11.3557 14.8423 11.4251 14.8152 11.4793C14.4935 11.8806 14.0109 12.0415 13.4487 11.9602C13.1286 11.9602 13.0473 12.1211 12.8865 12.6833V12.7646C12.6596 13.5232 12.79 14.3546 13.281 14.9862L13.4504 13.8094L13.53 13.7281C14.0921 13.4063 14.5748 13.005 15.0557 12.5241C15.291 12.2294 15.0963 11.6757 14.9134 11.2761ZM13.9313 14.1294L13.7704 15.2555C14.0126 15.1742 14.3326 15.0133 14.4935 14.7729C14.5544 14.7119 14.7051 14.6967 14.8101 14.7272L15.098 13.3098C14.7509 13.6417 14.3817 13.9059 13.9313 14.1294ZM15.7787 9.87229C15.6991 9.87229 15.5383 9.95188 15.457 10.1127C15.4231 10.1805 15.3317 10.3803 15.225 10.6106C15.269 10.6936 15.4045 10.9239 15.523 11.2185L15.6991 10.3549L15.7787 10.2736L16.0209 10.0332C15.9396 9.95188 15.86 9.87229 15.7787 9.87229ZM17.6262 10.5141L17.3061 10.4345C17.064 10.4345 16.8235 10.5141 16.6627 10.5954L16.3409 10.7562L15.3774 15.0946H16.0209C16.1005 15.0946 16.5018 14.9337 17.1453 12.3632C17.2249 12.2024 17.2249 12.1211 17.2249 12.1211C17.3061 11.9602 17.467 11.9602 17.6262 12.0415C17.7075 12.1211 17.7871 12.2819 17.7075 12.3632V12.5241C17.2249 14.6916 16.6627 15.6568 16.1005 15.6568C15.6991 15.7364 15.2165 15.7364 14.8152 15.5755L14.6543 15.4959L14.6696 15.4197C14.4765 15.6196 14.2615 15.7686 14.0397 15.8668C14.6391 16.4121 15.3893 16.7964 16.1801 17.0217C16.9844 17.2638 17.8683 17.0217 18.5101 16.3799L18.8319 16.1394C19.3941 15.7364 19.7158 14.4511 19.7158 12.6833C19.7158 11.1576 18.2697 10.7562 17.6262 10.5141ZM17.6262 10.5141L17.3061 10.4345C17.064 10.4345 16.8235 10.5141 16.6627 10.5954L16.3409 10.7562L15.3774 15.0946H16.0209C16.1005 15.0946 16.5018 14.9337 17.1453 12.3632C17.2249 12.2024 17.2249 12.1211 17.2249 12.1211C17.3061 11.9602 17.467 11.9602 17.6262 12.0415C17.7075 12.1211 17.7871 12.2819 17.7075 12.3632V12.5241C17.2249 14.6916 16.6627 15.6568 16.1005 15.6568C15.6991 15.7364 15.2165 15.7364 14.8152 15.5755L14.6543 15.4959L14.6696 15.4197C14.4765 15.6196 14.2615 15.7686 14.0397 15.8668C14.6391 16.4121 15.3893 16.7964 16.1801 17.0217C16.9844 17.2638 17.8683 17.0217 18.5101 16.3799L18.8319 16.1394C19.3941 15.7364 19.7158 14.4511 19.7158 12.6833C19.7158 11.1576 18.2697 10.7562 17.6262 10.5141ZM14.8948 4.08777C14.6526 4.16736 14.4918 4.24864 14.3309 4.40951C14.2513 4.57038 14.1717 4.81084 14.2513 5.05129C14.314 5.7388 14.9117 8.32795 15.2115 9.47774C15.3588 9.37783 15.5281 9.3101 15.6991 9.3101C16.0209 9.3101 16.3409 9.55055 16.5018 9.79101C16.5272 9.77916 16.5526 9.7673 16.578 9.75714L14.8948 4.08777ZM15.7787 9.87229C15.6991 9.87229 15.5383 9.95188 15.457 10.1127C15.4231 10.1805 15.3317 10.3803 15.225 10.6106C15.269 10.6936 15.4045 10.9239 15.523 11.2185L15.6991 10.3549L15.7787 10.2736L16.0209 10.0332C15.9396 9.95188 15.86 9.87229 15.7787 9.87229ZM13.9313 14.1294L13.7704 15.2555C14.0126 15.1742 14.3326 15.0133 14.4935 14.7729C14.5544 14.7119 14.7051 14.6967 14.8101 14.7272L15.098 13.3098C14.7509 13.6417 14.3817 13.9059 13.9313 14.1294ZM14.9134 11.2761C14.8762 11.3557 14.8423 11.4251 14.8152 11.4793C14.4935 11.8806 14.0109 12.0415 13.4487 11.9602C13.1286 11.9602 13.0473 12.1211 12.8865 12.6833V12.7646C12.6596 13.5232 12.79 14.3546 13.281 14.9862L13.4504 13.8094L13.53 13.7281C14.0921 13.4063 14.5748 13.005 15.0557 12.5241C15.291 12.2294 15.0963 11.6757 14.9134 11.2761ZM14.7339 10.1127C14.7339 9.97559 13.9804 7.11889 13.7044 5.66768C13.1777 5.84887 12.8137 6.41445 12.8831 6.98003C13.1896 8.43124 13.5672 9.88414 14.1565 11.2659C14.2005 11.2354 14.2327 11.1999 14.253 11.1576C14.314 11.0356 14.5612 10.4921 14.7458 10.1348C14.7407 10.128 14.7373 10.1195 14.7339 10.1127ZM12.7205 18.7099C12.6748 18.6862 12.6359 18.6574 12.6037 18.6219L8.06378 17.7447C7.90291 17.7447 7.82333 17.5839 7.82333 17.423C7.82333 17.2621 7.9825 17.1825 8.14337 17.1825L12.6426 18.1461L13.767 18.3069C13.767 17.826 13.447 17.3434 12.9644 17.2621L9.10859 16.4595C8.94772 16.4595 8.86644 16.2986 8.86644 16.1377C8.86644 15.9769 9.02731 15.8973 9.18817 15.8973L11.4031 16.3494C10.7884 15.032 10.0332 13.7196 9.67078 13.6485C8.30593 13.5672 6.93939 13.8889 5.73541 14.612C5.09194 15.0946 4.04713 16.6999 4.60933 17.5043C4.93107 18.0665 5.41367 18.6287 5.97587 19.1909C5.97587 19.1909 7.422 20.4761 8.14506 19.9139C8.42447 19.7039 8.64969 19.5448 8.83426 19.4212L7.74035 19.1909C7.57948 19.1909 7.49989 19.03 7.49989 18.8708C7.49989 18.7116 7.65907 18.6287 7.81994 18.6287L9.68094 19.0283H9.68264L9.75037 19.0435L12.3192 19.5939L13.5249 19.753C13.5249 19.2721 13.2031 18.7895 12.7205 18.7099ZM12.7205 18.7099C12.6748 18.6862 12.6359 18.6574 12.6037 18.6219L8.06378 17.7447C7.90291 17.7447 7.82333 17.5839 7.82333 17.423C7.82333 17.2621 7.9825 17.1825 8.14337 17.1825L12.6426 18.1461L13.767 18.3069C13.767 17.826 13.447 17.3434 12.9644 17.2621L9.10859 16.4595C8.94772 16.4595 8.86644 16.2986 8.86644 16.1377C8.86644 15.9769 9.02731 15.8973 9.18817 15.8973L11.4031 16.3494C10.7884 15.032 10.0332 13.7196 9.67078 13.6485C8.30593 13.5672 6.93939 13.8889 5.73541 14.612C5.09194 15.0946 4.04713 16.6999 4.60933 17.5043C4.93107 18.0665 5.41367 18.6287 5.97587 19.1909C5.97587 19.1909 7.422 20.4761 8.14506 19.9139C8.42447 19.7039 8.64969 19.5448 8.83426 19.4212L7.74035 19.1909C7.57948 19.1909 7.49989 19.03 7.49989 18.8708C7.49989 18.7116 7.65907 18.6287 7.81994 18.6287L9.68094 19.0283H9.68264L9.75037 19.0435L12.3192 19.5939L13.5249 19.753C13.5249 19.2721 13.2031 18.7895 12.7205 18.7099ZM14.9134 11.2761C14.8762 11.3557 14.8423 11.4251 14.8152 11.4793C14.4935 11.8806 14.0109 12.0415 13.4487 11.9602C13.1286 11.9602 13.0473 12.1211 12.8865 12.6833V12.7646C12.6596 13.5232 12.79 14.3546 13.281 14.9862L13.4504 13.8094L13.53 13.7281C14.0921 13.4063 14.5748 13.005 15.0557 12.5241C15.291 12.2294 15.0963 11.6757 14.9134 11.2761ZM13.9313 14.1294L13.7704 15.2555C14.0126 15.1742 14.3326 15.0133 14.4935 14.7729C14.5544 14.7119 14.7051 14.6967 14.8101 14.7272L15.098 13.3098C14.7509 13.6417 14.3817 13.9059 13.9313 14.1294ZM15.7787 9.87229C15.6991 9.87229 15.5383 9.95188 15.457 10.1127C15.4231 10.1805 15.3317 10.3803 15.225 10.6106C15.269 10.6936 15.4045 10.9239 15.523 11.2185L15.6991 10.3549L15.7787 10.2736L16.0209 10.0332C15.9396 9.95188 15.86 9.87229 15.7787 9.87229ZM17.6262 10.5141L17.3061 10.4345C17.064 10.4345 16.8235 10.5141 16.6627 10.5954L16.3409 10.7562L15.3774 15.0946H16.0209C16.1005 15.0946 16.5018 14.9337 17.1453 12.3632C17.2249 12.2024 17.2249 12.1211 17.2249 12.1211C17.3061 11.9602 17.467 11.9602 17.6262 12.0415C17.7075 12.1211 17.7871 12.2819 17.7075 12.3632V12.5241C17.2249 14.6916 16.6627 15.6568 16.1005 15.6568C15.6991 15.7364 15.2165 15.7364 14.8152 15.5755L14.6543 15.4959L14.6696 15.4197C14.4765 15.6196 14.2615 15.7686 14.0397 15.8668C14.6391 16.4121 15.3893 16.7964 16.1801 17.0217C16.9844 17.2638 17.8683 17.0217 18.5101 16.3799L18.8319 16.1394C19.3941 15.7364 19.7158 14.4511 19.7158 12.6833C19.7158 11.1576 18.2697 10.7562 17.6262 10.5141ZM17.6262 10.5141L17.3061 10.4345C17.064 10.4345 16.8235 10.5141 16.6627 10.5954L16.3409 10.7562L15.3774 15.0946H16.0209C16.1005 15.0946 16.5018 14.9337 17.1453 12.3632C17.2249 12.2024 17.2249 12.1211 17.2249 12.1211C17.3061 11.9602 17.467 11.9602 17.6262 12.0415C17.7075 12.1211 17.7871 12.2819 17.7075 12.3632V12.5241C17.2249 14.6916 16.6627 15.6568 16.1005 15.6568C15.6991 15.7364 15.2165 15.7364 14.8152 15.5755L14.6543 15.4959L14.6696 15.4197C14.4765 15.6196 14.2615 15.7686 14.0397 15.8668C14.6391 16.4121 15.3893 16.7964 16.1801 17.0217C16.9844 17.2638 17.8683 17.0217 18.5101 16.3799L18.8319 16.1394C19.3941 15.7364 19.7158 14.4511 19.7158 12.6833C19.7158 11.1576 18.2697 10.7562 17.6262 10.5141ZM14.8948 4.08777C14.6526 4.16736 14.4918 4.24864 14.3309 4.40951C14.2513 4.57038 14.1717 4.81084 14.2513 5.05129C14.314 5.7388 14.9117 8.32795 15.2115 9.47774C15.3588 9.37783 15.5281 9.3101 15.6991 9.3101C16.0209 9.3101 16.3409 9.55055 16.5018 9.79101C16.5272 9.77916 16.5526 9.7673 16.578 9.75714L14.8948 4.08777ZM15.7787 9.87229C15.6991 9.87229 15.5383 9.95188 15.457 10.1127C15.4231 10.1805 15.3317 10.3803 15.225 10.6106C15.269 10.6936 15.4045 10.9239 15.523 11.2185L15.6991 10.3549L15.7787 10.2736L16.0209 10.0332C15.9396 9.95188 15.86 9.87229 15.7787 9.87229ZM13.9313 14.1294L13.7704 15.2555C14.0126 15.1742 14.3326 15.0133 14.4935 14.7729C14.5544 14.7119 14.7051 14.6967 14.8101 14.7272L15.098 13.3098C14.7509 13.6417 14.3817 13.9059 13.9313 14.1294ZM14.9134 11.2761C14.8762 11.3557 14.8423 11.4251 14.8152 11.4793C14.4935 11.8806 14.0109 12.0415 13.4487 11.9602C13.1286 11.9602 13.0473 12.1211 12.8865 12.6833V12.7646C12.6596 13.5232 12.79 14.3546 13.281 14.9862L13.4504 13.8094L13.53 13.7281C14.0921 13.4063 14.5748 13.005 15.0557 12.5241C15.291 12.2294 15.0963 11.6757 14.9134 11.2761ZM14.7339 10.1127C14.7339 9.97559 13.9804 7.11889 13.7044 5.66768C13.1777 5.84887 12.8137 6.41445 12.8831 6.98003C13.1896 8.43124 13.5672 9.88414 14.1565 11.2659C14.2005 11.2354 14.2327 11.1999 14.253 11.1576C14.314 11.0356 14.5612 10.4921 14.7458 10.1348C14.7407 10.128 14.7373 10.1195 14.7339 10.1127ZM12.7205 18.7099C12.6748 18.6862 12.6359 18.6574 12.6037 18.6219L8.06378 17.7447C7.90291 17.7447 7.82333 17.5839 7.82333 17.423C7.82333 17.2621 7.9825 17.1825 8.14337 17.1825L12.6426 18.1461L13.767 18.3069C13.767 17.826 13.447 17.3434 12.9644 17.2621L9.10859 16.4595C8.94772 16.4595 8.86644 16.2986 8.86644 16.1377C8.86644 15.9769 9.02731 15.8973 9.18817 15.8973L11.4031 16.3494C10.7884 15.032 10.0332 13.7196 9.67078 13.6485C8.30593 13.5672 6.93939 13.8889 5.73541 14.612C5.09194 15.0946 4.04713 16.6999 4.60933 17.5043C4.93107 18.0665 5.41367 18.6287 5.97587 19.1909C5.97587 19.1909 7.422 20.4761 8.14506 19.9139C8.42447 19.7039 8.64969 19.5448 8.83426 19.4212L7.74035 19.1909C7.57948 19.1909 7.49989 19.03 7.49989 18.8708C7.49989 18.7116 7.65907 18.6287 7.81994 18.6287L9.68094 19.0283H9.68264L9.75037 19.0435L12.3192 19.5939L13.5249 19.753C13.5249 19.2721 13.2031 18.7895 12.7205 18.7099ZM12.7205 18.7099C12.6748 18.6862 12.6359 18.6574 12.6037 18.6219L8.06378 17.7447C7.90291 17.7447 7.82333 17.5839 7.82333 17.423C7.82333 17.2621 7.9825 17.1825 8.14337 17.1825L12.6426 18.1461L13.767 18.3069C13.767 17.826 13.447 17.3434 12.9644 17.2621L9.10859 16.4595C8.94772 16.4595 8.86644 16.2986 8.86644 16.1377C8.86644 15.9769 9.02731 15.8973 9.18817 15.8973L11.4031 16.3494C10.7884 15.032 10.0332 13.7196 9.67078 13.6485C8.30593 13.5672 6.93939 13.8889 5.73541 14.612C5.09194 15.0946 4.04713 16.6999 4.60933 17.5043C4.93107 18.0665 5.41367 18.6287 5.97587 19.1909C5.97587 19.1909 7.422 20.4761 8.14506 19.9139C8.42447 19.7039 8.64969 19.5448 8.83426 19.4212L7.74035 19.1909C7.57948 19.1909 7.49989 19.03 7.49989 18.8708C7.49989 18.7116 7.65907 18.6287 7.81994 18.6287L9.68094 19.0283H9.68264L9.75037 19.0435L12.3192 19.5939L13.5249 19.753C13.5249 19.2721 13.2031 18.7895 12.7205 18.7099ZM14.9134 11.2761C14.8762 11.3557 14.8423 11.4251 14.8152 11.4793C14.4935 11.8806 14.0109 12.0415 13.4487 11.9602C13.1286 11.9602 13.0473 12.1211 12.8865 12.6833V12.7646C12.6596 13.5232 12.79 14.3546 13.281 14.9862L13.4504 13.8094L13.53 13.7281C14.0921 13.4063 14.5748 13.005 15.0557 12.5241C15.291 12.2294 15.0963 11.6757 14.9134 11.2761ZM13.9313 14.1294L13.7704 15.2555C14.0126 15.1742 14.3326 15.0133 14.4935 14.7729C14.5544 14.7119 14.7051 14.6967 14.8101 14.7272L15.098 13.3098C14.7509 13.6417 14.3817 13.9059 13.9313 14.1294ZM15.7787 9.87229C15.6991 9.87229 15.5383 9.95188 15.457 10.1127C15.4231 10.1805 15.3317 10.3803 15.225 10.6106C15.269 10.6936 15.4045 10.9239 15.523 11.2185L15.6991 10.3549L15.7787 10.2736L16.0209 10.0332C15.9396 9.95188 15.86 9.87229 15.7787 9.87229ZM17.6262 10.5141L17.3061 10.4345C17.064 10.4345 16.8235 10.5141 16.6627 10.5954L16.3409 10.7562L15.3774 15.0946H16.0209C16.1005 15.0946 16.5018 14.9337 17.1453 12.3632C17.2249 12.2024 17.2249 12.1211 17.2249 12.1211C17.3061 11.9602 17.467 11.9602 17.6262 12.0415C17.7075 12.1211 17.7871 12.2819 17.7075 12.3632V12.5241C17.2249 14.6916 16.6627 15.6568 16.1005 15.6568C15.6991 15.7364 15.2165 15.7364 14.8152 15.5755L14.6543 15.4959L14.6696 15.4197C14.4765 15.6196 14.2615 15.7686 14.0397 15.8668C14.6391 16.4121 15.3893 16.7964 16.1801 17.0217C16.9844 17.2638 17.8683 17.0217 18.5101 16.3799L18.8319 16.1394C19.3941 15.7364 19.7158 14.4511 19.7158 12.6833C19.7158 11.1576 18.2697 10.7562 17.6262 10.5141ZM17.6262 10.5141L17.3061 10.4345C17.064 10.4345 16.8235 10.5141 16.6627 10.5954L16.3409 10.7562L15.3774 15.0946H16.0209C16.1005 15.0946 16.5018 14.9337 17.1453 12.3632C17.2249 12.2024 17.2249 12.1211 17.2249 12.1211C17.3061 11.9602 17.467 11.9602 17.6262 12.0415C17.7075 12.1211 17.7871 12.2819 17.7075 12.3632V12.5241C17.2249 14.6916 16.6627 15.6568 16.1005 15.6568C15.6991 15.7364 15.2165 15.7364 14.8152 15.5755L14.6543 15.4959L14.6696 15.4197C14.4765 15.6196 14.2615 15.7686 14.0397 15.8668C14.6391 16.4121 15.3893 16.7964 16.1801 17.0217C16.9844 17.2638 17.8683 17.0217 18.5101 16.3799L18.8319 16.1394C19.3941 15.7364 19.7158 14.4511 19.7158 12.6833C19.7158 11.1576 18.2697 10.7562 17.6262 10.5141ZM14.8948 4.08777C14.6526 4.16736 14.4918 4.24864 14.3309 4.40951C14.2513 4.57038 14.1717 4.81084 14.2513 5.05129C14.314 5.7388 14.9117 8.32795 15.2115 9.47774C15.3588 9.37783 15.5281 9.3101 15.6991 9.3101C16.0209 9.3101 16.3409 9.55055 16.5018 9.79101C16.5272 9.77916 16.5526 9.7673 16.578 9.75714L14.8948 4.08777ZM15.7787 9.87229C15.6991 9.87229 15.5383 9.95188 15.457 10.1127C15.4231 10.1805 15.3317 10.3803 15.225 10.6106C15.269 10.6936 15.4045 10.9239 15.523 11.2185L15.6991 10.3549L15.7787 10.2736L16.0209 10.0332C15.9396 9.95188 15.86 9.87229 15.7787 9.87229ZM13.9313 14.1294L13.7704 15.2555C14.0126 15.1742 14.3326 15.0133 14.4935 14.7729C14.5544 14.7119 14.7051 14.6967 14.8101 14.7272L15.098 13.3098C14.7509 13.6417 14.3817 13.9059 13.9313 14.1294ZM14.9134 11.2761C14.8762 11.3557 14.8423 11.4251 14.8152 11.4793C14.4935 11.8806 14.0109 12.0415 13.4487 11.9602C13.1286 11.9602 13.0473 12.1211 12.8865 12.6833V12.7646C12.6596 13.5232 12.79 14.3546 13.281 14.9862L13.4504 13.8094L13.53 13.7281C14.0921 13.4063 14.5748 13.005 15.0557 12.5241C15.291 12.2294 15.0963 11.6757 14.9134 11.2761ZM14.7339 10.1127C14.7339 9.97559 13.9804 7.11889 13.7044 5.66768C13.1777 5.84887 12.8137 6.41445 12.8831 6.98003C13.1896 8.43124 13.5672 9.88414 14.1565 11.2659C14.2005 11.2354 14.2327 11.1999 14.253 11.1576C14.314 11.0356 14.5612 10.4921 14.7458 10.1348C14.7407 10.128 14.7373 10.1195 14.7339 10.1127ZM12.7205 18.7099C12.6748 18.6862 12.6359 18.6574 12.6037 18.6219L8.06378 17.7447C7.90291 17.7447 7.82333 17.5839 7.82333 17.423C7.82333 17.2621 7.9825 17.1825 8.14337 17.1825L12.6426 18.1461L13.767 18.3069C13.767 17.826 13.447 17.3434 12.9644 17.2621L9.10859 16.4595C8.94772 16.4595 8.86644 16.2986 8.86644 16.1377C8.86644 15.9769 9.02731 15.8973 9.18817 15.8973L11.4031 16.3494C10.7884 15.032 10.0332 13.7196 9.67078 13.6485C8.30593 13.5672 6.93939 13.8889 5.73541 14.612C5.09194 15.0946 4.04713 16.6999 4.60933 17.5043C4.93107 18.0665 5.41367 18.6287 5.97587 19.1909C5.97587 19.1909 7.422 20.4761 8.14506 19.9139C8.42447 19.7039 8.64969 19.5448 8.83426 19.4212L7.74035 19.1909C7.57948 19.1909 7.49989 19.03 7.49989 18.8708C7.49989 18.7116 7.65907 18.6287 7.81994 18.6287L9.68094 19.0283H9.68264L9.75037 19.0435L12.3192 19.5939L13.5249 19.753C13.5249 19.2721 13.2031 18.7895 12.7205 18.7099ZM12.7205 18.7099C12.6748 18.6862 12.6359 18.6574 12.6037 18.6219L8.06378 17.7447C7.90291 17.7447 7.82333 17.5839 7.82333 17.423C7.82333 17.2621 7.9825 17.1825 8.14337 17.1825L12.6426 18.1461L13.767 18.3069C13.767 17.826 13.447 17.3434 12.9644 17.2621L9.10859 16.4595C8.94772 16.4595 8.86644 16.2986 8.86644 16.1377C8.86644 15.9769 9.02731 15.8973 9.18817 15.8973L11.4031 16.3494C10.7884 15.032 10.0332 13.7196 9.67078 13.6485C8.30593 13.5672 6.93939 13.8889 5.73541 14.612C5.09194 15.0946 4.04713 16.6999 4.60933 17.5043C4.93107 18.0665 5.41367 18.6287 5.97587 19.1909C5.97587 19.1909 7.422 20.4761 8.14506 19.9139C8.42447 19.7039 8.64969 19.5448 8.83426 19.4212L7.74035 19.1909C7.57948 19.1909 7.49989 19.03 7.49989 18.8708C7.49989 18.7116 7.65907 18.6287 7.81994 18.6287L9.68094 19.0283H9.68264L9.75037 19.0435L12.3192 19.5939L13.5249 19.753C13.5249 19.2721 13.2031 18.7895 12.7205 18.7099ZM14.7339 10.1127C14.7339 9.97559 13.9804 7.11889 13.7044 5.66768C13.1777 5.84887 12.8137 6.41445 12.8831 6.98003C13.1896 8.43124 13.5672 9.88414 14.1565 11.2659C14.2005 11.2354 14.2327 11.1999 14.253 11.1576C14.314 11.0356 14.5612 10.4921 14.7458 10.1348C14.7407 10.128 14.7373 10.1195 14.7339 10.1127ZM14.9134 11.2761C14.8762 11.3557 14.8423 11.4251 14.8152 11.4793C14.4935 11.8806 14.0109 12.0415 13.4487 11.9602C13.1286 11.9602 13.0473 12.1211 12.8865 12.6833V12.7646C12.6596 13.5232 12.79 14.3546 13.281 14.9862L13.4504 13.8094L13.53 13.7281C14.0921 13.4063 14.5748 13.005 15.0557 12.5241C15.291 12.2294 15.0963 11.6757 14.9134 11.2761ZM13.9313 14.1294L13.7704 15.2555C14.0126 15.1742 14.3326 15.0133 14.4935 14.7729C14.5544 14.7119 14.7051 14.6967 14.8101 14.7272L15.098 13.3098C14.7509 13.6417 14.3817 13.9059 13.9313 14.1294ZM15.7787 9.87229C15.6991 9.87229 15.5383 9.95188 15.457 10.1127C15.4231 10.1805 15.3317 10.3803 15.225 10.6106C15.269 10.6936 15.4045 10.9239 15.523 11.2185L15.6991 10.3549L15.7787 10.2736L16.0209 10.0332C15.9396 9.95188 15.86 9.87229 15.7787 9.87229ZM14.8948 4.08777C14.6526 4.16736 14.4918 4.24864 14.3309 4.40951C14.2513 4.57038 14.1717 4.81084 14.2513 5.05129C14.314 5.7388 14.9117 8.32795 15.2115 9.47774C15.3588 9.37783 15.5281 9.3101 15.6991 9.3101C16.0209 9.3101 16.3409 9.55055 16.5018 9.79101C16.5272 9.77916 16.5526 9.7673 16.578 9.75714L14.8948 4.08777ZM17.6262 10.5141L17.3061 10.4345C17.064 10.4345 16.8235 10.5141 16.6627 10.5954L16.3409 10.7562L15.3774 15.0946H16.0209C16.1005 15.0946 16.5018 14.9337 17.1453 12.3632C17.2249 12.2024 17.2249 12.1211 17.2249 12.1211C17.3061 11.9602 17.467 11.9602 17.6262 12.0415C17.7075 12.1211 17.7871 12.2819 17.7075 12.3632V12.5241C17.2249 14.6916 16.6627 15.6568 16.1005 15.6568C15.6991 15.7364 15.2165 15.7364 14.8152 15.5755L14.6543 15.4959L14.6696 15.4197C14.4765 15.6196 14.2615 15.7686 14.0397 15.8668C14.6391 16.4121 15.3893 16.7964 16.1801 17.0217C16.9844 17.2638 17.8683 17.0217 18.5101 16.3799L18.8319 16.1394C19.3941 15.7364 19.7158 14.4511 19.7158 12.6833C19.7158 11.1576 18.2697 10.7562 17.6262 10.5141ZM17.6262 10.5141L17.3061 10.4345C17.064 10.4345 16.8235 10.5141 16.6627 10.5954L16.3409 10.7562L15.3774 15.0946H16.0209C16.1005 15.0946 16.5018 14.9337 17.1453 12.3632C17.2249 12.2024 17.2249 12.1211 17.2249 12.1211C17.3061 11.9602 17.467 11.9602 17.6262 12.0415C17.7075 12.1211 17.7871 12.2819 17.7075 12.3632V12.5241C17.2249 14.6916 16.6627 15.6568 16.1005 15.6568C15.6991 15.7364 15.2165 15.7364 14.8152 15.5755L14.6543 15.4959L14.6696 15.4197C14.4765 15.6196 14.2615 15.7686 14.0397 15.8668C14.6391 16.4121 15.3893 16.7964 16.1801 17.0217C16.9844 17.2638 17.8683 17.0217 18.5101 16.3799L18.8319 16.1394C19.3941 15.7364 19.7158 14.4511 19.7158 12.6833C19.7158 11.1576 18.2697 10.7562 17.6262 10.5141ZM15.2115 9.47774C15.3588 9.37783 15.5281 9.3101 15.6991 9.3101C16.0209 9.3101 16.3409 9.55055 16.5018 9.79101C16.5272 9.77916 16.5526 9.7673 16.578 9.75714L14.8948 4.08777C14.6526 4.16736 14.4918 4.24864 14.3309 4.40951C14.2513 4.57038 14.1717 4.81084 14.2513 5.05129C14.314 5.7388 14.9117 8.32795 15.2115 9.47774ZM15.457 10.1127C15.4231 10.1805 15.3317 10.3803 15.225 10.6106C15.269 10.6936 15.4045 10.9239 15.523 11.2185L15.6991 10.3549L15.7787 10.2736L16.0209 10.0332C15.9396 9.95188 15.86 9.87229 15.7787 9.87229C15.6975 9.87229 15.5383 9.95188 15.457 10.1127ZM14.4935 14.7729C14.5544 14.7119 14.7051 14.6967 14.8101 14.7272L15.098 13.3098C14.7509 13.6417 14.3817 13.9059 13.9313 14.1294L13.7704 15.2555C14.0126 15.1742 14.3326 15.0133 14.4935 14.7729ZM14.9134 11.2761C14.8762 11.3557 14.8423 11.4251 14.8152 11.4793C14.4935 11.8806 14.0109 12.0415 13.4487 11.9602C13.1286 11.9602 13.0473 12.1211 12.8865 12.6833V12.7646C12.6596 13.5232 12.79 14.3546 13.281 14.9862L13.4504 13.8094L13.53 13.7281C14.0921 13.4063 14.5748 13.005 15.0557 12.5241C15.291 12.2294 15.0963 11.6757 14.9134 11.2761ZM14.1565 11.2659C14.2005 11.2354 14.2327 11.1999 14.253 11.1576C14.314 11.0356 14.5612 10.4921 14.7458 10.1348C14.7407 10.128 14.7373 10.1195 14.7339 10.1127C14.7339 9.97559 13.9804 7.11889 13.7044 5.66768C13.1777 5.84887 12.8137 6.41445 12.8831 6.98003C13.1896 8.43124 13.5672 9.88414 14.1565 11.2659ZM12.7205 18.7099C12.6748 18.6862 12.6359 18.6574 12.6037 18.6219L8.06378 17.7447C7.90291 17.7447 7.82333 17.5839 7.82333 17.423C7.82333 17.2621 7.9825 17.1825 8.14337 17.1825L12.6426 18.1461L13.767 18.3069C13.767 17.826 13.447 17.3434 12.9644 17.2621L9.10859 16.4595C8.94772 16.4595 8.86644 16.2986 8.86644 16.1377C8.86644 15.9769 9.02731 15.8973 9.18817 15.8973L11.4031 16.3494C10.7884 15.032 10.0332 13.7196 9.67078 13.6485C8.30593 13.5672 6.93939 13.8889 5.73541 14.612C5.09194 15.0946 4.04713 16.6999 4.60933 17.5043C4.93107 18.0665 5.41367 18.6287 5.97587 19.1909C5.97587 19.1909 7.422 20.4761 8.14506 19.9139C8.42447 19.7039 8.64969 19.5448 8.83426 19.4212L7.74035 19.1909C7.57948 19.1909 7.49989 19.03 7.49989 18.8708C7.49989 18.7116 7.65907 18.6287 7.81994 18.6287L9.68094 19.0283H9.68264L9.75037 19.0435L12.3192 19.5939L13.5249 19.753C13.5249 19.2721 13.2031 18.7895 12.7205 18.7099ZM20.6539 0H3.34608C1.5054 0 0 1.50709 0 3.34777V20.6556C0 22.4946 1.5054 24.0017 3.34608 24.0017H20.6539C22.4946 24.0017 24 22.4946 24 20.6556V3.34777C24 1.50709 22.4946 0 20.6539 0ZM14.3309 18.8691L13.9127 18.8098C13.9465 18.8556 13.9787 18.903 14.0075 18.9504C14.1667 19.3517 14.2479 19.753 14.0871 20.1561L14.0075 20.3965L12.3192 20.1561L9.72328 19.6091C9.32872 19.8462 8.86136 20.0816 8.54639 20.3965C8.30593 20.5574 7.9842 20.637 7.74374 20.637C6.93939 20.5574 6.21633 20.1561 5.57454 19.5922C5.01235 19.03 4.45015 18.3882 4.04713 17.7447C3.24448 16.5407 4.60933 14.612 5.33239 14.0498C6.69893 13.2455 8.22465 12.8441 9.75206 13.005C10.7003 13.1625 11.8027 15.6534 12.1448 16.5001L13.1252 16.6999C13.6078 16.7812 13.9279 17.1029 14.17 17.5043C14.3309 17.9056 14.4105 18.3069 14.2496 18.7082L14.3309 18.8691ZM19.0723 16.5407L18.7523 16.7812C18.1884 17.2638 17.467 17.5839 16.7439 17.5839C16.5018 17.5839 16.1801 17.5043 15.9396 17.4247C14.7339 17.1029 13.6095 16.3799 12.8865 15.3351C12.1634 14.5324 12.0025 13.4063 12.3243 12.4428C12.4851 11.9602 12.7256 11.398 13.4487 11.398C13.4842 11.398 13.5198 11.398 13.5537 11.3963C12.9881 9.97559 12.6206 8.55316 12.3209 7.05962C12.2481 6.17569 12.7815 5.35949 13.6129 5.10548C13.6129 5.08685 13.6095 5.06823 13.6078 5.05129C13.5283 4.64997 13.6891 4.24864 13.9296 3.9269C14.2513 3.60516 14.6526 3.4443 15.054 3.36471H15.2961L17.1063 9.66062C17.2266 9.66232 17.3468 9.68264 17.467 9.71142C17.5466 9.71142 17.6262 9.79101 17.7075 9.79101C18.4305 10.0332 20.1984 10.5954 20.1984 12.5241C20.1984 14.4528 19.8767 16.0581 19.0723 16.5407ZM17.6262 10.5141L17.3061 10.4345C17.064 10.4345 16.8235 10.5141 16.6627 10.5954L16.3409 10.7562L15.3774 15.0946H16.0209C16.1005 15.0946 16.5018 14.9337 17.1453 12.3632C17.2249 12.2024 17.2249 12.1211 17.2249 12.1211C17.3061 11.9602 17.467 11.9602 17.6262 12.0415C17.7075 12.1211 17.7871 12.2819 17.7075 12.3632V12.5241C17.2249 14.6916 16.6627 15.6568 16.1005 15.6568C15.6991 15.7364 15.2165 15.7364 14.8152 15.5755L14.6543 15.4959L14.6696 15.4197C14.4765 15.6196 14.2615 15.7686 14.0397 15.8668C14.6391 16.4121 15.3893 16.7964 16.1801 17.0217C16.9844 17.2638 17.8683 17.0217 18.5101 16.3799L18.8319 16.1394C19.3941 15.7364 19.7158 14.4511 19.7158 12.6833C19.7158 11.1576 18.2697 10.7562 17.6262 10.5141ZM15.2115 9.47774C15.3588 9.37783 15.5281 9.3101 15.6991 9.3101C16.0209 9.3101 16.3409 9.55055 16.5018 9.79101C16.5272 9.77916 16.5526 9.7673 16.578 9.75714L14.8948 4.08777C14.6526 4.16736 14.4918 4.24864 14.3309 4.40951C14.2513 4.57038 14.1717 4.81084 14.2513 5.05129C14.314 5.7388 14.9117 8.32795 15.2115 9.47774ZM15.457 10.1127C15.4231 10.1805 15.3317 10.3803 15.225 10.6106C15.269 10.6936 15.4045 10.9239 15.523 11.2185L15.6991 10.3549L15.7787 10.2736L16.0209 10.0332C15.9396 9.95188 15.86 9.87229 15.7787 9.87229C15.6975 9.87229 15.5383 9.95188 15.457 10.1127ZM14.4935 14.7729C14.5544 14.7119 14.7051 14.6967 14.8101 14.7272L15.098 13.3098C14.7509 13.6417 14.3817 13.9059 13.9313 14.1294L13.7704 15.2555C14.0126 15.1742 14.3326 15.0133 14.4935 14.7729ZM14.9134 11.2761C14.8762 11.3557 14.8423 11.4251 14.8152 11.4793C14.4935 11.8806 14.0109 12.0415 13.4487 11.9602C13.1286 11.9602 13.0473 12.1211 12.8865 12.6833V12.7646C12.6596 13.5232 12.79 14.3546 13.281 14.9862L13.4504 13.8094L13.53 13.7281C14.0921 13.4063 14.5748 13.005 15.0557 12.5241C15.291 12.2294 15.0963 11.6757 14.9134 11.2761ZM14.253 11.1576C14.314 11.0356 14.5612 10.4921 14.7458 10.1348C14.7407 10.128 14.7373 10.1195 14.7339 10.1127C14.7339 9.97559 13.9804 7.11889 13.7044 5.66768C13.1777 5.84887 12.8137 6.41445 12.8831 6.98003C13.1896 8.43124 13.5672 9.88414 14.1565 11.2659C14.2005 11.2354 14.2327 11.1999 14.253 11.1576ZM8.14337 17.1825L12.6426 18.1461L13.767 18.3069C13.767 17.826 13.447 17.3434 12.9644 17.2621L9.10859 16.4595C8.94772 16.4595 8.86644 16.2986 8.86644 16.1377C8.86644 15.9769 9.02731 15.8973 9.18817 15.8973L11.4031 16.3494C10.7884 15.032 10.0332 13.7196 9.67078 13.6485C8.30593 13.5672 6.93939 13.8889 5.73541 14.612C5.09194 15.0946 4.04713 16.6999 4.60933 17.5043C4.93107 18.0665 5.41367 18.6287 5.97587 19.1909C5.97587 19.1909 7.422 20.4761 8.14506 19.9139C8.42447 19.7039 8.64969 19.5448 8.83426 19.4212L7.74035 19.1909C7.57948 19.1909 7.49989 19.03 7.49989 18.8708C7.49989 18.7116 7.65907 18.6287 7.81994 18.6287L9.68094 19.0283H9.68264L9.75037 19.0435L12.3192 19.5939L13.5249 19.753C13.5249 19.2721 13.2031 18.7895 12.7205 18.7099C12.6748 18.6862 12.6359 18.6574 12.6037 18.6219L8.06378 17.7447C7.90291 17.7447 7.82333 17.5839 7.82333 17.423C7.82333 17.2621 7.9825 17.1825 8.14337 17.1825ZM12.7205 18.7099C12.6748 18.6862 12.6359 18.6574 12.6037 18.6219L8.06378 17.7447C7.90291 17.7447 7.82333 17.5839 7.82333 17.423C7.82333 17.2621 7.9825 17.1825 8.14337 17.1825L12.6426 18.1461L13.767 18.3069C13.767 17.826 13.447 17.3434 12.9644 17.2621L9.10859 16.4595C8.94772 16.4595 8.86644 16.2986 8.86644 16.1377C8.86644 15.9769 9.02731 15.8973 9.18817 15.8973L11.4031 16.3494C10.7884 15.032 10.0332 13.7196 9.67078 13.6485C8.30593 13.5672 6.93939 13.8889 5.73541 14.612C5.09194 15.0946 4.04713 16.6999 4.60933 17.5043C4.93107 18.0665 5.41367 18.6287 5.97587 19.1909C5.97587 19.1909 7.422 20.4761 8.14506 19.9139C8.42447 19.7039 8.64969 19.5448 8.83426 19.4212L7.74035 19.1909C7.57948 19.1909 7.49989 19.03 7.49989 18.8708C7.49989 18.7116 7.65907 18.6287 7.81994 18.6287L9.68094 19.0283H9.68264L9.75037 19.0435L12.3192 19.5939L13.5249 19.753C13.5249 19.2721 13.2031 18.7895 12.7205 18.7099ZM14.7339 10.1127C14.7339 9.97559 13.9804 7.11889 13.7044 5.66768C13.1777 5.84887 12.8137 6.41445 12.8831 6.98003C13.1896 8.43124 13.5672 9.88414 14.1565 11.2659C14.2005 11.2354 14.2327 11.1999 14.253 11.1576C14.314 11.0356 14.5612 10.4921 14.7458 10.1348C14.7407 10.128 14.7373 10.1195 14.7339 10.1127ZM14.9134 11.2761C14.8762 11.3557 14.8423 11.4251 14.8152 11.4793C14.4935 11.8806 14.0109 12.0415 13.4487 11.9602C13.1286 11.9602 13.0473 12.1211 12.8865 12.6833V12.7646C12.6596 13.5232 12.79 14.3546 13.281 14.9862L13.4504 13.8094L13.53 13.7281C14.0921 13.4063 14.5748 13.005 15.0557 12.5241C15.291 12.2294 15.0963 11.6757 14.9134 11.2761ZM13.9313 14.1294L13.7704 15.2555C14.0126 15.1742 14.3326 15.0133 14.4935 14.7729C14.5544 14.7119 14.7051 14.6967 14.8101 14.7272L15.098 13.3098C14.7509 13.6417 14.3817 13.9059 13.9313 14.1294ZM15.7787 9.87229C15.6991 9.87229 15.5383 9.95188 15.457 10.1127C15.4231 10.1805 15.3317 10.3803 15.225 10.6106C15.269 10.6936 15.4045 10.9239 15.523 11.2185L15.6991 10.3549L15.7787 10.2736L16.0209 10.0332C15.9396 9.95188 15.86 9.87229 15.7787 9.87229ZM14.8948 4.08777C14.6526 4.16736 14.4918 4.24864 14.3309 4.40951C14.2513 4.57038 14.1717 4.81084 14.2513 5.05129C14.314 5.7388 14.9117 8.32795 15.2115 9.47774C15.3588 9.37783 15.5281 9.3101 15.6991 9.3101C16.0209 9.3101 16.3409 9.55055 16.5018 9.79101C16.5272 9.77916 16.5526 9.7673 16.578 9.75714L14.8948 4.08777ZM17.6262 10.5141L17.3061 10.4345C17.064 10.4345 16.8235 10.5141 16.6627 10.5954L16.3409 10.7562L15.3774 15.0946H16.0209C16.1005 15.0946 16.5018 14.9337 17.1453 12.3632C17.2249 12.2024 17.2249 12.1211 17.2249 12.1211C17.3061 11.9602 17.467 11.9602 17.6262 12.0415C17.7075 12.1211 17.7871 12.2819 17.7075 12.3632V12.5241C17.2249 14.6916 16.6627 15.6568 16.1005 15.6568C15.6991 15.7364 15.2165 15.7364 14.8152 15.5755L14.6543 15.4959L14.6696 15.4197C14.4765 15.6196 14.2615 15.7686 14.0397 15.8668C14.6391 16.4121 15.3893 16.7964 16.1801 17.0217C16.9844 17.2638 17.8683 17.0217 18.5101 16.3799L18.8319 16.1394C19.3941 15.7364 19.7158 14.4511 19.7158 12.6833C19.7158 11.1576 18.2697 10.7562 17.6262 10.5141ZM17.6262 10.5141L17.3061 10.4345C17.064 10.4345 16.8235 10.5141 16.6627 10.5954L16.3409 10.7562L15.3774 15.0946H16.0209C16.1005 15.0946 16.5018 14.9337 17.1453 12.3632C17.2249 12.2024 17.2249 12.1211 17.2249 12.1211C17.3061 11.9602 17.467 11.9602 17.6262 12.0415C17.7075 12.1211 17.7871 12.2819 17.7075 12.3632V12.5241C17.2249 14.6916 16.6627 15.6568 16.1005 15.6568C15.6991 15.7364 15.2165 15.7364 14.8152 15.5755L14.6543 15.4959L14.6696 15.4197C14.4765 15.6196 14.2615 15.7686 14.0397 15.8668C14.6391 16.4121 15.3893 16.7964 16.1801 17.0217C16.9844 17.2638 17.8683 17.0217 18.5101 16.3799L18.8319 16.1394C19.3941 15.7364 19.7158 14.4511 19.7158 12.6833C19.7158 11.1576 18.2697 10.7562 17.6262 10.5141ZM14.8948 4.08777C14.6526 4.16736 14.4918 4.24864 14.3309 4.40951C14.2513 4.57038 14.1717 4.81084 14.2513 5.05129C14.314 5.7388 14.9117 8.32795 15.2115 9.47774C15.3588 9.37783 15.5281 9.3101 15.6991 9.3101C16.0209 9.3101 16.3409 9.55055 16.5018 9.79101C16.5272 9.77916 16.5526 9.7673 16.578 9.75714L14.8948 4.08777ZM15.7787 9.87229C15.6991 9.87229 15.5383 9.95188 15.457 10.1127C15.4231 10.1805 15.3317 10.3803 15.225 10.6106C15.269 10.6936 15.4045 10.9239 15.523 11.2185L15.6991 10.3549L15.7787 10.2736L16.0209 10.0332C15.9396 9.95188 15.86 9.87229 15.7787 9.87229ZM13.9313 14.1294L13.7704 15.2555C14.0126 15.1742 14.3326 15.0133 14.4935 14.7729C14.5544 14.7119 14.7051 14.6967 14.8101 14.7272L15.098 13.3098C14.7509 13.6417 14.3817 13.9059 13.9313 14.1294ZM14.9134 11.2761C14.8762 11.3557 14.8423 11.4251 14.8152 11.4793C14.4935 11.8806 14.0109 12.0415 13.4487 11.9602C13.1286 11.9602 13.0473 12.1211 12.8865 12.6833V12.7646C12.6596 13.5232 12.79 14.3546 13.281 14.9862L13.4504 13.8094L13.53 13.7281C14.0921 13.4063 14.5748 13.005 15.0557 12.5241C15.291 12.2294 15.0963 11.6757 14.9134 11.2761ZM14.7339 10.1127C14.7339 9.97559 13.9804 7.11889 13.7044 5.66768C13.1777 5.84887 12.8137 6.41445 12.8831 6.98003C13.1896 8.43124 13.5672 9.88414 14.1565 11.2659C14.2005 11.2354 14.2327 11.1999 14.253 11.1576C14.314 11.0356 14.5612 10.4921 14.7458 10.1348C14.7407 10.128 14.7373 10.1195 14.7339 10.1127ZM12.7205 18.7099C12.6748 18.6862 12.6359 18.6574 12.6037 18.6219L8.06378 17.7447C7.90291 17.7447 7.82333 17.5839 7.82333 17.423C7.82333 17.2621 7.9825 17.1825 8.14337 17.1825L12.6426 18.1461L13.767 18.3069C13.767 17.826 13.447 17.3434 12.9644 17.2621L9.10859 16.4595C8.94772 16.4595 8.86644 16.2986 8.86644 16.1377C8.86644 15.9769 9.02731 15.8973 9.18817 15.8973L11.4031 16.3494C10.7884 15.032 10.0332 13.7196 9.67078 13.6485C8.30593 13.5672 6.93939 13.8889 5.73541 14.612C5.09194 15.0946 4.04713 16.6999 4.60933 17.5043C4.93107 18.0665 5.41367 18.6287 5.97587 19.1909C5.97587 19.1909 7.422 20.4761 8.14506 19.9139C8.42447 19.7039 8.64969 19.5448 8.83426 19.4212L7.74035 19.1909C7.57948 19.1909 7.49989 19.03 7.49989 18.8708C7.49989 18.7116 7.65907 18.6287 7.81994 18.6287L9.68094 19.0283H9.68264L9.75037 19.0435L12.3192 19.5939L13.5249 19.753C13.5249 19.2721 13.2031 18.7895 12.7205 18.7099ZM12.7205 18.7099C12.6748 18.6862 12.6359 18.6574 12.6037 18.6219L8.06378 17.7447C7.90291 17.7447 7.82333 17.5839 7.82333 17.423C7.82333 17.2621 7.9825 17.1825 8.14337 17.1825L12.6426 18.1461L13.767 18.3069C13.767 17.826 13.447 17.3434 12.9644 17.2621L9.10859 16.4595C8.94772 16.4595 8.86644 16.2986 8.86644 16.1377C8.86644 15.9769 9.02731 15.8973 9.18817 15.8973L11.4031 16.3494C10.7884 15.032 10.0332 13.7196 9.67078 13.6485C8.30593 13.5672 6.93939 13.8889 5.73541 14.612C5.09194 15.0946 4.04713 16.6999 4.60933 17.5043C4.93107 18.0665 5.41367 18.6287 5.97587 19.1909C5.97587 19.1909 7.422 20.4761 8.14506 19.9139C8.42447 19.7039 8.64969 19.5448 8.83426 19.4212L7.74035 19.1909C7.57948 19.1909 7.49989 19.03 7.49989 18.8708C7.49989 18.7116 7.65907 18.6287 7.81994 18.6287L9.68094 19.0283H9.68264L9.75037 19.0435L12.3192 19.5939L13.5249 19.753C13.5249 19.2721 13.2031 18.7895 12.7205 18.7099ZM14.7339 10.1127C14.7339 9.97559 13.9804 7.11889 13.7044 5.66768C13.1777 5.84887 12.8137 6.41445 12.8831 6.98003C13.1896 8.43124 13.5672 9.88414 14.1565 11.2659C14.2005 11.2354 14.2327 11.1999 14.253 11.1576C14.314 11.0356 14.5612 10.4921 14.7458 10.1348C14.7407 10.128 14.7373 10.1195 14.7339 10.1127ZM14.9134 11.2761C14.8762 11.3557 14.8423 11.4251 14.8152 11.4793C14.4935 11.8806 14.0109 12.0415 13.4487 11.9602C13.1286 11.9602 13.0473 12.1211 12.8865 12.6833V12.7646C12.6596 13.5232 12.79 14.3546 13.281 14.9862L13.4504 13.8094L13.53 13.7281C14.0921 13.4063 14.5748 13.005 15.0557 12.5241C15.291 12.2294 15.0963 11.6757 14.9134 11.2761ZM13.9313 14.1294L13.7704 15.2555C14.0126 15.1742 14.3326 15.0133 14.4935 14.7729C14.5544 14.7119 14.7051 14.6967 14.8101 14.7272L15.098 13.3098C14.7509 13.6417 14.3817 13.9059 13.9313 14.1294ZM15.7787 9.87229C15.6991 9.87229 15.5383 9.95188 15.457 10.1127C15.4231 10.1805 15.3317 10.3803 15.225 10.6106C15.269 10.6936 15.4045 10.9239 15.523 11.2185L15.6991 10.3549L15.7787 10.2736L16.0209 10.0332C15.9396 9.95188 15.86 9.87229 15.7787 9.87229ZM14.8948 4.08777C14.6526 4.16736 14.4918 4.24864 14.3309 4.40951C14.2513 4.57038 14.1717 4.81084 14.2513 5.05129C14.314 5.7388 14.9117 8.32795 15.2115 9.47774C15.3588 9.37783 15.5281 9.3101 15.6991 9.3101C16.0209 9.3101 16.3409 9.55055 16.5018 9.79101C16.5272 9.77916 16.5526 9.7673 16.578 9.75714L14.8948 4.08777ZM17.6262 10.5141L17.3061 10.4345C17.064 10.4345 16.8235 10.5141 16.6627 10.5954L16.3409 10.7562L15.3774 15.0946H16.0209C16.1005 15.0946 16.5018 14.9337 17.1453 12.3632C17.2249 12.2024 17.2249 12.1211 17.2249 12.1211C17.3061 11.9602 17.467 11.9602 17.6262 12.0415C17.7075 12.1211 17.7871 12.2819 17.7075 12.3632V12.5241C17.2249 14.6916 16.6627 15.6568 16.1005 15.6568C15.6991 15.7364 15.2165 15.7364 14.8152 15.5755L14.6543 15.4959L14.6696 15.4197C14.4765 15.6196 14.2615 15.7686 14.0397 15.8668C14.6391 16.4121 15.3893 16.7964 16.1801 17.0217C16.9844 17.2638 17.8683 17.0217 18.5101 16.3799L18.8319 16.1394C19.3941 15.7364 19.7158 14.4511 19.7158 12.6833C19.7158 11.1576 18.2697 10.7562 17.6262 10.5141ZM17.6262 10.5141L17.3061 10.4345C17.064 10.4345 16.8235 10.5141 16.6627 10.5954L16.3409 10.7562L15.3774 15.0946H16.0209C16.1005 15.0946 16.5018 14.9337 17.1453 12.3632C17.2249 12.2024 17.2249 12.1211 17.2249 12.1211C17.3061 11.9602 17.467 11.9602 17.6262 12.0415C17.7075 12.1211 17.7871 12.2819 17.7075 12.3632V12.5241C17.2249 14.6916 16.6627 15.6568 16.1005 15.6568C15.6991 15.7364 15.2165 15.7364 14.8152 15.5755L14.6543 15.4959L14.6696 15.4197C14.4765 15.6196 14.2615 15.7686 14.0397 15.8668C14.6391 16.4121 15.3893 16.7964 16.1801 17.0217C16.9844 17.2638 17.8683 17.0217 18.5101 16.3799L18.8319 16.1394C19.3941 15.7364 19.7158 14.4511 19.7158 12.6833C19.7158 11.1576 18.2697 10.7562 17.6262 10.5141ZM15.7787 9.87229C15.6991 9.87229 15.5383 9.95188 15.457 10.1127C15.4231 10.1805 15.3317 10.3803 15.225 10.6106C15.269 10.6936 15.4045 10.9239 15.523 11.2185L15.6991 10.3549L15.7787 10.2736L16.0209 10.0332C15.9396 9.95188 15.86 9.87229 15.7787 9.87229ZM13.9313 14.1294L13.7704 15.2555C14.0126 15.1742 14.3326 15.0133 14.4935 14.7729C14.5544 14.7119 14.7051 14.6967 14.8101 14.7272L15.098 13.3098C14.7509 13.6417 14.3817 13.9059 13.9313 14.1294ZM14.9134 11.2761C14.8762 11.3557 14.8423 11.4251 14.8152 11.4793C14.4935 11.8806 14.0109 12.0415 13.4487 11.9602C13.1286 11.9602 13.0473 12.1211 12.8865 12.6833V12.7646C12.6596 13.5232 12.79 14.3546 13.281 14.9862L13.4504 13.8094L13.53 13.7281C14.0921 13.4063 14.5748 13.005 15.0557 12.5241C15.291 12.2294 15.0963 11.6757 14.9134 11.2761ZM12.7205 18.7099C12.6748 18.6862 12.6359 18.6574 12.6037 18.6219L8.06378 17.7447C7.90291 17.7447 7.82333 17.5839 7.82333 17.423C7.82333 17.2621 7.9825 17.1825 8.14337 17.1825L12.6426 18.1461L13.767 18.3069C13.767 17.826 13.447 17.3434 12.9644 17.2621L9.10859 16.4595C8.94772 16.4595 8.86644 16.2986 8.86644 16.1377C8.86644 15.9769 9.02731 15.8973 9.18817 15.8973L11.4031 16.3494C10.7884 15.032 10.0332 13.7196 9.67078 13.6485C8.30593 13.5672 6.93939 13.8889 5.73541 14.612C5.09194 15.0946 4.04713 16.6999 4.60933 17.5043C4.93107 18.0665 5.41367 18.6287 5.97587 19.1909C5.97587 19.1909 7.422 20.4761 8.14506 19.9139C8.42447 19.7039 8.64969 19.5448 8.83426 19.4212L7.74035 19.1909C7.57948 19.1909 7.49989 19.03 7.49989 18.8708C7.49989 18.7116 7.65907 18.6287 7.81994 18.6287L9.68094 19.0283H9.68264L9.75037 19.0435L12.3192 19.5939L13.5249 19.753C13.5249 19.2721 13.2031 18.7895 12.7205 18.7099ZM12.7205 18.7099C12.6748 18.6862 12.6359 18.6574 12.6037 18.6219L8.06378 17.7447C7.90291 17.7447 7.82333 17.5839 7.82333 17.423C7.82333 17.2621 7.9825 17.1825 8.14337 17.1825L12.6426 18.1461L13.767 18.3069C13.767 17.826 13.447 17.3434 12.9644 17.2621L9.10859 16.4595C8.94772 16.4595 8.86644 16.2986 8.86644 16.1377C8.86644 15.9769 9.02731 15.8973 9.18817 15.8973L11.4031 16.3494C10.7884 15.032 10.0332 13.7196 9.67078 13.6485C8.30593 13.5672 6.93939 13.8889 5.73541 14.612C5.09194 15.0946 4.04713 16.6999 4.60933 17.5043C4.93107 18.0665 5.41367 18.6287 5.97587 19.1909C5.97587 19.1909 7.422 20.4761 8.14506 19.9139C8.42447 19.7039 8.64969 19.5448 8.83426 19.4212L7.74035 19.1909C7.57948 19.1909 7.49989 19.03 7.49989 18.8708C7.49989 18.7116 7.65907 18.6287 7.81994 18.6287L9.68094 19.0283H9.68264L9.75037 19.0435L12.3192 19.5939L13.5249 19.753C13.5249 19.2721 13.2031 18.7895 12.7205 18.7099ZM14.7339 10.1127C14.7339 9.97559 13.9804 7.11889 13.7044 5.66768C13.1777 5.84887 12.8137 6.41445 12.8831 6.98003C13.1896 8.43124 13.5672 9.88414 14.1565 11.2659C14.2005 11.2354 14.2327 11.1999 14.253 11.1576C14.314 11.0356 14.5612 10.4921 14.7458 10.1348C14.7407 10.128 14.7373 10.1195 14.7339 10.1127ZM14.9134 11.2761C14.8762 11.3557 14.8423 11.4251 14.8152 11.4793C14.4935 11.8806 14.0109 12.0415 13.4487 11.9602C13.1286 11.9602 13.0473 12.1211 12.8865 12.6833V12.7646C12.6596 13.5232 12.79 14.3546 13.281 14.9862L13.4504 13.8094L13.53 13.7281C14.0921 13.4063 14.5748 13.005 15.0557 12.5241C15.291 12.2294 15.0963 11.6757 14.9134 11.2761ZM13.9313 14.1294L13.7704 15.2555C14.0126 15.1742 14.3326 15.0133 14.4935 14.7729C14.5544 14.7119 14.7051 14.6967 14.8101 14.7272L15.098 13.3098C14.7509 13.6417 14.3817 13.9059 13.9313 14.1294ZM15.7787 9.87229C15.6991 9.87229 15.5383 9.95188 15.457 10.1127C15.4231 10.1805 15.3317 10.3803 15.225 10.6106C15.269 10.6936 15.4045 10.9239 15.523 11.2185L15.6991 10.3549L15.7787 10.2736L16.0209 10.0332C15.9396 9.95188 15.86 9.87229 15.7787 9.87229ZM14.8948 4.08777C14.6526 4.16736 14.4918 4.24864 14.3309 4.40951C14.2513 4.57038 14.1717 4.81084 14.2513 5.05129C14.314 5.7388 14.9117 8.32795 15.2115 9.47774C15.3588 9.37783 15.5281 9.3101 15.6991 9.3101C16.0209 9.3101 16.3409 9.55055 16.5018 9.79101C16.5272 9.77916 16.5526 9.7673 16.578 9.75714L14.8948 4.08777ZM17.6262 10.5141L17.3061 10.4345C17.064 10.4345 16.8235 10.5141 16.6627 10.5954L16.3409 10.7562L15.3774 15.0946H16.0209C16.1005 15.0946 16.5018 14.9337 17.1453 12.3632C17.2249 12.2024 17.2249 12.1211 17.2249 12.1211C17.3061 11.9602 17.467 11.9602 17.6262 12.0415C17.7075 12.1211 17.7871 12.2819 17.7075 12.3632V12.5241C17.2249 14.6916 16.6627 15.6568 16.1005 15.6568C15.6991 15.7364 15.2165 15.7364 14.8152 15.5755L14.6543 15.4959L14.6696 15.4197C14.4765 15.6196 14.2615 15.7686 14.0397 15.8668C14.6391 16.4121 15.3893 16.7964 16.1801 17.0217C16.9844 17.2638 17.8683 17.0217 18.5101 16.3799L18.8319 16.1394C19.3941 15.7364 19.7158 14.4511 19.7158 12.6833C19.7158 11.1576 18.2697 10.7562 17.6262 10.5141ZM17.6262 10.5141L17.3061 10.4345C17.064 10.4345 16.8235 10.5141 16.6627 10.5954L16.3409 10.7562L15.3774 15.0946H16.0209C16.1005 15.0946 16.5018 14.9337 17.1453 12.3632C17.2249 12.2024 17.2249 12.1211 17.2249 12.1211C17.3061 11.9602 17.467 11.9602 17.6262 12.0415C17.7075 12.1211 17.7871 12.2819 17.7075 12.3632V12.5241C17.2249 14.6916 16.6627 15.6568 16.1005 15.6568C15.6991 15.7364 15.2165 15.7364 14.8152 15.5755L14.6543 15.4959L14.6696 15.4197C14.4765 15.6196 14.2615 15.7686 14.0397 15.8668C14.6391 16.4121 15.3893 16.7964 16.1801 17.0217C16.9844 17.2638 17.8683 17.0217 18.5101 16.3799L18.8319 16.1394C19.3941 15.7364 19.7158 14.4511 19.7158 12.6833C19.7158 11.1576 18.2697 10.7562 17.6262 10.5141ZM15.7787 9.87229C15.6991 9.87229 15.5383 9.95188 15.457 10.1127C15.4231 10.1805 15.3317 10.3803 15.225 10.6106C15.269 10.6936 15.4045 10.9239 15.523 11.2185L15.6991 10.3549L15.7787 10.2736L16.0209 10.0332C15.9396 9.95188 15.86 9.87229 15.7787 9.87229ZM13.9313 14.1294L13.7704 15.2555C14.0126 15.1742 14.3326 15.0133 14.4935 14.7729C14.5544 14.7119 14.7051 14.6967 14.8101 14.7272L15.098 13.3098C14.7509 13.6417 14.3817 13.9059 13.9313 14.1294ZM14.9134 11.2761C14.8762 11.3557 14.8423 11.4251 14.8152 11.4793C14.4935 11.8806 14.0109 12.0415 13.4487 11.9602C13.1286 11.9602 13.0473 12.1211 12.8865 12.6833V12.7646C12.6596 13.5232 12.79 14.3546 13.281 14.9862L13.4504 13.8094L13.53 13.7281C14.0921 13.4063 14.5748 13.005 15.0557 12.5241C15.291 12.2294 15.0963 11.6757 14.9134 11.2761ZM12.7205 18.7099C12.6748 18.6862 12.6359 18.6574 12.6037 18.6219L8.06378 17.7447C7.90291 17.7447 7.82333 17.5839 7.82333 17.423C7.82333 17.2621 7.9825 17.1825 8.14337 17.1825L12.6426 18.1461L13.767 18.3069C13.767 17.826 13.447 17.3434 12.9644 17.2621L9.10859 16.4595C8.94772 16.4595 8.86644 16.2986 8.86644 16.1377C8.86644 15.9769 9.02731 15.8973 9.18817 15.8973L11.4031 16.3494C10.7884 15.032 10.0332 13.7196 9.67078 13.6485C8.30593 13.5672 6.93939 13.8889 5.73541 14.612C5.09194 15.0946 4.04713 16.6999 4.60933 17.5043C4.93107 18.0665 5.41367 18.6287 5.97587 19.1909C5.97587 19.1909 7.422 20.4761 8.14506 19.9139C8.42447 19.7039 8.64969 19.5448 8.83426 19.4212L7.74035 19.1909C7.57948 19.1909 7.49989 19.03 7.49989 18.8708C7.49989 18.7116 7.65907 18.6287 7.81994 18.6287L9.68094 19.0283H9.68264L9.75037 19.0435L12.3192 19.5939L13.5249 19.753C13.5249 19.2721 13.2031 18.7895 12.7205 18.7099ZM12.7205 18.7099C12.6748 18.6862 12.6359 18.6574 12.6037 18.6219L8.06378 17.7447C7.90291 17.7447 7.82333 17.5839 7.82333 17.423C7.82333 17.2621 7.9825 17.1825 8.14337 17.1825L12.6426 18.1461L13.767 18.3069C13.767 17.826 13.447 17.3434 12.9644 17.2621L9.10859 16.4595C8.94772 16.4595 8.86644 16.2986 8.86644 16.1377C8.86644 15.9769 9.02731 15.8973 9.18817 15.8973L11.4031 16.3494C10.7884 15.032 10.0332 13.7196 9.67078 13.6485C8.30593 13.5672 6.93939 13.8889 5.73541 14.612C5.09194 15.0946 4.04713 16.6999 4.60933 17.5043C4.93107 18.0665 5.41367 18.6287 5.97587 19.1909C5.97587 19.1909 7.422 20.4761 8.14506 19.9139C8.42447 19.7039 8.64969 19.5448 8.83426 19.4212L7.74035 19.1909C7.57948 19.1909 7.49989 19.03 7.49989 18.8708C7.49989 18.7116 7.65907 18.6287 7.81994 18.6287L9.68094 19.0283H9.68264L9.75037 19.0435L12.3192 19.5939L13.5249 19.753C13.5249 19.2721 13.2031 18.7895 12.7205 18.7099ZM14.7339 10.1127C14.7339 9.97559 13.9804 7.11889 13.7044 5.66768C13.1777 5.84887 12.8137 6.41445 12.8831 6.98003C13.1896 8.43124 13.5672 9.88414 14.1565 11.2659C14.2005 11.2354 14.2327 11.1999 14.253 11.1576C14.314 11.0356 14.5612 10.4921 14.7458 10.1348C14.7407 10.128 14.7373 10.1195 14.7339 10.1127ZM14.9134 11.2761C14.8762 11.3557 14.8423 11.4251 14.8152 11.4793C14.4935 11.8806 14.0109 12.0415 13.4487 11.9602C13.1286 11.9602 13.0473 12.1211 12.8865 12.6833V12.7646C12.6596 13.5232 12.79 14.3546 13.281 14.9862L13.4504 13.8094L13.53 13.7281C14.0921 13.4063 14.5748 13.005 15.0557 12.5241C15.291 12.2294 15.0963 11.6757 14.9134 11.2761ZM13.9313 14.1294L13.7704 15.2555C14.0126 15.1742 14.3326 15.0133 14.4935 14.7729C14.5544 14.7119 14.7051 14.6967 14.8101 14.7272L15.098 13.3098C14.7509 13.6417 14.3817 13.9059 13.9313 14.1294ZM15.7787 9.87229C15.6991 9.87229 15.5383 9.95188 15.457 10.1127C15.4231 10.1805 15.3317 10.3803 15.225 10.6106C15.269 10.6936 15.4045 10.9239 15.523 11.2185L15.6991 10.3549L15.7787 10.2736L16.0209 10.0332C15.9396 9.95188 15.86 9.87229 15.7787 9.87229ZM14.8948 4.08777C14.6526 4.16736 14.4918 4.24864 14.3309 4.40951C14.2513 4.57038 14.1717 4.81084 14.2513 5.05129C14.314 5.7388 14.9117 8.32795 15.2115 9.47774C15.3588 9.37783 15.5281 9.3101 15.6991 9.3101C16.0209 9.3101 16.3409 9.55055 16.5018 9.79101C16.5272 9.77916 16.5526 9.7673 16.578 9.75714L14.8948 4.08777ZM17.6262 10.5141L17.3061 10.4345C17.064 10.4345 16.8235 10.5141 16.6627 10.5954L16.3409 10.7562L15.3774 15.0946H16.0209C16.1005 15.0946 16.5018 14.9337 17.1453 12.3632C17.2249 12.2024 17.2249 12.1211 17.2249 12.1211C17.3061 11.9602 17.467 11.9602 17.6262 12.0415C17.7075 12.1211 17.7871 12.2819 17.7075 12.3632V12.5241C17.2249 14.6916 16.6627 15.6568 16.1005 15.6568C15.6991 15.7364 15.2165 15.7364 14.8152 15.5755L14.6543 15.4959L14.6696 15.4197C14.4765 15.6196 14.2615 15.7686 14.0397 15.8668C14.6391 16.4121 15.3893 16.7964 16.1801 17.0217C16.9844 17.2638 17.8683 17.0217 18.5101 16.3799L18.8319 16.1394C19.3941 15.7364 19.7158 14.4511 19.7158 12.6833C19.7158 11.1576 18.2697 10.7562 17.6262 10.5141ZM17.6262 10.5141L17.3061 10.4345C17.064 10.4345 16.8235 10.5141 16.6627 10.5954L16.3409 10.7562L15.3774 15.0946H16.0209C16.1005 15.0946 16.5018 14.9337 17.1453 12.3632C17.2249 12.2024 17.2249 12.1211 17.2249 12.1211C17.3061 11.9602 17.467 11.9602 17.6262 12.0415C17.7075 12.1211 17.7871 12.2819 17.7075 12.3632V12.5241C17.2249 14.6916 16.6627 15.6568 16.1005 15.6568C15.6991 15.7364 15.2165 15.7364 14.8152 15.5755L14.6543 15.4959L14.6696 15.4197C14.4765 15.6196 14.2615 15.7686 14.0397 15.8668C14.6391 16.4121 15.3893 16.7964 16.1801 17.0217C16.9844 17.2638 17.8683 17.0217 18.5101 16.3799L18.8319 16.1394C19.3941 15.7364 19.7158 14.4511 19.7158 12.6833C19.7158 11.1576 18.2697 10.7562 17.6262 10.5141ZM15.7787 9.87229C15.6991 9.87229 15.5383 9.95188 15.457 10.1127C15.4231 10.1805 15.3317 10.3803 15.225 10.6106C15.269 10.6936 15.4045 10.9239 15.523 11.2185L15.6991 10.3549L15.7787 10.2736L16.0209 10.0332C15.9396 9.95188 15.86 9.87229 15.7787 9.87229ZM13.9313 14.1294L13.7704 15.2555C14.0126 15.1742 14.3326 15.0133 14.4935 14.7729C14.5544 14.7119 14.7051 14.6967 14.8101 14.7272L15.098 13.3098C14.7509 13.6417 14.3817 13.9059 13.9313 14.1294ZM14.9134 11.2761C14.8762 11.3557 14.8423 11.4251 14.8152 11.4793C14.4935 11.8806 14.0109 12.0415 13.4487 11.9602C13.1286 11.9602 13.0473 12.1211 12.8865 12.6833V12.7646C12.6596 13.5232 12.79 14.3546 13.281 14.9862L13.4504 13.8094L13.53 13.7281C14.0921 13.4063 14.5748 13.005 15.0557 12.5241C15.291 12.2294 15.0963 11.6757 14.9134 11.2761ZM12.7205 18.7099C12.6748 18.6862 12.6359 18.6574 12.6037 18.6219L8.06378 17.7447C7.90291 17.7447 7.82333 17.5839 7.82333 17.423C7.82333 17.2621 7.9825 17.1825 8.14337 17.1825L12.6426 18.1461L13.767 18.3069C13.767 17.826 13.447 17.3434 12.9644 17.2621L9.10859 16.4595C8.94772 16.4595 8.86644 16.2986 8.86644 16.1377C8.86644 15.9769 9.02731 15.8973 9.18817 15.8973L11.4031 16.3494C10.7884 15.032 10.0332 13.7196 9.67078 13.6485C8.30593 13.5672 6.93939 13.8889 5.73541 14.612C5.09194 15.0946 4.04713 16.6999 4.60933 17.5043C4.93107 18.0665 5.41367 18.6287 5.97587 19.1909C5.97587 19.1909 7.422 20.4761 8.14506 19.9139C8.42447 19.7039 8.64969 19.5448 8.83426 19.4212L7.74035 19.1909C7.57948 19.1909 7.49989 19.03 7.49989 18.8708C7.49989 18.7116 7.65907 18.6287 7.81994 18.6287L9.68094 19.0283H9.68264L9.75037 19.0435L12.3192 19.5939L13.5249 19.753C13.5249 19.2721 13.2031 18.7895 12.7205 18.7099ZM12.7205 18.7099C12.6748 18.6862 12.6359 18.6574 12.6037 18.6219L8.06378 17.7447C7.90291 17.7447 7.82333 17.5839 7.82333 17.423C7.82333 17.2621 7.9825 17.1825 8.14337 17.1825L12.6426 18.1461L13.767 18.3069C13.767 17.826 13.447 17.3434 12.9644 17.2621L9.10859 16.4595C8.94772 16.4595 8.86644 16.2986 8.86644 16.1377C8.86644 15.9769 9.02731 15.8973 9.18817 15.8973L11.4031 16.3494C10.7884 15.032 10.0332 13.7196 9.67078 13.6485C8.30593 13.5672 6.93939 13.8889 5.73541 14.612C5.09194 15.0946 4.04713 16.6999 4.60933 17.5043C4.93107 18.0665 5.41367 18.6287 5.97587 19.1909C5.97587 19.1909 7.422 20.4761 8.14506 19.9139C8.42447 19.7039 8.64969 19.5448 8.83426 19.4212L7.74035 19.1909C7.57948 19.1909 7.49989 19.03 7.49989 18.8708C7.49989 18.7116 7.65907 18.6287 7.81994 18.6287L9.68094 19.0283H9.68264L9.75037 19.0435L12.3192 19.5939L13.5249 19.753C13.5249 19.2721 13.2031 18.7895 12.7205 18.7099ZM14.7339 10.1127C14.7339 9.97559 13.9804 7.11889 13.7044 5.66768C13.1777 5.84887 12.8137 6.41445 12.8831 6.98003C13.1896 8.43124 13.5672 9.88414 14.1565 11.2659C14.2005 11.2354 14.2327 11.1999 14.253 11.1576C14.314 11.0356 14.5612 10.4921 14.7458 10.1348C14.7407 10.128 14.7373 10.1195 14.7339 10.1127ZM14.9134 11.2761C14.8762 11.3557 14.8423 11.4251 14.8152 11.4793C14.4935 11.8806 14.0109 12.0415 13.4487 11.9602C13.1286 11.9602 13.0473 12.1211 12.8865 12.6833V12.7646C12.6596 13.5232 12.79 14.3546 13.281 14.9862L13.4504 13.8094L13.53 13.7281C14.0921 13.4063 14.5748 13.005 15.0557 12.5241C15.291 12.2294 15.0963 11.6757 14.9134 11.2761ZM13.9313 14.1294L13.7704 15.2555C14.0126 15.1742 14.3326 15.0133 14.4935 14.7729C14.5544 14.7119 14.7051 14.6967 14.8101 14.7272L15.098 13.3098C14.7509 13.6417 14.3817 13.9059 13.9313 14.1294ZM15.7787 9.87229C15.6991 9.87229 15.5383 9.95188 15.457 10.1127C15.4231 10.1805 15.3317 10.3803 15.225 10.6106C15.269 10.6936 15.4045 10.9239 15.523 11.2185L15.6991 10.3549L15.7787 10.2736L16.0209 10.0332C15.9396 9.95188 15.86 9.87229 15.7787 9.87229ZM14.8948 4.08777C14.6526 4.16736 14.4918 4.24864 14.3309 4.40951C14.2513 4.57038 14.1717 4.81084 14.2513 5.05129C14.314 5.7388 14.9117 8.32795 15.2115 9.47774C15.3588 9.37783 15.5281 9.3101 15.6991 9.3101C16.0209 9.3101 16.3409 9.55055 16.5018 9.79101C16.5272 9.77916 16.5526 9.7673 16.578 9.75714L14.8948 4.08777ZM17.6262 10.5141L17.3061 10.4345C17.064 10.4345 16.8235 10.5141 16.6627 10.5954L16.3409 10.7562L15.3774 15.0946H16.0209C16.1005 15.0946 16.5018 14.9337 17.1453 12.3632C17.2249 12.2024 17.2249 12.1211 17.2249 12.1211C17.3061 11.9602 17.467 11.9602 17.6262 12.0415C17.7075 12.1211 17.7871 12.2819 17.7075 12.3632V12.5241C17.2249 14.6916 16.6627 15.6568 16.1005 15.6568C15.6991 15.7364 15.2165 15.7364 14.8152 15.5755L14.6543 15.4959L14.6696 15.4197C14.4765 15.6196 14.2615 15.7686 14.0397 15.8668C14.6391 16.4121 15.3893 16.7964 16.1801 17.0217C16.9844 17.2638 17.8683 17.0217 18.5101 16.3799L18.8319 16.1394C19.3941 15.7364 19.7158 14.4511 19.7158 12.6833C19.7158 11.1576 18.2697 10.7562 17.6262 10.5141ZM14.9134 11.2761C14.8762 11.3557 14.8423 11.4251 14.8152 11.4793C14.4935 11.8806 14.0109 12.0415 13.4487 11.9602C13.1286 11.9602 13.0473 12.1211 12.8865 12.6833V12.7646C12.6596 13.5232 12.79 14.3546 13.281 14.9862L13.4504 13.8094L13.53 13.7281C14.0921 13.4063 14.5748 13.005 15.0557 12.5241C15.291 12.2294 15.0963 11.6757 14.9134 11.2761ZM13.9313 14.1294L13.7704 15.2555C14.0126 15.1742 14.3326 15.0133 14.4935 14.7729C14.5544 14.7119 14.7051 14.6967 14.8101 14.7272L15.098 13.3098C14.7509 13.6417 14.3817 13.9059 13.9313 14.1294ZM15.7787 9.87229C15.6991 9.87229 15.5383 9.95188 15.457 10.1127C15.4231 10.1805 15.3317 10.3803 15.225 10.6106C15.269 10.6936 15.4045 10.9239 15.523 11.2185L15.6991 10.3549L15.7787 10.2736L16.0209 10.0332C15.9396 9.95188 15.86 9.87229 15.7787 9.87229ZM17.6262 10.5141L17.3061 10.4345C17.064 10.4345 16.8235 10.5141 16.6627 10.5954L16.3409 10.7562L15.3774 15.0946H16.0209C16.1005 15.0946 16.5018 14.9337 17.1453 12.3632C17.2249 12.2024 17.2249 12.1211 17.2249 12.1211C17.3061 11.9602 17.467 11.9602 17.6262 12.0415C17.7075 12.1211 17.7871 12.2819 17.7075 12.3632V12.5241C17.2249 14.6916 16.6627 15.6568 16.1005 15.6568C15.6991 15.7364 15.2165 15.7364 14.8152 15.5755L14.6543 15.4959L14.6696 15.4197C14.4765 15.6196 14.2615 15.7686 14.0397 15.8668C14.6391 16.4121 15.3893 16.7964 16.1801 17.0217C16.9844 17.2638 17.8683 17.0217 18.5101 16.3799L18.8319 16.1394C19.3941 15.7364 19.7158 14.4511 19.7158 12.6833C19.7158 11.1576 18.2697 10.7562 17.6262 10.5141ZM12.7205 18.7099C12.6748 18.6862 12.6359 18.6574 12.6037 18.6219L8.06378 17.7447C7.90291 17.7447 7.82333 17.5839 7.82333 17.423C7.82333 17.2621 7.9825 17.1825 8.14337 17.1825L12.6426 18.1461L13.767 18.3069C13.767 17.826 13.447 17.3434 12.9644 17.2621L9.10859 16.4595C8.94772 16.4595 8.86644 16.2986 8.86644 16.1377C8.86644 15.9769 9.02731 15.8973 9.18817 15.8973L11.4031 16.3494C10.7884 15.032 10.0332 13.7196 9.67078 13.6485C8.30593 13.5672 6.93939 13.8889 5.73541 14.612C5.09194 15.0946 4.04713 16.6999 4.60933 17.5043C4.93107 18.0665 5.41367 18.6287 5.97587 19.1909C5.97587 19.1909 7.422 20.4761 8.14506 19.9139C8.42447 19.7039 8.64969 19.5448 8.83426 19.4212L7.74035 19.1909C7.57948 19.1909 7.49989 19.03 7.49989 18.8708C7.49989 18.7116 7.65907 18.6287 7.81994 18.6287L9.68094 19.0283H9.68264L9.75037 19.0435L12.3192 19.5939L13.5249 19.753C13.5249 19.2721 13.2031 18.7895 12.7205 18.7099ZM12.7205 18.7099C12.6748 18.6862 12.6359 18.6574 12.6037 18.6219L8.06378 17.7447C7.90291 17.7447 7.82333 17.5839 7.82333 17.423C7.82333 17.2621 7.9825 17.1825 8.14337 17.1825L12.6426 18.1461L13.767 18.3069C13.767 17.826 13.447 17.3434 12.9644 17.2621L9.10859 16.4595C8.94772 16.4595 8.86644 16.2986 8.86644 16.1377C8.86644 15.9769 9.02731 15.8973 9.18817 15.8973L11.4031 16.3494C10.7884 15.032 10.0332 13.7196 9.67078 13.6485C8.30593 13.5672 6.93939 13.8889 5.73541 14.612C5.09194 15.0946 4.04713 16.6999 4.60933 17.5043C4.93107 18.0665 5.41367 18.6287 5.97587 19.1909C5.97587 19.1909 7.422 20.4761 8.14506 19.9139C8.42447 19.7039 8.64969 19.5448 8.83426 19.4212L7.74035 19.1909C7.57948 19.1909 7.49989 19.03 7.49989 18.8708C7.49989 18.7116 7.65907 18.6287 7.81994 18.6287L9.68094 19.0283H9.68264L9.75037 19.0435L12.3192 19.5939L13.5249 19.753C13.5249 19.2721 13.2031 18.7895 12.7205 18.7099ZM12.7205 18.7099C12.6748 18.6862 12.6359 18.6574 12.6037 18.6219L8.06378 17.7447C7.90291 17.7447 7.82333 17.5839 7.82333 17.423C7.82333 17.2621 7.9825 17.1825 8.14337 17.1825L12.6426 18.1461L13.767 18.3069C13.767 17.826 13.447 17.3434 12.9644 17.2621L9.10859 16.4595C8.94772 16.4595 8.86644 16.2986 8.86644 16.1377C8.86644 15.9769 9.02731 15.8973 9.18817 15.8973L11.4031 16.3494C10.7884 15.032 10.0332 13.7196 9.67078 13.6485C8.30593 13.5672 6.93939 13.8889 5.73541 14.612C5.09194 15.0946 4.04713 16.6999 4.60933 17.5043C4.93107 18.0665 5.41367 18.6287 5.97587 19.1909C5.97587 19.1909 7.422 20.4761 8.14506 19.9139C8.42447 19.7039 8.64969 19.5448 8.83426 19.4212L7.74035 19.1909C7.57948 19.1909 7.49989 19.03 7.49989 18.8708C7.49989 18.7116 7.65907 18.6287 7.81994 18.6287L9.68094 19.0283H9.68264L9.75037 19.0435L12.3192 19.5939L13.5249 19.753C13.5249 19.2721 13.2031 18.7895 12.7205 18.7099Z"
        fill="black" />
      <path d="M9.75204 19.03V19.0436L9.68262 19.0283C9.70802 19.0283 9.73003 19.03 9.75204 19.03Z" fill="white" />
    </g>
  </g>
  <defs>
    <clipPath id="clip0_8324_4296">
      <rect width="24" height="24" fill="white" />
    </clipPath>
    <clipPath id="clip1_8324_4296">
      <rect width="24" height="24" fill="white" />
    </clipPath>
  </defs>
</svg>
