<svg xmlns="http://www.w3.org/2000/svg" viewBox="0 0 24 24"><path class="icon__shape" fill="currentColor" fill-rule="nonzero" d="M9.17 13.85a1.24 1.24 0 0 1-1.09-.52 2.38 2.38 0 0 1-.37-1.4c0-1.287.487-1.93 1.46-1.93.223.008.44.073.63.19.255.164.453.4.57.68l1.46-.76a3 3 0 0 0-2.9-1.55 3.07 3.07 0 0 0-2.28.91 3.35 3.35 0 0 0-.9 2.46 3.36 3.36 0 0 0 .89 2.48 3.17 3.17 0 0 0 2.35.89 3.2 3.2 0 0 0 2.85-1.71l-1.34-.68a1.36 1.36 0 0 1-1.33.94z"/><path class="icon__shape" fill="currentColor" fill-rule="nonzero" d="M22 7.75a10.45 10.45 0 0 0-2.33-3.5 10.6 10.6 0 0 0-7.76-3.18A10.27 10.27 0 0 0 4.3 4.23a10.91 10.91 0 0 0-2.4 3.56 10.85 10.85 0 0 0 0 8.28 10.83 10.83 0 0 0 2.38 3.52A10.93 10.93 0 0 0 7.8 22a10.57 10.57 0 0 0 4.12.82 10.82 10.82 0 0 0 4.17-.82 11.17 11.17 0 0 0 3.61-2.41 10 10 0 0 0 2.3-3.48c.53-1.33.8-2.749.79-4.18A11.06 11.06 0 0 0 22 7.75zm-3.69 10.41a9.37 9.37 0 0 1-3 2 8.82 8.82 0 0 1-6.76 0 9.2 9.2 0 0 1-4.83-4.86 8.62 8.62 0 0 1 0-6.75 9.35 9.35 0 0 1 2-2.92A8.42 8.42 0 0 1 12 3a8.6 8.6 0 0 1 6.31 2.62 8.69 8.69 0 0 1 1.92 2.87 8.93 8.93 0 0 1 .66 3.42 8.35 8.35 0 0 1-2.58 6.25z"/><path class="icon__shape" fill="currentColor" fill-rule="nonzero" d="M15.43 13.85a1.24 1.24 0 0 1-1.09-.52 2.38 2.38 0 0 1-.37-1.4c.02-1.287.507-1.93 1.46-1.93.23.006.454.071.65.19.255.164.453.4.57.68l1.44-.76a3 3 0 0 0-2.87-1.57 3.07 3.07 0 0 0-2.28.91 3.35 3.35 0 0 0-.9 2.46 3.38 3.38 0 0 0 .88 2.48 3.17 3.17 0 0 0 2.36.89 3.14 3.14 0 0 0 1.65-.46 3.34 3.34 0 0 0 1.2-1.25l-1.36-.68a1.36 1.36 0 0 1-1.34.96z"/></svg>
