<svg xmlns="http://www.w3.org/2000/svg" viewBox="0 0 24 24"><path class="icon__shape" fill="currentColor" fill-rule="nonzero" d="M12 8a1.34 1.34 0 0 0 1.51-1.51A1.35 1.35 0 0 0 12 5a1.35 1.35 0 0 0-1.51 1.53A1.34 1.34 0 0 0 12 8z"/><path class="icon__shape" fill="currentColor" fill-rule="nonzero" d="M19.74 4.29A10.5 10.5 0 0 0 12 1.14a10.41 10.41 0 0 0-7.63 3.15A10.65 10.65 0 0 0 1.17 12a10.46 10.46 0 0 0 3.2 7.67A10.52 10.52 0 0 0 12 22.88a10.74 10.74 0 0 0 7.78-3.24A10.25 10.25 0 0 0 22.9 12a10.51 10.51 0 0 0-3.16-7.71zm-1.36 14a8.72 8.72 0 0 1-6.33 2.66 8.58 8.58 0 0 1-6.29-2.64A8.54 8.54 0 0 1 3.13 12a8.74 8.74 0 0 1 2.66-6.3 8.46 8.46 0 0 1 6.27-2.6 8.57 8.57 0 0 1 6.29 2.6 8.59 8.59 0 0 1 2.59 6.3 8.28 8.28 0 0 1-2.56 6.24v.05z"/><path class="icon__shape" fill="currentColor" fill-rule="nonzero" d="M14.27 8.62H9.8a.7.7 0 0 0-.7.7v4.44h1.24V19h3.38v-5.24H15V9.31a.66.66 0 0 0-.21-.49.68.68 0 0 0-.52-.2z"/></svg>
