<svg xmlns="http://www.w3.org/2000/svg" width="24" height="24" viewBox="0 0 24 24">
  <g fill="none" fill-rule="evenodd" transform="translate(-216 -66)">
    <rect width="504" height="450" fill="#FFF"/>
    <g transform="translate(216 66)">
      <rect width="24" height="24"/>
      <path fill="#000" fill-rule="nonzero" d="M12,8 C12.4153746,8.0570984 12.8335305,7.91648291 13.1300067,7.62000671 C13.4264829,7.32353052 13.5670984,6.90537458 13.51,6.49 C13.5561434,6.07879893 13.4111617,5.66914732 13.1166296,5.37851631 C12.8220975,5.08788531 12.4105493,4.94837825 12,5 C11.5816018,4.94574356 11.1618969,5.09021142 10.8655367,5.39049696 C10.5691764,5.6907825 10.4302433,6.11235191 10.49,6.53 C10.4464826,6.93889438 10.5931133,7.34513035 10.8877545,7.63196646 C11.1823957,7.91880258 11.592421,8.05447681 12,8 L12,8 Z"/>
      <path fill="#000" fill-rule="nonzero" d="M19.74,4.29 C17.706937,2.21435732 14.9046979,1.0739112 12,1.14 C9.13125068,1.09367422 6.37057078,2.23340445 4.37,4.29 C2.29859977,6.31746542 1.14304794,9.10162312 1.17,12 C1.13163328,14.8888839 2.28984917,17.6649826 4.37,19.67 C6.36781447,21.7377054 9.12487256,22.8976211 12,22.88 C14.9264553,22.9051015 17.7364184,21.7348855 19.78,19.64 C21.8445363,17.6429827 22.9764145,14.8713322 22.9,12 C22.9539325,9.10438788 21.8106195,6.31484891 19.74,4.29 Z M18.38,18.29 C16.722563,20.0050261 14.4349834,20.9663154 12.05,20.95 C9.67858118,20.9771192 7.40170378,20.0214822 5.76,18.31 C4.04300734,16.6645958 3.08986276,14.3777737 3.13,12 C3.12420204,9.62588188 4.08447201,7.35155828 5.79,5.7 C7.42546125,3.99613736 9.69870423,3.05348477 12.06,3.1 C14.4256777,3.06124188 16.7021271,4.00222256 18.35,5.7 C20.0446397,7.35334048 20.9817544,9.6328086 20.94,12 C21.0108869,14.3490482 20.0802162,16.6175582 18.38,18.24 L18.38,18.29 Z"/>
      <path fill="#000" fill-rule="nonzero" d="M14.27,8.62 L9.8,8.62 C9.41340068,8.62 9.1,8.93340068 9.1,9.32 L9.1,13.76 L10.34,13.76 L10.34,19 L13.72,19 L13.72,13.76 L15,13.76 L15,9.31 C15.0020134,9.12440436 14.9257854,8.94653901 14.79,8.82 C14.6531857,8.68212665 14.4639423,8.60934073 14.27,8.62 Z"/>
    </g>
  </g>
</svg>
