<svg xmlns="http://www.w3.org/2000/svg" width="24" height="24" viewBox="0 0 24 24">
  <g fill="none" fill-rule="evenodd" transform="translate(-360 -66)">
    <rect width="504" height="450" fill="#FFF"/>
    <g transform="translate(360 66)">
      <rect width="24" height="24"/>
      <path fill="#000" fill-rule="nonzero" d="M22,7.9 C21.5,6.6 20.7,5.4 19.7,4.4 C17.7,2.3 14.9,1.2 12,1.3 C9.1,1.2 6.4,2.4 4.4,4.4 C3.4,5.4 2.5,6.6 2,7.9 C0.899957374,10.522654 0.899957374,13.477346 2,16.1 C2.5,17.4 3.3,18.6 4.3,19.6 C5.3,20.6 6.5,21.4 7.8,22 C10.4,23.1 13.4,23.1 16,22 C17.3,21.4 18.6,20.6 19.6,19.6 C20.6,18.6 21.4,17.4 21.9,16.1 C22.4,14.8 22.7,13.4 22.7,11.9 C22.8,10.6 22.5,9.2 22,7.9 Z M12,3.2 C14.4,3.2 16.6,4.1 18.2,5.8 C19,6.6 19.7,7.6 20.1,8.6 C20.5,9.7 20.8,10.8 20.8,12 C20.8,13.2 20.6,14.4 20.1,15.5 L9.5,9.4 C10.2,8.4 11.4,7.8 12.7,7.9 C13.5,7.9 14.2,8.1 14.9,8.4 L15.4,6.2 C14.5,5.8 13.4,5.6 12.4,5.7 C10.4,5.6 8.4,6.5 7.1,8.1 L4.9,6.8 C5.2,6.4 5.5,6.1 5.8,5.8 C7.4,4.1 9.7,3.1 12,3.2 Z M15.3,20.2 C14.2,20.6 13.1,20.9 12,20.9 C10.9,20.9 9.7,20.7 8.6,20.2 C7.5,19.7 6.6,19.1 5.7,18.3 C4.9,17.5 4.2,16.5 3.7,15.4 C2.8,13.3 2.8,10.8 3.7,8.7 L3.8,8.5 L6.3,9.9 C6.1,10.6 6,11.3 6,12 C6,15.4 8.1,18 12.3,18 C13.4,18 14.4,17.9 15.4,17.5 L15,15.4 C14.3,15.7 13.5,15.8 12.7,15.8 C10.7,16 9,14.5 8.9,12.5 L8.9,11.4 L19.1,17.2 C18.8,17.6 18.6,17.9 18.2,18.2 C17.4,19 16.4,19.7 15.3,20.2 Z"/>
    </g>
  </g>
</svg>
