<svg xmlns="http://www.w3.org/2000/svg" width="24" height="24" viewBox="0 0 24 24">
  <g fill="none" fill-rule="evenodd" transform="translate(-408 -66)">
    <rect width="504" height="450" fill="#FFF"/>
    <g transform="translate(408 66)">
      <rect width="24" height="24"/>
      <path fill="#000" fill-rule="nonzero" d="M12,5.9 C8.4,5.9 7.6,9.3 7.6,12.1 C7.6,14.9 8.5,18.3 12,18.3 C15.5,18.3 16.5,14.9 16.5,12.1 C16.5,9.3 15.6,5.9 12,5.9 Z M10.1,12.1 C10.1,10.9 10.2,8.2 12,8.2 C12.1,8.2 12.3,8.2 12.4,8.3 C12.7,8.5 12.8,8.9 12.6,9.2 L12.6,9.3 L10.2,13.7 C10.1,13.1 10.1,12.6 10.1,12.1 Z M12,15.9 L11.4,15.9 C11,15.7 10.7,15.4 11.1,14.9 L13.7,10.3 C13.8,10.9 13.8,11.5 13.8,12.2 C13.9,13.3 13.8,15.9 12,15.9 L12,15.9 Z"/>
      <path fill="#000" fill-rule="nonzero" d="M22,7.9 C21.5,6.6 20.7,5.4 19.7,4.4 C17.7,2.3 14.9,1.2 12,1.2 C9.1,1.1 6.4,2.3 4.4,4.3 C3.4,5.4 2.6,6.7 2,8 C0.899957374,10.622654 0.899957374,13.577346 2,16.2 C2.5,17.5 3.3,18.7 4.3,19.7 C5.3,20.7 6.5,21.5 7.8,22 C10.4,23.1 13.4,23.1 16,22 C17.3,21.4 18.6,20.6 19.6,19.6 C20.6,18.6 21.4,17.5 21.9,16.2 C22.4,14.9 22.7,13.5 22.7,12 C22.8,10.6 22.5,9.2 22,7.9 Z M18.3,18.2 C17.5,19 16.5,19.7 15.4,20.2 C14.3,20.6 13.2,20.9 12.1,20.9 C11,20.9 9.8,20.7 8.7,20.2 C7.6,19.7 6.7,19.1 5.8,18.3 C5,17.5 4.3,16.5 3.8,15.4 C2.9,13.3 2.9,10.8 3.8,8.7 C4.3,7.6 5,6.6 5.8,5.8 C7.4,4.1 9.7,3.2 12,3.2 C14.4,3.2 16.6,4.1 18.2,5.8 C19,6.6 19.7,7.6 20.1,8.7 C20.5,9.8 20.8,10.9 20.8,12.1 C20.9,14.4 20,16.6 18.3,18.2 L18.3,18.2 Z"/>
    </g>
  </g>
</svg>
