<svg xmlns="http://www.w3.org/2000/svg" width="24" height="24" viewBox="0 0 24 24">
  <g fill="none" fill-rule="evenodd" transform="translate(-24 -108)">
    <rect width="504" height="450" fill="#FFF"/>
    <g transform="translate(24 108)">
      <rect width="24" height="24"/>
      <g fill="#000" fill-rule="nonzero" transform="translate(2 2)">
        <path d="M13.9,4.38 L3.9,4.38 C2.18,4.38 0.9,6.23 0.9,7.88 L0.9,13.38 C0.9,15.0368542 2.24314575,16.38 3.9,16.38 L5.4,16.38 L5.4,19.38 C5.39960329,19.7898038 5.64927896,20.1583727 6.03,20.31 C6.41114958,20.4636174 6.84747649,20.3684188 7.13,20.07 L10.68,16.35 L13.9,16.35 C15.5568542,16.35 16.9,15.0068542 16.9,13.35 L16.9,7.85 C16.9,6.26 15.59,4.38 13.9,4.38 Z M14.9,13.38 C14.9,13.9322847 14.4522847,14.38 13.9,14.38 L10.25,14.38 C9.97582719,14.3756851 9.71191078,14.4841439 9.52,14.68 L7.4,16.91 L7.4,15.41 C7.4,14.8577153 6.95228475,14.41 6.4,14.41 C6.33350084,14.4033166 6.26649916,14.4033166 6.2,14.41 L3.9,14.41 C3.34771525,14.41 2.9,13.9622847 2.9,13.41 L2.9,7.91 C2.9,7.25 3.46,6.41 3.9,6.41 L13.9,6.41 C14.3,6.41 14.9,7.2 14.9,7.91 L14.9,13.38 Z"/>
        <path d="M17.9,0.38 L7.9,0.38 C6.91106816,0.425344332 6.01532297,0.977153607 5.53,1.84 C5.26653758,2.3018613 5.4105835,2.88913478 5.85785661,3.17666749 C6.30512973,3.46420021 6.89920264,3.35143169 7.21,2.92 C7.34470454,2.6434562 7.59918793,2.44429529 7.9,2.38 L17.9,2.38 C18.3,2.38 18.9,3.17 18.9,3.88 L18.9,9.38 C18.901424,9.73868476 18.7106342,10.070659 18.4,10.25 C18.0745216,10.4202629 17.8685875,10.7552613 17.8636161,11.1225499 C17.8586447,11.4898385 18.0554363,11.830288 18.3761872,12.0092979 C18.696938,12.1883077 19.0900109,12.1770594 19.4,11.98 C20.3287987,11.4437581 20.9006876,10.452484 20.9,9.38 L20.9,3.88 C20.9,2.26 19.59,0.38 17.9,0.38 L17.9,0.38 Z"/>
      </g>
    </g>
  </g>
</svg>
