<svg xmlns="http://www.w3.org/2000/svg" width="24" height="24" viewBox="0 0 24 24">
  <g fill="none" fill-rule="evenodd" transform="translate(-120 -108)">
    <rect width="504" height="450" fill="#FFF"/>
    <g transform="translate(120 108)">
      <rect width="24" height="24"/>
      <path fill="#000" fill-rule="nonzero" d="M12.8,0.45 C12.4099625,0.0622764053 11.7800375,0.0622764053 11.39,0.45 L7,4.87 L2.56,0.45 C2.31561012,0.16462384 1.9318816,0.0403180557 1.56658103,0.128189865 C1.20128045,0.216061674 0.916061674,0.50128045 0.828189865,0.866581028 C0.740318056,1.2318816 0.86462384,1.61561012 1.15,1.86 L6.27,7 C6.66003745,7.38772359 7.28996255,7.38772359 7.68,7 L12.8,1.88 C12.9924127,1.69185952 13.1008755,1.43410871 13.1008755,1.165 C13.1008755,0.89589129 12.9924127,0.638140479 12.8,0.45 Z" transform="translate(5 9)"/>
    </g>
  </g>
</svg>
