<svg xmlns="http://www.w3.org/2000/svg" width="24" height="24" viewBox="0 0 24 24">
  <g fill="none" fill-rule="evenodd" transform="translate(-168 -108)">
    <rect width="504" height="450" fill="#FFF"/>
    <g transform="translate(168 108)">
      <rect width="24" height="24"/>
      <g fill="#000" fill-rule="nonzero" transform="translate(2 2)">
        <path d="M16,0.14 L4,0.14 C1.790861,0.14 4.4408921e-16,1.930861 0,4.14 L0,16.14 C4.4408921e-16,18.349139 1.790861,20.14 4,20.14 L16,20.14 C18.209139,20.14 20,18.349139 20,16.14 L20,4.14 C20,1.930861 18.209139,0.14 16,0.14 Z M18,16.14 C18,17.2445695 17.1045695,18.14 16,18.14 L4,18.14 C2.8954305,18.14 2,17.2445695 2,16.14 L2,4.14 C2,3.0354305 2.8954305,2.14 4,2.14 L16,2.14 C17.1045695,2.14 18,3.0354305 18,4.14 L18,16.14 Z"/>
        <path d="M11,11.14 L11,14.14 L13,14.14 L13,11.14 L16,11.14 L16,6.14 L11,6.14 L11,11.14 Z M4,11.14 L4,14.14 L6,14.14 L6,11.14 L9,11.14 L9,6.14 L4,6.14 L4,11.14 Z"/>
      </g>
    </g>
  </g>
</svg>
