<svg xmlns="http://www.w3.org/2000/svg" width="24" height="24" viewBox="0 0 24 24">
  <g fill="none" fill-rule="evenodd" transform="translate(-216 -108)">
    <rect width="504" height="450" fill="#FFF"/>
    <g transform="translate(216 108)">
      <rect width="24" height="24"/>
      <g fill="#000" fill-rule="nonzero" transform="translate(2 2)">
        <path d="M17.07,2.93 C15.2150221,1.07233262 12.6952252,0.032016475 10.07,0.04 C6.04201316,0.0365459294 2.40516511,2.45010982 0.843540793,6.16306275 C-0.718083525,9.87601567 0.100406695,14.1634424 2.92,17.04 C4.7749779,18.8976674 7.2947748,19.9379835 9.92,19.93 C13.9479868,19.9334541 17.5848349,17.5198902 19.1464592,13.8069373 C20.7080835,10.0939843 19.8895933,5.80655758 17.07,2.93 L17.07,2.93 Z M15.6,15.6 C14.1034285,17.1268452 12.0579672,17.9911246 9.92,18 C7.82615769,18.0060271 5.81690407,17.1742393 4.34,15.69 C2.01680456,13.3946537 1.32208622,9.91760436 2.58490093,6.90576927 C3.84771564,3.89393419 6.81448989,1.95209062 10.08,2 C12.1738423,1.99397291 14.1830959,2.8257607 15.66,4.31 C18.751895,7.44795742 18.7250724,12.4950823 15.6,15.6 L15.6,15.6 Z"/>
        <path d="M13.48,6.41 C13.0899625,6.02227641 12.4600375,6.02227641 12.07,6.41 L9.95,8.53 L7.82,6.41 C7.42323972,6.0702232 6.83180583,6.09306773 6.46243678,6.46243678 C6.09306773,6.83180583 6.0702232,7.42323972 6.41,7.82 L8.53,9.94 L6.41,12.07 C6.12462384,12.3143899 6.00031806,12.6981184 6.08818987,13.063419 C6.17606167,13.4287195 6.46128045,13.7139383 6.82658103,13.8018101 C7.1918816,13.8896819 7.57561012,13.7653762 7.82,13.48 L9.94,11.36 L12.06,13.48 C12.3043899,13.7653762 12.6881184,13.8896819 13.053419,13.8018101 C13.4187195,13.7139383 13.7039383,13.4287195 13.7918101,13.063419 C13.8796819,12.6981184 13.7553762,12.3143899 13.47,12.07 L11.35,9.95 L13.47,7.83 C13.6606411,7.64356992 13.768931,7.38872275 13.7708087,7.12208316 C13.7726865,6.85544357 13.6679965,6.59909655 13.48,6.41 L13.48,6.41 Z"/>
      </g>
    </g>
  </g>
</svg>
