<svg xmlns="http://www.w3.org/2000/svg" width="24" height="24" viewBox="0 0 24 24">
  <g fill="none" fill-rule="evenodd" transform="translate(-264 -108)">
    <rect width="504" height="450" fill="#FFF"/>
    <g transform="translate(264 108)">
      <rect width="24" height="24"/>
      <g fill="#000" fill-rule="nonzero" transform="translate(1 2)">
        <path d="M10.9,0.1 C6.78570938,0.100001989 3.07672727,2.57892633 1.50319224,6.38042272 C-0.0703428002,10.1819191 0.801593643,14.5570009 3.71226709,17.4648124 C6.62294055,20.3726238 10.998878,21.2402558 14.7988246,19.6629817 C18.5987711,18.0857076 21.0740455,14.3742886 21.07,10.26 C21.05898,4.64945466 16.5105535,0.105500529 10.9,0.1 Z M10.9,18.43 C6.38783359,18.43 2.73,14.7721664 2.73,10.26 C2.73,5.74783359 6.38783359,2.09 10.9,2.09 C15.4121664,2.09 19.07,5.74783359 19.07,10.26 C19.07,12.4268187 18.2092346,14.5048902 16.6770624,16.0370624 C15.1448902,17.5692346 13.0668187,18.43 10.9,18.43 Z"/>
        <path d="M14.83,10.06 L11.83,10.06 L11.83,5.56 C11.83,5.00771525 11.3822847,4.56 10.83,4.56 C10.2777153,4.56 9.83,5.00771525 9.83,5.56 L9.83,11.06 C9.83,11.6122847 10.2777153,12.06 10.83,12.06 L14.83,12.06 C15.3822847,12.06 15.83,11.6122847 15.83,11.06 C15.83,10.5077153 15.3822847,10.06 14.83,10.06 Z"/>
      </g>
    </g>
  </g>
</svg>
