<svg width="24" height="24" viewBox="0 0 24 24" fill="none" xmlns="http://www.w3.org/2000/svg">
  <g clip-path="url(#clip0_8324_4115)">
    <path
      d="M15.3368 14.3648C15.7449 14.866 16.2698 15.1217 16.8964 15.1217C17.5229 15.1217 18.0377 14.905 18.373 14.4748C18.5592 14.2429 18.7184 13.8873 18.842 13.4199L18.8522 13.3843H20.8673L20.8571 13.4402C20.6912 14.4545 20.2594 15.291 19.5736 15.9261C18.8877 16.5628 17.9953 16.8862 16.9251 16.8862C15.6009 16.8862 14.546 16.451 13.7856 15.5908C13.0287 14.7289 12.6443 13.5316 12.6443 12.033C12.6443 10.4142 13.0812 9.14753 13.9431 8.26699C14.6933 7.49989 15.6619 7.11042 16.8202 7.11042C18.3679 7.11042 19.5177 7.63198 20.2357 8.66154C20.6319 9.23898 20.8487 9.82827 20.8774 10.4108L20.8808 10.4616H18.8607L18.8505 10.426C18.7303 9.99252 18.5745 9.66062 18.3865 9.44049C18.0529 9.05271 17.5517 8.85628 16.8947 8.85628C16.2376 8.85628 15.6924 9.13568 15.3063 9.68602C14.9168 10.2414 14.7187 11.0407 14.7187 12.0635C14.7187 13.0863 14.927 13.8568 15.3368 14.3631M5.81331 14.3648C6.21971 14.866 6.74466 15.1217 7.37289 15.1217C8.00113 15.1217 8.51422 14.905 8.8495 14.4748C9.03747 14.2429 9.19495 13.8873 9.32026 13.4199L9.33042 13.3843H11.3455L11.3354 13.4402C11.1677 14.4545 10.7376 15.291 10.0518 15.9261C9.36428 16.5628 8.47358 16.8862 7.40337 16.8862C6.07916 16.8862 5.02251 16.451 4.26388 15.5908C3.50695 14.7289 3.12256 13.5316 3.12256 12.033C3.12256 10.4142 3.55944 9.14753 4.42136 8.26699C5.17322 7.49989 6.14013 7.11042 7.29838 7.11042C8.84781 7.11042 9.99591 7.63198 10.7139 8.66154C11.1101 9.23898 11.3269 9.82827 11.3557 10.4108L11.3591 10.4616H9.33888L9.32872 10.426C9.2085 9.99252 9.05271 9.66062 8.86474 9.44049C8.53115 9.05271 8.02992 8.85628 7.37289 8.85628C6.71587 8.85628 6.17061 9.13568 5.78452 9.68602C5.39505 10.2414 5.19692 11.0424 5.19692 12.0635C5.19692 13.0846 5.40521 13.8568 5.815 14.3631M20.6539 0H3.34608C1.5054 0 0 1.5054 0 3.34608V20.6539C0 22.4946 1.5054 24 3.34608 24H20.6539C22.4946 24 24 22.4946 24 20.6539V3.34608C24 1.5054 22.4946 0 20.6539 0Z"
      fill="black" />
  </g>
  <defs>
    <clipPath id="clip0_8324_4115">
      <rect width="24" height="24" fill="white" />
    </clipPath>
  </defs>
</svg>
