<svg xmlns="http://www.w3.org/2000/svg" width="24" height="24" viewBox="0 0 24 24">
  <g fill="none" fill-rule="evenodd" transform="translate(-312 -108)">
    <rect width="504" height="450" fill="#FFF"/>
    <g transform="translate(312 108)">
      <rect width="24" height="24"/>
      <g fill="#000" fill-rule="nonzero" transform="translate(0 2)">
        <path d="M20,0.18 L4.1,0.18 C1.890861,0.18 0.1,1.970861 0.1,4.18 L0.1,16.18 C0.1,18.389139 1.890861,20.18 4.1,20.18 L20,20.18 C22.209139,20.18 24,18.389139 24,16.18 L24,4.18 C24,1.970861 22.209139,0.18 20,0.18 Z M22,16.18 C22,17.2845695 21.1045695,18.18 20,18.18 L4.1,18.18 C2.9954305,18.18 2.1,17.2845695 2.1,16.18 L2.1,4.18 C2.1,3.0754305 2.9954305,2.18 4.1,2.18 L20,2.18 C21.1045695,2.18 22,3.0754305 22,4.18 L22,16.18 Z"/>
        <path d="M8.2,13.78 C6.73,13.78 5.78,12.78 5.78,10.36 C5.78,7.94 6.72,6.92 8.2,6.92 C8.99518453,6.9146884 9.75373842,7.25384951 10.28,7.85 L11.41,6.57 C10.5742808,5.69202389 9.4120896,5.19963137 8.2,5.21 C5.32,5.21 3.95,7.37 3.95,10.35 C3.95,13.33 5.33,15.48 8.2,15.48 C9.48849105,15.4943984 10.7109183,14.9108833 11.51,13.9 L10.3,12.81 C9.78740194,13.4403421 9.01224987,13.7983886 8.2,13.78 L8.2,13.78 Z M16.57,13.78 C15.1,13.78 14.15,12.78 14.15,10.36 C14.15,7.94 15.09,6.92 16.57,6.92 C17.3651845,6.9146884 18.1237384,7.25384951 18.65,7.85 L19.78,6.57 C18.9425579,5.69570652 17.7805908,5.20702875 16.57,5.22 C13.69,5.22 12.32,7.38 12.32,10.36 C12.32,13.34 13.7,15.49 16.57,15.49 C17.858491,15.5043984 19.0809183,14.9208833 19.88,13.91 L18.66,12.82 C18.1475902,13.4438022 17.3770806,13.7977205 16.57,13.78 L16.57,13.78 Z"/>
      </g>
    </g>
  </g>
</svg>
