<svg width="24" height="24" viewBox="0 0 24 24" fill="none" xmlns="http://www.w3.org/2000/svg">
  <path fill-rule="evenodd" clip-rule="evenodd"
    d="M19.2349 19.2504C19.7437 19.2504 20.1566 18.8584 20.1566 18.3754V5.62539C20.1566 5.14239 19.7437 4.75039 19.2349 4.75039H4.76509C4.25631 4.75039 3.84338 5.14239 3.84338 5.62539V18.3754C3.84338 18.8584 4.25631 19.2504 4.76509 19.2504H19.2349ZM4.7651 3H19.2349C20.7594 3 22 4.17775 22 5.625V18.375C22 19.8223 20.7594 21 19.2349 21H4.7651C3.23969 21 2 19.8223 2 18.375V5.625C2 4.17775 3.23969 3 4.7651 3ZM7.12133 13.8275C7.44169 14.2227 7.85551 14.4243 8.35083 14.4243C8.84606 14.4243 9.25054 14.2534 9.5149 13.9143C9.66311 13.7314 9.78725 13.4511 9.88608 13.0827L9.89407 13.0546H11.4826L11.4746 13.0986C11.3425 13.8983 11.0034 14.5578 10.4627 15.0584C9.92073 15.5603 9.21859 15.8154 8.3748 15.8154C7.33093 15.8154 6.49781 15.4723 5.8998 14.7941C5.30305 14.1146 5 13.1707 5 11.9892C5 10.713 5.34443 9.7145 6.02395 9.02026C6.61667 8.41551 7.37895 8.10852 8.29203 8.10852C9.51356 8.10852 10.4187 8.51964 10.9847 9.33129C11.2971 9.78658 11.468 10.2511 11.4907 10.7104L11.4933 10.7504H9.90071L9.89272 10.7224C9.79793 10.3806 9.67514 10.119 9.52693 9.94537C9.26392 9.63973 8.86878 9.48489 8.35083 9.48489C7.8328 9.48489 7.40301 9.70507 7.09861 10.139C6.79153 10.5769 6.63533 11.2083 6.63533 12.0133C6.63533 12.8183 6.79951 13.4271 7.12258 13.8262L7.12133 13.8275ZM14.6293 13.8275C14.951 14.2227 15.3648 14.4243 15.8588 14.4243C16.3527 14.4243 16.7586 14.2534 17.0228 13.9143C17.1697 13.7314 17.2952 13.4511 17.3927 13.0827L17.4007 13.0546H18.9893L18.9813 13.0986C18.8504 13.8983 18.5101 14.5578 17.9694 15.0584C17.4287 15.5603 16.7252 15.8154 15.8815 15.8154C14.8375 15.8154 14.0058 15.4723 13.4064 14.7941C12.8096 14.1146 12.5066 13.1707 12.5066 11.9892C12.5066 10.713 12.851 9.7145 13.5305 9.02026C14.1219 8.41551 14.8855 8.10852 15.7987 8.10852C17.0189 8.10852 17.9253 8.51964 18.4914 9.33129C18.8038 9.78658 18.9746 10.2511 18.9973 10.7104L19 10.7504H17.4073L17.3993 10.7224C17.3045 10.3806 17.1817 10.119 17.0335 9.94537C16.7706 9.63973 16.3754 9.48489 15.8574 9.48489C15.3395 9.48489 14.9096 9.70507 14.6052 10.139C14.2982 10.5769 14.142 11.207 14.142 12.0133C14.142 12.8196 14.3062 13.4271 14.6293 13.8262V13.8275Z"
    class="icon__shape" fill="currentColor" />
</svg>
