<svg xmlns="http://www.w3.org/2000/svg" width="24" height="24" viewBox="0 0 24 24">
  <g fill="none" fill-rule="evenodd" transform="translate(-360 -108)">
    <rect width="504" height="450" fill="#FFF"/>
    <g transform="translate(360 108)">
      <rect width="24" height="24"/>
      <path fill="#000" fill-rule="nonzero" d="M19.49,8 L17.28,5.81 C17.0356101,5.52462384 16.6518816,5.40031806 16.286581,5.48818987 C15.9212805,5.57606167 15.6360617,5.86128045 15.5481899,6.22658103 C15.4603181,6.5918816 15.5846238,6.97561012 15.87,7.22 L17.5,8.85 L15.87,10.48 C15.5846238,10.7243899 15.4603181,11.1081184 15.5481899,11.473419 C15.6360617,11.8387195 15.9212805,12.1239383 16.286581,12.2118101 C16.6518816,12.2996819 17.0356101,12.1753762 17.28,11.89 L19.49,9.68 C19.7053381,9.45698763 19.8050687,9.14671455 19.76,8.84 C19.8050687,8.53328545 19.7053381,8.22301237 19.49,8 Z M8.29,5.81 C7.89996255,5.42227641 7.27003745,5.42227641 6.88,5.81 L4.66,8 C4.44466193,8.22301237 4.34493129,8.53328545 4.39,8.84 C4.34493129,9.14671455 4.44466193,9.45698763 4.66,9.68 L6.87,11.89 C7.26676028,12.2297768 7.85819417,12.2069323 8.22756322,11.8375632 C8.59693227,11.4681942 8.6197768,10.8767603 8.28,10.48 L6.65,8.86 L8.29,7.23 C8.47931265,7.0422334 8.58579832,6.78663754 8.58579832,6.52 C8.58579832,6.25336246 8.47931265,5.9977666 8.29,5.81 Z M19.68,0 L4.45,0 C2.13492445,0.00542752083 0.256451566,1.87497655 0.24,4.19 L0.24,12.94 C0.245497864,15.2628377 2.1271623,17.1445021 4.45,17.15 L8.69,17.15 L8.69,20.15 L6.52,20.15 C5.96771525,20.15 5.52,20.5977153 5.52,21.15 C5.52,21.7022847 5.96771525,22.15 6.52,22.15 L17.61,22.15 C18.1622847,22.15 18.61,21.7022847 18.61,21.15 C18.61,20.5977153 18.1622847,20.15 17.61,20.15 L15.44,20.15 L15.44,17.15 L19.68,17.15 C22.0028377,17.1445021 23.8845021,15.2628377 23.89,12.94 L23.89,4.19 C23.8735484,1.87497655 21.9950755,0.00542752083 19.68,0 Z M13.44,20.19 L10.69,20.19 L10.69,17.19 L13.44,17.19 L13.44,20.19 Z M21.89,12.95 C21.8845245,14.1682741 20.8982741,15.1545245 19.68,15.16 L4.45,15.16 C3.23172593,15.1545245 2.24547547,14.1682741 2.24,12.95 L2.24,4.19 C2.2509754,2.97726838 3.23721872,1.99995034 4.45,2 L19.68,2 C20.9005493,2 21.89,2.9894507 21.89,4.21 L21.89,12.95 Z M14.41,3.31 C14.163369,3.2116208 13.8877372,3.21536907 13.6438726,3.32041844 C13.4000079,3.42546781 13.2079351,3.62319232 13.11,3.87 L9.73,12.37 C9.6316208,12.616631 9.63536907,12.8922628 9.74041844,13.1361274 C9.84546781,13.3799921 10.0431923,13.5720649 10.29,13.67 C10.4077876,13.7165537 10.5333466,13.7403081 10.66,13.74 C11.0698038,13.7403967 11.4383727,13.490721 11.59,13.11 L15,4.61 C15.0968191,4.35954352 15.0888452,4.08067261 14.977873,3.83615765 C14.8669008,3.59164268 14.6622554,3.40203034 14.41,3.31 Z" transform="translate(0 1)"/>
    </g>
  </g>
</svg>
