<svg xmlns="http://www.w3.org/2000/svg" width="24" height="24" viewBox="0 0 24 24">
  <g fill="none" fill-rule="evenodd" transform="translate(-408 -108)">
    <rect width="504" height="450" fill="#FFF"/>
    <g transform="translate(408 108)">
      <rect width="24" height="24"/>
      <g fill="#000" fill-rule="nonzero" transform="translate(2 2)">
        <path d="M17,0.46 L3,0.46 C1.34314575,0.46 -2.09565904e-16,1.80314575 -2.09565904e-16,3.46 L-2.09565904e-16,19.46 C-0.000321258472,19.7917301 0.163884905,20.102028 0.438350437,20.288344 C0.71281597,20.47466 1.06181209,20.5127404 1.37,20.39 L6.19,18.46 L17,18.46 C18.6568542,18.46 20,17.1168542 20,15.46 L20,3.46 C20,1.80314575 18.6568542,0.46 17,0.46 Z M18,15.46 C18,16.0122847 17.5522847,16.46 17,16.46 L6,16.46 C5.94675227,16.4557265 5.89324773,16.4557265 5.84,16.46 C5.77021973,16.4521563 5.69978027,16.4521563 5.63,16.46 L2,18 L2,3.46 C2,2.90771525 2.44771525,2.46 3,2.46 L17,2.46 C17.5522847,2.46 18,2.90771525 18,3.46 L18,15.46 Z"/>
        <path d="M4,4.46 L16,4.46 L16,6.46 L4,6.46 L4,4.46 Z M4,8.46 L16,8.46 L16,10.46 L4,10.46 L4,8.46 Z M4,12.46 L12,12.46 L12,14.46 L4,14.46 L4,12.46 Z"/>
      </g>
    </g>
  </g>
</svg>
