<svg xmlns="http://www.w3.org/2000/svg" width="24" height="24" viewBox="0 0 24 24">
  <g fill="none" fill-rule="evenodd" transform="translate(-168 -150)">
    <rect width="504" height="450" fill="#FFF"/>
    <g transform="translate(168 150)">
      <rect width="24" height="24"/>
      <g fill="#000" fill-rule="nonzero" transform="translate(1 1)">
        <path d="M17.11,0.55 C16.5577153,0.55 16.11,0.99771525 16.11,1.55 L16.11,4.1 L2.7,4.1 C1.5954305,4.1 0.7,4.9954305 0.7,6.1 L0.7,19.1 C0.703464591,19.3786881 0.823077375,19.6432861 1.03,19.83 C1.08893302,19.9192364 1.15587659,20.0029159 1.23,20.08 C1.85278794,20.5688775 2.64358399,20.7917382 3.43,20.7 L3.7,20.7 C4.25228475,20.7 4.7,20.2522847 4.7,19.7 L4.7,19.1 L18.5,19.1 C20.0639387,19.105439 21.3696804,17.9085091 21.5,16.35 C21.503,16.3067186 21.503,16.2632814 21.5,16.22 L21.5,4.52 C21.5,1.59 19.23,0.55 17.11,0.55 Z M19.5,4.55 L19.5,12.42 C19.0839126,12.1785273 18.6313466,12.006282 18.16,11.91 L18.16,2.69 C19.0025686,2.87736261 19.575782,3.6601839 19.5,4.52 L19.5,4.55 Z M18.5,17.13 L2.7,17.13 L2.7,6.1 L16.13,6.1 L16.13,12.79 C16.13,13.3422847 16.5777153,13.79 17.13,13.79 C17.7672612,13.7402416 18.3940451,13.9739746 18.8431281,14.4288397 C19.292211,14.8837048 19.5179066,15.5134275 19.46,16.15 C19.43448,16.6675703 19.0178091,17.0799008 18.5,17.1 L18.5,17.13 Z"/>
        <path d="M4.7,7.6 L6.7,7.6 L6.7,15.6 L4.7,15.6 L4.7,7.6 Z M8.49,7.6 L10.49,7.6 L10.49,15.6 L8.49,15.6 L8.49,7.6 Z M12.27,7.6 L14.27,7.6 L14.27,15.6 L12.27,15.6 L12.27,7.6 Z"/>
      </g>
    </g>
  </g>
</svg>
