<svg xmlns="http://www.w3.org/2000/svg" width="24" height="24" viewBox="0 0 24 24">
  <g fill="none" fill-rule="evenodd" transform="translate(-216 -150)">
    <rect width="504" height="450" fill="#FFF"/>
    <g transform="translate(216 150)">
      <rect width="24" height="24"/>
      <path fill="#000" fill-rule="nonzero" d="M18.2,18.1 L1.8,18.1 C1.24771525,18.1 0.8,18.5477153 0.8,19.1 C0.8,19.6522847 1.24771525,20.1 1.8,20.1 L18.2,20.1 C18.7522847,20.1 19.2,19.6522847 19.2,19.1 C19.2,18.5477153 18.7522847,18.1 18.2,18.1 Z M9.22,15.72 C9.40979675,15.9565713 9.69670347,16.0942205 10,16.0942205 C10.3032965,16.0942205 10.5902032,15.9565713 10.78,15.72 L14.78,10.72 C15.1044183,10.2881543 15.0272849,9.67673136 14.6057798,9.33898685 C14.1842746,9.00124233 13.5707413,9.05924645 13.22,9.47 L11,12.25 L11,1.1 C11,0.54771525 10.5522847,0.1 10,0.1 C9.44771525,0.1 9,0.54771525 9,1.1 L9,12.25 L6.78,9.47 C6.56094067,9.17840172 6.20050185,9.02918908 5.83943332,9.08062895 C5.47836479,9.13206882 5.17393579,9.37600231 5.04502453,9.71717445 C4.91611327,10.0583466 4.98316641,10.4426439 5.22,10.72 L9.22,15.72 Z" transform="translate(2 2)"/>
    </g>
  </g>
</svg>
