<svg xmlns="http://www.w3.org/2000/svg" width="24" height="24" viewBox="0 0 24 24">
  <g fill="none" fill-rule="evenodd" transform="translate(-264 -150)">
    <rect width="504" height="450" fill="#FFF"/>
    <g transform="translate(264 150)">
      <rect width="24" height="24"/>
      <path fill="#000" fill-rule="nonzero" d="M1,3 L11.37,3 C11.9222847,3 12.37,2.55228475 12.37,2 C12.37,1.44771525 11.9222847,1 11.37,1 L1,1 C0.44771525,1 0,1.44771525 0,2 C0,2.55228475 0.44771525,3 1,3 Z M1,7.61 L6.67,7.61 C7.22228475,7.61 7.67,7.16228475 7.67,6.61 C7.67,6.05771525 7.22228475,5.61 6.67,5.61 L1,5.61 C0.44771525,5.61 0,6.05771525 0,6.61 C0,7.16228475 0.44771525,7.61 1,7.61 Z M2.87,10.24 L1,10.24 C0.44771525,10.24 0,10.6877153 0,11.24 C0,11.7922847 0.44771525,12.24 1,12.24 L2.87,12.24 C3.42228475,12.24 3.87,11.7922847 3.87,11.24 C3.87,10.6877153 3.42228475,10.24 2.87,10.24 Z M20.17,4.2 L17.17,1.2 C16.7799625,0.812276405 16.1500375,0.812276405 15.76,1.2 L7.55,9.41 C7.16227641,9.80003745 7.16227641,10.4299625 7.55,10.82 L10.55,13.82 C10.9400375,14.2077236 11.5699625,14.2077236 11.96,13.82 L20.17,5.61 C20.5577236,5.21996255 20.5577236,4.59003745 20.17,4.2 Z M11.25,11.71 L9.66,10.12 L13.86,5.92 L15.45,7.51 L11.25,11.71 Z M16.87,6.09 L15.27,4.5 L16.45,3.32 L18,4.91 L16.87,6.09 Z M8.82,14.12 L6.82,14.57 L7.27,12.57 C7.38874122,12.0177153 7.03728475,11.4737412 6.485,11.355 C5.93271525,11.2362588 5.38874122,11.5877153 5.27,12.14 L4.49,15.69 C4.48515872,15.8232894 4.48515872,15.9567106 4.49,16.09 C4.51444463,16.2033995 4.558434,16.311681 4.62,16.41 C4.68184759,16.5058408 4.75963642,16.5903939 4.85,16.66 L4.95,16.71 C5.02530732,16.7536356 5.10598909,16.787253 5.19,16.81 L5.61,16.81 L9.16,16.03 C9.71228475,15.9112588 10.0637412,15.3672847 9.945,14.815 C9.82625878,14.2627153 9.28228475,13.9112588 8.73,14.03 L8.82,14.12 Z" transform="translate(2 4)"/>
    </g>
  </g>
</svg>
