<svg xmlns="http://www.w3.org/2000/svg" width="24" height="24" viewBox="0 0 24 24">
  <g fill="none" fill-rule="evenodd" transform="translate(-312 -150)">
    <rect width="504" height="450" fill="#FFF"/>
    <g transform="translate(312 150)">
      <rect width="24" height="24"/>
      <path fill="#000" fill-rule="nonzero" d="M19.86,18.64 L19.86,9.06 C19.8600047,8.3023972 19.5583653,7.57596895 19.0217219,7.04120188 C18.4850785,6.50643481 17.7575981,6.20734174 17,6.21 C16.9501076,6.2053604 16.8998924,6.2053604 16.85,6.21 L16.85,1.36 C16.85,0.890557963 16.469442,0.51 16,0.51 L4,0.51 C3.53055796,0.51 3.15,0.890557963 3.15,1.36 L3.15,6.25 C3.09018634,6.24331263 3.02981366,6.24331263 2.97,6.25 C1.39598846,6.25 0.12,7.52598846 0.12,9.1 L0.12,18.95 C0.0936625013,19.0685549 0.0936625013,19.1914451 0.12,19.31 C0.438181854,20.6299044 1.643286,21.5421013 3,21.49 L17,21.49 C18.3247478,21.4866472 19.4725161,20.5709188 19.77,19.28 C19.8145502,19.1620645 19.8316494,19.0355301 19.82,18.91 C19.85,18.83 19.86,18.74 19.86,18.64 L19.86,18.64 Z M13.75,14.22 L18.16,11.22 L18.16,17.38 L13.75,14.22 Z M17,7.91 C17.6351275,7.91 18.15,8.42487254 18.15,9.06 L18.15,9.14 L16.85,10.03 L16.85,7.88 C16.8989417,7.89470949 16.9491656,7.90475428 17,7.91 L17,7.91 Z M15.16,2.21 L15.16,11.21 L10,14.72 L4.86,11.08 L4.86,2.21 L15.16,2.21 Z M1.83,11 L6.31,14.16 L1.83,17.37 L1.83,11 Z M3,7.91 C3.05981366,7.91668737 3.12018634,7.91668737 3.18,7.91 L3.18,9.91 L1.85,9 C1.87692174,8.38611096 2.38555003,7.9040198 3,7.91 L3,7.91 Z M17,19.79 L3,19.79 C2.62640543,19.7873211 2.27828299,19.6001585 2.07,19.29 L7.8,15.23 L9.53,16.45 C9.82807574,16.6668182 10.2319243,16.6668182 10.53,16.45 L12.3,15.24 L17.98,19.24 C17.7741158,19.5842874 17.4011347,19.7936135 17,19.79 L17,19.79 Z" transform="translate(2 1)"/>
    </g>
  </g>
</svg>
