<svg xmlns="http://www.w3.org/2000/svg" width="24" height="24" viewBox="0 0 24 24">
  <g fill="none" fill-rule="evenodd" transform="translate(-360 -150)">
    <rect width="504" height="450" fill="#FFF"/>
    <g transform="translate(360 150)">
      <rect width="24" height="24"/>
      <path fill="#000" fill-rule="nonzero" d="M5.59,5.5 C5.19996255,5.11227641 4.57003745,5.11227641 4.18,5.5 L0.4,9.28 C0.0122764053,9.67003745 0.0122764053,10.2999625 0.4,10.69 L4.18,14.47 C4.57676028,14.8097768 5.16819417,14.7869323 5.53756322,14.4175632 C5.90693227,14.0481942 5.9297768,13.4567603 5.59,13.06 L2.52,10 L5.59,6.92 C5.77931265,6.7322334 5.88579832,6.47663754 5.88579832,6.21 C5.88579832,5.94336246 5.77931265,5.6877666 5.59,5.5 Z M21.37,9.28 L17.59,5.5 C17.1932397,5.1602232 16.6018058,5.18306773 16.2324368,5.55243678 C15.8630677,5.92180583 15.8402232,6.51323972 16.18,6.91 L19.25,10 L16.18,13.07 C15.8946238,13.3143899 15.7703181,13.6981184 15.8581899,14.063419 C15.9460617,14.4287195 16.2312805,14.7139383 16.596581,14.8018101 C16.9618816,14.8896819 17.3456101,14.7653762 17.59,14.48 L21.37,10.7 C21.7577236,10.3099625 21.7577236,9.68003745 21.37,9.29 L21.37,9.28 Z M13.88,0.43 C13.6179303,0.32946389 13.3256728,0.343699025 13.0746142,0.46922834 C12.8235555,0.594757655 12.6368129,0.820022562 12.56,1.09 L6.77,18.62 C6.59050746,19.1722847 6.89271525,19.7655075 7.445,19.945 C7.99728475,20.1244925 8.59050746,19.8222847 8.77,19.27 L14.57,1.74 C14.6663379,1.47503687 14.6463522,1.18171746 14.5149642,0.932270757 C14.3835763,0.682824052 14.1529949,0.500429071 13.88,0.43 L13.88,0.43 Z" transform="translate(1 2)"/>
    </g>
  </g>
</svg>
