<svg xmlns="http://www.w3.org/2000/svg" width="24" height="24" viewBox="0 0 24 24">
  <g fill="none" fill-rule="evenodd" transform="translate(-408 -150)">
    <rect width="504" height="450" fill="#FFF"/>
    <g transform="translate(408 150)">
      <rect width="24" height="24"/>
      <path fill="#000" fill-rule="nonzero" d="M15.07,7.2 C15.6222847,7.2 16.07,6.75228475 16.07,6.2 L16.07,1.2 C16.07,0.64771525 15.6222847,0.2 15.07,0.2 L10.07,0.2 C9.51771525,0.2 9.07,0.64771525 9.07,1.2 C9.07,1.75228475 9.51771525,2.2 10.07,2.2 L12.66,2.2 L8,6.88 L3.29,2.2 L6.07,2.2 C6.62228475,2.2 7.07,1.75228475 7.07,1.2 C7.07,0.64771525 6.62228475,0.2 6.07,0.2 L1.07,0.2 C0.51771525,0.2 0.07,0.64771525 0.07,1.2 L0.07,6.2 C0.07,6.75228475 0.51771525,7.2 1.07,7.2 C1.62228475,7.2 2.07,6.75228475 2.07,6.2 L2.07,3.81 L6.56,8.3 L2.07,12.79 L2.07,10.2 C2.07,9.64771525 1.62228475,9.2 1.07,9.2 C0.51771525,9.2 0.07,9.64771525 0.07,10.2 L0.07,15.2 C0.07,15.7522847 0.51771525,16.2 1.07,16.2 L6.07,16.2 C6.62228475,16.2 7.07,15.7522847 7.07,15.2 C7.07,14.6477153 6.62228475,14.2 6.07,14.2 L3.48,14.2 L8,9.71 L12.49,14.2 L10.07,14.2 C9.51771525,14.2 9.07,14.6477153 9.07,15.2 C9.07,15.7522847 9.51771525,16.2 10.07,16.2 L15.07,16.2 C15.6222847,16.2 16.07,15.7522847 16.07,15.2 L16.07,10.2 C16.07,9.64771525 15.6222847,9.2 15.07,9.2 C14.5177153,9.2 14.07,9.64771525 14.07,10.2 L14.07,13 L9.38,8.3 L14.06,3.62 L14.06,6.2 C14.0599867,6.46695823 14.1667151,6.72283943 14.3564199,6.91066593 C14.5461246,7.09849244 14.8030551,7.20266958 15.07,7.2 Z" transform="translate(4 4)"/>
    </g>
  </g>
</svg>
