<svg xmlns="http://www.w3.org/2000/svg" width="24" height="24" viewBox="0 0 24 24">
  <g fill="none" fill-rule="evenodd" transform="translate(-24 -192)">
    <rect width="504" height="450" fill="#FFF"/>
    <g transform="translate(24 192)">
      <rect width="24" height="24"/>
      <path fill="#000" fill-rule="nonzero" d="M1,3.26 L7.28,3.26 C7.6402753,3.867173 8.29398488,4.23941193 9,4.23941193 C9.70601512,4.23941193 10.3597247,3.867173 10.72,3.26 L19,3.26 C19.5522847,3.26 20,2.81228475 20,2.26 C20,1.70771525 19.5522847,1.26 19,1.26 L10.72,1.26 C10.3597247,0.652826999 9.70601512,0.280588066 9,0.280588066 C8.29398488,0.280588066 7.6402753,0.652826999 7.28,1.26 L1,1.26 C0.44771525,1.26 0,1.70771525 0,2.26 C0,2.81228475 0.44771525,3.26 1,3.26 L1,3.26 Z M19,8.26 L5.72,8.26 C5.3597247,7.652827 4.70601512,7.28058807 4,7.28058807 C3.29398488,7.28058807 2.6402753,7.652827 2.28,8.26 L1,8.26 C0.44771525,8.26 0,8.70771525 0,9.26 C0,9.81228475 0.44771525,10.26 1,10.26 L2.28,10.26 C2.6402753,10.867173 3.29398488,11.2394119 4,11.2394119 C4.70601512,11.2394119 5.3597247,10.867173 5.72,10.26 L19,10.26 C19.5522847,10.26 20,9.81228475 20,9.26 C20,8.70771525 19.5522847,8.26 19,8.26 Z M19,15.26 L15.72,15.26 C15.3597247,14.652827 14.7060151,14.2805881 14,14.2805881 C13.2939849,14.2805881 12.6402753,14.652827 12.28,15.26 L1,15.26 C0.44771525,15.26 0,15.7077153 0,16.26 C0,16.8122847 0.44771525,17.26 1,17.26 L12.28,17.26 C12.6402753,17.867173 13.2939849,18.2394119 14,18.2394119 C14.7060151,18.2394119 15.3597247,17.867173 15.72,17.26 L19,17.26 C19.5522847,17.26 20,16.8122847 20,16.26 C20,15.7077153 19.5522847,15.26 19,15.26 Z" transform="translate(2 3)"/>
    </g>
  </g>
</svg>
