<svg xmlns="http://www.w3.org/2000/svg" width="24" height="24" viewBox="0 0 24 24">
  <g fill="none" fill-rule="evenodd" transform="translate(-72 -192)">
    <rect width="504" height="450" fill="#FFF"/>
    <g transform="translate(72 192)">
      <rect width="24" height="24"/>
      <path fill="#000" fill-rule="nonzero" d="M21.8,7.46 C21.6111456,7.20819416 21.3147573,7.06 21,7.06 L19.26,7.06 L19.26,5.46 C19.26,4.3554305 18.3645695,3.46 17.26,3.46 L9.79,3.46 L9.79,2.2 C9.79,1.29977586 9.06022414,0.57 8.16,0.57 L2.29,0.57 C1.38977586,0.57 0.66,1.29977586 0.66,2.2 L0.66,17 C0.66,18.1045695 1.5554305,19 2.66,19 L17.3,19 C18.2264019,18.9845783 19.0209244,18.3348907 19.22,17.43 L22,8.35 C22.0804054,8.03843392 22.0059734,7.7072113 21.8,7.46 Z M2.66,2.57 L7.79,2.57 L7.79,4.49 C7.79,5.04228475 8.23771525,5.49 8.79,5.49 L17.26,5.49 L17.26,7.09 L4.56,7.09 C4.10363007,7.07049636 3.69205152,7.36271713 3.56,7.8 L2.63,10.91 L2.63,2.57 L2.66,2.57 Z M17.38,16.57 L17.38,16.62 L17.32,16.83 C17.31652,16.8766018 17.31652,16.9233982 17.32,16.97 L2.9,17 L5.3,9 L19.65,9 L17.38,16.57 Z" transform="translate(1 3)"/>
    </g>
  </g>
</svg>
