<svg xmlns="http://www.w3.org/2000/svg" width="24" height="24" viewBox="0 0 24 24">
  <g fill="none" fill-rule="evenodd" transform="translate(-168 -192)">
    <rect width="504" height="450" fill="#FFF"/>
    <g transform="translate(168 192)">
      <rect width="24" height="24"/>
      <g fill="#000" fill-rule="nonzero" transform="translate(1 3)">
        <path d="M15.71,4 L2.87,4 C1.37558583,4.00548414 0.165484144,5.21558583 0.16,6.71 L0.16,15.27 C0.165484144,16.7644142 1.37558583,17.9745159 2.87,17.98 L15.71,17.98 C17.2044142,17.9745159 18.4145159,16.7644142 18.42,15.27 L18.42,6.67 C18.3928212,5.19122956 17.1890111,4.00518783 15.71,4 Z M16.42,15.27 C16.42,15.4583037 16.3451966,15.638895 16.2120458,15.7720458 C16.078895,15.9051966 15.8983037,15.98 15.71,15.98 L2.87,15.98 C2.47787783,15.98 2.16,15.6621222 2.16,15.27 L2.16,6.67 C2.18124,6.29358041 2.49298211,5.99940123 2.87,6 L15.71,6 C15.8983037,6 16.078895,6.07480336 16.2120458,6.20795419 C16.3451966,6.34110501 16.42,6.52169629 16.42,6.71 L16.42,15.27 Z"/>
        <path d="M19.09,0.59 L6.24,0.59 C5.68771525,0.59 5.24,1.03771525 5.24,1.59 C5.24,2.14228475 5.68771525,2.59 6.24,2.59 L19.09,2.59 C19.4821222,2.59 19.8,2.90787783 19.8,3.3 L19.8,11.86 C19.8,12.4122847 20.2477153,12.86 20.8,12.86 C21.3522847,12.86 21.8,12.4122847 21.8,11.86 L21.8,3.3 C21.7945159,1.80558583 20.5844142,0.595484144 19.09,0.59 Z"/>
      </g>
    </g>
  </g>
</svg>
