<svg xmlns="http://www.w3.org/2000/svg" width="24" height="24" viewBox="0 0 24 24">
  <g fill="none" fill-rule="evenodd" transform="translate(-120 -192)">
    <rect width="504" height="450" fill="#FFF"/>
    <g transform="translate(120 192)">
      <rect width="24" height="24"/>
      <g fill="#000" fill-rule="nonzero" transform="translate(1 3)">
        <path d="M19.1,0.6 L6.2,0.6 C5.6,0.6 5.2,1 5.2,1.6 C5.2,2.2 5.6,2.6 6.2,2.6 L19.1,2.6 C19.5,2.6 19.8,2.9 19.8,3.3 L19.8,11.9 C19.8,12.5 20.2,12.9 20.8,12.9 C21.4,12.9 21.8,12.5 21.8,11.9 L21.8,3.3 C21.8,1.8 20.6,0.6 19.1,0.6 Z"/>
        <path d="M15.7,4 L2.9,4 C1.4,4 0.2,5.2 0.2,6.7 L0.2,15.3 C0.2,16.8 1.4,18 2.9,18 L15.7,18 C17.2,18 18.4,16.8 18.4,15.3 L18.4,6.7 C18.4,5.2 17.2,4 15.7,4 Z"/>
      </g>
    </g>
  </g>
</svg>
