<svg xmlns="http://www.w3.org/2000/svg" width="24" height="24" viewBox="0 0 24 24">
  <g fill="none" fill-rule="evenodd" transform="translate(-216 -192)">
    <rect width="504" height="450" fill="#FFF"/>
    <g transform="translate(216 192)">
      <rect width="24" height="24"/>
      <path fill="#000" fill-rule="nonzero" d="M6.51,0.91 L3.22,0.91 C1.76196826,0.91 0.58,2.09196826 0.58,3.55 L0.58,6.84 C0.58,7.54017153 0.858142059,8.21166586 1.3532381,8.7067619 C1.84833414,9.20185794 2.51982847,9.48 3.22,9.48 L6.51,9.48 C7.96575451,9.47451687 9.14451687,8.29575451 9.15,6.84 L9.15,3.55 C9.14451687,2.09424549 7.96575451,0.915483126 6.51,0.91 Z M7.15,6.84 C7.14463698,7.19121682 6.86121682,7.47463698 6.51,7.48 L3.22,7.48 C2.86878318,7.47463698 2.58536302,7.19121682 2.58,6.84 L2.58,3.55 C2.58536302,3.19878318 2.86878318,2.91536302 3.22,2.91 L6.51,2.91 C6.86121682,2.91536302 7.14463698,3.19878318 7.15,3.55 L7.15,6.84 Z M16.72,0.91 L13.43,0.91 C12.7298285,0.91 12.0583341,1.18814206 11.5632381,1.6832381 C11.0681421,2.17833414 10.79,2.84982847 10.79,3.55 L10.79,6.84 C10.79,7.54017153 11.0681421,8.21166586 11.5632381,8.7067619 C12.0583341,9.20185794 12.7298285,9.48 13.43,9.48 L16.71,9.48 C18.1657545,9.47451687 19.3445169,8.29575451 19.35,6.84 L19.35,3.55 C19.3445624,2.09812113 18.1718478,0.920947471 16.72,0.91 L16.72,0.91 Z M17.36,6.84 C17.354637,7.19121682 17.0712168,7.47463698 16.72,7.48 L13.43,7.48 C13.0787832,7.47463698 12.795363,7.19121682 12.79,6.84 L12.79,3.55 C12.795363,3.19878318 13.0787832,2.91536302 13.43,2.91 L16.71,2.91 C17.0612168,2.91536302 17.344637,3.19878318 17.35,3.55 L17.36,6.84 Z M6.51,11.12 L3.22,11.12 C1.76196826,11.12 0.58,12.3019683 0.58,13.76 L0.58,17 C0.58,17.7001715 0.858142059,18.3716659 1.3532381,18.8667619 C1.84833414,19.3618579 2.51982847,19.64 3.22,19.64 L6.51,19.64 C7.96803174,19.64 9.15,18.4580317 9.15,17 L9.15,13.76 C9.14451687,12.3042455 7.96575451,11.1254831 6.51,11.12 L6.51,11.12 Z M7.15,17 C7.14463698,17.3512168 6.86121682,17.634637 6.51,17.64 L3.22,17.64 C2.86878318,17.634637 2.58536302,17.3512168 2.58,17 L2.58,13.76 C2.58536302,13.4087832 2.86878318,13.125363 3.22,13.12 L6.51,13.12 C6.86121682,13.125363 7.14463698,13.4087832 7.15,13.76 L7.15,17 Z M16.72,11.12 L13.43,11.12 C12.7298285,11.12 12.0583341,11.3981421 11.5632381,11.8932381 C11.0681421,12.3883341 10.79,13.0598285 10.79,13.76 L10.79,17 C10.79,17.7001715 11.0681421,18.3716659 11.5632381,18.8667619 C12.0583341,19.3618579 12.7298285,19.64 13.43,19.64 L16.71,19.64 C17.4119026,19.6426587 18.0859688,19.3656909 18.5832297,18.8703064 C19.0804907,18.3749218 19.360005,17.7019076 19.36,17 L19.36,13.76 C19.3545169,12.3042455 18.1757545,11.1254831 16.72,11.12 L16.72,11.12 Z M17.36,17 C17.354637,17.3512168 17.0712168,17.634637 16.72,17.64 L13.43,17.64 C13.0787832,17.634637 12.795363,17.3512168 12.79,17 L12.79,13.76 C12.795363,13.4087832 13.0787832,13.125363 13.43,13.12 L16.71,13.12 C17.0612168,13.125363 17.344637,13.4087832 17.35,13.76 L17.36,17 Z" transform="translate(2 2)"/>
    </g>
  </g>
</svg>
