<svg width="24" height="24" viewBox="0 0 24 24" fill="none" xmlns="http://www.w3.org/2000/svg">
  <g clip-path="url(#clip0_1591_4886)">
    <path class="icon__shape" fill="currentColor"
      d="M20.7 0H3.3C1.48 0 0 1.48 0 3.31V20.7C0 22.52 1.48 24 3.3 24H20.7C22.52 24 24 22.52 24 20.7V3.31C24 1.48 22.52 0 20.7 0ZM20.99 3V6.17C20.99 6.25 20.92 6.34 20.85 6.41C20.16 7.17 19.46 7.94 18.69 8.66C18.12 7.05 17.11 5.94 15.8 4.97C16.43 4.34 17.04 3.72 17.66 3.12C17.74 3.04 17.89 3 18 3H20.99ZM3 18.29C3 18.19 3.07 18.07 3.13 17.99C4.69 16.4 6.26 14.81 7.84 13.19C9.19 14.01 10.48 14.81 11.82 15.63C11.7 15.77 11.63 15.86 11.54 15.95C9.86 17.66 8.19 19.37 6.5 21.06C6.33 21.24 6.05 21.36 5.81 21.36C4.89 21.4 3.96 21.37 3 21.37V18.29ZM13.48 9.13C11.99 8.04 10.27 8.4 8.98 10.12C8.74 9.97 8.52 9.85 8.3 9.73C8.66 8.59 10.11 7.65 11.55 7.6C13.24 7.55 14.73 8.57 15.35 10.21C15.89 11.66 15.52 13.38 14.44 14.33H14.43C14.24 14.14 14.05 13.96 13.86 13.77C15.04 11.96 14.89 10.15 13.48 9.13ZM11.57 22C11.44 22 11.31 21.98 11.18 21.97C10.21 21.88 9.43 21.45 8.75 20.77L9.77 19.73C10.94 20.86 13.4 21.06 14.18 18.8C14.47 17.95 14.64 17.07 14.93 16.22C15.17 15.51 15.43 14.8 15.79 14.16C16.83 12.28 16.82 10.43 15.6 8.69C14.41 6.98 12.69 6.37 10.69 6.77C8.67 7.17 7.47 8.53 6.95 10.52C6.91 10.67 6.88 10.8 6.83 10.99C6.44 10.75 6.07 10.56 5.76 10.3C5.65 10.2 5.61 9.92 5.67 9.76C6.44 7.25 8.13 5.72 10.65 5.31H10.67C13.23 4.88 15.38 5.78 16.84 7.98C18.32 10.2 18.32 12.52 17.08 14.91C16.57 15.91 16.29 17.05 15.92 18.14C15.77 18.55 15.68 18.98 15.54 19.4C15 20.98 14.01 21.89 12.29 22C12.06 22.02 11.82 22.02 11.57 22Z" />
  </g>
  <defs>
    <clipPath id="clip0_1591_4886">
      <rect width="24" height="24" fill="white" />
    </clipPath>
  </defs>
</svg>
