<svg xmlns="http://www.w3.org/2000/svg" width="24" height="24" viewBox="0 0 24 24">
  <g fill="none" fill-rule="evenodd" transform="translate(-264 -192)">
    <rect width="504" height="450" fill="#FFF"/>
    <g transform="translate(264 192)">
      <rect width="24" height="24"/>
      <g fill="#000" fill-rule="nonzero" transform="translate(2)">
        <path d="M7.16,9.57 C7.16,8.32735931 8.16735931,7.32 9.41,7.32 C10.6526407,7.32 11.66,8.32735931 11.66,9.57 C11.66,10.1222847 12.1077153,10.57 12.66,10.57 C13.2122847,10.57 13.66,10.1222847 13.66,9.57 C13.66,7.22278981 11.7572102,5.32 9.41,5.32 C7.06278981,5.32 5.16,7.22278981 5.16,9.57 C5.16,10.1222847 5.60771525,10.57 6.16,10.57 C6.71228475,10.57 7.16,10.1222847 7.16,9.57 Z M8.18,12.33 C7.78996255,11.9422764 7.16003745,11.9422764 6.77,12.33 L0.42,18.68 C0.13462384,18.9243899 0.0103180557,19.3081184 0.098189865,19.673419 C0.186061674,20.0387195 0.47128045,20.3239383 0.836581028,20.4118101 C1.2018816,20.4996819 1.58561012,20.3753762 1.83,20.09 L8.18,13.74 C8.56772359,13.3499625 8.56772359,12.7200375 8.18,12.33 L8.18,12.33 Z M19.78,0.73 C19.3899625,0.342276405 18.7600375,0.342276405 18.37,0.73 L16.16,2.94 C15.8746238,3.18438988 15.7503181,3.5681184 15.8381899,3.93341897 C15.9260617,4.29871955 16.2112805,4.58393833 16.576581,4.67181013 C16.9418816,4.75968194 17.3256101,4.63537616 17.57,4.35 L19.78,2.14 C20.1677236,1.74996255 20.1677236,1.12003745 19.78,0.73 L19.78,0.73 Z"/>
        <path d="M9.41,1.72 C5.17626001,1.7255091 1.7455091,5.15626001 1.74,9.39 C1.74,9.94228475 2.18771525,10.39 2.74,10.39 C3.29228475,10.39 3.74,9.94228475 3.74,9.39 C3.73861977,6.74026419 5.57262476,4.44290262 8.15683284,3.85726588 C10.7410409,3.27162914 13.3862673,4.55390121 14.5273296,6.94536073 C15.6683919,9.33682026 15.0009792,12.1996868 12.92,13.84 L11.39,15.08 C10.2490161,16.2914175 9.61868605,17.895894 9.63,19.56 L9.63,19.89 C9.63,20.75 9.15,21.39 8.71,21.39 L7.4,21.39 C6.84771525,21.39 6.4,21.8377153 6.4,22.39 C6.4,22.9422847 6.84771525,23.39 7.4,23.39 L8.72,23.39 C10.4854432,23.2158078 11.7850355,21.6580773 11.64,19.89 L11.64,19.56 C11.6259057,18.4912016 11.9788846,17.4499138 12.64,16.61 L14.14,15.39 C16.6838393,13.3644024 17.6738954,9.9548574 16.6105853,6.8818238 C15.5472753,3.80879019 12.6617309,1.74025396 9.41,1.72 L9.41,1.72 Z"/>
      </g>
    </g>
  </g>
</svg>
