<svg xmlns="http://www.w3.org/2000/svg" width="22" height="22" viewBox="0 0 22 22" fill="currentColor"
  class="icon__shape">
  <path fill-rule="evenodd" clip-rule="evenodd"
    d="M12.2327 0.425035C11.5086 -0.141678 10.4914 -0.141678 9.76733 0.425035L0.767326 7.46904C0.282988 7.84812 0 8.42896 0 9.04401V19.9998C0 21.1044 0.89543 21.9998 2 21.9998L6.99994 21.9999C8.10454 22 9 21.1045 9 19.9999V15C9 14.4477 9.44772 14 10 14H12C12.5523 14 13 14.4477 13 15V19.9998C13 21.1044 13.8954 21.9998 15 21.9998H20C21.1046 21.9998 22 21.1044 22 19.9998V9.04401C22 8.42896 21.717 7.84812 21.2327 7.46904L12.2327 0.425035ZM15 18.9505C15 19.5028 15.4477 19.9505 16 19.9505H19C19.5523 19.9505 20 19.5028 20 18.9505V9.66743C20 9.36332 19.8616 9.07573 19.624 8.88597L11.624 2.49821C11.259 2.20681 10.741 2.20681 10.376 2.49821L2.37603 8.88598C2.13839 9.07573 2 9.36332 2 9.66743V18.9505C2 19.5028 2.44772 19.9505 3 19.9505H6C6.55228 19.9505 7 19.5028 7 18.9505V14C7 12.8954 7.89543 12 9 12H13C14.1046 12 15 12.8954 15 14V18.9505Z"
    fill="white" />
</svg>
