<svg xmlns="http://www.w3.org/2000/svg" viewBox="0 0 24 24">
  <path fill="currentColor" class="icon__shape" d="M2.67,24c-.73,0-1.36-.26-1.88-.78s-.78-1.15-.78-1.88V2.67c0-.73.26-1.36.78-1.88s1.15-.78,1.88-.78h18.67c.73,0,1.36.26,1.88.78s.78,1.15.78,1.88v18.67c0,.73-.26,1.36-.78,1.88s-1.15.78-1.88.78H2.67ZM2.67,21.33h18.67V2.67H2.67v18.67ZM4,18.67h16l-5-6.67-4,5.33-3-4-4,5.33ZM7.33,9.33c.56,0,1.03-.19,1.42-.58s.58-.86.58-1.42-.19-1.03-.58-1.42c-.39-.39-.86-.58-1.42-.58s-1.03.19-1.42.58c-.39.39-.58.86-.58,1.42s.19,1.03.58,1.42c.39.39.86.58,1.42.58Z"/>
</svg>