<svg width="24" height="24" viewBox="0 0 24 24" fill="none" xmlns="http://www.w3.org/2000/svg">
<mask id="mask0_2291_211" style="mask-type:alpha" maskUnits="userSpaceOnUse" x="0" y="0" width="24" height="24">
<rect width="24" height="24" fill="#D9D9D9"/>
</mask>
<g mask="url(#mask0_2291_211)">
<path d="M3.33333 14C2.96667 14 2.65278 13.8694 2.39167 13.6083C2.13056 13.3472 2 13.0333 2 12.6667V3.33333C2 2.96667 2.13056 2.65278 2.39167 2.39167C2.65278 2.13056 2.96667 2 3.33333 2H12.6667C13.0333 2 13.3472 2.13056 13.6083 2.39167C13.8694 2.65278 14 2.96667 14 3.33333V12.6667C14 13.0333 13.8694 13.3472 13.6083 13.6083C13.3472 13.8694 13.0333 14 12.6667 14H3.33333ZM3.33333 12.6667H12.6667V3.33333H3.33333V12.6667ZM4 11.3333H12L9.5 8L7.5 10.6667L6 8.66667L4 11.3333ZM5.66667 6.66667C5.94444 6.66667 6.18056 6.56944 6.375 6.375C6.56944 6.18056 6.66667 5.94444 6.66667 5.66667C6.66667 5.38889 6.56944 5.15278 6.375 4.95833C6.18056 4.76389 5.94444 4.66667 5.66667 4.66667C5.38889 4.66667 5.15278 4.76389 4.95833 4.95833C4.76389 5.15278 4.66667 5.38889 4.66667 5.66667C4.66667 5.94444 4.76389 6.18056 4.95833 6.375C5.15278 6.56944 5.38889 6.66667 5.66667 6.66667Z" fill="#6A6A6A"/>
</g>
</svg>
