<svg width="24" height="24" viewBox="0 0 24 24" fill="none" xmlns="http://www.w3.org/2000/svg">
  <g clip-path="url(#clip0_8324_4095)">
    <path fill-rule="evenodd" clip-rule="evenodd"
      d="M0 4C0 1.79086 1.79086 0 4 0H20C22.2091 0 24 1.79086 24 4V20C24 22.2091 22.2091 24 20 24H4C1.79086 24 0 22.2091 0 20V4ZM10.1371 9.95967C10.1371 8.87905 10.9754 7.99887 12.0045 7.99887C13.0337 7.99887 13.8719 8.87905 13.8719 9.95967C13.8719 10.4416 14.2429 10.8311 14.7019 10.8311C15.1609 10.8311 15.5319 10.4416 15.5319 9.95967C15.5319 7.91695 13.95 6.25593 12.0045 6.25593C10.0591 6.25593 8.47715 7.91695 8.47715 9.95967C8.47715 10.4416 8.84815 10.8311 9.30712 10.8311C9.76609 10.8311 10.1371 10.4416 10.1371 9.95967ZM9.81287 12.3643C10.1374 12.0236 10.6619 12.0236 10.9864 12.3643C11.311 12.7051 11.311 13.2558 10.9864 13.5966L5.71615 19.1304C5.5543 19.3003 5.34183 19.3857 5.12936 19.3857C4.91772 19.3857 4.70524 19.3003 4.54257 19.1304C4.21888 18.7897 4.21888 18.238 4.54257 17.8981L9.81287 12.3643ZM20.6134 2.25556C20.2889 1.91481 19.7644 1.91481 19.4399 2.25556L17.604 4.18324C17.2794 4.52399 17.2794 5.07475 17.604 5.4155C17.7658 5.58543 17.9783 5.67084 18.1908 5.67084C18.4032 5.67084 18.6157 5.58543 18.7775 5.4155L20.6134 3.48781C20.9379 3.14707 20.9379 2.5963 20.6134 2.25556ZM6.47128 10.6709C6.0123 10.6709 5.64131 10.2814 5.64131 9.79946C5.64131 6.1149 8.49557 3.11793 12.0047 3.11793C15.5138 3.11793 18.3672 6.1149 18.3672 9.79946C18.3672 11.8483 17.4899 13.7551 15.9611 15.0318L14.7195 16.0923C14.3203 16.4549 13.853 17.6409 13.853 18.6597V18.9499C13.853 20.6318 12.7666 22 11.432 22H10.3389C9.87996 22 9.50896 21.6105 9.50896 21.1285C9.50896 20.6466 9.87996 20.2571 10.3389 20.2571H11.432C11.7905 20.2571 12.1931 19.6976 12.1931 18.9499V18.6597C12.1931 17.1895 12.8205 15.5119 13.653 14.7555L14.9212 13.6731C16.0591 12.7232 16.7073 11.3132 16.7073 9.79946C16.7073 7.07613 14.5975 4.86086 12.0047 4.86086C9.41103 4.86086 7.30125 7.07613 7.30125 9.79946C7.30125 10.2814 6.93025 10.6709 6.47128 10.6709Z"
      class="icon__shape" fill="currentColor" />
  </g>
  <defs>
    <clipPath id="clip0_8324_4095">
      <rect width="24" height="24" fill="white" />
    </clipPath>
  </defs>
</svg>
