<svg width="24" height="24" viewBox="0 0 24 24" fill="none" xmlns="http://www.w3.org/2000/svg">
  <path fill-rule="evenodd" clip-rule="evenodd"
    d="M10.137 9.95971C10.137 8.8791 10.9753 7.99891 12.0044 7.99891C13.0336 7.99891 13.8718 8.8791 13.8718 9.95971C13.8718 10.4416 14.2428 10.8312 14.7018 10.8312C15.1608 10.8312 15.5318 10.4416 15.5318 9.95971C15.5318 7.917 13.9499 6.25598 12.0044 6.25598C10.059 6.25598 8.47705 7.917 8.47705 9.95971C8.47705 10.4416 8.84805 10.8312 9.30702 10.8312C9.76599 10.8312 10.137 10.4416 10.137 9.95971Z"
    fill="#292929" />
  <path fill-rule="evenodd" clip-rule="evenodd"
    d="M10.9864 12.3643C10.6619 12.0236 10.1374 12.0236 9.81287 12.3643L4.54257 17.8981C4.21888 18.238 4.21888 18.7896 4.54257 19.1304C4.70524 19.3003 4.91772 19.3857 5.12936 19.3857C5.34183 19.3857 5.5543 19.3003 5.71615 19.1304L10.9864 13.5966C11.311 13.2558 11.311 12.7051 10.9864 12.3643Z"
    fill="#292929" />
  <path fill-rule="evenodd" clip-rule="evenodd"
    d="M20.6134 2.25556C20.2889 1.91481 19.7644 1.91481 19.4399 2.25556L17.604 4.18324C17.2795 4.52399 17.2795 5.07475 17.604 5.4155C17.7658 5.58543 17.9783 5.67084 18.1908 5.67084C18.4032 5.67084 18.6157 5.58543 18.7776 5.4155L20.6134 3.48781C20.938 3.14707 20.938 2.5963 20.6134 2.25556Z"
    fill="#292929" />
  <path fill-rule="evenodd" clip-rule="evenodd"
    d="M5.64136 9.79946C5.64136 10.2814 6.01235 10.6709 6.47133 10.6709C6.9303 10.6709 7.30129 10.2814 7.30129 9.79946C7.30129 7.07612 9.41107 4.86085 12.0047 4.86085C14.5975 4.86085 16.7073 7.07612 16.7073 9.79946C16.7073 11.3132 16.0591 12.7232 14.9212 13.6731L13.653 14.7555C12.8206 15.5119 12.1931 17.1895 12.1931 18.6597V18.9499C12.1931 19.6976 11.7906 20.2571 11.432 20.2571H10.339C9.88001 20.2571 9.50901 20.6466 9.50901 21.1285C9.50901 21.6104 9.88001 22 10.339 22H11.432C12.7666 22 13.8531 20.6318 13.8531 18.9499V18.6597C13.8531 17.6409 14.3203 16.4548 14.7196 16.0923L15.9612 15.0317C17.49 13.755 18.3673 11.8483 18.3673 9.79946C18.3673 6.11489 15.5138 3.11792 12.0047 3.11792C8.49562 3.11792 5.64136 6.11489 5.64136 9.79946Z"
    fill="#292929" />
</svg>
