<svg xmlns="http://www.w3.org/2000/svg" width="24" height="24" viewBox="0 0 24 24">
  <g fill="none" fill-rule="evenodd" transform="translate(-360 -192)">
    <rect width="504" height="450" fill="#FFF"/>
    <g transform="translate(360 192)">
      <rect width="24" height="24"/>
      <g fill="#000" fill-rule="nonzero" transform="translate(8 3)">
        <path d="M6.25,15.34 L5,15.34 L5,8.07 C5,7.51771525 4.55228475,7.07 4,7.07 L1.75,7.07 C1.19771525,7.07 0.75,7.51771525 0.75,8.07 C0.75,8.62228475 1.19771525,9.07 1.75,9.07 L3,9.07 L3,15.33 L1.75,15.33 C1.19771525,15.33 0.75,15.7777153 0.75,16.33 C0.75,16.8822847 1.19771525,17.33 1.75,17.33 L6.25,17.33 C6.80228475,17.33 7.25,16.8822847 7.25,16.33 C7.25,15.7777153 6.80228475,15.33 6.25,15.33 L6.25,15.34 Z"/>
        <circle cx="4" cy="2.79" r="2.13"/>
      </g>
    </g>
  </g>
</svg>
