<svg xmlns="http://www.w3.org/2000/svg" width="24" height="24" viewBox="0 0 24 24">
  <g fill="none" fill-rule="evenodd" transform="translate(-24 -234)">
    <rect width="504" height="450" fill="#FFF"/>
    <g transform="translate(24 234)">
      <rect width="24" height="24"/>
      <path fill="#000" fill-rule="nonzero" d="M21.71,7 C21.7450148,4.54804301 20.2844176,2.32154785 18.0213634,1.37714095 C15.7583091,0.432734056 13.1483132,0.960509017 11.43,2.71 L10.94,3.2 L10.45,2.71 C8.09726697,0.357266966 4.28273303,0.357266966 1.93,2.71 C-0.422733034,5.06273303 -0.422733034,8.87726697 1.93,11.23 L10.24,19.54 C10.6300375,19.9277236 11.2599625,19.9277236 11.65,19.54 C11.6758512,19.5049977 11.6992408,19.4682427 11.72,19.43 L20,11.23 C21.1047788,10.1001896 21.7192568,8.5801652 21.71,7 Z M18.54,9.85 L10.94,17.45 L3.34,9.85 C1.75770423,8.28703415 1.74203422,5.73729583 3.30500004,4.15500004 C4.86796587,2.57270425 7.41770419,2.5570342 9,4.12 L10.2,5.32 C10.5900375,5.70772359 11.2199625,5.70772359 11.61,5.32 L12.81,4.12 C14.3812501,2.54874989 16.9287499,2.54874989 18.5,4.12 C20.0712501,5.69125011 20.0712501,8.23874989 18.5,9.81 L18.54,9.85 Z" transform="translate(1 2)"/>
    </g>
  </g>
</svg>
