<svg xmlns="http://www.w3.org/2000/svg" width="24" height="24" viewBox="0 0 24 24">
  <g fill="none" fill-rule="evenodd" transform="translate(-72 -234)">
    <rect width="504" height="450" fill="#FFF"/>
    <g transform="translate(72 234)">
      <rect width="24" height="24"/>
      <path fill="#000" fill-rule="nonzero" d="M7.12,12.76 C6.12312603,13.7596354 4.5046354,13.761874 3.505,12.765 C2.5053646,11.768126 2.50312603,10.1496354 3.5,9.15 L7.75,4.9 C8.76552738,4.02777635 10.2815802,4.0852373 11.2281715,5.03182854 C12.1747627,5.97841977 12.2322236,7.49447262 11.36,8.51 C11.0202232,8.90676028 11.0430677,9.49819417 11.4124368,9.86756322 C11.7818058,10.2369323 12.3732397,10.2597768 12.77,9.92 C14.3555423,8.11482797 14.2684164,5.38908564 12.5708269,3.68885607 C10.8732374,1.9886265 8.14763378,1.89726481 6.34,3.48 L2.09,7.73 C0.311643151,9.5083569 0.311643172,12.3916431 2.09000005,14.17 C3.86835692,15.9483568 6.7516431,15.9483568 8.53,14.17 C8.8697768,13.7732397 8.84693227,13.1818058 8.47756322,12.8124368 C8.10819417,12.4430677 7.51676028,12.4202232 7.12,12.76 L7.12,12.76 Z M19.84,1.45 C18.0602221,-0.324922894 15.1797779,-0.324922894 13.4,1.45 C13.0602232,1.84676028 13.0830677,2.43819417 13.4524368,2.80756322 C13.8218058,3.17693227 14.4132397,3.1997768 14.81,2.86 C15.806874,1.86312605 17.423126,1.86312606 18.42,2.86000003 C19.4168739,3.85687399 19.4168739,5.47312602 18.42,6.47 L14.17,10.72 C13.1566387,11.6762419 11.5733613,11.6762419 10.56,10.72 C9.56716248,9.72145746 9.56716248,8.10854254 10.56,7.11 C10.8997768,6.71323972 10.8769323,6.12180583 10.5075632,5.75243678 C10.1381942,5.38306773 9.54676028,5.3602232 9.15,5.7 C7.37164315,7.4783569 7.37164317,10.3616431 9.15000005,12.14 C10.9283569,13.9183568 13.8116431,13.9183568 15.59,12.14 L19.84,7.89 C21.6149229,6.11022207 21.6149229,3.22977793 19.84,1.45 L19.84,1.45 Z" transform="translate(1 4)"/>
    </g>
  </g>
</svg>
