<svg xmlns="http://www.w3.org/2000/svg" width="24" height="24" viewBox="0 0 24 24">
  <g fill="none" fill-rule="evenodd" transform="translate(-120 -234)">
    <rect width="504" height="450" fill="#FFF"/>
    <g transform="translate(120 234)">
      <rect width="24" height="24"/>
      <g fill="#000" fill-rule="nonzero" transform="translate(2 3)">
        <path d="M7,3.53 L19,3.53 C19.5522847,3.53 20,3.08228475 20,2.53 C20,1.97771525 19.5522847,1.53 19,1.53 L7,1.53 C6.44771525,1.53 6,1.97771525 6,2.53 C6,3.08228475 6.44771525,3.53 7,3.53 Z M19,8.53 L7,8.53 C6.44771525,8.53 6,8.97771525 6,9.53 C6,10.0822847 6.44771525,10.53 7,10.53 L19,10.53 C19.5522847,10.53 20,10.0822847 20,9.53 C20,8.97771525 19.5522847,8.53 19,8.53 Z M19,15.53 L7,15.53 C6.44771525,15.53 6,15.9777153 6,16.53 C6,17.0822847 6.44771525,17.53 7,17.53 L19,17.53 C19.5522847,17.53 20,17.0822847 20,16.53 C20,15.9777153 19.5522847,15.53 19,15.53 Z"/>
        <circle cx="2.01" cy="16.53" r="2"/>
        <circle cx="2.01" cy="9.53" r="2"/>
        <circle cx="2.01" cy="2.53" r="2"/>
      </g>
    </g>
  </g>
</svg>
