<svg xmlns="http://www.w3.org/2000/svg" viewBox="0 0 24 24"><path class="icon__shape" fill="currentColor" fill-rule="nonzero" d="M21.6 5.36a2.06 2.06 0 0 0-1.85-.28l-4.63 1.53-5.65-1.88a2.06 2.06 0 0 0-1.3 0L3.62 6.24A3.1 3.1 0 0 0 1.5 9.19v8.6a2.05 2.05 0 0 0 2.7 1.95l4.63-1.54 5.65 1.88a2 2 0 0 0 .65.1c.22.002.44-.032.65-.1l4.54-1.51a3.1 3.1 0 0 0 2.12-2.95V7a2.06 2.06 0 0 0-.84-1.64zM3.5 17.79v-8.6a1.1 1.1 0 0 1 .76-1l4.08-1.4v9.49h-.18L3.5 17.79zm16.95-2.16a1.11 1.11 0 0 1-.76 1l-3 1v-6.27a1 1 0 0 0-2 0V18l-4.35-1.4V7.13l4.14 1.38a2.07 2.07 0 0 0 1.29 0L20.45 7v8.63z"/></svg>
