<svg xmlns="http://www.w3.org/2000/svg" width="24" height="24" viewBox="0 0 24 24">
  <g fill="none" fill-rule="evenodd" transform="translate(-216 -234)">
    <rect width="504" height="450" fill="#FFF"/>
    <g transform="translate(216 234)">
      <rect width="24" height="24"/>
      <path fill="#000" fill-rule="nonzero" d="M20.6,1.36 C20.0637351,0.975841471 19.3759281,0.871740965 18.75,1.08 L14.12,2.61 L8.47,0.73 C8.04802537,0.58968455 7.59197463,0.58968455 7.17,0.73 L2.62,2.24 C1.35084118,2.66289996 0.496126772,3.85224311 0.5,5.19 L0.5,13.79 C0.498138103,14.4502998 0.814442789,15.0710721 1.34973621,15.4576729 C1.88502964,15.8442737 2.57376939,15.9493668 3.2,15.74 L7.83,14.2 L13.48,16.08 C13.6896644,16.1489716 13.9092997,16.1827616 14.13,16.18 C14.3506112,16.1815175 14.5700466,16.1477582 14.78,16.08 L19.32,14.57 C20.5891588,14.1471 21.4438732,12.9577569 21.44,11.62 L21.44,3 C21.4337201,2.3515962 21.1225091,1.74399373 20.6,1.36 Z M2.5,13.79 L2.5,5.19 C2.51941906,4.73058161 2.82255493,4.33171862 3.26,4.19 L7.34,2.79 L7.34,12.28 L7.16,12.28 L2.5,13.79 Z M19.45,11.63 C19.4277528,12.0883937 19.1257005,12.4858309 18.69,12.63 L15.69,13.63 L15.69,7.36 C15.69,6.80771525 15.2422847,6.36 14.69,6.36 C14.1377153,6.36 13.69,6.80771525 13.69,7.36 L13.69,14 L9.34,12.6 L9.34,3.13 L13.48,4.51 C13.899023,4.64740586 14.350977,4.64740586 14.77,4.51 L19.45,3 L19.45,11.63 Z" transform="translate(1 4)"/>
    </g>
  </g>
</svg>
