<svg viewBox="0 0 24 24" xmlns="http://www.w3.org/2000/svg"><path d="M9.36914 13.2246C9.76191 12.9043 10.3409 12.9269 10.707 13.293C11.0731 13.6591 11.0957 14.2381 10.7754 14.6309L10.707 14.707L5.41406 20H9C9.55228 20 10 20.4477 10 21C10 21.5523 9.55228 22 9 22H3C2.94333 22 2.88808 21.9934 2.83398 21.9844C2.82358 21.9826 2.81309 21.9816 2.80273 21.9795C2.79123 21.9772 2.77991 21.9744 2.76855 21.9717C2.74799 21.9668 2.72732 21.9623 2.70703 21.9561C2.65838 21.9412 2.61159 21.9222 2.56641 21.9004C2.52662 21.8812 2.48768 21.8597 2.4502 21.835C2.31255 21.7441 2.19887 21.6203 2.12012 21.4746C2.11269 21.4609 2.10634 21.4466 2.09961 21.4326C2.0778 21.3873 2.05783 21.3408 2.04297 21.292C2.0303 21.2503 2.02176 21.2077 2.01465 21.165C2.00571 21.1113 2 21.0563 2 21V15C2 14.4477 2.44772 14 3 14C3.55228 14 4 14.4477 4 15V18.5859L9.29297 13.293L9.36914 13.2246Z" class="icon__shape" fill="currentColor" /><path d="M21.0205 2.00098C21.0381 2.00133 21.0557 2.00165 21.0732 2.00293L21.1025 2.00488C21.2327 2.01814 21.3553 2.05687 21.4658 2.11523C21.471 2.11794 21.4763 2.12024 21.4814 2.12305L21.5342 2.1543C21.5395 2.15768 21.5445 2.16156 21.5498 2.16504C21.5582 2.17055 21.566 2.17683 21.5742 2.18262C21.5927 2.19565 21.6114 2.20843 21.6289 2.22266C21.6343 2.22701 21.6392 2.23185 21.6445 2.23633C21.6623 2.25138 21.6796 2.26696 21.6963 2.2832C21.6998 2.28657 21.7036 2.28954 21.707 2.29297C21.7101 2.29607 21.7128 2.29961 21.7158 2.30273C21.7533 2.34121 21.7874 2.38267 21.8184 2.42676C21.8243 2.43521 21.8303 2.44356 21.8359 2.45215C21.8452 2.4662 21.8538 2.48059 21.8623 2.49512C21.8679 2.50458 21.8737 2.51383 21.8789 2.52344C21.8901 2.54413 21.9004 2.56537 21.9102 2.58691C21.9137 2.59464 21.9166 2.60256 21.9199 2.61035C21.9279 2.6292 21.9346 2.64855 21.9414 2.66797C21.9452 2.67868 21.9488 2.68938 21.9521 2.7002C21.958 2.71893 21.9639 2.73764 21.9688 2.75684C21.9707 2.76466 21.9728 2.77241 21.9746 2.78027C21.9795 2.80187 21.9839 2.82361 21.9873 2.8457C21.9892 2.85805 21.9907 2.87042 21.9922 2.88281C21.9936 2.89511 21.9941 2.90749 21.9951 2.91992C21.9967 2.94011 21.9986 2.96023 21.999 2.98047C21.9991 2.98697 22 2.99347 22 3V9C22 9.55228 21.5523 10 21 10C20.4477 10 20 9.55228 20 9V5.41406L14.707 10.707C14.3165 11.0976 13.6835 11.0976 13.293 10.707C12.9024 10.3165 12.9024 9.68349 13.293 9.29297L18.5859 4H15C14.4477 4 14 3.55228 14 3C14 2.44772 14.4477 2 15 2H21L21.0205 2.00098Z" class="icon__shape" fill="currentColor" /></svg>