<svg xmlns="http://www.w3.org/2000/svg" width="24" height="24" viewBox="0 0 24 24">
  <g fill="none" fill-rule="evenodd" transform="translate(-264 -234)">
    <rect width="504" height="450" fill="#FFF"/>
    <g transform="translate(264 234)">
      <rect width="24" height="24"/>
      <path fill="#000" fill-rule="nonzero" d="M20,0.43 L4,0.43 C1.790861,0.43 2.22044605e-16,2.220861 0,4.43 L0,14.43 C2.22044605e-16,16.639139 1.790861,18.43 4,18.43 L20,18.43 C22.209139,18.43 24,16.639139 24,14.43 L24,4.43 C24,2.220861 22.209139,0.43 20,0.43 Z M22,14.43 C22,15.5345695 21.1045695,16.43 20,16.43 L4,16.43 C2.8954305,16.43 2,15.5345695 2,14.43 L2,4.43 C2,3.3254305 2.8954305,2.43 4,2.43 L20,2.43 C21.1045695,2.43 22,3.3254305 22,4.43 L22,14.43 Z M18.8,7.72 L14.3,7.72 C13.7477153,7.72 13.3,8.16771525 13.3,8.72 C13.3,9.27228475 13.7477153,9.72 14.3,9.72 L18.8,9.72 C19.3522847,9.72 19.8,9.27228475 19.8,8.72 C19.8,8.16771525 19.3522847,7.72 18.8,7.72 Z M10.18,9.87 C11.2638144,9.0423499 11.6992678,7.61579746 11.2624221,6.32396768 C10.8255764,5.0321379 9.61369291,4.16264961 8.25,4.16264961 C6.88630709,4.16264961 5.67442356,5.0321379 5.23757786,6.32396768 C4.80073217,7.61579746 5.2361856,9.0423499 6.32,9.87 C4.71857161,10.6193531 3.69947127,12.2319525 3.71,14 C3.71,14.5522847 4.15771525,15 4.71,15 L11.78,15 C12.3322847,15 12.78,14.5522847 12.78,14 C12.7923393,12.2342561 11.7775284,10.6222679 10.18,9.87 L10.18,9.87 Z M8.25,6.18 C8.72726545,6.18 9.15753627,6.46749777 9.34017785,6.90843355 C9.52281943,7.34936933 9.42186364,7.85690837 9.084386,8.194386 C8.74690837,8.53186364 8.23936933,8.63281943 7.79843355,8.45017785 C7.35749777,8.26753627 7.07,7.83726545 7.07,7.36 C7.07,6.708304 7.598304,6.18 8.25,6.18 L8.25,6.18 Z M5.92,13 C6.3228529,12.0718284 7.23817342,11.4712863 8.25,11.4712863 C9.26182658,11.4712863 10.1771471,12.0718284 10.58,13 L5.92,13 Z M18.8,4.18 L14.3,4.18 C13.7477153,4.18 13.3,4.62771525 13.3,5.18 C13.3,5.73228475 13.7477153,6.18 14.3,6.18 L18.8,6.18 C19.3522847,6.18 19.8,5.73228475 19.8,5.18 C19.8,4.62771525 19.3522847,4.18 18.8,4.18 Z" transform="translate(0 3)"/>
    </g>
  </g>
</svg>
