<svg xmlns="http://www.w3.org/2000/svg" width="24" height="24" viewBox="0 0 24 24">
  <g fill="none" fill-rule="evenodd" transform="translate(-312 -234)">
    <rect width="504" height="450" fill="#FFF"/>
    <g transform="translate(312 234)">
      <rect width="24" height="24"/>
      <g fill="#000" fill-rule="nonzero" transform="translate(1 3)">
        <path d="M4.47,3.71 L17.47,3.71 L17.47,5.34 L4.47,5.34 L4.47,3.71 Z M4.47,10.21 L17.47,10.21 L17.47,11.84 L4.47,11.84 L4.47,10.21 Z M4.47,6.96 L17.47,6.96 L17.47,8.59 L4.47,8.59 L4.47,6.96 Z"/>
        <path d="M18.47,0.34 L3.47,0.34 C1.84755508,0.420265353 0.550265353,1.71755508 0.47,3.34 L0.47,12.34 C0.550265353,13.9624449 1.84755508,15.2597346 3.47,15.34 L3.47,18.34 C3.49076209,18.7328651 3.73994555,19.0770532 4.10668951,19.2194361 C4.47343347,19.3618191 4.88958512,19.2759376 5.17,19 L8.88,15.29 L18.47,15.29 C20.0924449,15.2097346 21.3897346,13.9124449 21.47,12.29 L21.47,3.29 C21.3651406,1.6870969 20.074439,0.417906924 18.47,0.34 L18.47,0.34 Z M19.47,12.34 C19.3986313,12.8598666 18.9898666,13.2686313 18.47,13.34 L8.47,13.34 C8.20419702,13.3384632 7.94871883,13.4428135 7.76,13.63 L5.47,15.93 L5.47,14.34 C5.47,13.7877153 5.02228475,13.34 4.47,13.34 L3.47,13.34 C2.9501334,13.2686313 2.54136867,12.8598666 2.47,12.34 L2.47,3.34 C2.54136867,2.8201334 2.9501334,2.41136867 3.47,2.34 L18.47,2.34 C18.9898666,2.41136867 19.3986313,2.8201334 19.47,3.34 L19.47,12.34 Z"/>
      </g>
    </g>
  </g>
</svg>
