<svg viewBox="0 0 24 24" xmlns="http://www.w3.org/2000/svg"><path d="M10.0206 13.0012C10.0382 13.0016 10.0558 13.0019 10.0734 13.0032L10.1027 13.0051C10.1122 13.0061 10.1216 13.0078 10.131 13.009C10.1365 13.0097 10.1421 13.0101 10.1476 13.011C10.17 13.0143 10.1921 13.0179 10.214 13.0227C10.2271 13.0255 10.2401 13.0291 10.2531 13.0324C10.2692 13.0367 10.2851 13.0411 10.3009 13.0461C10.3124 13.0497 10.3237 13.0538 10.3351 13.0578C10.3546 13.0648 10.3738 13.0722 10.3927 13.0803C10.3999 13.0834 10.407 13.0868 10.4142 13.0901C10.4317 13.0981 10.449 13.1065 10.4659 13.1155C10.4711 13.1182 10.4765 13.1205 10.4816 13.1233L10.5343 13.1545C10.5396 13.1579 10.5447 13.1618 10.5499 13.1653C10.5583 13.1708 10.5661 13.177 10.5743 13.1828C10.5929 13.1959 10.6115 13.2086 10.629 13.2229C10.6344 13.2272 10.6394 13.2321 10.6447 13.2366C10.6625 13.2516 10.6797 13.2672 10.6964 13.2834C10.6998 13.2867 10.7038 13.2898 10.7072 13.2932C10.7103 13.2963 10.7129 13.2998 10.7159 13.303C10.7534 13.3414 10.7876 13.3829 10.8185 13.427C10.8244 13.4354 10.8304 13.4438 10.8361 13.4524C10.8453 13.4664 10.8539 13.4808 10.8624 13.4953C10.868 13.5048 10.8738 13.5141 10.879 13.5237C10.8894 13.5428 10.8992 13.5624 10.9083 13.5823C10.9126 13.5916 10.9161 13.6012 10.9201 13.6106C10.9516 13.685 10.9747 13.7636 10.9874 13.8459C10.9893 13.8583 10.9909 13.8706 10.9923 13.883C10.9937 13.8953 10.9943 13.9077 10.9952 13.9201C10.9968 13.9403 10.9988 13.9605 10.9992 13.9807C10.9993 13.9871 11.0001 13.9938 11.0001 14.0002V20.0002C11 20.5524 10.5523 21.0002 10.0001 21.0002C9.44792 21.0002 9.00026 20.5524 9.00013 20.0002V16.4143L3.70716 21.7073C3.31668 22.0976 2.68361 22.0976 2.2931 21.7073C1.9026 21.3168 1.90265 20.6837 2.2931 20.2932L7.58607 15.0002H4.00013C3.44792 15.0002 3.00026 14.5524 3.00013 14.0002C3.00013 13.4479 3.44784 13.0002 4.00013 13.0002H10.0001L10.0206 13.0012Z" class="icon__shape" fill="currentColor" /><path d="M20.3693 2.22483C20.762 1.90448 21.341 1.92708 21.7072 2.29319C22.0731 2.65932 22.0958 3.23836 21.7755 3.63108L21.7072 3.70725L16.4142 9.00022H20.0001C20.5524 9.00026 21.0001 9.44796 21.0001 10.0002C21 10.5524 20.5523 11.0002 20.0001 11.0002H14.0001C13.934 11.0002 13.868 10.9928 13.8029 10.9797C13.7914 10.9774 13.78 10.9746 13.7687 10.9719C13.7481 10.967 13.7274 10.9625 13.7072 10.9563C13.6935 10.9521 13.6805 10.9464 13.6671 10.9416C13.6497 10.9355 13.6324 10.9292 13.6154 10.9221C13.6065 10.9184 13.5978 10.9143 13.589 10.9104C13.5414 10.8889 13.4948 10.8645 13.4503 10.8352C13.3384 10.7613 13.2425 10.6655 13.1681 10.5539C13.1402 10.5121 13.1158 10.4687 13.0949 10.4241C13.0748 10.3813 13.057 10.3371 13.0431 10.2912C13.038 10.2745 13.0346 10.2574 13.0304 10.2405C13.0114 10.1634 13.0001 10.0831 13.0001 10.0002V4.00022C13.0001 3.44794 13.4478 3.00022 14.0001 3.00022C14.5524 3.00026 15.0001 3.44796 15.0001 4.00022V7.58616L20.2931 2.29319L20.3693 2.22483Z" class="icon__shape" fill="currentColor" /></svg>