<svg xmlns="http://www.w3.org/2000/svg" width="24" height="24" viewBox="0 0 24 24">
  <g fill="none" fill-rule="evenodd" transform="translate(-408 -234)">
    <rect width="504" height="450" fill="#FFF"/>
    <g transform="translate(408 234)">
      <rect width="24" height="24"/>
      <path fill="#000" fill-rule="nonzero" d="M6.3,0.73 C5.87933029,0.602725144 5.42486896,0.765032762 5.18,1.13 L3.46,3.71 L1,3.71 C0.44771525,3.71 0,4.15771525 0,4.71 L0,11.71 C0,12.2622847 0.44771525,12.71 1,12.71 L3.46,12.71 L5.18,15.25 C5.36627044,15.5255788 5.67737392,15.6905011 6.01,15.69 C6.10615315,15.7040911 6.20384685,15.7040911 6.3,15.69 C6.73728287,15.5579485 7.02950364,15.1463699 7.01,14.69 L7.01,1.69 C7.01131269,1.24831731 6.72270456,0.858086595 6.3,0.73 L6.3,0.73 Z M5,11.43 L4.81,11.14 C4.62551061,10.8740146 4.3236823,10.7137848 4,10.71 L2,10.71 L2,5.71 L4,5.71 C4.33262608,5.71050114 4.64372956,5.54557882 4.83,5.27 L5,5 L5,11.43 Z M15.26,8.19 L18.87,4.58 C19.2097768,4.18323972 19.1869323,3.59180583 18.8175632,3.22243678 C18.4481942,2.85306773 17.8567603,2.8302232 17.46,3.17 L13.85,6.78 L10.24,3.17 C9.84323972,2.8302232 9.25180583,2.85306773 8.88243678,3.22243678 C8.51306773,3.59180583 8.4902232,4.18323972 8.83,4.58 L12.44,8.19 L8.82,11.8 C8.53462384,12.0443899 8.41031806,12.4281184 8.49818987,12.793419 C8.58606167,13.1587195 8.87128045,13.4439383 9.23658103,13.5318101 C9.6018816,13.6196819 9.98561012,13.4953762 10.23,13.21 L13.84,9.6 L17.45,13.21 C17.8467603,13.5497768 18.4381942,13.5269323 18.8075632,13.1575632 C19.1769323,12.7881942 19.1997768,12.1967603 18.86,11.8 L15.26,8.19 Z" transform="translate(2 4)"/>
    </g>
  </g>
</svg>
