<svg xmlns="http://www.w3.org/2000/svg" viewBox="0 0 24 24"><path class="icon__shape" fill="currentColor" fill-rule="nonzero" d="M16.94 14.5a3.4 3.4 0 0 0-2.65 1.29l-5.4-2.22a3.26 3.26 0 0 0 0-1.45l4.44-2.4a4.69 4.69 0 1 0-1.08-3c.006.399.063.796.17 1.18l-4.56 2.49a3.41 3.41 0 1 0 .07 4.94l5.63 2.31v.27a3.42 3.42 0 1 0 3.42-3.42l-.04.01zm0-10.5a2.72 2.72 0 1 1 0 5.44 2.72 2.72 0 0 1 0-5.44zM5.54 14.3a1.42 1.42 0 1 1 1.18-2.19 1.4 1.4 0 0 1 .21.73 1.42 1.42 0 0 1-1.39 1.46zm11.4 5a1.42 1.42 0 1 1 1.42-1.42 1.42 1.42 0 0 1-1.42 1.45v-.03z"/></svg>
