<svg xmlns="http://www.w3.org/2000/svg" width="24" height="24" viewBox="0 0 24 24">
  <g fill="none" fill-rule="evenodd" transform="translate(-456 -234)">
    <rect width="504" height="450" fill="#FFF"/>
    <g transform="translate(456 234)">
      <rect width="24" height="24"/>
      <path fill="#000" fill-rule="nonzero" d="M14.94,12.5 C13.9065164,12.5048923 12.9313633,12.9795895 12.29,13.79 L6.89,11.57 C6.99885276,11.0927954 6.99885276,10.5972046 6.89,10.12 L11.33,7.72 C12.7842292,9.47342826 15.2881285,9.9283275 17.2661835,8.79846406 C19.2442386,7.66860062 20.1243618,5.2807505 19.3527581,3.13740708 C18.5811545,0.994063656 16.3809851,-0.284881168 14.1366502,0.105315804 C11.8923152,0.495512777 10.252915,2.44199985 10.25,4.72 C10.2559116,5.11898954 10.3130457,5.51556747 10.42,5.9 L5.86,8.39 C4.49358709,7.12609832 2.36609362,7.19141561 1.07978853,8.53675978 C-0.20651656,9.88210394 -0.176358714,12.0103862 1.14754943,13.3187435 C2.47145758,14.6271009 4.59994759,14.6321107 5.93,13.33 L11.56,15.64 L11.56,15.91 C11.56,17.7988138 13.0911862,19.33 14.98,19.33 C16.8688138,19.33 18.4,17.7988138 18.4,15.91 C18.4,14.0211862 16.8688138,12.49 14.98,12.49 L14.94,12.5 Z M14.94,2 C16.4422145,2 17.66,3.21778548 17.66,4.72 C17.66,6.22221452 16.4422145,7.44 14.94,7.44 C13.4377855,7.44 12.22,6.22221452 12.22,4.72 C12.22,3.21778548 13.4377855,2 14.94,2 Z M3.54,12.3 C2.85811579,12.3062747 2.26804882,11.8269574 2.13445192,11.1582592 C2.00085501,10.489561 2.36145418,9.82031338 2.99340436,9.56410171 C3.62535454,9.30789003 4.35020136,9.53706508 4.72,10.11 C4.85593712,10.3293304 4.9286124,10.5819635 4.93,10.84 C4.94074306,11.2183404 4.7999982,11.5853137 4.53901548,11.8594394 C4.27803277,12.1335651 3.91841164,12.2921562 3.54,12.3 L3.54,12.3 Z M14.94,17.3 C14.1557557,17.3 13.52,16.6642443 13.52,15.88 C13.52,15.0957557 14.1557557,14.46 14.94,14.46 C15.7242443,14.46 16.36,15.0957557 16.36,15.88 C16.3680675,16.2617781 16.22203,16.6307159 15.9548489,16.9035417 C15.6876678,17.1763674 15.3218633,17.3300852 14.94,17.33 L14.94,17.3 Z" transform="translate(2 2)"/>
    </g>
  </g>
</svg>
