<svg width="24" height="24" viewBox="0 0 24 24" fill="none" xmlns="http://www.w3.org/2000/svg">
<mask id="mask0_2291_343" style="mask-type:alpha" maskUnits="userSpaceOnUse" x="0" y="0" width="24" height="24">
<rect y="0.5" width="24" height="24" fill="#D9D9D9"/>
</mask>
<g mask="url(#mask0_2291_343)">
<path d="M2.66634 13.8334C2.29967 13.8334 1.98579 13.7029 1.72467 13.4417C1.46356 13.1806 1.33301 12.8667 1.33301 12.5001V4.50008C1.33301 4.13341 1.46356 3.81953 1.72467 3.55841C1.98579 3.2973 2.29967 3.16675 2.66634 3.16675H6.66634L7.99967 4.50008H13.333C13.6997 4.50008 14.0136 4.63064 14.2747 4.89175C14.5358 5.15286 14.6663 5.46675 14.6663 5.83341H2.66634V12.5001L4.26634 7.16675H15.6663L13.9497 12.8834C13.8608 13.1723 13.6969 13.4029 13.458 13.5751C13.2191 13.7473 12.9552 13.8334 12.6663 13.8334H2.66634Z" fill="#6A6A6A"/>
</g>
</svg>
