<svg xmlns="http://www.w3.org/2000/svg" viewBox="0 0 24 24" fill="none">
    <path fill-rule="evenodd" clip-rule="evenodd" d="M13.9868 2.22266C16.9556 2.22266 19.3635 4.61004 19.3637 7.55566C19.3636 9.13416 18.6673 10.5486 17.5678 11.5254C20.7734 12.3947 21.7286 14.5493 21.9858 17.0596C22.1465 18.6315 20.9 19.9998 19.3071 20H17.9106C17.6116 21.1395 16.5699 22 15.3071 22H4.69183C3.10047 21.9998 1.85465 20.6329 2.01312 19.0615C2.26763 16.5504 3.20827 14.3957 6.40668 13.5264C5.30711 12.5495 4.61081 11.1343 4.61078 9.55566C4.61078 6.61003 6.82081 4.22288 9.7905 4.22266L9.78656 4.22754C10.7717 3.00594 12.2868 2.22289 13.9868 2.22266ZM9.98773 14.8887C4.67797 14.8887 4.02851 16.946 3.7973 19.2402C3.76251 19.5819 3.92544 19.8174 4.02582 19.9277C4.12616 20.037 4.34609 20.2225 4.69183 20.2227H15.3071C15.6539 20.2227 15.8746 20.037 15.9741 19.9268C16.0744 19.8164 16.2374 19.5811 16.2026 19.2393C15.9678 16.9459 15.3153 14.8887 9.98773 14.8887ZM14.1743 12.8916C13.9897 13.1185 13.7876 13.331 13.5688 13.5254C16.4117 14.2964 17.4829 16.0783 17.8686 18.2227H19.3071C19.6529 18.2225 19.8733 18.038 19.9731 17.9277C20.0734 17.8176 20.2364 17.5813 20.2016 17.2393C19.9695 14.9731 19.3303 12.9393 14.1743 12.8916ZM9.98773 6C8.0108 6 6.40277 7.59477 6.40277 9.55566C6.40282 11.5156 8.01083 13.1113 9.98773 13.1113C11.9636 13.1112 13.5717 11.5155 13.5717 9.55566C13.5717 7.59485 11.9637 6.00012 9.98773 6ZM13.9868 4C13.2474 4.00015 12.559 4.22346 11.9877 4.60547C13.9662 5.39288 15.3647 7.31155 15.3647 9.55566C15.3647 10.0221 15.3019 10.4736 15.1879 10.9043C16.5753 10.4133 17.5715 9.0979 17.5717 7.55566C17.5715 5.59492 15.9627 4 13.9868 4Z" fill="currentColor"/>
</svg>
