<svg xmlns="http://www.w3.org/2000/svg" width="24" height="24" viewBox="0 0 24 24">
  <g fill="none" fill-rule="evenodd" transform="translate(-24 -276)">
    <rect width="504" height="450" fill="#FFF"/>
    <g transform="translate(24 276)">
      <rect width="24" height="24"/>
      <path fill="#000" fill-rule="nonzero" d="M19.15,5.77 L14.15,0.77 C13.9612812,0.582813486 13.705803,0.478463241 13.44,0.48 L8.44,0.48 C6.230861,0.48 4.44,2.270861 4.44,4.48 C2.230861,4.48 0.44,6.270861 0.44,8.48 L0.44,19.48 C0.44,21.689139 2.230861,23.48 4.44,23.48 L11.44,23.48 C13.649139,23.48 15.44,21.689139 15.44,19.48 C17.649139,19.48 19.44,17.689139 19.44,15.48 L19.44,6.48 C19.4415368,6.21419702 19.3371865,5.95871883 19.15,5.77 Z M17.45,6.89 L17.45,7.48 L15.45,7.48 C14.3454305,7.48 13.45,6.5845695 13.45,5.48 L13.45,2.89 L17.45,6.89 Z M11.45,21.48 L4.45,21.48 C3.3454305,21.48 2.45,20.5845695 2.45,19.48 L2.45,8.48 C2.45,7.3754305 3.3454305,6.48 4.45,6.48 L4.45,15.48 C4.45,17.689139 6.240861,19.48 8.45,19.48 L13.45,19.48 C13.45,20.5845695 12.5545695,21.48 11.45,21.48 Z M15.45,17.48 L8.45,17.48 C7.3454305,17.48 6.45,16.5845695 6.45,15.48 L6.45,4.48 C6.45,3.3754305 7.3454305,2.48 8.45,2.48 L11.45,2.48 L11.45,5.48 C11.45,7.689139 13.240861,9.48 15.45,9.48 L17.45,9.48 L17.45,15.48 C17.45,16.5845695 16.5545695,17.48 15.45,17.48 Z" transform="translate(2)"/>
    </g>
  </g>
</svg>
