<svg xmlns="http://www.w3.org/2000/svg" width="24" height="24" viewBox="0 0 24 24">
  <g fill="none" fill-rule="evenodd" transform="translate(-72 -276)">
    <rect width="504" height="450" fill="#FFF"/>
    <g transform="translate(72 276)">
      <rect width="24" height="24"/>
      <g fill="#000" fill-rule="nonzero" transform="translate(1 2)">
        <path d="M16.91,0.3 L4.91,0.3 C2.700861,0.3 0.91,2.090861 0.91,4.3 L0.91,16.3 C0.91,18.509139 2.700861,20.3 4.91,20.3 L16.91,20.3 C19.119139,20.3 20.91,18.509139 20.91,16.3 L20.91,4.3 C20.91,2.090861 19.119139,0.3 16.91,0.3 Z M18.91,16.3 C18.91,17.4045695 18.0145695,18.3 16.91,18.3 L4.91,18.3 C3.8054305,18.3 2.91,17.4045695 2.91,16.3 L2.91,4.3 C2.91,3.1954305 3.8054305,2.3 4.91,2.3 L16.91,2.3 C18.0145695,2.3 18.91,3.1954305 18.91,4.3 L18.91,16.3 Z"/>
        <polygon points="10.91 4.3 4.92 10.3 4.92 14.3 6.91 16.3 8.91 14.3 7.91 12.3 7.91 11.3 11.91 7.3 12.91 7.3 14.91 8.3 16.91 6.3 14.91 4.3"/>
      </g>
    </g>
  </g>
</svg>
