<svg xmlns="http://www.w3.org/2000/svg" width="24" height="24" viewBox="0 0 24 24">
  <g fill="none" fill-rule="evenodd" transform="translate(-120 -276)">
    <rect width="504" height="450" fill="#FFF"/>
    <g transform="translate(120 276)">
      <rect width="24" height="24"/>
      <path fill="#000" fill-rule="nonzero" d="M15.41,7.11 L3.55,0.33 C2.87581389,-0.0545032911 2.04804146,-0.0515694545 1.3765978,0.337703092 C0.705154154,0.726975638 0.291307277,1.44387631 0.29,2.22 L0.29,15.78 C0.286636639,16.5550445 0.698781201,17.2724814 1.37,17.66 C2.0433702,18.0535925 2.8766298,18.0535925 3.55,17.66 L15.42,10.88 C16.0965132,10.4911244 16.5135839,9.77031684 16.5135839,8.99 C16.5135839,8.20968316 16.0965132,7.48887559 15.42,7.1 L15.41,7.11 Z M14.41,9.11 L2.56,15.94 C2.50492224,15.9743706 2.43507776,15.9743706 2.38,15.94 C2.32460321,15.910455 2.29,15.852783 2.29,15.79 L2.29,2.22 C2.29,2.15721697 2.32460321,2.09954496 2.38,2.07 L2.56,2.07 L14.42,8.85 C14.4748368,8.88237671 14.508485,8.94131856 14.508485,9.005 C14.508485,9.06868144 14.4748368,9.12762329 14.42,9.16 L14.41,9.11 Z" transform="translate(4 3)"/>
    </g>
  </g>
</svg>
