<svg xmlns="http://www.w3.org/2000/svg" width="24" height="24" viewBox="0 0 24 24">
  <g fill="none" fill-rule="evenodd" transform="translate(-168 -276)">
    <rect width="504" height="450" fill="#FFF"/>
    <g transform="translate(168 276)">
      <rect width="24" height="24"/>
      <path fill="#000" fill-rule="nonzero" d="M18.49,9 L11,9 L11,1.52 C11,0.96771525 10.5522847,0.52 10,0.52 C9.44771525,0.52 9,0.96771525 9,1.52 L9,9 L1.51,9 C0.95771525,9 0.51,9.44771525 0.51,10 C0.51,10.5522847 0.95771525,11 1.51,11 L9,11 L9,18.49 C9,19.0422847 9.44771525,19.49 10,19.49 C10.5522847,19.49 11,19.0422847 11,18.49 L11,11 L18.49,11 C19.0422847,11 19.49,10.5522847 19.49,10 C19.49,9.44771525 19.0422847,9 18.49,9 L18.49,9 Z" transform="translate(2 2)"/>
    </g>
  </g>
</svg>
