<svg xmlns="http://www.w3.org/2000/svg" width="24" height="24" viewBox="0 0 24 24">
  <g fill="none" fill-rule="evenodd" transform="translate(-216 -276)">
    <rect width="504" height="450" fill="#FFF"/>
    <g transform="translate(216 276)">
      <rect width="24" height="24"/>
      <g fill="#000" fill-rule="nonzero" transform="translate(2 2)">
        <path d="M17,6.19 L16,6.19 L16,0.19 L4,0.19 L4,6.19 L3,6.19 C1.31,6.19 0,8.07 0,9.69 L0,14.19 C0,15.8468542 1.34314575,17.19 3,17.19 L4,17.19 L4,20.19 L16,20.19 L16,17.19 L17,17.19 C18.6568542,17.19 20,15.8468542 20,14.19 L20,9.69 C20,8 18.72,6.19 17,6.19 Z M6,2.19 L14,2.19 L14,6.19 L6,6.19 L6,2.19 Z M14,18.19 L6,18.19 L6,17.19 L14,17.19 L14,18.19 Z M18,14.19 C18,14.7422847 17.5522847,15.19 17,15.19 L3,15.19 C2.44771525,15.19 2,14.7422847 2,14.19 L2,9.69 C2,8.98 2.6,8.19 3,8.19 L17,8.19 C17.44,8.19 18,9.03 18,9.69 L18,14.19 Z"/>
        <path d="M6,9.19 L5,9.19 C4.44771525,9.19 4,9.63771525 4,10.19 C4,10.7422847 4.44771525,11.19 5,11.19 L6,11.19 C6.55228475,11.19 7,10.7422847 7,10.19 C7,9.63771525 6.55228475,9.19 6,9.19 Z M10,9.19 L9,9.19 C8.44771525,9.19 8,9.63771525 8,10.19 C8,10.7422847 8.44771525,11.19 9,11.19 L10,11.19 C10.5522847,11.19 11,10.7422847 11,10.19 C11,9.63771525 10.5522847,9.19 10,9.19 Z"/>
      </g>
    </g>
  </g>
</svg>
