<svg xmlns="http://www.w3.org/2000/svg" width="24" height="24" viewBox="0 0 24 24">
  <g fill="none" fill-rule="evenodd" transform="translate(-264 -276)">
    <rect width="504" height="450" fill="#FFF"/>
    <g transform="translate(264 276)">
      <rect width="24" height="24"/>
      <path fill="#000" fill-rule="nonzero" d="M12.43,0.74 C11.8777153,0.74 11.43,1.18771525 11.43,1.74 C11.43,2.29228475 11.8777153,2.74 12.43,2.74 C15.9811909,2.74 18.86,5.61880906 18.86,9.17 C18.86,12.7211909 15.9811909,15.6 12.43,15.6 C8.87880906,15.6 6,12.7211909 6,9.17 C6.0048254,9.11343606 6.0048254,9.05656394 6,9 L7.88,10.88 C8.27676028,11.2197768 8.86819417,11.1969323 9.23756322,10.8275632 C9.60693227,10.4581942 9.6297768,9.86676028 9.29,9.47 L5.81,6 C5.41996255,5.61227641 4.79003745,5.61227641 4.4,6 L0.95,9.47 C0.66462384,9.71438988 0.540318056,10.0981184 0.628189865,10.463419 C0.716061674,10.8287195 1.00128045,11.1139383 1.36658103,11.2018101 C1.7318816,11.2896819 2.11561012,11.1653762 2.36,10.88 L4,9.24 C4.04408352,13.8850911 7.83761985,17.6191516 12.4828276,17.5898321 C17.1280354,17.5605125 20.8741343,13.7788636 20.859579,9.13358604 C20.8450238,4.48830851 17.0753003,0.730209179 12.43,0.73 L12.43,0.74 Z" transform="translate(1 3)"/>
    </g>
  </g>
</svg>
