<svg xmlns="http://www.w3.org/2000/svg" width="24" height="24" viewBox="0 0 24 24">
  <g fill="none" fill-rule="evenodd" transform="translate(-312 -276)">
    <rect width="504" height="450" fill="#FFF"/>
    <g transform="translate(312 276)">
      <rect width="24" height="24"/>
      <g fill="#000" fill-rule="nonzero" transform="translate(2 2)">
        <path d="M5.79,12.5 C5.97979675,12.7365713 6.26670347,12.8742205 6.57,12.8742205 C6.87329653,12.8742205 7.16020325,12.7365713 7.35,12.5 L11.35,7.5 C11.6744183,7.06815431 11.5972849,6.45673136 11.1757798,6.11898685 C10.7542746,5.78124233 10.1407413,5.83924645 9.79,6.25 L7.57,9 L7.57,5.87 C7.57,4.21314575 8.91314575,2.87 10.57,2.87 L17.57,2.87 C18.1222847,2.87 18.57,2.42228475 18.57,1.87 C18.57,1.31771525 18.1222847,0.87 17.57,0.87 L10.57,0.87 C7.80857625,0.87 5.57,3.10857625 5.57,5.87 L5.57,9 L3.35,6.25 C3.13094067,5.95840172 2.77050185,5.80918908 2.40943332,5.86062895 C2.04836479,5.91206882 1.74393579,6.15600231 1.61502453,6.49717445 C1.48611327,6.83834659 1.55316641,7.22264392 1.79,7.5 L5.79,12.5 Z"/>
        <path d="M20.13,13 L14.13,9 C13.7325973,8.73789487 13.2055156,8.79227632 12.87,9.13 L10.87,11.13 C10.4822764,11.5200375 10.4822764,12.1499625 10.87,12.54 L12.87,14.54 L12.23,14.86 L7.65,15.78 L2.94,13.95 C2.45627105,13.7540803 1.90321759,13.9631084 1.67,14.43 L0.67,16.43 C0.439267979,16.8962117 0.604493807,17.4614579 1.05,17.73 L6.05,20.73 C6.20435568,20.8215893 6.38051666,20.8699472 6.56,20.87 L19.56,20.87 C20.1122847,20.87 20.56,20.4222847 20.56,19.87 L20.56,13.87 C20.57642,13.5252239 20.4138753,13.1963544 20.13,13 Z M18.58,18.83 L6.85,18.83 L2.85,16.45 L3.02,16.1 L7.2,17.8 C7.38107436,17.8718291 7.5791856,17.8892073 7.77,17.85 L12.77,16.85 C12.8569657,16.831254 12.941041,16.8009868 13.02,16.76 L15.02,15.76 C15.3069516,15.6161429 15.5074033,15.3432809 15.5588892,15.0264445 C15.6103751,14.7096081 15.5066362,14.3873151 15.28,14.16 L13,11.87 L13.71,11.16 L18.58,14.41 L18.58,18.83 Z"/>
      </g>
    </g>
  </g>
</svg>
