<svg xmlns="http://www.w3.org/2000/svg" width="24" height="24" viewBox="0 0 24 24">
  <g fill="none" fill-rule="evenodd" transform="translate(-360 -276)">
    <rect width="504" height="450" fill="#FFF"/>
    <g transform="translate(360 276)">
      <rect width="24" height="24"/>
      <path fill="#000" fill-rule="nonzero" d="M12.72,2.52 L10.79,0.59 C10.3932397,0.250223204 9.80180583,0.27306773 9.43243678,0.642436779 C9.06306773,1.01180583 9.0402232,1.60323972 9.38,2 L9.66,2.28 C4.16,2.78 0.24,5.07 0.24,7.99 C0.24,10.6 3.4,12.77 8.3,13.53 L8.45,13.53 C9.00228474,13.5714213 9.48357863,13.1572847 9.52499999,12.605 C9.56642134,12.0527153 9.15228474,11.5714214 8.6,11.53 C4.47,10.93 2.24,9.25 2.24,8 C2.24,6.47 5.24,4.8 9.5,4.32 L9.38,4.44 C9.09462384,4.68438988 8.97031806,5.0681184 9.05818987,5.43341897 C9.14606167,5.79871955 9.43128045,6.08393833 9.79658103,6.17181013 C10.1618816,6.25968194 10.5456101,6.13537616 10.79,5.85 L12.72,3.92 C13.1011429,3.53115649 13.1011429,2.90884351 12.72,2.52 Z M23.63,8 C23.63,5.35 20.4,3.17 15.41,2.43 C14.8577153,2.34991872 14.3450813,2.73271526 14.265,3.285 C14.1849187,3.83728474 14.5677153,4.3499187 15.12,4.43 C19.35,5.05 21.64,6.74 21.64,8.02 C21.64,9.52 18.75,11.17 14.56,11.68 L15.56,10.68 C15.8453762,10.4356101 15.9696819,10.0518816 15.8818101,9.68658103 C15.7939383,9.32128045 15.5087195,9.03606167 15.143419,8.94818987 C14.7781184,8.86031806 14.3943899,8.98462384 14.15,9.27 L11.37,12 C11.1181942,12.1888544 10.97,12.4852427 10.97,12.8 C10.97,13.1147573 11.1181942,13.4111456 11.37,13.6 L14.16,16.39 C14.3925592,16.70462 14.787237,16.8547213 15.1700921,16.7741518 C15.5529473,16.6935823 15.8536531,16.3971418 15.9396835,16.0154767 C16.0257138,15.6338115 15.8812658,15.2370298 15.57,15 L14.29,13.72 C19.75,13.2 23.63,10.92 23.63,8 Z" transform="translate(0 4)"/>
    </g>
  </g>
</svg>
