<svg xmlns="http://www.w3.org/2000/svg" width="24" height="24" viewBox="0 0 24 24">
  <g fill="none" fill-rule="evenodd" transform="translate(-408 -276)">
    <rect width="504" height="450" fill="#FFF"/>
    <g transform="translate(408 276)">
      <rect width="24" height="24"/>
      <path fill="#000" fill-rule="nonzero" d="M9.9,0.31 C7.25284425,0.302116494 4.71991591,1.38765721 2.9,3.31 L2.9,1.67 C2.9,1.11771525 2.45228475,0.67 1.9,0.67 C1.34771525,0.67 0.9,1.11771525 0.9,1.67 L0.9,5.75 C0.9,6.30228475 1.34771525,6.75 1.9,6.75 L6,6.75 C6.55228475,6.75 7,6.30228475 7,5.75 C7,5.19771525 6.55228475,4.75 6,4.75 L4.3,4.75 C5.74575768,3.19399641 7.7760147,2.31300988 9.9,2.32 C13.9666754,2.3182377 17.3316896,5.48302885 17.579089,9.54217226 C17.8264883,13.6013157 14.8707335,17.1513492 10.8339456,17.6434821 C6.79715763,18.1356149 3.07506921,15.3996906 2.34,11.4 C2.24058873,10.8477153 1.71228475,10.4805888 1.16,10.58 C0.607715262,10.6794113 0.240588758,11.2077153 0.34,11.76 C1.26973204,16.7935184 5.95407315,20.2357499 11.0354996,19.6194585 C16.116926,19.0031672 19.8425901,14.540944 19.5421044,9.43110862 C19.2416187,4.32127322 15.0186364,0.326472997 9.9,0.31 Z" transform="translate(2 2)"/>
    </g>
  </g>
</svg>
