<svg xmlns="http://www.w3.org/2000/svg" width="24" height="24" viewBox="0 0 24 24">
  <g fill="none" fill-rule="evenodd" transform="translate(-456 -276)">
    <rect width="504" height="450" fill="#FFF"/>
    <g transform="translate(456 276)">
      <rect width="24" height="24"/>
      <path fill="#000" fill-rule="nonzero" d="M18.69,10.6 C18.4286931,10.5503199 18.1583605,10.6067906 17.938793,10.7569222 C17.7192255,10.9070539 17.5685168,11.1384746 17.52,11.4 C16.8945892,14.9144711 13.9384506,17.5400696 10.37473,17.7463231 C6.81100932,17.9525765 3.57170545,15.6855447 2.54502236,12.26669 C1.51833928,8.84783531 2.97277935,5.17127073 6.06054329,3.38008137 C9.14830723,1.58889201 13.0618703,2.15151707 15.52,4.74 L13.89,4.74 C13.3377153,4.74 12.89,5.18771525 12.89,5.74 C12.89,6.29228475 13.3377153,6.74 13.89,6.74 L18,6.74 C18.5522847,6.74 19,6.29228475 19,5.74 L19,1.67 C19,1.11771525 18.5522847,0.67 18,0.67 C17.4477153,0.67 17,1.11771525 17,1.67 L17,3.33 C15.1800841,1.40765721 12.6471557,0.322116494 10,0.33 C4.87618938,0.325334132 0.63434644,4.3104166 0.319488527,9.4245462 C0.00463061368,14.5386758 3.7255979,19.0139988 8.81128489,19.6378937 C13.8969719,20.2617886 18.589357,16.8185872 19.52,11.78 C19.5721505,11.5127724 19.5130846,11.2358339 19.3564425,11.0131379 C19.1998004,10.7904419 18.9591266,10.6412445 18.69,10.6 L18.69,10.6 Z" transform="translate(2 2)"/>
    </g>
  </g>
</svg>
