<svg xmlns="http://www.w3.org/2000/svg" width="24" height="24" viewBox="0 0 24 24">
  <g fill="none" fill-rule="evenodd" transform="translate(-24 -318)">
    <rect width="504" height="450" fill="#FFF"/>
    <g transform="translate(24 318)">
      <rect width="24" height="24"/>
      <path fill="#000" fill-rule="nonzero" d="M17.9,0.23 L3.9,0.23 C2.24314575,0.23 0.9,1.57314575 0.9,3.23 L0.9,17.23 C0.9,18.8868542 2.24314575,20.23 3.9,20.23 L17.9,20.23 C19.5568542,20.23 20.9,18.8868542 20.9,17.23 L20.9,3.23 C20.9,1.57314575 19.5568542,0.23 17.9,0.23 Z M10.9,2.23 L10.9,3.23 C10.9,3.78228475 11.3477153,4.23 11.9,4.23 C12.4522847,4.23 12.9,3.78228475 12.9,3.23 L12.9,2.23 L13.9,2.23 L13.9,5.23 L7.9,5.23 L7.9,2.23 L10.9,2.23 Z M6.9,18.23 L6.9,12.23 L14.9,12.23 L14.9,18.23 L6.9,18.23 Z M18.9,17.23 C18.9,17.7822847 18.4522847,18.23 17.9,18.23 L16.9,18.23 L16.9,11.87 C16.9,11.435045 16.7272148,11.0179045 16.4196551,10.7103449 C16.1120955,10.4027852 15.694955,10.23 15.26,10.23 L6.51,10.23 C5.60425301,10.23 4.87,10.964253 4.87,11.87 L4.87,18.23 L3.87,18.23 C3.31771525,18.23 2.87,17.7822847 2.87,17.23 L2.87,3.23 C2.87,2.67771525 3.31771525,2.23 3.87,2.23 L5.87,2.23 L5.87,6 C5.87,6.33152061 6.00169605,6.649463 6.23611652,6.88388348 C6.470537,7.11830395 6.78847939,7.25 7.12,7.25 L14.61,7.25 C14.9432499,7.25266608 15.2637673,7.12214795 15.500355,6.88743788 C15.7369428,6.65272782 15.8700107,6.33326052 15.87,6 L15.87,2.23 L17.87,2.23 C18.4222847,2.23 18.87,2.67771525 18.87,3.23 L18.9,17.23 Z" transform="translate(1 2)"/>
    </g>
  </g>
</svg>
