<svg xmlns="http://www.w3.org/2000/svg" width="24" height="24" viewBox="0 0 24 24">
  <g fill="none" fill-rule="evenodd" transform="translate(-72 -318)">
    <rect width="504" height="450" fill="#FFF"/>
    <g transform="translate(72 318)">
      <rect width="24" height="24"/>
      <path fill="#000" fill-rule="nonzero" d="M20.6,18.59 L14.35,12.34 C16.7576263,9.18996733 16.3102151,4.71262971 13.3268683,2.1013059 C10.3435216,-0.510017913 5.8463645,-0.360661454 3.04285152,2.44285152 C0.239338546,5.2463645 0.0899820873,9.74352156 2.7013059,12.7268683 C5.31262971,15.7102151 9.78996733,16.1576263 12.94,13.75 L19.19,20 C19.5867603,20.3397768 20.1781942,20.3169323 20.5475632,19.9475632 C20.9169323,19.5781942 20.9397768,18.9867603 20.6,18.59 Z M2.9,7.8 C2.9,4.76243388 5.36243388,2.3 8.4,2.3 C11.4375661,2.3 13.9,4.76243388 13.9,7.8 C13.9,10.8375661 11.4375661,13.3 8.4,13.3 C5.36471651,13.2944963 2.9055037,10.8352835 2.9,7.8 Z" transform="translate(2 2)"/>
    </g>
  </g>
</svg>
