<svg xmlns="http://www.w3.org/2000/svg" width="24" height="24" viewBox="0 0 24 24">
  <g fill="none" fill-rule="evenodd" transform="translate(-120 -318)">
    <rect width="504" height="450" fill="#FFF"/>
    <g transform="translate(120 318)">
      <rect width="24" height="24"/>
      <g fill="#000" fill-rule="nonzero" transform="translate(2 2)">
        <path d="M8,16 C8.55228475,16 9,15.5522847 9,15 L9,8 C9,6.34314575 10.3431458,5 12,5 L15.1,5 L13.5,6.2 C13.2141875,6.41435935 13.0644452,6.7649147 13.1071797,7.11961525 C13.1499141,7.47431579 13.3786328,7.77927408 13.7071797,7.91961526 C14.0357266,8.05995645 14.4141875,8.01435937 14.7,7.8 L18.7,4.8 C18.9518058,4.61114562 19.1,4.3147573 19.1,4 C19.1,3.6852427 18.9518058,3.38885438 18.7,3.2 L14.7,0.2 C14.2581722,-0.13137085 13.6313708,-0.0418277999 13.3,0.4 C12.9686292,0.8418278 13.0581722,1.46862915 13.5,1.8 L15.1,3 L12,3 C9.23857625,3 7,5.23857625 7,8 L7,15 C7,15.5522847 7.44771525,16 8,16 Z"/>
        <path d="M18.2,8.2 C17.6477153,8.2 17.2,8.64771525 17.2,9.2 L17.2,17 C17.2,17.5522847 16.7522847,18 16.2,18 L3,18 C2.44771525,18 2,17.5522847 2,17 L2,4.89 C2,4.33771525 2.44771525,3.89 3,3.89 L5.6,3.89 C6.15228475,3.89 6.6,3.44228475 6.6,2.89 C6.6,2.33771525 6.15228475,1.89 5.6,1.89 L3,1.89 C1.34314575,1.89 0,3.23314575 0,4.89 L0,17 C0,18.6568542 1.34314575,20 3,20 L16.2,20 C17.8568542,20 19.2,18.6568542 19.2,17 L19.2,9.2 C19.2,8.64771525 18.7522847,8.2 18.2,8.2 Z"/>
      </g>
    </g>
  </g>
</svg>
