<svg xmlns="http://www.w3.org/2000/svg" width="24" height="24" viewBox="0 0 24 24">
  <g fill="none" fill-rule="evenodd" transform="translate(-264 -318)">
    <rect width="504" height="450" fill="#FFF"/>
    <g transform="translate(264 318)">
      <rect width="24" height="24"/>
      <g fill="#000" fill-rule="nonzero" transform="translate(0 3)">
        <path d="M4,16.22 C3.44771525,16.22 3,15.7722847 3,15.22 L3,3.22 C3,1.56314575 4.34314575,0.22 6,0.22 L13.5,0.22 C14.0522847,0.22 14.5,0.66771525 14.5,1.22 C14.5,1.77228475 14.0522847,2.22 13.5,2.22 L6,2.22 C5.44771525,2.22 5,2.66771525 5,3.22 L5,15.22 C5,15.7722847 4.55228475,16.22 4,16.22 Z"/>
        <path d="M4,18.18 C3.6852427,18.18 3.38885438,18.0318058 3.2,17.78 L0.2,13.78 C-0.13137084,13.3381722 -0.0418277863,12.7113709 0.400000009,12.38 C0.841827804,12.0486292 1.46862915,12.1381722 1.8,12.58 L4,15.51 L6.2,12.58 C6.41435935,12.2941875 6.7649147,12.1444453 7.11961524,12.1871797 C7.47431578,12.2299141 7.77927406,12.4586328 7.91961524,12.7871797 C8.05995643,13.1157266 8.01435935,13.4941875 7.8,13.78 L4.8,17.78 C4.61114562,18.0318058 4.3147573,18.18 4,18.18 Z M17.94,18.18 L10.5,18.18 C9.94771525,18.18 9.5,17.7322847 9.5,17.18 C9.5,16.6277153 9.94771525,16.18 10.5,16.18 L17.93,16.18 C18.4822847,16.18 18.93,15.7322847 18.93,15.18 L18.93,3.18 C18.93,2.62771525 19.3777153,2.18 19.93,2.18 C20.4822847,2.18 20.93,2.62771525 20.93,3.18 L20.93,15.18 C20.9300092,16.8329569 19.5929477,18.1744901 17.94,18.18 Z"/>
        <path d="M22.94,6.22 C22.6252427,6.22 22.3288544,6.07180584 22.14,5.82 L19.94,2.89 L17.74,5.82 C17.4086292,6.2618278 16.7818278,6.35137085 16.34,6.02 C15.8981722,5.68862915 15.8086292,5.0618278 16.14,4.62 L19.14,0.62 C19.3288544,0.368194157 19.6252427,0.22 19.94,0.22 C20.2547573,0.22 20.5511456,0.368194157 20.74,0.62 L23.74,4.62 C23.9672632,4.92301765 24.0038192,5.32842957 23.8344272,5.6672136 C23.6650352,6.00599762 23.3187721,6.22 22.94,6.22 L22.94,6.22 Z M6.97,4.46 L14.27,4.46 L14.27,6.46 L6.97,6.46 L6.97,4.46 Z M6.97,8.46 L17.27,8.46 L17.27,10.46 L6.97,10.46 L6.97,8.46 Z M9.97,12.46 L17.27,12.46 L17.27,14.46 L9.97,14.46 L9.97,12.46 Z"/>
      </g>
    </g>
  </g>
</svg>
