<svg xmlns="http://www.w3.org/2000/svg" width="24" height="24" viewBox="0 0 24 24">
  <g fill="none" fill-rule="evenodd" transform="translate(-312 -318)">
    <rect width="504" height="450" fill="#FFF"/>
    <g transform="translate(312 318)">
      <rect width="24" height="24"/>
      <path fill="#000" fill-rule="nonzero" d="M0.683076923,6.73846154 C0.563076923,6.73846154 0.461538462,6.73846154 0.452307692,6.83076923 L0.110769231,8.53846154 L0.452307692,10.1538462 C0.452307692,10.2092308 0.563076923,10.2461538 0.683076923,10.2461538 C0.803076923,10.2461538 0.923076923,10.2461538 0.923076923,10.1538462 L1.31076923,8.50153846 L0.923076923,6.82153846 C0.923076923,6.77538462 0.803076923,6.73846154 0.683076923,6.73846154 Z M5.41846154,3.06461538 C5.23384615,3.06461538 5.09538462,3.16615385 5.08615385,3.28615385 L4.84615385,8.55692308 L5.08615385,11.0769231 C5.08615385,11.1969231 5.24307692,11.2984615 5.41846154,11.2984615 C5.59384615,11.2984615 5.74153846,11.1969231 5.75076923,11.0769231 L6.02769231,8.55692308 L5.75076923,3.28615385 C5.74153846,3.15692308 5.59384615,3.06461538 5.41846154,3.06461538 Z M3.04615385,4.41230769 C2.89846154,4.41230769 2.76923077,4.49538462 2.76,4.59692308 L2.46461538,8.55692308 L2.76923077,11.0769231 C2.76923077,11.1784615 2.89846154,11.2523077 3.05538462,11.2523077 C3.21230769,11.2523077 3.32307692,11.1692308 3.34153846,11.0769231 L3.69230769,8.54769231 L3.33230769,4.61538462 C3.32307692,4.49538462 3.19384615,4.41230769 3.04615385,4.41230769 Z M7.79076923,2.98153846 C7.57846154,2.98153846 7.41230769,3.10153846 7.41230769,3.24 L7.20923077,8.54769231 L7.38461538,11.0769231 C7.38461538,11.2246154 7.56,11.3353846 7.76307692,11.3353846 C7.96615385,11.3353846 8.13230769,11.2246154 8.14153846,11.0769231 L8.36307692,8.60307692 L8.16,3.24 C8.16,3.10153846 7.99384615,2.98153846 7.79076923,2.98153846 L7.79076923,2.98153846 Z M20.7138462,5.40923077 C20.3087986,5.40918889 19.9075724,5.48755337 19.5323077,5.64 C19.2283916,2.92372796 16.9113796,0.882360497 14.1784615,0.923076923 C13.513561,0.923510381 12.854045,1.04228577 12.2307692,1.27384615 C12,1.35692308 11.9353846,1.44923077 11.9353846,1.62461538 L11.9353846,10.9569231 C11.9395833,11.1418574 12.0832548,11.2935106 12.2676923,11.3076923 L20.7138462,11.3076923 C21.8068769,11.3688663 22.8441022,10.8205078 23.4090454,9.88279908 C23.9739886,8.94509033 23.9739886,7.77183275 23.4090454,6.83412399 C22.8441022,5.89641524 21.8068769,5.34805678 20.7138462,5.40923077 L20.7138462,5.40923077 Z M10.1538462,2.16 C9.92307692,2.16 9.73846154,2.29846154 9.72923077,2.46461538 L9.57230769,8.54769231 L9.72923077,10.9938462 C9.72923077,11.16 9.92307692,11.2984615 10.1538462,11.2984615 C10.3846154,11.2984615 10.5692308,11.16 10.5784615,10.9938462 L10.7538462,8.54769231 L10.5784615,2.46461538 C10.5692308,2.29846154 10.3846154,2.16 10.1538462,2.16 Z" transform="translate(0 6)"/>
    </g>
  </g>
</svg>
