<svg xmlns="http://www.w3.org/2000/svg" width="24" height="24" viewBox="0 0 24 24">
  <g fill="none" fill-rule="evenodd" transform="translate(-360 -318)">
    <rect width="504" height="450" fill="#FFF"/>
    <g transform="translate(360 318)">
      <rect width="24" height="24"/>
      <path fill="#000" fill-rule="nonzero" d="M22.0615385,10.5230769 L20.3076923,10.5230769 L20.3076923,15.1384615 L19.0153846,15.1384615 L19.0153846,10.5230769 L17.3538462,10.5230769 L17.3538462,9.50769231 L22.0615385,9.50769231 L22.0615385,10.5230769 L22.0615385,10.5230769 Z M15.2307692,12.1846154 L17.1692308,15.1384615 L15.6923077,15.1384615 L14.4923077,13.2 L13.2,15.1384615 L11.8153846,15.1384615 L13.8461538,12.1846154 L12,9.50769231 L13.4769231,9.50769231 L14.5846154,11.3538462 L15.7846154,9.50769231 L17.1692308,9.50769231 L15.2307692,12.1846154 L15.2307692,12.1846154 Z M11.4461538,15.1384615 L7.10769231,15.1384615 L7.10769231,9.41538462 L11.3538462,9.41538462 L11.3538462,10.4307692 L8.4,10.4307692 L8.4,11.6307692 L11.1692308,11.6307692 L11.1692308,12.6461538 L8.4,12.6461538 L8.4,14.0307692 L11.4461538,14.0307692 L11.4461538,15.1384615 L11.4461538,15.1384615 Z M6.64615385,10.5230769 L4.89230769,10.5230769 L4.89230769,15.1384615 L3.69230769,15.1384615 L3.69230769,10.5230769 L1.93846154,10.5230769 L1.93846154,9.50769231 L6.64615385,9.50769231 L6.64615385,10.5230769 Z M24,20.6769231 L24,3.32307692 C24,1.47692308 22.5230769,0 20.6769231,0 L3.32307692,0 C1.47692308,0 0,1.47692308 0,3.32307692 L0,20.6769231 C0,22.5230769 1.47692308,24 3.32307692,24 L20.6769231,24 C22.5230769,24 24,22.5230769 24,20.6769231 L24,20.6769231 Z"/>
    </g>
  </g>
</svg>
