<svg xmlns="http://www.w3.org/2000/svg" viewBox="0 0 24 24"><path class="icon__shape" fill="currentColor" fill-rule="nonzero" d="M9.51 10.087a1.135 1.135 0 1 0 .8-1.956 1.143 1.143 0 0 0-1.26-.218 1.137 1.137 0 0 0 .46 2.174zm4.592 0a1.135 1.135 0 1 0 .82-1.938 1.143 1.143 0 0 0-1.95.8c0 .625.504 1.133 1.13 1.138zm.141 2.175a2.92 2.92 0 0 1-4.814 0 1.01 1.01 0 0 0-1.752.127c-.156.328-.123.714.086 1.01a4.94 4.94 0 0 0 4.073 2.142 4.94 4.94 0 0 0 4.073-2.142 1.005 1.005 0 0 0-.27-1.389 1.011 1.011 0 0 0-1.396.252zm9.48-1.943l-2.625-2.617a1.011 1.011 0 0 0-1.01-.252 2.842 2.842 0 0 1-2.836-.704 2.823 2.823 0 0 1-.706-2.83c.109-.356.012-.743-.253-1.006L13.67.293a1.011 1.011 0 0 0-1.423 0L.264 12.262a1.005 1.005 0 0 0 0 1.42l2.624 2.616c.264.264.653.36 1.01.252a2.842 2.842 0 0 1 2.837.704 2.823 2.823 0 0 1 .706 2.83c-.11.356-.012.743.252 1.006l2.625 2.617c.393.39 1.03.39 1.423 0L23.67 11.79a1.005 1.005 0 0 0 0-1.43l.051-.04zm-12.65 11.244l-1.513-1.51a4.824 4.824 0 0 0-1.354-4.206 4.853 4.853 0 0 0-4.218-1.35l-1.514-1.51 10.477-10.5 1.514 1.56a4.824 4.824 0 0 0 1.354 4.207 4.853 4.853 0 0 0 4.218 1.35l1.514 1.51-10.477 10.45z"/></svg>
