<svg xmlns="http://www.w3.org/2000/svg" width="24" height="24" viewBox="0 0 24 24">
  <g fill="none" fill-rule="evenodd" transform="translate(-168 -360)">
    <rect width="504" height="450" fill="#FFF"/>
    <g transform="translate(168 360)">
      <rect width="24" height="24"/>
      <path fill="#000" fill-rule="nonzero" d="M19,16.58 L19,13.3 C19,11.6431458 17.6568542,10.3 16,10.3 L11,10.3 L11,8.16 C12.9503067,7.65643297 14.2219252,5.78121328 13.9681188,3.78299948 C13.7143124,1.78478569 12.0142681,0.287016654 10,0.287016654 C7.98573188,0.287016654 6.28568764,1.78478569 6.03188121,3.78299948 C5.77807479,5.78121328 7.04969328,7.65643297 9,8.16 L9,10.3 L4,10.3 C2.34314575,10.3 1,11.6431458 1,13.3 L1,16.58 C0.216063969,17.0326057 -0.166137592,17.9553219 0.0681483474,18.8296889 C0.302434286,19.7040559 1.09478864,20.3120508 2,20.3120508 C2.90521136,20.3120508 3.69756571,19.7040559 3.93185165,18.8296889 C4.16613759,17.9553219 3.78393603,17.0326057 3,16.58 L3,13.3 C3,12.7477153 3.44771525,12.3 4,12.3 L9,12.3 L9,16.58 C8.21606397,17.0326057 7.83386241,17.9553219 8.06814835,18.8296889 C8.30243429,19.7040559 9.09478864,20.3120508 10,20.3120508 C10.9052114,20.3120508 11.6975657,19.7040559 11.9318517,18.8296889 C12.1661376,17.9553219 11.783936,17.0326057 11,16.58 L11,12.3 L16,12.3 C16.5522847,12.3 17,12.7477153 17,13.3 L17,16.58 C16.216064,17.0326057 15.8338624,17.9553219 16.0681483,18.8296889 C16.3024343,19.7040559 17.0947886,20.3120508 18,20.3120508 C18.9052114,20.3120508 19.6975657,19.7040559 19.9318517,18.8296889 C20.1661376,17.9553219 19.783936,17.0326057 19,16.58 Z M8,4.3 C8,3.1954305 8.8954305,2.3 10,2.3 C11.1045695,2.3 12,3.1954305 12,4.3 C12,5.4045695 11.1045695,6.3 10,6.3 C8.8954305,6.3 8,5.4045695 8,4.3 L8,4.3 Z" transform="translate(2 2)"/>
    </g>
  </g>
</svg>
