<svg xmlns="http://www.w3.org/2000/svg" width="24" height="24" viewBox="0 0 24 24">
  <g fill="none" fill-rule="evenodd" transform="translate(-264 -360)">
    <rect width="504" height="450" fill="#FFF"/>
    <g transform="translate(264 360)">
      <rect width="24" height="24"/>
      <path fill="#000" fill-rule="nonzero" d="M9.86,16.6 C9.30844707,16.6821208 8.75060845,16.4980036 8.35630243,16.1036976 C7.96199642,15.7093916 7.77787916,15.1515529 7.86,14.6 L7.86,8.73 L11.67,8.73 L11.67,5.31 L7.9,5.31 L7.9,0.26 L4.9,0.26 C4.82478838,0.26486727 4.76486727,0.324788384 4.76,0.4 C4.62124476,2.82911017 3.04770021,4.94159372 0.76,5.77 L0.76,8.69 L3.09,8.69 L3.09,14.88 C3.09,17.12 4.48,20.29 8.93,20.22 C10.42,20.22 12.1,19.58 12.45,19.05 L11.45,16.2 C10.9526211,16.4398097 10.4116465,16.5759039 9.86,16.6 Z" transform="translate(6 2)"/>
    </g>
  </g>
</svg>
