<svg xmlns="http://www.w3.org/2000/svg" width="24" height="24" viewBox="0 0 24 24">
  <g fill="none" fill-rule="evenodd" transform="translate(-312 -360)">
    <rect width="504" height="450" fill="#FFF"/>
    <g transform="translate(312 360)">
      <rect width="24" height="24"/>
      <path fill="#000" fill-rule="nonzero" d="M22.39,3.06 C21.563884,3.42582955 20.6873915,3.66517942 19.79,3.77 C20.738126,3.20717655 21.4490292,2.31854761 21.79,1.27 C20.9029648,1.79744823 19.9323338,2.16946708 18.92,2.37 C17.5163908,0.880184416 15.2881225,0.516688365 13.4838144,1.48319838 C11.6795064,2.4497084 10.7474799,4.50607314 11.21,6.5 C7.56285866,6.32337744 4.16307943,4.60348912 1.86,1.77 C0.68535378,3.82830537 1.29570897,6.44411332 3.26,7.77 C2.55803217,7.738399 1.8731592,7.54321021 1.26,7.2 L1.26,7.26 C1.25985535,9.41503424 2.77792566,11.2718475 4.89,11.7 C4.23763801,11.8754602 3.55429216,11.9027941 2.89,11.78 C3.44147269,13.6143038 5.08702231,14.9035178 7,15 C5.39746198,16.2590338 3.41796188,16.9423488 1.38,16.94 C1.01913361,16.9412449 0.658507768,16.9212102 0.3,16.88 C2.37362263,18.1985091 4.78272226,18.8927741 7.24,18.88 C10.6667955,18.9095589 13.9621172,17.5627049 16.3871968,15.141385 C18.8122765,12.7200652 20.1642419,9.42683725 20.14,6 L20.14,5.41 C21.0237932,4.76671543 21.7857308,3.97091395 22.39,3.06 Z" transform="translate(1 3)"/>
    </g>
  </g>
</svg>
