<svg xmlns="http://www.w3.org/2000/svg" viewBox="0 0 24 24"><path class="icon__shape" fill="currentColor" fill-rule="nonzero" d="M22.08 6.47l-3.475-3.494a.96.96 0 0 0-1.325 0l-6.115 6.077-2.016-2.026 1.411-1.373a.96.96 0 0 0 0-1.353L7.315 1.094a.96.96 0 0 0-1.353 0L2.227 4.8A7.325 7.325 0 0 0 .115 9.418a5.02 5.02 0 0 0 1.603 3.657.96.96 0 0 0 1.354 0L5.376 10.8l2.026 2.026-3.898 3.897c-.075.102-.14.211-.192.327l-1.469 5.03v.077a1.19 1.19 0 0 0 0 .384v.077a.96.96 0 0 0 .058.115.749.749 0 0 0 .211.307l.067.067a.96.96 0 0 0 .307.163.96.96 0 0 0 .26 0 .96.96 0 0 0 .259 0l4.905-1.41c.116-.053.225-.117.327-.193l3.897-3.897 5.54 5.539a.96.96 0 0 0 1.353 0l2.41-2.41a.96.96 0 0 0 0-1.353l-5.54-5.54 6.183-6.182a.96.96 0 0 0 0-1.354zM2.477 10.982a2.88 2.88 0 0 1-.442-1.526 5.434 5.434 0 0 1 1.546-3.274L6.634 3.13l1.852 1.843-6.01 6.01zM6.72 9.437L7.776 8.38l2.026 2.025-1.056 1.056L6.72 9.437zm.432 10.56l-2.995.864.864-2.995.48-.48 2.179 2.17-.528.44zm12.365.163l-1.056 1.056-4.848-4.896 1.056-1.056 4.848 4.896zM9.014 18.24l-2.14-2.18 8.39-8.38 2.14 2.14-8.39 8.42zm9.744-9.782l-2.14-2.141 1.305-1.306 2.141 2.131-1.306 1.316z"/></svg>
