<svg xmlns="http://www.w3.org/2000/svg" width="24" height="24" viewBox="0 0 24 24">
  <g fill="none" fill-rule="evenodd" transform="translate(-408 -360)">
    <rect width="504" height="450" fill="#FFF"/>
    <g transform="translate(408 360)">
      <rect width="24" height="24"/>
      <path fill="#000" fill-rule="nonzero" d="M13.08,11.47 C14.9342194,9.81153579 15.5726992,7.18086865 14.6850342,4.85693151 C13.7973692,2.53299437 11.5676963,0.997864045 9.08,0.997864045 C6.59230368,0.997864045 4.36263085,2.53299437 3.47496585,4.85693151 C2.58730085,7.18086865 3.22578064,9.81153579 5.08,11.47 C1.51,12.47 0.46,14.87 0.18,17.7 C0.0919059928,18.54784 0.36864061,19.3931257 0.941079453,20.0247165 C1.5135183,20.6563074 2.32760783,21.0145644 3.18,21.01 L15,21.01 C15.8523922,21.0145644 16.6664817,20.6563074 17.2389205,20.0247165 C17.8113594,19.3931257 18.088094,18.54784 18,17.7 C17.72,14.87 16.66,12.44 13.08,11.47 L13.08,11.47 Z M5.09,7 C5.09,4.790861 6.880861,3 9.09,3 C11.299139,3 13.09,4.790861 13.09,7 C13.09,9.209139 11.299139,11 9.09,11 C6.880861,11 5.09,9.209139 5.09,7 L5.09,7 Z M15.77,18.67 C15.5739985,18.8873893 15.2925933,19.0079915 15,19 L3.18,19 C2.89457654,19.0017327 2.62201558,18.8814153 2.43096831,18.6693529 C2.23992104,18.4572904 2.14859758,18.173696 2.18,17.89 C2.44,15.31 3.18,13 9.09,13 C15,13 15.76,15.31 16.03,17.89 C16.0591698,18.1752515 15.9644867,18.4593007 15.77,18.67 L15.77,18.67 Z" transform="translate(3 1)"/>
    </g>
  </g>
</svg>
