<svg xmlns="http://www.w3.org/2000/svg" width="24" height="24" viewBox="0 0 24 24">
  <g fill="none" fill-rule="evenodd" transform="translate(-456 -360)">
    <rect width="504" height="450" fill="#FFF"/>
    <g transform="translate(456 360)">
      <rect width="24" height="24"/>
      <g fill="#000" fill-rule="nonzero" transform="translate(1 4)">
        <path d="M18.5,0.3 L3.5,0.3 C1.84314575,0.3 0.5,1.64314575 0.5,3.3 L0.5,13.3 C0.5,14.9568542 1.84314575,16.3 3.5,16.3 L18.5,16.3 C20.1568542,16.3 21.5,14.9568542 21.5,13.3 L21.5,3.3 C21.5,1.64314575 20.1568542,0.3 18.5,0.3 Z M19.5,13.3 C19.5,13.8522847 19.0522847,14.3 18.5,14.3 L3.5,14.3 C2.94771525,14.3 2.5,13.8522847 2.5,13.3 L2.5,3.3 C2.5,2.74771525 2.94771525,2.3 3.5,2.3 L18.5,2.3 C19.0522847,2.3 19.5,2.74771525 19.5,3.3 L19.5,13.3 Z"/>
        <path d="M14.22,7.19 L9.94,4.74 C9.49536166,4.4782051 8.94370417,4.47820579 8.49906649,4.74000181 C8.0544288,5.00179783 7.78679309,5.48418472 7.8,6 L7.8,10.9 C7.80246088,11.4065654 8.07274091,11.8740247 8.51053008,12.1288878 C8.94831925,12.383751 9.4882744,12.387978 9.93,12.14 L14.22,9.69 C14.6639926,9.43497281 14.93775,8.96202373 14.93775,8.45 C14.93775,7.93797627 14.6639926,7.46502719 14.22,7.21 L14.22,7.19 Z M9.8,9.89 L9.8,7 L12.36,8.46 L9.8,9.89 Z"/>
      </g>
    </g>
  </g>
</svg>
