<svg xmlns="http://www.w3.org/2000/svg" viewBox="0 0 24 24"><g class="icon__shape" fill="currentColor" fill-rule="nonzero"><path d="M8.3 5.73a1 1 0 0 0-1.12.4L5.46 8.71H3a1 1 0 0 0-1 1v7a1 1 0 0 0 1 1h2.46l1.72 2.54a1 1 0 0 0 .83.44 1 1 0 0 0 .29 0 1 1 0 0 0 .71-1v-13a1 1 0 0 0-.71-.96zM7 16.43l-.19-.29a1 1 0 0 0-.81-.43H4v-5h2a1 1 0 0 0 .83-.44L7 10v6.43zm8.55-9.48a1 1 0 1 0-1.39 1.44 6 6 0 0 1 0 8.64 1 1 0 0 0 1.38 1.45 8 8 0 0 0 0-11.53h.01z"/><path d="M11.49 9.22a1 1 0 1 0-.88 1.78 1.87 1.87 0 0 1 0 3.38A1 1 0 0 0 11 16.3a1 1 0 0 0 .43-.1 3.87 3.87 0 0 0 .06-7v.02zm7.94-3.93a1 1 0 0 0-1.57 1.23 10 10 0 0 1 0 12.37 1 1 0 1 0 1.57 1.24 12 12 0 0 0 0-14.84z"/></g></svg>
