<svg xmlns="http://www.w3.org/2000/svg" width="24" height="24" viewBox="0 0 24 24">
  <g fill="none" fill-rule="evenodd" transform="translate(-72 -402)">
    <rect width="504" height="450" fill="#FFF"/>
    <g transform="translate(72 402)">
      <rect width="24" height="24"/>
      <g fill="#000" fill-rule="nonzero" transform="translate(2 4)">
        <path d="M6.3,1.73 C5.87933029,1.60272514 5.42486896,1.76503276 5.18,2.13 L3.46,4.71 L1,4.71 C0.44771525,4.71 0,5.15771525 0,5.71 L0,12.71 C0,13.2622847 0.44771525,13.71 1,13.71 L3.46,13.71 L5.18,16.25 C5.36627044,16.5255788 5.67737392,16.6905011 6.01,16.69 C6.10615315,16.7040911 6.20384685,16.7040911 6.3,16.69 C6.73728287,16.5579485 7.02950364,16.1463699 7.01,15.69 L7.01,2.69 C7.01131269,2.24831731 6.72270456,1.85808659 6.3,1.73 L6.3,1.73 Z M5,12.43 L4.81,12.14 C4.62551061,11.8740146 4.3236823,11.7137848 4,11.71 L2,11.71 L2,6.71 L4,6.71 C4.33262608,6.71050114 4.64372956,6.54557882 4.83,6.27 L5,6 L5,12.43 Z M13.55,2.95 C13.2927688,2.70170042 12.9226111,2.60949336 12.5789617,2.70811234 C12.2353123,2.80673133 11.9703798,3.08119378 11.8839617,3.42811234 C11.7975436,3.77503091 11.9027688,4.14170042 12.16,4.39 C13.3333112,5.52089939 13.9961556,7.08040106 13.9961556,8.71 C13.9961556,10.3395989 13.3333112,11.8991006 12.16,13.03 C11.7595936,13.4110765 11.7439235,14.0445936 12.125,14.445 C12.5060765,14.8454064 13.1395936,14.8610765 13.54,14.48 C15.1075764,12.9718093 15.9933997,10.8903011 15.9933997,8.715 C15.9933997,6.53969886 15.1075764,4.45819075 13.54,2.95 L13.55,2.95 Z"/>
        <path d="M9.49,5.22 C9.1669391,5.00879631 8.75117232,5.00236915 8.42173753,5.20348619 C8.09230275,5.40460323 7.90802115,5.77735465 7.94824825,6.16122588 C7.98847535,6.54509711 8.24602853,6.87154723 8.61,7 C9.26310344,7.30935456 9.67950016,7.96733525 9.67950016,8.69 C9.67950016,9.41266475 9.26310344,10.0706454 8.61,10.38 C8.17315247,10.5660939 7.92740645,11.0337311 8.02192674,11.4990618 C8.11644702,11.9643924 8.52516755,12.2990911 9,12.3 C9.14899327,12.299117 9.29590632,12.2649512 9.43,12.2 C10.7900786,11.5726261 11.6660204,10.2167661 11.6788582,8.71901878 C11.6916961,7.2212715 10.8391246,5.85059563 9.49,5.2 L9.49,5.22 Z M17.43,1.29 C17.0774253,0.903189855 16.4862319,0.853678435 16.0742304,1.17645666 C15.6622289,1.49923489 15.5688121,2.08509698 15.86,2.52 C18.7162027,6.14871568 18.7162027,11.2612843 15.86,14.89 C15.6384953,15.1704535 15.5834367,15.5477745 15.7155642,15.87983 C15.8476917,16.2118854 16.146932,16.4482281 16.5005642,16.49983 C16.8541964,16.5514319 17.2084953,16.4104535 17.43,16.13 C20.8553447,11.7763077 20.8553447,5.64369229 17.43,1.29 Z"/>
      </g>
    </g>
  </g>
</svg>
