<svg viewBox="0 0 24 24" xmlns="http://www.w3.org/2000/svg"><path class="icon__shape" fill="currentColor" d="M17.8209 11.262C17.7442 10.2664 17.5179 9.30333 17.152 8.39432C17.6576 8.11592 18.1446 7.79915 18.603 7.4381C19.3704 8.54386 19.8652 9.8503 19.9951 11.262H17.8209ZM16.5125 16.9107C16.9158 17.1389 17.3064 17.3908 17.6743 17.679C16.6601 18.6933 15.3743 19.4282 13.94 19.7853C14.9857 19.0002 15.8583 18.0243 16.5125 16.9107ZM7.50219 16.903C8.15934 18.0235 9.03588 19.0044 10.0905 19.7933C8.64434 19.4392 7.34773 18.7004 6.3256 17.6792C6.69845 17.389 7.09392 17.1322 7.50219 16.903ZM7.51202 7.0764C7.10572 6.84915 6.71221 6.59632 6.34133 6.30611C7.36052 5.29382 8.65122 4.55993 10.0905 4.20675C9.04276 4.99082 8.16819 5.96475 7.51202 7.0764ZM13.94 4.21444C15.3674 4.56958 16.6473 5.30052 17.6596 6.30691C17.2926 6.59221 16.9031 6.84307 16.5017 7.06835C15.8494 5.96259 14.9788 4.99555 13.94 4.21444ZM12.7379 8.21719V5.14489C13.7275 5.81483 14.549 6.68645 15.1638 7.68596C14.3876 7.97027 13.5741 8.15128 12.7379 8.21719ZM12.7379 11.2623V9.69322C13.7993 9.62042 14.8362 9.39711 15.8161 9.02328C16.0945 9.73552 16.2745 10.4871 16.3453 11.2623H12.7379ZM12.7379 14.2804V12.7379H16.3453C16.2755 13.5052 16.0984 14.2479 15.8249 14.9543C14.8421 14.5785 13.8033 14.3542 12.7379 14.2804ZM12.7379 18.8548V15.7559C13.578 15.8228 14.3965 16.0048 15.1766 16.2911C14.5598 17.3005 13.7344 18.1799 12.7379 18.8548ZM11.2622 15.7559V18.8391C10.2725 18.1662 9.45303 17.2896 8.84014 16.2852C9.61535 16.0029 10.4279 15.8228 11.2622 15.7559ZM11.2622 12.7379V14.2804C10.2037 14.3542 9.16976 14.5765 8.19288 14.9484C7.92038 14.244 7.74429 13.5032 7.67444 12.7379H11.2622ZM11.2622 9.69311V11.2622H7.67444C7.74527 10.489 7.92333 9.73934 8.20174 9.02808C9.17665 9.39798 10.2067 9.62129 11.2622 9.69311ZM11.2621 5.16074V8.2173C10.4318 8.15139 9.62414 7.97235 8.85287 7.69197C9.46379 6.6964 10.2803 5.8297 11.2621 5.16074ZM5.39691 7.4381C5.86027 7.80308 6.35215 8.12281 6.86371 8.40318C6.49972 9.30923 6.27542 10.2694 6.19869 11.262H4.00488C4.13474 9.8503 4.62958 8.54386 5.39691 7.4381ZM4.00488 12.7379H6.19869C6.27444 13.7226 6.49578 14.6759 6.85584 15.575C6.34232 15.8574 5.84945 16.1781 5.38413 16.545C4.62466 15.4422 4.13376 14.1427 4.00488 12.7379ZM18.6159 16.546C18.1555 16.183 17.6675 15.8653 17.1599 15.5849C17.5209 14.6818 17.7443 13.7256 17.821 12.7379H19.9951C19.8662 14.1427 19.3753 15.4432 18.6159 16.546ZM12 2C6.48598 2 2 6.48598 2 12C2 17.514 6.48598 22 12 22C17.514 22 22 17.514 22 12C22 6.48598 17.514 2 12 2Z" /></svg>
