<svg xmlns="http://www.w3.org/2000/svg" width="24" height="24" viewBox="0 0 24 24">
  <g fill="none" fill-rule="evenodd" transform="translate(-120 -402)">
    <rect width="504" height="450" fill="#FFF"/>
    <g transform="translate(120 402)">
      <rect width="24" height="24"/>
      <g fill="#000" fill-rule="nonzero" transform="translate(1 3)">
        <path d="M16.8,0.2 L4.8,0.2 C2.590861,0.2 0.8,1.990861 0.8,4.2 L0.8,14.2 C0.8,16.409139 2.590861,18.2 4.8,18.2 L16.8,18.2 C19.009139,18.2 20.8,16.409139 20.8,14.2 L20.8,4.2 C20.8,1.990861 19.009139,0.2 16.8,0.2 Z M2.8,4.2 C2.8,3.0954305 3.6954305,2.2 4.8,2.2 L16.8,2.2 C17.9045695,2.2 18.8,3.0954305 18.8,4.2 L18.8,6.5 L2.8,6.5 L2.8,4.2 Z M18.8,14.2 C18.8,15.3045695 17.9045695,16.2 16.8,16.2 L4.8,16.2 C3.6954305,16.2 2.8,15.3045695 2.8,14.2 L2.8,8.5 L18.8,8.5 L18.8,14.2 Z"/>
        <path d="M6.51,3.69 C6.11996255,3.30227641 5.49003745,3.30227641 5.1,3.69 C5.00471235,3.77585331 4.92958595,3.88171323 4.88,4 C4.82746347,4.12332409 4.80025773,4.25595205 4.8,4.39 C4.80157999,4.52067726 4.82875903,4.64977769 4.88,4.77 C4.928287,4.89187972 5.00349359,5.00127113 5.1,5.09 C5.28626064,5.27474416 5.53766012,5.37889538 5.8,5.38 C5.93001292,5.38159286 6.05908867,5.35781575 6.18,5.31 C6.30468668,5.26153126 6.41730321,5.18645357 6.51,5.09 C6.59995097,4.99784963 6.67125687,4.88919302 6.72,4.77 C6.77447167,4.6543602 6.80183305,4.5278138 6.8,4.4 C6.80466097,4.26227122 6.77727504,4.12534157 6.72,4 C6.67014262,3.88436631 6.59889389,3.77918961 6.51,3.69 L6.51,3.69 Z M15.8,3.4 L8.8,3.4 C8.24771525,3.4 7.8,3.84771525 7.8,4.4 C7.8,4.95228475 8.24771525,5.4 8.8,5.4 L15.8,5.4 C16.3522847,5.4 16.8,4.95228475 16.8,4.4 C16.8,3.84771525 16.3522847,3.4 15.8,3.4 Z"/>
      </g>
    </g>
  </g>
</svg>
