<svg xmlns="http://www.w3.org/2000/svg" width="24" height="24" viewBox="0 0 24 24">
  <g fill="none" fill-rule="evenodd" transform="translate(-168 -402)">
    <rect width="504" height="450" fill="#FFF"/>
    <g transform="translate(168 402)">
      <rect width="24" height="24"/>
      <g fill="#000" fill-rule="nonzero" transform="translate(3 3)">
        <circle cx="2.06" cy="16.09" r="1.94"/>
        <path d="M2.06,9.39 C1.50771525,9.39 1.06,9.83771525 1.06,10.39 C1.06,10.9422847 1.50771525,11.39 2.06,11.39 C4.64793371,11.3955004 6.74449959,13.4920663 6.75,16.08 C6.75,16.6322847 7.19771525,17.08 7.75,17.08 C8.30228475,17.08 8.75,16.6322847 8.75,16.08 C8.7444929,12.3874985 5.75250146,9.3955071 2.06,9.39 L2.06,9.39 Z"/>
        <path d="M2.06,4.71 C1.50771525,4.71 1.06,5.15771525 1.06,5.71 C1.06,6.26228475 1.50771525,6.71 2.06,6.71 C7.23262341,6.71551159 11.4244884,10.9073766 11.43,16.08 C11.43,16.4372656 11.6205989,16.7673926 11.93,16.9460254 C12.2394011,17.1246582 12.6205989,17.1246582 12.93,16.9460254 C13.2394011,16.7673926 13.43,16.4372656 13.43,16.08 C13.4189914,9.80508798 8.33491202,4.72100864 2.06,4.71 L2.06,4.71 Z"/>
        <path d="M2.06,8.8817842e-16 C1.50771525,8.8817842e-16 1.06,0.44771525 1.06,1 C1.06,1.55228475 1.50771525,2 2.06,2 C5.79159717,2.00530056 9.36825178,3.49275718 12.0031387,6.13514557 C14.6380256,8.77753396 16.1153081,12.3584028 16.11,16.09 C16.11,16.6422847 16.5577153,17.09 17.11,17.09 C17.6622847,17.09 18.11,16.6422847 18.11,16.09 C18.1155334,7.21706029 10.932926,0.0165522698 2.06,8.8817842e-16 Z"/>
      </g>
    </g>
  </g>
</svg>
