<svg xmlns="http://www.w3.org/2000/svg" width="24" height="24" viewBox="0 0 24 24">
  <g fill="none" fill-rule="evenodd" transform="translate(-216 -402)">
    <rect width="504" height="450" fill="#FFF"/>
    <g transform="translate(216 402)">
      <rect width="24" height="24"/>
      <path fill="#000" fill-rule="nonzero" d="M20.85,3.58 C20.7450622,2.82954976 20.4527307,2.11763674 20,1.51 C19.4453017,0.95451708 18.6949699,0.638587861 17.91,0.63 C14.99,0.42 10.62,0.42 10.62,0.42 C10.62,0.42 6.24,0.42 3.33,0.63 C2.54503015,0.638587861 1.79469825,0.95451708 1.24,1.51 C0.794402836,2.11963463 0.509010635,2.8313959 0.41,3.58 C0.28138471,4.71553146 0.214619455,5.85721732 0.21,7 L0.21,8.58 C0.219738737,9.70627852 0.289839292,10.8312255 0.42,11.95 C0.522232195,12.6916304 0.807475289,13.3961465 1.25,14 C1.88473118,14.5635394 2.70126559,14.8795027 3.55,14.89 C5.22,15.05 10.64,15.1 10.64,15.1 C10.64,15.1 15.02,15.1 17.94,14.88 C18.7145329,14.8636519 19.452714,14.5483124 20,14 C20.4455972,13.3903654 20.7309894,12.6786041 20.83,11.93 C20.9600654,10.811217 21.0301656,9.68627513 21.04,8.56 L21.04,7 C21.0386026,5.85740168 20.9751759,4.71572173 20.85,3.58 L20.85,3.58 Z M8.48,10.45 L8.48,4.59 L14.11,7.53 L8.48,10.45 Z" transform="translate(1 4)"/>
    </g>
  </g>
</svg>
