<svg xmlns="http://www.w3.org/2000/svg" width="24" height="24" viewBox="0 0 24 24">
  <g fill="none" fill-rule="evenodd" transform="translate(-312 -402)">
    <rect width="504" height="450" fill="#FFF"/>
    <g transform="translate(312 402)">
      <rect width="24" height="24"/>
      <g fill="#000" fill-rule="nonzero" transform="translate(2 2)">
        <path d="M19.15,17.71 L15,13.61 C17.5787077,10.2588772 17.1042136,5.47968367 13.9169214,2.70102836 C10.7296292,-0.0776269459 5.93037253,0.103953894 2.96215389,3.11550419 C-0.00606475043,6.12705449 -0.11807573,10.9284386 2.70647799,14.0751279 C5.53103171,17.2218171 10.3165998,17.6270013 13.63,15 L17.73,19.1 C18.1267603,19.4397768 18.7181942,19.4169323 19.0875632,19.0475632 C19.4569323,18.6781942 19.4797768,18.0867603 19.14,17.69 L19.15,17.71 Z M8.76,14.71 C5.4462915,14.71 2.76,12.0237085 2.76,8.71 C2.76,5.3962915 5.4462915,2.71 8.76,2.71 C12.0737085,2.71 14.76,5.3962915 14.76,8.71 C14.76,10.3012989 14.127859,11.8274224 13.0026407,12.9526407 C11.8774224,14.077859 10.3512989,14.71 8.76,14.71 Z"/>
        <path d="M11.93,7.74 L5.78,7.74 C5.22771525,7.74 4.78,8.18771525 4.78,8.74 C4.78,9.29228475 5.22771525,9.74 5.78,9.74 L11.93,9.74 C12.4822847,9.74 12.93,9.29228475 12.93,8.74 C12.93,8.18771525 12.4822847,7.74 11.93,7.74 Z"/>
      </g>
    </g>
  </g>
</svg>
