<svg id="Layer_1" data-name="Layer 1" xmlns="http://www.w3.org/2000/svg" viewBox="0 0 27 22"><defs><style>.cls-1{fill:#1d1d1d;}</style></defs><title>Artboard 1 copy 47</title><path class="cls-1" d="M8.26,2.23a1,1,0,0,0-1.12.47L5.23,6H2A1,1,0,0,0,1,7v8a1,1,0,0,0,1,1H5.26l1.89,3.06a1,1,0,0,0,.85.47,1,1,0,0,0,1-1V3.2A1,1,0,0,0,8.26,2.23Z"/><path class="cls-1" d="M16.43,3.75a1,1,0,0,0,0,1.41,7.92,7.92,0,0,1-.05,11.45,1,1,0,0,0,1.38,1.45,9.92,9.92,0,0,0,.06-14.33A1,1,0,0,0,16.43,3.75Z"/><path class="cls-1" d="M12.72,6.67a1,1,0,0,0-.88,1.79,2.67,2.67,0,0,1,0,4.82,1,1,0,0,0,.43,1.9,1,1,0,0,0,.43-.1,4.71,4.71,0,0,0,2.7-4.23A4.66,4.66,0,0,0,12.72,6.67Z"/><path class="cls-1" d="M22.76,1.58a1,1,0,1,0-1.57,1.23,13,13,0,0,1,0,16.15,1,1,0,1,0,1.57,1.24,15,15,0,0,0,0-18.62Z"/></svg>