<svg id="Layer_1" data-name="Layer 1" xmlns="http://www.w3.org/2000/svg" viewBox="0 0 22 22"><defs><style>.cls-1{fill:#1d1d1d;}</style></defs><title>Artboard 1 copy 88</title><path class="cls-1" d="M17,1H5A4,4,0,0,0,1,5V17a4,4,0,0,0,4,4H17a4,4,0,0,0,4-4V5A4,4,0,0,0,17,1Zm2,16a2,2,0,0,1-2,2H5a2,2,0,0,1-2-2V5A2,2,0,0,1,5,3H17a2,2,0,0,1,2,2Z"/><polygon class="cls-1" points="12 12 12 15 14 15 14 12 17 12 17 7 12 7 12 12"/><polygon class="cls-1" points="5 12 5 15 7 15 7 14.25 7 12 10 12 10 7 5 7 5 12"/></svg>