<svg id="Layer_1" data-name="Layer 1" xmlns="http://www.w3.org/2000/svg" viewBox="0 0 22 22"><defs><style>.cls-1{fill:#1d1d1d;}</style></defs><title>Artboard 1 copy 89</title><path class="cls-1" d="M18,1H4A3,3,0,0,0,1,4V20a1,1,0,0,0,1.37.93L7.19,19H18a3,3,0,0,0,3-3V4A3,3,0,0,0,18,1Zm1,15a1,1,0,0,1-1,1H7a1,1,0,0,0-.17,0c-.07,0-.14,0-.21,0l0,0h0L3,18.52V4A1,1,0,0,1,4,3H18a1,1,0,0,1,1,1Z"/><rect class="cls-1" x="5" y="5" width="12" height="2"/><rect class="cls-1" x="5" y="9" width="12" height="2"/><rect class="cls-1" x="5" y="13" width="8" height="2"/></svg>