<svg id="Layer_1" data-name="Layer 1" xmlns="http://www.w3.org/2000/svg" viewBox="0 0 22 22"><defs><style>.cls-1{fill:#1d1d1d;}</style></defs><title>Contact 2</title><path class="cls-1" d="M18,1H4C2.28,1,1,2.85,1,4.5V14a3,3,0,0,0,3,3H5v3a1,1,0,0,0,.6.92A1.14,1.14,0,0,0,6,21a1,1,0,0,0,.68-.27l4-3.76H18a3,3,0,0,0,3-3V4.5C21,2.85,19.72,1,18,1Zm1,13a1,1,0,0,1-1,1H10.38a.86.86,0,0,0-.22,0l-.16.05a.94.94,0,0,0-.33.2L7,17.74V16a1.23,1.23,0,0,0,0-.2A1,1,0,0,0,6,15H4a1,1,0,0,1-1-1V4.5C3,3.84,3.56,3,4,3H18c.44,0,1,.84,1,1.5Z"/><path class="cls-1" d="M14.76,8.21,11.93,5.38a1,1,0,0,0-1.41,1.41L11.72,8H8a1,1,0,0,0,0,2h3.76l-1.21,1.21a1,1,0,1,0,1.41,1.41l2.83-2.83A1,1,0,0,0,15,9,1,1,0,0,0,14.76,8.21Z"/></svg>