<svg id="Layer_1" data-name="Layer 1" xmlns="http://www.w3.org/2000/svg" viewBox="0 0 22 22"><defs><style>.cls-1{fill:#1d1d1d;}</style></defs><title>Artboard 1 copy 56</title><path class="cls-1" d="M18,7H17a1,1,0,0,0,0,2h1a1,1,0,0,1,1,1v8a1,1,0,0,1-1,1H4a1,1,0,0,1-1-1V10A1,1,0,0,1,4,9H5.33a1,1,0,1,0,0-2H4a3,3,0,0,0-3,3v8a3,3,0,0,0,3,3H18a3,3,0,0,0,3-3V10A3,3,0,0,0,18,7Z"/><path class="cls-1" d="M10.2,16.6a1,1,0,0,0,1.6,0l3-4a1,1,0,1,0-1.6-1.2L12,13V8a5,5,0,0,1,5-5h3a1,1,0,0,0,0-2H17a7,7,0,0,0-7,7v5L8.8,11.4a1,1,0,1,0-1.6,1.2Z"/></svg>