<svg id="Layer_1" data-name="Layer 1" xmlns="http://www.w3.org/2000/svg" viewBox="0 0 24 22"><title>Embed</title><path class="icon-sprite__shape" fill="#1d1d1d" d="M6,15.78a1,1,0,0,1-.71-.29L1.51,11.71a1,1,0,0,1,0-1.41L5.29,6.51A1,1,0,0,1,6.71,7.93L3.64,11l3.07,3.07A1,1,0,0,1,6,15.78Z"/><path class="icon-sprite__shape" fill="#1d1d1d" d="M18,15.78a1,1,0,0,1-.71-1.71L20.36,11,17.29,7.93a1,1,0,0,1,1.41-1.41l3.78,3.78a1,1,0,0,1,0,1.41l-3.78,3.78A1,1,0,0,1,18,15.78Z"/><path class="icon-sprite__shape" fill="#1d1d1d" d="M8.87,21a1,1,0,0,1-1-1.37L13.68,2.1a1,1,0,1,1,2,.65L9.86,20.29A1,1,0,0,1,8.87,21Z"/></svg>