<svg id="Layer_1" data-name="Layer 1" xmlns="http://www.w3.org/2000/svg" viewBox="0 0 22 20"><title>Artboard 1 copy 38</title><path class="icon-sprite__shape" fill="#1d1d1d" d="M8,4H20a1,1,0,0,0,0-2H8A1,1,0,0,0,8,4Z"/><path class="icon-sprite__shape" fill="#1d1d1d" d="M20,9H8a1,1,0,0,0,0,2H20a1,1,0,0,0,0-2Z"/><path class="icon-sprite__shape" fill="#1d1d1d" d="M20,16H8a1,1,0,0,0,0,2H20a1,1,0,0,0,0-2Z"/><circle class="icon-sprite__shape" fill="#1d1d1d" cx="3" cy="17" r="2"/><circle class="icon-sprite__shape" fill="#1d1d1d" cx="3" cy="10" r="2"/><circle class="icon-sprite__shape" fill="#1d1d1d" cx="3" cy="3" r="2"/></svg>