<svg id="Layer_1" data-name="Layer 1" xmlns="http://www.w3.org/2000/svg" viewBox="0 0 22 22"><title>Artboard 1 copy 33</title><path class="icon-sprite__shape" fill="#1d1d1d" d="M20,4H18V2a1,1,0,0,0-2,0V4H14a1,1,0,0,0,0,2h2V8a1,1,0,0,0,2,0V6h2a1,1,0,0,0,0-2Z"/><path class="icon-sprite__shape" fill="#1d1d1d" d="M11.62,13.43a5,5,0,1,0-7.14.12c-2.42.87-3.17,2.7-3.38,4.81A2.4,2.4,0,0,0,3.49,21H13a2.4,2.4,0,0,0,2.39-2.65C15.13,16.15,14.32,14.24,11.62,13.43ZM8,7a3,3,0,1,1-3,3A3,3,0,0,1,8,7Zm5.27,11.87A.39.39,0,0,1,13,19H3.49a.4.4,0,0,1-.4-.44c.2-1.95.72-3.56,5.13-3.56s5,1.61,5.15,3.56A.39.39,0,0,1,13.27,18.87Z"/></svg>