<svg id="Layer_1" data-name="Layer 1" xmlns="http://www.w3.org/2000/svg" viewBox="0 0 22 22"><title>Artboard 1 copy 63</title><path class="icon-sprite__shape" fill="#1d1d1d" d="M18,10H15a1,1,0,0,0,0,2h3a1,1,0,0,1,1,1v5a1,1,0,0,1-1,1H4a1,1,0,0,1-1-1V13a1,1,0,0,1,1-1H7a1,1,0,0,0,0-2H4a3,3,0,0,0-3,3v5a3,3,0,0,0,3,3H18a3,3,0,0,0,3-3V13A3,3,0,0,0,18,10Z"/><path class="icon-sprite__shape" fill="#1d1d1d" d="M7.78,7.62,10,4.85V16a1,1,0,0,0,2,0V4.85l2.22,2.77a1,1,0,0,0,1.56-1.25l-4-5a1,1,0,0,0-1.56,0l-4,5A1,1,0,0,0,7.78,7.62Z"/></svg>