<svg class="icon-wellcome-logo" version="1.1" xmlns="http://www.w3.org/2000/svg" xmlns:xlink="http://www.w3.org/1999/xlink"
	 viewBox="0 0 181.417 181.417">
<path d="M181.417,181.418H0V0h181.417V181.418z M126.376,31.091l-12.128,46.076c-4.621-17.574-8.857-33.457-9.574-36.072
	c-1.852-6.752-6.348-9.996-12.977-9.996c-7.18,0-12.369-0.008-12.369-0.008c-0.035,0-0.059,0-0.059,0L67.133,77.205L54.996,31.091
	l-27.221,3.164c0,0,14.951,56.924,17.684,67.252c1.748,6.611,5.252,11.082,11.934,12.895c6.91,1.877,21.139,6.113,21.139,6.113
	l12.158-46.242c3.686,14.014,6.506,24.314,7.611,28.361c1.65,6.049,5.623,9.9,12.535,11.934c9.35,2.748,20.073,5.947,20.073,5.947
	l22.73-86.426L126.376,31.091z M104.945,140.468c-4.301,0-6.84,2.164-7.85,5.074c-0.846-3.533-4.072-5.074-7.469-5.074
	c-4.277,0-7.525,2.537-8.262,6.504v-12.01h-5.76v21.602h5.76v-5.924c0.725,4.166,3.875,6.316,8.084,6.316
	c3.6,0,6.566-1.789,7.666-5.047c1.021,2.893,3.555,5.047,7.83,5.047c5.756,0,8.354-3.902,8.354-8.26
	C113.299,144.343,110.701,140.468,104.945,140.468z M91.959,150.355c-0.15,1.275-0.941,2.334-2.449,2.334
	c-1.859,0-2.541-1.449-2.541-3.965c0-1.906,0.471-3.99,2.658-3.99c1.363,0,2.182,0.908,2.182,2.482h4.885
	c-0.07,0.484-0.107,0.979-0.107,1.48c0,0.562,0.045,1.117,0.133,1.658H91.959z M104.945,152.689c-2.273,0-2.6-2.299-2.6-3.992
	c0-1.691,0.326-3.963,2.6-3.963c2.268,0,2.596,2.271,2.596,3.963C107.541,150.39,107.213,152.689,104.945,152.689z M146.899,153.205
	c-1.895,0-2.92-1.305-3.068-3.178h11.307c-0.027-6.08-2.658-9.559-8.564-9.559c-4.107,0-7.029,2.523-7.936,5.967v-0.67
	c0-2.545-1.326-5.297-5.23-5.297c-2.268,0-3.662,0.814-4.459,1.6c-0.082,0.094-0.174,0.186-0.232,0.273
	c-0.295,0.309-0.445,0.518-0.562,0.639c-0.734-1.635-2.512-2.512-4.134-2.512c-2.123,0-3.838,0.666-5.047,2.512h-0.092v-2.117
	h-5.582v7.834v7.867h5.762v-8.504c0-1.662,0.5-2.9,2.037-2.9c1.861,0,1.975,1.418,1.975,2.9v8.504h5.794v-8.504
	c0-1.662,0.498-2.9,2.031-2.9c1.832,0,1.98,1.418,1.98,2.9v8.504h5.76v-5.373c0.951,3.705,4.121,5.766,8.201,5.766
	c3.547,0,6.736-1.541,7.945-4.873h-5.381C148.907,152.843,147.843,153.205,146.899,153.205z M146.839,144.218
	c1.684,0,2.77,1.213,2.77,2.787h-5.752C144.153,145.183,145.188,144.218,146.839,144.218z M68.156,145.886
	c-1.047-3.49-3.621-5.418-8.018-5.418c-3.393,0-5.979,1.723-7.289,4.262l1.201-3.867h-6.025l-2.152,9.768h-0.119l-2.07-9.768h-5.43
	l-1.953,9.768h-0.088l-2.303-9.768h-6.023l4.781,15.701h5.938l2.303-9.713h0.086l2.244,9.713h5.938l2.818-9.074
	c-0.057,0.414-0.096,0.838-0.096,1.27c0,5.23,3.609,8.197,8.506,8.197c3.371,0,6.414-1.396,7.752-4.396v4.004h5.756v-21.602h-5.756
	V145.886z M60.404,144.218c1.686,0,2.777,1.213,2.777,2.787h-5.758C57.717,145.183,58.748,144.218,60.404,144.218z M62.971,152.083
	c-0.5,0.76-1.562,1.121-2.508,1.121c-1.885,0-2.914-1.305-3.066-3.178h10.76v2.057H62.971z"/>
</svg>
