<svg version="1.1" xmlns="http://www.w3.org/2000/svg" xmlns:xlink="http://www.w3.org/1999/xlink" viewBox="0 0 332.797 57.523">
	<rect x="124.798" y="0" width="15.061" height="56.5"/>
	<path d="M161.002,57.524c-12.59,0-21.551-7.349-21.551-21.529c0-12.97,9.264-21.596,22.018-21.596
		c10.184,0,19.775,5.296,20.085,17.65h-14.376c0-4.116-2.146-6.489-5.709-6.489c-5.72,0-6.952,5.451-6.952,10.435
		c0,6.581,1.784,10.365,6.643,10.365c3.948,0,6.018-2.766,6.41-6.102h14.44C180.463,51.346,171.821,57.524,161.002,57.524"/>
	<path d="M223.375,35.923c0-11.392-6.791-21.523-21.847-21.523s-21.862,10.134-21.862,21.523c0,11.397,6.808,21.602,21.862,21.602
		C216.584,57.525,223.375,47.321,223.375,35.923 M208.32,35.923c0,4.428-0.854,10.438-6.791,10.438c-5.94,0-6.802-6.01-6.802-10.438
		c0-4.426,0.861-10.362,6.802-10.362C207.465,25.561,208.32,31.497,208.32,35.923"/>
	<path d="M274.586,56.5V34.258c0-3.881-0.39-7.586-5.18-7.586c-4.007,0-5.318,3.238-5.318,7.586V56.5h-15.149V34.258
		c0-3.881-0.296-7.586-5.167-7.586c-4.016,0-5.325,3.238-5.325,7.586V56.5h-15.069V15.432h14.598v5.54h0.242
		c3.162-4.831,7.645-6.572,13.203-6.572c4.24,0,8.882,2.294,10.812,6.572c0.304-0.316,0.696-0.869,1.465-1.667
		c0.159-0.238,0.394-0.479,0.614-0.715c2.081-2.054,5.73-4.19,11.663-4.19c10.208,0,13.673,7.202,13.673,13.853V56.5H274.586z"/>
	<path d="M332.797,39.401c-0.07-15.899-6.947-25.002-22.396-25.002c-13.049,0-21.542,9.73-21.542,21.688
		c0,13.682,9.418,21.438,22.237,21.438c9.272,0,17.614-4.029,20.778-12.747h-14.07c-1.297,1.991-4.082,2.936-6.551,2.936
		c-4.955,0-7.641-3.417-8.026-8.312H332.797z M318.342,31.497h-15.049c0.772-4.762,3.488-7.284,7.804-7.284
		C315.502,24.213,318.342,27.381,318.342,31.497"/>
	<polygon points="52.666,15.432 47.036,40.98 46.725,40.98 41.311,15.432 27.106,15.432 22.007,40.98 21.772,40.98 15.754,15.432
		0,15.432 12.505,56.5 28.031,56.5 34.054,31.095 34.281,31.095 40.146,56.5 55.674,56.5 68.425,15.432 	"/>
	<rect x="105.312" y="0" width="15.061" height="56.5"/>
	<path d="M106.747,39.401c-0.083-15.899-6.948-25.002-22.399-25.002c-13.043,0-21.548,9.73-21.548,21.688
		c0,13.682,9.433,21.438,22.241,21.438c9.275,0,17.61-4.029,20.79-12.747H91.754c-1.308,1.991-4.085,2.936-6.559,2.936
		c-4.93,0-7.625-3.417-8.02-8.312H106.747z M92.307,31.497H77.245c0.77-4.762,3.467-7.284,7.795-7.284
		C89.452,24.213,92.307,27.381,92.307,31.497"/>
</svg>
