<svg viewBox="0 0 26 26"><path fill="#1d1d1d" class="icon__shape" d="M13 6.9c-3.6 0-4.4 3.4-4.4 6.2s.9 6.2 4.4 6.2 4.5-3.4 4.5-6.2-.9-6.2-4.5-6.2zm-1.9 6.2c0-1.2.1-3.9 1.9-3.9.1 0 .3 0 .4.1.3.2.4.6.2.9v.1l-2.4 4.4c-.1-.6-.1-1.1-.1-1.6zm1.9 3.8h-.6c-.4-.2-.7-.5-.3-1l2.6-4.6c.1.6.1 1.2.1 1.9.1 1.1 0 3.7-1.8 3.7z"/><path fill="#1d1d1d" class="icon__shape" d="M23 8.9c-.5-1.3-1.3-2.5-2.3-3.5-2-2.1-4.8-3.2-7.7-3.2-2.9-.1-5.6 1.1-7.6 3.1C4.4 6.4 3.6 7.7 3 9a10.6 10.6 0 0 0 0 8.2c.5 1.3 1.3 2.5 2.3 3.5 1 1 2.2 1.8 3.5 2.3 2.6 1.1 5.6 1.1 8.2 0 1.3-.6 2.6-1.4 3.6-2.4s1.8-2.1 2.3-3.4c.5-1.3.8-2.7.8-4.2.1-1.4-.2-2.8-.7-4.1zm-3.7 10.3c-.8.8-1.8 1.5-2.9 2-1.1.4-2.2.7-3.3.7-1.1 0-2.3-.2-3.4-.7-1.1-.5-2-1.1-2.9-1.9-.8-.8-1.5-1.8-2-2.9-.9-2.1-.9-4.6 0-6.7.5-1.1 1.2-2.1 2-2.9 1.6-1.7 3.9-2.6 6.2-2.6 2.4 0 4.6.9 6.2 2.6.8.8 1.5 1.8 1.9 2.9.4 1.1.7 2.2.7 3.4.1 2.3-.8 4.5-2.5 6.1z"/></svg>