<svg width="120" height="88" viewBox="0 0 120 88" fill="none" xmlns="http://www.w3.org/2000/svg">
<g filter="url(#filter0_d_6139_28008)">
<path d="M39 77.9127V10.0873C39 5.53758 43.866 2.64326 47.864 4.815L110.294 38.7277C114.475 40.999 114.475 47.001 110.294 49.2723L47.864 83.185C43.866 85.3567 39 82.4624 39 77.9127Z" fill="#27476E"/>
</g>
<g filter="url(#filter1_d_6139_28008)">
<path d="M14 77.9127V10.0873C14 5.53758 18.866 2.64326 22.864 4.815L85.2941 38.7277C89.4754 40.999 89.4755 47.001 85.2941 49.2723L22.864 83.185C18.866 85.3567 14 82.4624 14 77.9127Z" fill="#1DBEBB"/>
</g>
<g filter="url(#filter2_d_6139_28008)">
<path d="M14 19L14.5856 21.9992C15.8324 28.3839 20.6795 33.4601 27 35V35V35C20.4914 37.7466 15.706 43.4624 14.1465 50.3525L14 51V51C12.7253 43.7815 7.80661 37.7206 1 35V35V35C7.60874 33.4749 12.618 28.0718 13.6394 21.3667L14 19Z" fill="#FFCE3C"/>
</g>
<defs>
<filter id="filter0_d_6139_28008" x="38" y="3.07886" width="78.4297" height="83.8423" filterUnits="userSpaceOnUse" color-interpolation-filters="sRGB">
<feFlood flood-opacity="0" result="BackgroundImageFix"/>
<feColorMatrix in="SourceAlpha" type="matrix" values="0 0 0 0 0 0 0 0 0 0 0 0 0 0 0 0 0 0 127 0" result="hardAlpha"/>
<feOffset dx="1" dy="1"/>
<feGaussianBlur stdDeviation="1"/>
<feComposite in2="hardAlpha" operator="out"/>
<feColorMatrix type="matrix" values="0 0 0 0 0 0 0 0 0 0 0 0 0 0 0 0 0 0 0.25 0"/>
<feBlend mode="normal" in2="BackgroundImageFix" result="effect1_dropShadow_6139_28008"/>
<feBlend mode="normal" in="SourceGraphic" in2="effect1_dropShadow_6139_28008" result="shape"/>
</filter>
<filter id="filter1_d_6139_28008" x="13" y="3.07886" width="78.4297" height="83.8423" filterUnits="userSpaceOnUse" color-interpolation-filters="sRGB">
<feFlood flood-opacity="0" result="BackgroundImageFix"/>
<feColorMatrix in="SourceAlpha" type="matrix" values="0 0 0 0 0 0 0 0 0 0 0 0 0 0 0 0 0 0 127 0" result="hardAlpha"/>
<feOffset dx="1" dy="1"/>
<feGaussianBlur stdDeviation="1"/>
<feComposite in2="hardAlpha" operator="out"/>
<feColorMatrix type="matrix" values="0 0 0 0 0 0 0 0 0 0 0 0 0 0 0 0 0 0 0.25 0"/>
<feBlend mode="normal" in2="BackgroundImageFix" result="effect1_dropShadow_6139_28008"/>
<feBlend mode="normal" in="SourceGraphic" in2="effect1_dropShadow_6139_28008" result="shape"/>
</filter>
<filter id="filter2_d_6139_28008" x="0" y="18" width="30" height="36" filterUnits="userSpaceOnUse" color-interpolation-filters="sRGB">
<feFlood flood-opacity="0" result="BackgroundImageFix"/>
<feColorMatrix in="SourceAlpha" type="matrix" values="0 0 0 0 0 0 0 0 0 0 0 0 0 0 0 0 0 0 127 0" result="hardAlpha"/>
<feOffset dx="1" dy="1"/>
<feGaussianBlur stdDeviation="1"/>
<feComposite in2="hardAlpha" operator="out"/>
<feColorMatrix type="matrix" values="0 0 0 0 0 0 0 0 0 0 0 0 0 0 0 0 0 0 0.25 0"/>
<feBlend mode="normal" in2="BackgroundImageFix" result="effect1_dropShadow_6139_28008"/>
<feBlend mode="normal" in="SourceGraphic" in2="effect1_dropShadow_6139_28008" result="shape"/>
</filter>
</defs>
</svg>
