<svg data-name="Layer 1" viewBox="0 0 26 26"><path fill="#1d1d1d" class="icon__shape" d="M18.89 5.27H18v-2a1 1 0 0 0-2 0v2H9.83v-2a1 1 0 1 0-2 0v2h-.94a4 4 0 0 0-4 4v9.45a4 4 0 0 0 4 4h12a4 4 0 0 0 4-4V9.27a4 4 0 0 0-4-4zm-12 2h.94v1a1 1 0 0 0 2 0v-1H16v1a1 1 0 1 0 2 0v-1h.94a2 2 0 0 1 2 2v1.25h-16V9.27a2 2 0 0 1 1.95-2zm12 13.45h-12a2 2 0 0 1-2-2v-6.2h16v6.2a2 2 0 0 1-2 2z"/><path d="M6.43 17.29h2v2h-2zM9.91 13.88h2v2h-2zM9.91 17.29h2v2h-2zM13.38 13.88h2v2h-2zM13.38 17.29h2v2h-2zM16.86 13.88h2v2h-2z"/></svg>
