<svg viewBox="0 0 26 26">
  <path fill="#1d1d1d" class="icon__shape" d="M10.17,14.85a1.24,1.24,0,0,1-1.09-.52,2.38,2.38,0,0,1-.37-1.4Q8.71,11,10.17,11a1.29,1.29,0,0,1,.63.19,1.49,1.49,0,0,1,.57.68l1.46-.76A3,3,0,0,0,9.93,9.56a3.07,3.07,0,0,0-2.28.91,3.35,3.35,0,0,0-.9,2.46,3.36,3.36,0,0,0,.89,2.48,3.17,3.17,0,0,0,2.35.89,3.2,3.2,0,0,0,2.85-1.71l-1.34-.68A1.36,1.36,0,0,1,10.17,14.85Z"/>
  <path fill="#1d1d1d" class="icon__shape" d="M23,8.75a10.45,10.45,0,0,0-2.33-3.5,10.6,10.6,0,0,0-7.76-3.18A10.27,10.27,0,0,0,5.3,5.23,10.91,10.91,0,0,0,2.9,8.79a10.85,10.85,0,0,0,0,8.28,10.83,10.83,0,0,0,2.38,3.52A10.93,10.93,0,0,0,8.8,23a10.57,10.57,0,0,0,4.12.82A10.82,10.82,0,0,0,17.09,23a11.17,11.17,0,0,0,3.61-2.41A10,10,0,0,0,23,17.11a11.08,11.08,0,0,0,.79-4.18A11.06,11.06,0,0,0,23,8.75ZM19.31,19.16a9.37,9.37,0,0,1-3,2,8.82,8.82,0,0,1-6.76,0A9.2,9.2,0,0,1,4.72,16.3a8.62,8.62,0,0,1,0-6.75,9.35,9.35,0,0,1,2-2.92A8.42,8.42,0,0,1,13,4a8.6,8.6,0,0,1,6.31,2.62,8.69,8.69,0,0,1,1.92,2.87,8.93,8.93,0,0,1,.66,3.42A8.35,8.35,0,0,1,19.31,19.16Z"/>
  <path fill="#1d1d1d" class="icon__shape" d="M16.43,14.85a1.24,1.24,0,0,1-1.09-.52,2.38,2.38,0,0,1-.37-1.4Q15,11,16.43,11a1.32,1.32,0,0,1,.65.19,1.49,1.49,0,0,1,.57.68l1.44-.76a3,3,0,0,0-2.87-1.57,3.07,3.07,0,0,0-2.28.91,3.35,3.35,0,0,0-.9,2.46,3.38,3.38,0,0,0,.88,2.48,3.17,3.17,0,0,0,2.36.89,3.14,3.14,0,0,0,1.65-.46,3.34,3.34,0,0,0,1.2-1.25l-1.36-.68A1.36,1.36,0,0,1,16.43,14.85Z"/>
</svg>
