<svg viewBox="0 0 22 22"><path fill="#1d1d1d" d="M11.27.13A10.5,10.5,0,0,1,19,3.28,10.51,10.51,0,0,1,22.16,11a10.25,10.25,0,0,1-3.11,7.63,10.74,10.74,0,0,1-7.78,3.24,10.52,10.52,0,0,1-7.65-3.2A10.46,10.46,0,0,1,.42,11a10.65,10.65,0,0,1,3.2-7.72A10.41,10.41,0,0,1,11.27.13Zm0,2A8.46,8.46,0,0,0,5,4.69,8.74,8.74,0,0,0,2.38,11,8.54,8.54,0,0,0,5,17.25a8.59,8.59,0,0,0,6.29,2.64,8.72,8.72,0,0,0,6.33-2.66A8.28,8.28,0,0,0,20.2,11a8.59,8.59,0,0,0-2.6-6.31A8.57,8.57,0,0,0,11.31,2.09ZM14.22,8.3v4.44H13V18H9.6V12.75H8.36V8.3a.7.7,0,0,1,.7-.7h4.46a.68.68,0,0,1,.49.2A.66.66,0,0,1,14.22,8.3ZM9.78,5.51A1.35,1.35,0,0,1,11.29,4a1.35,1.35,0,0,1,1.51,1.53A1.34,1.34,0,0,1,11.29,7,1.34,1.34,0,0,1,9.78,5.51Z"/></svg>
