<svg xmlns="http://www.w3.org/2000/svg" viewBox="0 0 22 22"><path class="cls-1" d="M11,.13a10.6,10.6,0,0,1,7.76,3.18,10.45,10.45,0,0,1,2.33,3.5,11.06,11.06,0,0,1,.8,4.18,11.08,11.08,0,0,1-.79,4.18,10,10,0,0,1-2.32,3.44A11.17,11.17,0,0,1,15.15,21a10.82,10.82,0,0,1-4.17.83A10.57,10.57,0,0,1,6.86,21a10.93,10.93,0,0,1-3.53-2.39A10.83,10.83,0,0,1,.95,15.13,10.85,10.85,0,0,1,1,6.86,10.91,10.91,0,0,1,3.35,3.3,10.27,10.27,0,0,1,11,.13Zm0,2a8.42,8.42,0,0,0-6.27,2.6,9.35,9.35,0,0,0-2,2.92,8.62,8.62,0,0,0,0,6.75A9.2,9.2,0,0,0,7.64,19.2a8.82,8.82,0,0,0,6.76,0,9.38,9.38,0,0,0,3-2A8.35,8.35,0,0,0,19.91,11a8.93,8.93,0,0,0-.66-3.42,8.69,8.69,0,0,0-1.92-2.87A8.6,8.6,0,0,0,11,2.09Zm-.14,7.1L9.43,10a1.49,1.49,0,0,0-.57-.68,1.29,1.29,0,0,0-.63-.19Q6.77,9.08,6.77,11a2.38,2.38,0,0,0,.37,1.4,1.24,1.24,0,0,0,1.09.52A1.36,1.36,0,0,0,9.56,12l1.34.68a3.2,3.2,0,0,1-2.85,1.71,3.17,3.17,0,0,1-2.35-.89A3.36,3.36,0,0,1,4.81,11a3.35,3.35,0,0,1,.9-2.46A3.07,3.07,0,0,1,8,7.62,3,3,0,0,1,10.88,9.2Zm6.27,0L15.72,10a1.49,1.49,0,0,0-.57-.68,1.32,1.32,0,0,0-.65-.19Q13,9.08,13,11a2.38,2.38,0,0,0,.37,1.4,1.24,1.24,0,0,0,1.09.52A1.36,1.36,0,0,0,15.83,12l1.36.68A3.34,3.34,0,0,1,16,13.92a3.14,3.14,0,0,1-1.65.46A3.17,3.17,0,0,1,12,13.48,3.38,3.38,0,0,1,11.1,11,3.35,3.35,0,0,1,12,8.54a3.07,3.07,0,0,1,2.28-.91A3,3,0,0,1,17.15,9.2Z"/></svg>
