<svg viewBox="0 0 26 26">
  <rect fill="#1d1d1d" class="icon__shape" x="9.2" y="10.5" width="7.8" height="1.9"/>
  <rect fill="#1d1d1d" class="icon__shape" x="9.2" y="14" width="7.8" height="1.9"/>
  <path fill="#1d1d1d" class="icon__shape" d="M20.6,5.4c-2-2.1-4.8-3.2-7.7-3.1l0,0C10,2.2,7.3,3.3,5.3,5.4c-1,1-1.8,2.2-2.4,3.6c-1.1,2.6-1.1,5.6,0,8.2
    c0.5,1.3,1.3,2.5,2.4,3.5c1,1,2.2,1.8,3.5,2.3c1.3,0.5,2.7,0.8,4.1,0.8l0,0c2.9,0,5.7-1.1,7.7-3.2c2-2,3.1-4.7,3.1-7.6
    C23.7,10.2,22.6,7.4,20.6,5.4z M6.7,19.2c-1.7-1.6-2.6-3.9-2.6-6.2c0-2.3,0.9-4.6,2.6-6.2c1.6-1.7,3.9-2.6,6.2-2.6
    c0.3,0,0.6,0,0.9,0c2,0.2,3.9,1.1,5.3,2.5c0.8,0.8,1.5,1.8,1.9,2.8c0.4,1.1,0.7,2.2,0.7,3.4c0.1,2.3-0.9,4.6-2.5,6.2
    c-0.8,0.8-1.8,1.5-2.9,2c-1.1,0.4-2.2,0.7-3.3,0.7c-1.1,0-2.3-0.2-3.4-0.7c-0.4-0.2-0.9-0.4-1.2-0.7C7.7,20.1,7.2,19.7,6.7,19.2z"/>
</svg>
