<svg xmlns="http://www.w3.org/2000/svg" viewBox="0 0 22 22"><path class="cls-1" d="M11,.13a10.5,10.5,0,0,1,7.72,3.14A10.47,10.47,0,0,1,21.9,11a10.25,10.25,0,0,1-3.11,7.63A10.74,10.74,0,0,1,11,21.87a10.45,10.45,0,0,1-7.65-3.22A10.44,10.44,0,0,1,.16,11a10.65,10.65,0,0,1,3.2-7.72A10.41,10.41,0,0,1,11,.13ZM2.61,8.07A8.55,8.55,0,0,0,2.12,11a8.54,8.54,0,0,0,2.64,6.25A8.66,8.66,0,0,0,11,19.87a8.64,8.64,0,0,0,6.33-2.66,8,8,0,0,0,1.49-1.9l-4.09-1.82a2.8,2.8,0,0,1-1,1.68,3.57,3.57,0,0,1-2,.75v1.67H10.52V15.91a5,5,0,0,1-3.3-1.3L8.72,13.1a3.47,3.47,0,0,0,2.43,1,1.76,1.76,0,0,0,1-.25.91.91,0,0,0,.4-.83.83.83,0,0,0-.29-.66l-1-.45-1.28-.58-1.73-.76Zm8.44-6A8.43,8.43,0,0,0,4.78,4.69a10.42,10.42,0,0,0-1.2,1.46L7.73,8a2.55,2.55,0,0,1,1-1.37,3.43,3.43,0,0,1,1.77-.57V4.4h1.26V6.07a4.8,4.8,0,0,1,2.72,1L13.09,8.54a3.21,3.21,0,0,0-1.86-.64,2,2,0,0,0-.9.19.68.68,0,0,0-.4.66A.46.46,0,0,0,10,9l1.38.62,1,.43,1.75.78,5.57,2.48A10.06,10.06,0,0,0,19.94,11a8.51,8.51,0,0,0-2.6-6.31A8.49,8.49,0,0,0,11,2.07Z"/></svg>
