<svg viewBox="0 0 26 26">
  <path fill="#1d1d1d" class="icon__shape" d="M20.75,5.29A10.5,10.5,0,0,0,13,2.14,10.41,10.41,0,0,0,5.38,5.29,10.65,10.65,0,0,0,2.18,13a10.44,10.44,0,0,0,3.2,7.65A10.45,10.45,0,0,0,13,23.88a10.74,10.74,0,0,0,7.78-3.24A10.25,10.25,0,0,0,23.91,13,10.47,10.47,0,0,0,20.75,5.29ZM19.39,19.22a8.64,8.64,0,0,1-6.33,2.66,8.66,8.66,0,0,1-6.29-2.62A8.54,8.54,0,0,1,4.14,13a8.55,8.55,0,0,1,.49-2.93l5.55,2.48,1.73.76,1.28.58,1,.45a.83.83,0,0,1,.29.66.91.91,0,0,1-.4.83,1.76,1.76,0,0,1-1,.25,3.47,3.47,0,0,1-2.43-1L9.24,16.62a5,5,0,0,0,3.3,1.3v1.67H13.8V17.92a3.57,3.57,0,0,0,2-.75,2.8,2.8,0,0,0,1-1.68l4.09,1.82A8,8,0,0,1,19.39,19.22Zm-3.28-6.37-1.75-.78-1-.43L12,11a.46.46,0,0,1-.1-.27.68.68,0,0,1,.4-.66,2,2,0,0,1,.9-.19,3.21,3.21,0,0,1,1.86.64l1.42-1.46a4.8,4.8,0,0,0-2.72-1V6.41H12.54V8.08a3.43,3.43,0,0,0-1.77.57,2.55,2.55,0,0,0-1,1.37L5.59,8.16A10.43,10.43,0,0,1,6.8,6.7a8.43,8.43,0,0,1,6.27-2.62A8.49,8.49,0,0,1,19.35,6.7,8.51,8.51,0,0,1,22,13a10.06,10.06,0,0,1-.27,2.33Z"/>
</svg>
