<svg viewBox="0 0 26 26">
  <path fill="#1d1d1d" class="icon__shape" d="M23,8.9c-0.5-1.3-1.3-2.5-2.3-3.5c-2-2.1-4.8-3.2-7.7-3.1c-2.9-0.1-5.6,1.1-7.6,3.1c-1,1-1.9,2.2-2.4,3.5
	c-1.1,2.6-1.1,5.6,0,8.2c0.5,1.3,1.3,2.5,2.3,3.5c1,1,2.2,1.8,3.5,2.4c2.6,1.1,5.6,1.1,8.2,0c1.3-0.6,2.6-1.4,3.6-2.4
	c1-1,1.8-2.2,2.3-3.5c0.5-1.3,0.8-2.7,0.8-4.2C23.8,11.6,23.5,10.2,23,8.9z M13,4.2c2.4,0,4.6,0.9,6.2,2.6c0.8,0.8,1.5,1.8,1.9,2.8
	c0.4,1.1,0.7,2.2,0.7,3.4c0,1.2-0.2,2.4-0.7,3.5l-10.6-6.1c0.7-1,1.9-1.6,3.2-1.5c0.8,0,1.5,0.2,2.2,0.5l0.5-2.2
	c-0.9-0.4-2-0.6-3-0.5c-2-0.1-4,0.8-5.3,2.4L5.9,7.8c0.3-0.4,0.6-0.7,0.9-1C8.4,5.1,10.7,4.1,13,4.2z M16.3,21.2
	c-1.1,0.4-2.2,0.7-3.3,0.7c-1.1,0-2.3-0.2-3.4-0.7c-1.1-0.5-2-1.1-2.9-1.9c-0.8-0.8-1.5-1.8-2-2.9c-0.9-2.1-0.9-4.6,0-6.7l0.1-0.2
	l2.5,1.4c-0.2,0.7-0.3,1.4-0.3,2.1c0,3.4,2.1,6,6.3,6c1.1,0,2.1-0.1,3.1-0.5L16,16.4c-0.7,0.3-1.5,0.4-2.3,0.4
	c-2,0.2-3.7-1.3-3.8-3.3c0-0.2,0-0.4,0-0.6c0-0.2,0-0.3,0-0.5l10.2,5.8c-0.3,0.4-0.5,0.7-0.9,1C18.4,20,17.4,20.7,16.3,21.2
	L16.3,21.2z"/>
</svg>
