<svg viewBox="0 0 26 26">
  <path fill="#1d1d1d" class="icon__shape" d="M13,6.9c-3.6,0-4.4,3.4-4.4,6.2s0.9,6.2,4.4,6.2s4.5-3.4,4.5-6.2S16.6,6.9,13,6.9z M11.1,13.1c0-1.2,0.1-3.9,1.9-3.9
	c0.1,0,0.3,0,0.4,0.1c0.3,0.2,0.4,0.6,0.2,0.9c0,0,0,0,0,0.1l-2.4,4.4C11.1,14.1,11.1,13.6,11.1,13.1z M13,16.9c-0.1,0-0.3,0-0.4,0
	h-0.1h-0.1c-0.4-0.2-0.7-0.5-0.3-1l2.6-4.6c0.1,0.6,0.1,1.2,0.1,1.9C14.9,14.3,14.8,16.9,13,16.9z"/>
  <path fill="#1d1d1d" class="icon__shape" d="M23,8.9c-0.5-1.3-1.3-2.5-2.3-3.5c-2-2.1-4.8-3.2-7.7-3.2c-2.9-0.1-5.6,1.1-7.6,3.1C4.4,6.4,3.6,7.7,3,9
	c-1.1,2.6-1.1,5.6,0,8.2c0.5,1.3,1.3,2.5,2.3,3.5c1,1,2.2,1.8,3.5,2.3c2.6,1.1,5.6,1.1,8.2,0c1.3-0.6,2.6-1.4,3.6-2.4
	c1-1,1.8-2.1,2.3-3.4c0.5-1.3,0.8-2.7,0.8-4.2C23.8,11.6,23.5,10.2,23,8.9z M19.3,19.2c-0.8,0.8-1.8,1.5-2.9,2
	c-1.1,0.4-2.2,0.7-3.3,0.7c-1.1,0-2.3-0.2-3.4-0.7c-1.1-0.5-2-1.1-2.9-1.9c-0.8-0.8-1.5-1.8-2-2.9c-0.9-2.1-0.9-4.6,0-6.7
	c0.5-1.1,1.2-2.1,2-2.9c1.6-1.7,3.9-2.6,6.2-2.6c2.4,0,4.6,0.9,6.2,2.6c0.8,0.8,1.5,1.8,1.9,2.9c0.4,1.1,0.7,2.2,0.7,3.4
	C21.9,15.4,21,17.6,19.3,19.2z"/>
</svg>
