<svg viewBox="0 0 22 22"><path class="icon__shape" fill="#1d1d1d" d="M11.11 21.3A10.52 10.52 0 0 1 8.07.71 1 1 0 0 1 9.31 2a5.31 5.31 0 0 0 6.93 6.6 1 1 0 0 1 1.13.31 4.27 4.27 0 0 0 3.24 1.6 1 1 0 0 1 1 1.08 10.56 10.56 0 0 1-10.5 9.71zm-4.06-18a8.52 8.52 0 1 0 12.42 9.1 6.27 6.27 0 0 1-3.18-1.7 7.22 7.22 0 0 1-1.92.26A7.33 7.33 0 0 1 7 3.62q0-.17.06-.33z"/><path class="icon__shape" fill="#1d1d1d" d="M5.26 12.28A1.25 1.25 0 1 1 6.51 11a1.25 1.25 0 0 1-1.25 1.28zm7.32-7.36a1.25 1.25 0 1 1 1.25-1.25 1.25 1.25 0 0 1-1.25 1.25zM9.4 13.63a1.25 1.25 0 1 1 1.25-1.25 1.25 1.25 0 0 1-1.25 1.25zm2.86 4.24a1.25 1.25 0 1 1 1.25-1.25 1.25 1.25 0 0 1-1.25 1.25z"/></svg>
