<svg viewBox="0 0 29.88 22"><path class="icon__shape" fill="#1d1d1d" d="M17.88 16.8h-14a3 3 0 0 1-3-3V4a3 3 0 0 1 3-3h14a3 3 0 0 1 3 3v2.22a1 1 0 0 1-2 0V4a1 1 0 0 0-1-1h-14a1 1 0 0 0-1 1v9.8a1 1 0 0 0 1 1h14a1 1 0 0 1 0 2z"/><path class="icon__shape" fill="#1d1d1d" d="M26.14 20.81h-5.78a3 3 0 0 1-3-3V8.22a3 3 0 0 1 3-3h5.78a3 3 0 0 1 3 3v9.58a3 3 0 0 1-3 3.01zM20.36 7.22a1 1 0 0 0-1 1v9.58a1 1 0 0 0 1 1h5.78a1 1 0 0 0 1-1V8.22a1 1 0 0 0-1-1z"/><path class="icon__shape" fill="#1d1d1d" d="M23.28 18a1.25 1.25 0 1 1 1.25-1.25A1.25 1.25 0 0 1 23.28 18zm-7.9 2.72H6.46a1 1 0 1 1 0-2h8.92a1 1 0 0 1 0 2z"/><path class="icon__shape" fill="#1d1d1d" d="M10.92 20.72a1 1 0 0 1-1-1V16.8a1 1 0 1 1 2 0v2.92a1 1 0 0 1-1 1zM18 12.88H2.29a1 1 0 1 1 0-2H18a1 1 0 0 1 0 2z"/></svg>
