<svg viewBox="0 0 26 26">
  <path fill="#1d1d1d" class="icon__shape" d="M21.89,8.12H19V6.7a3,3,0,0,0-3-3H4a3,3,0,0,0-3,3v9.2a3,3,0,0,0,3,3h5v1.91H6.61a1,1,0,0,0,0,2h6.92a1,1,0,0,0,0-2H11.06V18.9h4v1a3,3,0,0,0,3,3h3.78a3,3,0,0,0,3-3V11.12A3,3,0,0,0,21.89,8.12ZM4,5.7H16a1,1,0,0,1,1,1V8.33a3,3,0,0,0-1.92,2.79v2.16H3V6.7A1,1,0,0,1,4,5.7ZM4,16.9a1,1,0,0,1-1-1v-.62H15.11V16.9Zm18.86,3a1,1,0,0,1-1,1H18.11a1,1,0,0,1-1-1V11.12a1,1,0,0,1,1-1h3.78a1,1,0,0,1,1,1Z"/>
  <circle fill="#1d1d1d" class="icon__shape" cx="20.03" cy="18.71" r="1.25"/>
</svg>
