<svg viewBox="0 0 26 26">
  <path fill="#1d1d1d" class="icon__shape" d="M20.4,7h-1.9l-0.3-0.7c-0.5-1-1.1-2.3-2.8-2.3h-5c-1,0-2.3,0.5-2.9,2.7L7.3,7H5.4c-1.7,0-3,1.3-3,3v8c0,1.7,1.3,3,3,3h15
	c1.7,0,3-1.3,3-3v-8C23.4,8.3,22.1,7,20.4,7z M21.4,18c0,0.6-0.4,1-1,1h-15c-0.6,0-1-0.4-1-1v-8c0-0.6,0.4-1,1-1H8
	c0.4,0,0.8-0.2,1-0.6l0.4-1.1C9.8,6,10.2,6,10.4,6h5c0.3,0,0.5,0.2,1,1.2L17,8.4C17.2,8.8,17.5,9,17.9,9h2.5c0.6,0,1,0.4,1,1
	L21.4,18z"/>
  <path fill="#1d1d1d" class="icon__shape" d="M13.2,9.5c-2.2,0-4,1.8-4,4s1.8,4,4,4s4-1.8,4-4S15.4,9.5,13.2,9.5L13.2,9.5z M13.2,15.5c-1.1,0-2-0.9-2-2s0.9-2,2-2
	s2,0.9,2,2C15.2,14.6,14.3,15.5,13.2,15.5C13.2,15.5,13.2,15.5,13.2,15.5L13.2,15.5z"/>
  <circle fill="#1d1d1d" class="icon__shape" cx="19" cy="11.4" r="1"/>
</svg>
