<svg viewBox="0 0 21 17"><path class="icon-sprite__shape" fill="#1d1d1d" d="M18 4h-2.52L15 3c-.52-1.06-.9-2-2-2H8c-1.1 0-1.67.9-2 2l-.37 1H3a2 2 0 0 0-2 2v8a2 2 0 0 0 2 2h15a2 2 0 0 0 2-2V6a2 2 0 0 0-2-2zm1 10a1 1 0 0 1-1 1H3a1 1 0 0 1-1-1V6a1 1 0 0 1 1-1h3.32l.24-.65.38-1v-.06C7.34 2 7.8 2 8 2h5c.34 0 .5.19 1 1.22l.1.21.48 1 .27.57H18a1 1 0 0 1 1 1z"/><path class="icon-sprite__shape" fill="#1d1d1d" d="M10.79 6a3.51 3.51 0 1 0 3.51 3.5A3.51 3.51 0 0 0 10.79 6zm0 6a2.51 2.51 0 1 1 2.51-2.5 2.51 2.51 0 0 1-2.51 2.5z"/><circle class="icon-sprite__shape" fill="#1d1d1d" cx="17" cy="8" r="1"/></svg>