<svg viewBox="0 0 26 26"><path fill="#1d1d1d" class="icon__shape" d="M24.69 11.4l-2.6-2.6a1 1 0 0 0-1-.25A2.81 2.81 0 0 1 17.6 5a1 1 0 0 0-.25-1l-2.6-2.6a1 1 0 0 0-1.41 0L1.5 13.29a1 1 0 0 0 0 1.41l2.6 2.6a1 1 0 0 0 1 .25 2.81 2.81 0 0 1 3.51 3.51 1 1 0 0 0 .25 1l2.6 2.6a1 1 0 0 0 1.41 0l11.82-11.85a1 1 0 0 0 0-1.41zm-5.13 3.71l-.11-.11A1 1 0 0 0 18 16.41l.12.12-6 6L10.65 21a4.8 4.8 0 0 0-5.52-5.5L3.62 14l6-6 .12.12a1 1 0 0 0 1.41-1.42L11 6.58l3-3 1.5 1.5a4.8 4.8 0 0 0 5.52 5.52l1.5 1.5z"/><path fill="#1d1d1d" class="icon__shape" d="M13.3 8.85a1 1 0 0 0-1.41 1.41l.53.53a1 1 0 1 0 1.41-1.41zm3.22 3.22a1 1 0 0 0-1.41 1.41l.53.53a1 1 0 0 0 1.41-1.41z"/></svg>