<svg viewBox="0 0 25.8 25.8"><path fill="#1d1d1d" class="icon__shape" d="M25.5 10.2l-2.6-2.6c-.3-.3-.6-.4-1-.3-1 .3-2.1 0-2.8-.7-.7-.7-1-1.8-.7-2.8.1-.3 0-.7-.3-1L15.5.2c-.4-.4-1-.4-1.4 0L.3 14.2c-.4.4-.4 1 0 1.4l2.6 2.6c.3.3.6.4 1 .3 1-.3 2.1 0 2.8.7.7.7 1 1.8.7 2.8-.1.4 0 .7.3 1l2.6 2.6c.2.2.4.3.7.3.3 0 .5-.1.7-.3l13.9-13.9c.3-.4.3-1.1-.1-1.5zM20.4 14l-.1-.1c-.4-.4-1-.4-1.4 0-.4.4-.4 1 0 1.4l.1.1-8 8-1.5-1.5c.2-1.5-.3-3.1-1.3-4.2-1.1-1.1-2.7-1.6-4.2-1.3l-1.5-1.5 8-8 .1.1c.2.2.4.3.7.3.3 0 .5-.1.7-.3.4-.4.4-1 0-1.4l-.1-.1 3-3L16.4 4c-.2 1.5.3 3.1 1.3 4.2 1.1 1.1 2.7 1.6 4.2 1.3l1.5 1.5-3 3z"/><path fill="#1d1d1d" class="icon__shape" d="M14.1 7.7c-.4-.4-1-.4-1.4 0-.4.4-.4 1 0 1.4l.5.5c.2.2.4.3.7.3.3 0 .5-.1.7-.3.4-.4.4-1 0-1.4l-.5-.5zM17.4 10.9c-.4-.4-1-.4-1.4 0-.4.4-.4 1 0 1.4l.5.5c.2.2.4.3.7.3.3 0 .5-.1.7-.3.4-.4.4-1 0-1.4l-.5-.5z"/></svg>