<svg viewBox="0 0 25.8 25.8">
	<path fill="#1d1d1d" class="icon__shape" d="M25.5,10.2l-2.6-2.6c-0.3-0.3-0.6-0.4-1-0.3c-1,0.3-2.1,0-2.8-0.7c-0.7-0.7-1-1.8-0.7-2.8c0.1-0.3,0-0.7-0.3-1
		l-2.6-2.6c0,0,0,0,0,0c-0.4-0.4-1-0.4-1.4,0L0.3,14.2c0,0,0,0,0,0c-0.4,0.4-0.4,1,0,1.4l2.6,2.6c0.3,0.3,0.6,0.4,1,0.3
		c1-0.3,2.1,0,2.8,0.7c0.7,0.7,1,1.8,0.7,2.8c-0.1,0.4,0,0.7,0.3,1l2.6,2.6c0.2,0.2,0.4,0.3,0.7,0.3c0.3,0,0.5-0.1,0.7-0.3
		l13.9-13.9c0,0,0,0,0,0C25.9,11.3,25.9,10.6,25.5,10.2z M20.4,14l-0.1-0.1c-0.4-0.4-1-0.4-1.4,0c-0.4,0.4-0.4,1,0,1.4l0.1,0.1l-8,8
		l-1.5-1.5c0.2-1.5-0.3-3.1-1.3-4.2c-1.1-1.1-2.7-1.6-4.2-1.3l-1.5-1.5l8-8L10.6,7c0.2,0.2,0.4,0.3,0.7,0.3c0.3,0,0.5-0.1,0.7-0.3
		c0.4-0.4,0.4-1,0-1.4l-0.1-0.1l3-3l1.5,1.5c-0.2,1.5,0.3,3.1,1.3,4.2c1.1,1.1,2.7,1.6,4.2,1.3l1.5,1.5L20.4,14z"/>
	<path fill="#1d1d1d" class="icon__shape" d="M14.1,7.7c-0.4-0.4-1-0.4-1.4,0c-0.4,0.4-0.4,1,0,1.4l0.5,0.5c0.2,0.2,0.4,0.3,0.7,0.3v0
		c0.3,0,0.5-0.1,0.7-0.3c0.4-0.4,0.4-1,0-1.4L14.1,7.7z"/>
	<path fill="#1d1d1d" class="icon__shape" d="M17.4,10.9c-0.4-0.4-1-0.4-1.4,0c-0.4,0.4-0.4,1,0,1.4l0.5,0.5c0.2,0.2,0.4,0.3,0.7,0.3c0.3,0,0.5-0.1,0.7-0.3
		c0.4-0.4,0.4-1,0-1.4L17.4,10.9z"/>
</svg>
