<svg width="26" height="27" viewBox="0 0 26 27" xmlns:xlink="http://www.w3.org/1999/xlink"><title>Ticket</title><defs><path id="a" d="M0 26V.173h25.827V26z"/></defs><g fill="none" fill-rule="evenodd"><g transform="translate(0 .827)"><mask id="b" fill="#fff"><use xlink:href="#a"/></mask><path d="M9.44 22.082l1.503 1.504 12.47-12.47-1.504-1.504a4.834 4.834 0 0 1-4.18-1.342 4.828 4.828 0 0 1-1.342-4.179l-1.503-1.504-12.47 12.47 1.504 1.504a4.816 4.816 0 0 1 4.179 1.341 4.828 4.828 0 0 1 1.343 4.18M10.943 26a1 1 0 0 1-.707-.293l-2.598-2.599a.999.999 0 0 1-.253-.986 2.838 2.838 0 0 0-.702-2.806 2.841 2.841 0 0 0-2.805-.701.99.99 0 0 1-.987-.253L.293 15.764a.999.999 0 0 1 0-1.414L14.177.466a.997.997 0 0 1 1.414 0l2.598 2.598c.258.258.355.637.253.987a2.838 2.838 0 0 0 .702 2.805c.725.726 1.8.994 2.805.702a.998.998 0 0 1 .987.253l2.598 2.598a.999.999 0 0 1 0 1.414L11.65 25.707a.996.996 0 0 1-.707.293" fill="#1D1D1D" mask="url(#b)"/></g><path d="M13.962 10.92a.997.997 0 0 1-.707-.292l-.53-.53a.999.999 0 1 1 1.414-1.414l.53.53a.999.999 0 0 1-.707 1.707m-2.673-2.673a.997.997 0 0 1-.707-.293l-.53-.53a.999.999 0 1 1 1.414-1.414l.53.53a.999.999 0 0 1-.707 1.707m5.9 5.899a.997.997 0 0 1-.707-.293l-.53-.53a.999.999 0 1 1 1.414-1.414l.53.53a.999.999 0 0 1-.707 1.707m2.921 2.921a.997.997 0 0 1-.707-.293l-.53-.53a.999.999 0 1 1 1.414-1.414l.53.53a.999.999 0 0 1-.707 1.707" fill="#1D1D1D"/></g></svg>