<svg xmlns="http://www.w3.org/2000/svg" viewBox="0 0 21 18"><path class="icon-sprite__shape" fill="#1d1d1d" d="M6.69,2.54a.5.5,0,0,0-.54.11L3.79,5H1.5a.5.5,0,0,0-.5.5v7a.5.5,0,0,0,.5.5H3.79l2.35,2.35A.5.5,0,0,0,7,15V3A.5.5,0,0,0,6.69,2.54ZM6,13.79,4.35,12.15A.5.5,0,0,0,4,12H2V6H4a.5.5,0,0,0,.35-.15L6,4.21Z"/><path class="icon-sprite__shape" fill="#1d1d1d" d="M12.51,3.63a.5.5,0,0,0,0,.71,6.48,6.48,0,0,1,0,9.36.5.5,0,0,0,.69.72,7.48,7.48,0,0,0,0-10.81A.5.5,0,0,0,12.51,3.63Z"/><path class="icon-sprite__shape" fill="#1d1d1d" d="M9.28,6a.5.5,0,1,0-.44.9A2.37,2.37,0,0,1,10.18,9a2.4,2.4,0,0,1-1.37,2.15.5.5,0,0,0,.21,1,.49.49,0,0,0,.21,0A3.4,3.4,0,0,0,11.18,9,3.36,3.36,0,0,0,9.28,6Z"/><path class="icon-sprite__shape" fill="#1d1d1d" d="M17,1.91a.5.5,0,0,0-.79.62,10.46,10.46,0,0,1,0,13,.5.5,0,1,0,.78.62A11.46,11.46,0,0,0,17,1.91Z"/></svg>
