<svg id="Layer_1" data-name="Layer 1" xmlns="http://www.w3.org/2000/svg" viewBox="0 0 21 16"><defs><style>.cls-1{fill:#1d1d1d;}</style></defs><title>Artboard 1 copy 27</title><path class="cls-1" d="M18,1H3A2,2,0,0,0,1,3V13a2,2,0,0,0,2,2H18a2,2,0,0,0,2-2V3A2,2,0,0,0,18,1Zm1,12a1,1,0,0,1-1,1H3a1,1,0,0,1-1-1V3A1,1,0,0,1,3,2H18a1,1,0,0,1,1,1Z"/><path class="cls-1" d="M15.5,5.5A.5.5,0,0,0,15,6v4a.5.5,0,0,0,1,0V6A.5.5,0,0,0,15.5,5.5Z"/><path class="cls-1" d="M5.5,4.5A.5.5,0,0,0,5,5v6a.5.5,0,0,0,1,0V5A.5.5,0,0,0,5.5,4.5Z"/><path class="cls-1" d="M7.5,6.5A.5.5,0,0,0,7,7V9A.5.5,0,0,0,8,9V7A.5.5,0,0,0,7.5,6.5Z"/><path class="cls-1" d="M9.5,5.5A.5.5,0,0,0,9,6v4a.5.5,0,0,0,1,0V6A.5.5,0,0,0,9.5,5.5Z"/><path class="cls-1" d="M11.5,4.5A.5.5,0,0,0,11,5v6a.5.5,0,0,0,1,0V5A.5.5,0,0,0,11.5,4.5Z"/><path class="cls-1" d="M13.5,6.5A.5.5,0,0,0,13,7V9a.5.5,0,0,0,1,0V7A.5.5,0,0,0,13.5,6.5Z"/></svg>