<svg id="Layer_1" data-name="Layer 1" xmlns="http://www.w3.org/2000/svg" viewBox="0 0 21 18"><title>Artboard 1 copy 28</title><path class="icon-sprite__shape" fill="#1d1d1d" d="M18.5,1H2.5A1.5,1.5,0,0,0,1,2.5V15.56A1.45,1.45,0,0,0,2.5,17H10a.5.5,0,0,0,0-1H2.5a.45.45,0,0,1-.5-.44V2.5A.5.5,0,0,1,2.5,2h16a.5.5,0,0,1,.5.5v13a.5.5,0,0,1-.5.5H14V13h.5A1.5,1.5,0,0,0,16,11.5v-2A1.5,1.5,0,0,0,14.5,8H14V7.5A2.5,2.5,0,0,0,11.5,5h-2A2.5,2.5,0,0,0,7,7.5V8H6.5A1.5,1.5,0,0,0,5,9.5v2A1.5,1.5,0,0,0,6.5,13H8V7.5A1.5,1.5,0,0,1,9.5,6h2A1.5,1.5,0,0,1,13,7.5v9a.5.5,0,0,0,.5.5h5A1.5,1.5,0,0,0,20,15.5V2.5A1.5,1.5,0,0,0,18.5,1ZM7,12H6.5a.5.5,0,0,1-.5-.5v-2A.5.5,0,0,1,6.5,9H7Zm7.5-3a.5.5,0,0,1,.5.5v2a.5.5,0,0,1-.5.5H14V9Z"/></svg>
