<svg id="Layer_1" data-name="Layer 1" xmlns="http://www.w3.org/2000/svg" viewBox="0 0 21 18"><title>Book</title><path class="icon-sprite__shape" fill="#1d1d1d" d="M18.5,1H13.62A3.93,3.93,0,0,0,10.5,3.21,3.93,3.93,0,0,0,7.38,1H2.5A1.51,1.51,0,0,0,1,2.52v11A1.47,1.47,0,0,0,2.5,15H7.38A2.81,2.81,0,0,1,10,16.67h0a.49.49,0,0,0,.15.19l.08,0,.05,0,.13,0h0a.5.5,0,0,0,.18,0l.09-.05,0,0a.49.49,0,0,0,.17-.22h0A2.82,2.82,0,0,1,13.62,15H18.5A1.47,1.47,0,0,0,20,13.52v-11A1.51,1.51,0,0,0,18.5,1ZM19,13.52a.48.48,0,0,1-.5.48H13.62a3.76,3.76,0,0,0-3.12,1.51A3.75,3.75,0,0,0,7.38,14H2.5a.48.48,0,0,1-.5-.48v-11A.52.52,0,0,1,2.5,2H7.38C8.58,2,10,3.63,10,5v7a.5.5,0,0,0,1,0V5h0c0-1.4,1.4-3,2.62-3H18.5a.52.52,0,0,1,.5.52Z"/></svg>
