<svg id="Layer_1" data-name="Layer 1" xmlns="http://www.w3.org/2000/svg" viewBox="0 0 21 16"><title>Website</title><path class="icon-sprite__shape" fill="#1d1d1d" d="M18,1H3A2,2,0,0,0,1,3V13a2,2,0,0,0,2,2H18a2,2,0,0,0,2-2V3A2,2,0,0,0,18,1Zm1,12a1,1,0,0,1-1,1H3a1,1,0,0,1-1-1V7H19Zm0-7H2V3A1,1,0,0,1,3,2H18a1,1,0,0,1,1,1Z"/><circle class="icon-sprite__shape" fill="#1d1d1d" cx="4" cy="4" r="1"/><circle class="icon-sprite__shape" fill="#1d1d1d" cx="7" cy="4" r="1"/><circle class="icon-sprite__shape" fill="#1d1d1d" cx="10" cy="4" r="1"/></svg>
