<svg xmlns="http://www.w3.org/2000/svg" viewBox="0 0 21 16"><path class="icon-sprite__shape" fill="#1d1d1d" d="M18,1H3A2,2,0,0,0,1,3V13a2,2,0,0,0,2,2H18a2,2,0,0,0,2-2V3A2,2,0,0,0,18,1ZM3,2H18a1,1,0,0,1,1,1v9.78L17.17,11A2.54,2.54,0,0,0,15,10.28a2.42,2.42,0,0,0-1.35.67l-.89.84L8.27,7.23a2.56,2.56,0,0,0-3.54,0L2,10V3A1,1,0,0,1,3,2ZM3,14a1,1,0,0,1-1-1V11.38L5.44,7.94a1.54,1.54,0,0,1,2.12,0L12,12.49a1,1,0,0,0,1.4,0l.9-.85a1.45,1.45,0,0,1,.65-.37,1.53,1.53,0,0,1,1.47.37l2.13,2.13A1,1,0,0,1,18,14Z"/><path class="icon-sprite__shape" fill="#1d1d1d" d="M14.5,8.5a2,2,0,1,0-2-2A2,2,0,0,0,14.5,8.5Zm0-3a1,1,0,1,1-1,1A1,1,0,0,1,14.5,5.5Z"/></svg>
