<svg id="Layer_1" data-name="Layer 1" xmlns="http://www.w3.org/2000/svg" viewBox="0 0 21 20"><defs><style>.cls-1{fill:#1d1d1d;}</style></defs><title>Manuscript</title><path class="cls-1" d="M17.5,1a.5.5,0,0,0-.5.5V3H2.5A1.5,1.5,0,0,0,1,4.5v13a1.39,1.39,0,0,0,.38,1A2.53,2.53,0,0,0,3.23,19H3.5a.5.5,0,0,0,.5-.5V17H17.5A2.49,2.49,0,0,0,20,14.75a.48.48,0,0,0,0-.13V3.25A2.23,2.23,0,0,0,17.5,1ZM19,3.25v9.28a2.49,2.49,0,0,0-1-.39L18,2A1.12,1.12,0,0,1,19,3.25ZM3,18a1.57,1.57,0,0,1-.91-.18S2,17.73,2,17.5a.5.5,0,0,1,.5-.5H3Zm14.5-2H2.5a1.5,1.5,0,0,0-.5.09V4.5A.5.5,0,0,1,2.5,4H17l0,8.6a.5.5,0,0,0,.5.5A1.38,1.38,0,0,1,19,14.56,1.5,1.5,0,0,1,17.5,16Z"/><path class="cls-1" d="M4.5,5.5A.5.5,0,0,0,4,6v8a.5.5,0,0,0,1,0V6A.5.5,0,0,0,4.5,5.5Z"/><path class="cls-1" d="M7.5,5.5A.5.5,0,0,0,7,6v8a.5.5,0,0,0,1,0V6A.5.5,0,0,0,7.5,5.5Z"/><path class="cls-1" d="M10.5,5.5A.5.5,0,0,0,10,6v8a.5.5,0,0,0,1,0V6A.5.5,0,0,0,10.5,5.5Z"/><path class="cls-1" d="M13.5,5.5A.5.5,0,0,0,13,6v8a.5.5,0,0,0,1,0V6A.5.5,0,0,0,13.5,5.5Z"/></svg>