<svg id="Layer_1" data-name="Layer 1" xmlns="http://www.w3.org/2000/svg" viewBox="0 0 21 16"><title>Map</title><path class="icon-sprite__shape" fill="#1d1d1d" d="M19.38,1.67A1.48,1.48,0,0,0,18,1.46L13.66,2.92a.5.5,0,0,1-.32,0L8,1.13a1.51,1.51,0,0,0-.95,0L2.71,2.57A2.5,2.5,0,0,0,1,4.94v8.17a1.5,1.5,0,0,0,2,1.42l4.37-1.46a.5.5,0,0,1,.32,0L13,14.87a1.51,1.51,0,0,0,.95,0l4.32-1.44A2.5,2.5,0,0,0,20,11.06V2.89A1.48,1.48,0,0,0,19.38,1.67ZM2.66,13.59A.5.5,0,0,1,2,13.11V4.94A1.5,1.5,0,0,1,3,3.52L7,2.19V12a.47.47,0,0,0,0,.09ZM19,11.06a1.5,1.5,0,0,1-1,1.42l-4,1.32V6a.5.5,0,0,0-1,0v7.85L8,12.13A.48.48,0,0,0,8,12V2.19l5,1.68a1.51,1.51,0,0,0,.95,0l4.37-1.46a.5.5,0,0,1,.66.47Z"/></svg>
