<svg viewBox="0 0 22 22"><path class="icon-sprite__shape" fill="#1d1d1d" d="M18 1H4C2.28 1 1 2.85 1 4.5V14a3 3 0 0 0 3 3h1v3a1 1 0 0 0 .6.92A1.14 1.14 0 0 0 6 21a1 1 0 0 0 .68-.27l4-3.76H18a3 3 0 0 0 3-3V4.5C21 2.85 19.72 1 18 1zm1 13a1 1 0 0 1-1 1h-7.62a.86.86 0 0 0-.22 0l-.16.05a.94.94 0 0 0-.33.2L7 17.74V16a1.23 1.23 0 0 0 0-.2 1 1 0 0 0-1-.8H4a1 1 0 0 1-1-1V4.5C3 3.84 3.56 3 4 3h14c.44 0 1 .84 1 1.5z"/><path class="icon-sprite__shape" fill="#1d1d1d" d="M14.76 8.21l-2.83-2.83a1 1 0 0 0-1.41 1.41L11.72 8H8a1 1 0 0 0 0 2h3.76l-1.21 1.21a1 1 0 1 0 1.41 1.41l2.83-2.83A1 1 0 0 0 15 9a1 1 0 0 0-.24-.79z"/></svg>