<svg viewBox="0 0 26 26">
  <path fill="#1d1d1d" class="icon__shape" d="M13,3a10,10,0,1,0,9.92,10A10,10,0,0,0,13,3Zm0,18a8,8,0,1,1,7.92-8A8,8,0,0,1,13,21Z"/>
  <path fill="#1d1d1d" class="icon__shape" d="M13,11a1,1,0,0,0-1,1v5a1,1,0,0,0,2,0V12A1,1,0,0,0,13,11Z"/>
  <path fill="#1d1d1d" class="icon__shape" d="M13.55,7.9l-.17-.09-.19-.06a1,1,0,0,0-.58.06.88.88,0,0,0-.32.22,1,1,0,0,0-.29.7.93.93,0,0,0,.29.71,1,1,0,0,0,1.09.22,1.06,1.06,0,0,0,.54-.54A1,1,0,0,0,14,8.73a1,1,0,0,0-.3-.7A.64.64,0,0,0,13.55,7.9Z"/>
</svg>
