<svg viewBox="0 0 19.8 20"><path class="icon__shape" fill="#1d1d1d" d="M9.9 2c4.4 0 7.9 3.6 7.9 8s-3.6 8-7.9 8S2 14.4 2 10s3.5-8 7.9-8m0-2C4.4 0 0 4.5 0 10s4.4 10 9.9 10 9.9-4.5 9.9-10S15.4 0 9.9 0z"/><circle class="icon__shape" fill="#1d1d1d" cx="9.9" cy="5.7" r="1"/><path class="icon__shape" fill="#1d1d1d" d="M9.9 15c.5 0 1-.4 1-1V9c0-.6-.4-1-1-1s-1 .4-1 1v5c0 .6.4 1 1 1zM-7.3 24.2l-7.7 7.7-7.7-7.7c-.4-.4-1-.4-1.4 0-.4.4-.4 1 0 1.4l8.4 8.4c.2.2.4.3.7.3s.5-.1.7-.3l8.4-8.4c.4-.4.4-1 0-1.4-.4-.4-1-.4-1.4 0zM-15 15c.5 0 1-.4 1-1V9c0-.6-.4-1-1-1s-1 .4-1 1v5c0 .6.4 1 1 1z"/></svg>