<svg viewBox="0 0 20.3 34.3"><path class="icon__shape" fill="#1d1d1d" d="M10.4 2c4.4 0 7.9 3.6 7.9 8s-3.6 8-7.9 8-7.9-3.6-7.9-8S6 2 10.4 2m0-2C4.9 0 .5 4.5.5 10s4.4 10 9.9 10 9.9-4.5 9.9-10-4.4-10-9.9-10z"/><path class="icon__shape" fill="#1d1d1d" d="M10.4 15c-.6 0-1-.4-1-1V9c0-.6.4-1 1-1s1 .4 1 1v5c0 .6-.5 1-1 1zm0 19.3c-.3 0-.5-.1-.7-.3l-8.4-8.4c-.4-.4-.4-1 0-1.4s1-.4 1.4 0l7.7 7.7 7.7-7.7c.4-.4 1-.4 1.4 0s.4 1 0 1.4L11.1 34c-.2.2-.4.3-.7.3z"/><circle class="icon__shape" fill="#1d1d1d" cx="10.4" cy="5.7" r="1"/></svg>