<svg viewBox="0 0 20.3 34.3">
	<path class="icon__shape" fill="#1d1d1d" d="M10.4,2c4.4,0,7.9,3.6,7.9,8s-3.6,8-7.9,8s-7.9-3.6-7.9-8S6,2,10.4,2 M10.4,0C4.9,0,0.5,4.5,0.5,10
		c0,5.5,4.4,10,9.9,10c5.5,0,9.9-4.5,9.9-10C20.3,4.5,15.9,0,10.4,0L10.4,0z"/>
	<path class="icon__shape" fill="#1d1d1d" d="M10.4,15c-0.6,0-1-0.4-1-1V9c0-0.6,0.4-1,1-1s1,0.4,1,1v5C11.4,14.6,10.9,15,10.4,15z"/>
	<path class="icon__shape" fill="#1d1d1d" d="M10.4,34.3c-0.3,0-0.5-0.1-0.7-0.3l-8.4-8.4c-0.4-0.4-0.4-1,0-1.4s1-0.4,1.4,0l7.7,7.7l7.7-7.7
			c0.4-0.4,1-0.4,1.4,0s0.4,1,0,1.4L11.1,34C10.9,34.2,10.7,34.3,10.4,34.3z"/>
  <circle class="icon__shape" fill="#1d1d1d" cx="10.4" cy="5.7" r="1"/>
</svg>
