<svg viewBox="0 0 19.8 20"><path class="icon__shape" fill="#1d1d1d" d="M9.9,2c4.4,0,7.9,3.6,7.9,8s-3.6,8-7.9,8S2,14.4,2,10S5.5,2,9.9,2 M9.9,0C4.4,0,0,4.5,0,10s4.4,10,9.9,10
	s9.9-4.5,9.9-10S15.4,0,9.9,0z"/><circle class="icon__shape" fill="#1d1d1d" cx="9.9" cy="5.7" r="1"/><path class="icon__shape" fill="#1d1d1d" d="M9.9,15c0.5,0,1-0.4,1-1V9c0-0.6-0.4-1-1-1c-0.6,0-1,0.4-1,1v5C8.9,14.6,9.3,15,9.9,15z"/><path class="icon__shape" fill="#1d1d1d" d="M-7.3,24.2l-7.7,7.7l-7.7-7.7c-0.4-0.4-1-0.4-1.4,0c-0.4,0.4-0.4,1,0,1.4l8.4,8.4c0.2,0.2,0.4,0.3,0.7,0.3 s0.5-0.1,0.7-0.3l8.4-8.4c0.4-0.4,0.4-1,0-1.4C-6.3,23.8-6.9,23.8-7.3,24.2z"/><path class="icon__shape" fill="#1d1d1d" d="M-15,15c0.5,0,1-0.4,1-1V9c0-0.6-0.4-1-1-1c-0.6,0-1,0.4-1,1v5C-16,14.6-15.6,15-15,15z"/></svg>
