<svg viewBox="0 0 20 19.9">
  <path class="icon__shape" fill="#1d1d1d" d="M18.8,1.2c-1.6-1.6-4.3-1.6-5.9,0l-2.3,2.3c-0.4,0.4-0.4,1,0,1.3c0.4,0.4,1,0.4,1.3,0l2.3-2.3c0.9-0.9,2.4-0.9,3.3,0
    s0.9,2.4,0,3.3l-4.6,4.6c-0.9,0.9-2.4,0.9-3.3,0c-0.4-0.4-0.9-0.4-1.3,0c-0.4,0.4-0.4,1,0,1.3c1.6,1.6,4.3,1.6,5.9,0l4.6-4.6
    C20.4,5.5,20.4,2.9,18.8,1.2z"/>
  <path class="icon__shape" fill="#1d1d1d" d="M1.2,18.7c1.6,1.6,4.3,1.6,5.9,0l2.3-2.3c0.4-0.4,0.4-1,0-1.3c-0.4-0.4-1-0.4-1.3,0l-2.3,2.3c-0.9,0.9-2.4,0.9-3.3,0
    s-0.9-2.4,0-3.3l4.6-4.6c0.9-0.9,2.4-0.9,3.3,0c0.4,0.4,0.9,0.4,1.3,0c0.4-0.4,0.4-1,0-1.3c-1.6-1.6-4.3-1.6-5.9,0l-4.6,4.6
    C-0.4,14.4-0.4,17,1.2,18.7z"/>
</svg>
