<svg viewBox="0 0 20 19.9"><path class="icon__shape" fill="#1d1d1d" d="M18.8 1.2c-1.6-1.6-4.3-1.6-5.9 0l-2.3 2.3c-.4.4-.4 1 0 1.3.4.4 1 .4 1.3 0l2.3-2.3c.9-.9 2.4-.9 3.3 0s.9 2.4 0 3.3l-4.6 4.6c-.9.9-2.4.9-3.3 0-.4-.4-.9-.4-1.3 0s-.4 1 0 1.3c1.6 1.6 4.3 1.6 5.9 0l4.6-4.6c1.6-1.6 1.6-4.2 0-5.9z"/><path class="icon__shape" fill="#1d1d1d" d="M1.2 18.7c1.6 1.6 4.3 1.6 5.9 0l2.3-2.3c.4-.4.4-1 0-1.3-.4-.4-1-.4-1.3 0l-2.3 2.3c-.9.9-2.4.9-3.3 0s-.9-2.4 0-3.3l4.6-4.6c.9-.9 2.4-.9 3.3 0 .4.4.9.4 1.3 0s.4-1 0-1.3c-1.6-1.6-4.3-1.6-5.9 0l-4.6 4.6c-1.6 1.6-1.6 4.2 0 5.9z"/></svg>