<svg viewBox="0 0 22 22"><path class="icon__shape" fill="#1d1d1d" d="M6.22 12.63a1 1 0 0 0 1.56 0l4-5a1 1 0 0 0-1.56-1.25L8 9.15V6a3 3 0 0 1 3-3h7a1 1 0 0 0 0-2h-7a5 5 0 0 0-5 5v3.15L3.78 6.38a1 1 0 0 0-1.56 1.24z"/><path class="icon__shape" fill="#1d1d1d" d="M20.55 13.17l-6-4a1 1 0 0 0-1.26.13l-2 2a1 1 0 0 0 0 1.41l2 2-.64.32L8.1 16l-4.73-1.93a1 1 0 0 0-1.27.48l-1 2a1 1 0 0 0 .38 1.3l5 3A1 1 0 0 0 7 21h13a1 1 0 0 0 1-1v-6a1 1 0 0 0-.45-.83zM19 19H7.28l-4-2.38.17-.35 4.15 1.66a1 1 0 0 0 .6.07l5-1a1 1 0 0 0 .25-.09l2-1a1 1 0 0 0 .26-1.6L13.41 12l.71-.71L19 14.54z"/></svg>