<svg viewBox="0 0 22 22"><path class="icon__shape" fill="#1d1d1d" d="M20.71 4.46a1 1 0 0 0-1.41 0L18 5.76V2a1 1 0 0 0-2 0v3.59l-1.12-1.13a1 1 0 0 0-1.41 1.41L16.3 8.7a1 1 0 0 0 .7.3h.18a1 1 0 0 0 .71-.29l2.83-2.83a1 1 0 0 0-.01-1.42zm-9.09 8.97a5 5 0 1 0-7.14.12c-2.42.87-3.17 2.7-3.38 4.81A2.4 2.4 0 0 0 3.49 21H13a2.4 2.4 0 0 0 2.39-2.65c-.26-2.2-1.07-4.11-3.77-4.92zM8 7a3 3 0 1 1-3 3 3 3 0 0 1 3-3zm5.27 11.87A.39.39 0 0 1 13 19H3.49a.4.4 0 0 1-.4-.44c.2-1.95.72-3.56 5.13-3.56s5 1.61 5.15 3.56a.39.39 0 0 1-.1.31z"/></svg>