<svg xmlns="http://www.w3.org/2000/svg" viewBox="0 0 25 18">
  <path class="icon__shape" fill="#1d1d1d" d="M9.5,0.3H6.2c-1.7,0-3,1.3-3,3v11L2,12.7c-0.3-0.4-1-0.5-1.4-0.2c-0.4,0.3-0.5,1-0.2,1.4l3,4
	c0.2,0.3,0.5,0.4,0.8,0.4s0.6-0.1,0.8-0.4l3-4c0.3-0.4,0.2-1.1-0.2-1.4s-1.1-0.2-1.4,0.2l-1.2,1.6v-11c0-0.6,0.4-1,1-1h3.3
	c0.6,0,1-0.4,1-1S10.1,0.3,9.5,0.3z"/>
  <path class="icon__shape" fill="#1d1d1d" d="M24.6,4.7l-3-4c-0.4-0.5-1.2-0.5-1.6,0l-3,4c-0.3,0.4-0.2,1.1,0.2,1.4c0.4,0.3,1.1,0.2,1.4-0.2l1.2-1.6v11
	c0,0.6-0.4,1-1,1h-6.3c-0.6,0-1,0.4-1,1s0.4,1,1,1h6.3c1.7,0,3-1.3,3-3v-11L23,5.9c0.2,0.3,0.5,0.4,0.8,0.4c0.2,0,0.4-0.1,0.6-0.2
	C24.8,5.8,24.9,5.1,24.6,4.7z"/>
	<rect x="7.2" y="4.6" class="icon__shape" fill="#1d1d1d" width="8" height="2"/>
	<rect x="7.2" y="8.6" class="icon__shape" fill="#1d1d1d" width="11" height="2"/>
	<rect x="10.2" y="12.6" class="icon__shape" fill="#1d1d1d" width="8" height="2"/>
</svg>
