<svg viewBox="0 0 26 26">
  <path fill="#1d1d1d" class="icon__shape" d="M5,20.22a1,1,0,0,1-1-1v-12a3,3,0,0,1,3-3H14.5a1,1,0,0,1,0,2H7a1,1,0,0,0-1,1v12A1,1,0,0,1,5,20.22Z"/>
  <path fill="#1d1d1d" class="icon__shape" d="M5,22.18a1,1,0,0,1-.8-.4l-3-4a1,1,0,0,1,1.6-1.2L5,19.51l2.2-2.93a1,1,0,0,1,1.6,1.2l-3,4A1,1,0,0,1,5,22.18Z"/>
  <path fill="#1d1d1d" class="icon__shape" d="M18.94,22.18H11.5a1,1,0,0,1,0-2h7.43a1,1,0,0,0,1-1v-12a1,1,0,1,1,2,0v12A3,3,0,0,1,18.94,22.18Z"/>
  <path fill="#1d1d1d" class="icon__shape" d="M23.94,10.22a1,1,0,0,1-.8-.4l-2.2-2.93-2.2,2.93a1,1,0,0,1-1.6-1.2l3-4a1,1,0,0,1,1.6,0l3,4a1,1,0,0,1-.8,1.6Z"/>
  <rect fill="#1d1d1d" class="icon__shape" x="7.97" y="8.46" width="7.3" height="2"/>
  <rect fill="#1d1d1d" class="icon__shape" x="7.97" y="12.46" width="10.3" height="2"/>
  <rect fill="#1d1d1d" class="icon__shape" x="10.97" y="16.46" width="7.3" height="2"/>
</svg>
