<svg viewBox="0 0 26 26"><path fill="#1d1d1d" class="icon__shape" d="M5 20.22a1 1 0 0 1-1-1v-12a3 3 0 0 1 3-3h7.5a1 1 0 0 1 0 2H7a1 1 0 0 0-1 1v12a1 1 0 0 1-1 1z"/><path fill="#1d1d1d" class="icon__shape" d="M5 22.18a1 1 0 0 1-.8-.4l-3-4a1 1 0 0 1 1.6-1.2L5 19.51l2.2-2.93a1 1 0 0 1 1.6 1.2l-3 4a1 1 0 0 1-.8.4zm13.94 0H11.5a1 1 0 0 1 0-2h7.43a1 1 0 0 0 1-1v-12a1 1 0 1 1 2 0v12a3 3 0 0 1-2.99 3z"/><path fill="#1d1d1d" class="icon__shape" d="M23.94 10.22a1 1 0 0 1-.8-.4l-2.2-2.93-2.2 2.93a1 1 0 0 1-1.6-1.2l3-4a1 1 0 0 1 1.6 0l3 4a1 1 0 0 1-.8 1.6zM7.97 8.46h7.3v2h-7.3zm0 4h10.3v2H7.97zm3 4h7.3v2h-7.3z"/></svg>