<svg viewBox="0 0 25 18"><path class="icon__shape" fill="#1d1d1d" d="M9.5.3H6.2c-1.7 0-3 1.3-3 3v11L2 12.7c-.3-.4-1-.5-1.4-.2-.4.3-.5 1-.2 1.4l3 4c.2.3.5.4.8.4s.6-.1.8-.4l3-4c.3-.4.2-1.1-.2-1.4s-1.1-.2-1.4.2l-1.2 1.6v-11c0-.6.4-1 1-1h3.3c.6 0 1-.4 1-1s-.4-1-1-1zm15.1 4.4l-3-4c-.4-.5-1.2-.5-1.6 0l-3 4c-.3.4-.2 1.1.2 1.4.4.3 1.1.2 1.4-.2l1.2-1.6v11c0 .6-.4 1-1 1h-6.3c-.6 0-1 .4-1 1s.4 1 1 1h6.3c1.7 0 3-1.3 3-3v-11L23 5.9c.2.3.5.4.8.4.2 0 .4-.1.6-.2.4-.3.5-1 .2-1.4z"/><path class="icon__shape" fill="#1d1d1d" d="M7.2 4.6h8v2h-8zm0 4h11v2h-11zm3 4h8v2h-8z"/></svg>