<svg viewBox="0 0 27 22"><path class="icon__shape" fill="#1d1d1d" d="M8.26 2.23a1 1 0 0 0-1.12.47L5.23 6H2a1 1 0 0 0-1 1v8a1 1 0 0 0 1 1h3.26l1.89 3.06a1 1 0 0 0 .85.47 1 1 0 0 0 1-1V3.2a1 1 0 0 0-.74-.97zm8.17 1.52a1 1 0 0 0 0 1.41 7.92 7.92 0 0 1-.05 11.45 1 1 0 0 0 1.38 1.45 9.92 9.92 0 0 0 .06-14.33 1 1 0 0 0-1.39.02zm-3.71 2.92a1 1 0 0 0-.88 1.79 2.67 2.67 0 0 1 0 4.82 1 1 0 0 0 .43 1.9 1 1 0 0 0 .43-.1 4.71 4.71 0 0 0 2.7-4.23 4.66 4.66 0 0 0-2.68-4.18z"/><path class="icon__shape" fill="#1d1d1d" d="M22.76 1.58a1 1 0 1 0-1.57 1.23 13 13 0 0 1 0 16.15 1 1 0 1 0 1.57 1.24 15 15 0 0 0 0-18.62z"/></svg>