<svg viewBox="0 0 26 26">
  <path fill="#1d1d1d" class="icon__shape" d="M9.3,5.73a1,1,0,0,0-1.12.4L6.46,8.71H4a1,1,0,0,0-1,1v7a1,1,0,0,0,1,1H6.46l1.72,2.54a1,1,0,0,0,.83.44,1,1,0,0,0,.29,0,1,1,0,0,0,.71-1v-13A1,1,0,0,0,9.3,5.73ZM8,16.43l-.19-.29A1,1,0,0,0,7,15.71H5v-5H7a1,1,0,0,0,.83-.44L8,10Z"/>
  <path fill="#1d1d1d" class="icon__shape" d="M16.55,6.95a1,1,0,1,0-1.39,1.44,6,6,0,0,1,0,8.64,1,1,0,0,0,1.38,1.45,8,8,0,0,0,0-11.53Z"/>
  <path fill="#1d1d1d" class="icon__shape" d="M12.49,9.22A1,1,0,1,0,11.61,11a1.87,1.87,0,0,1,0,3.38A1,1,0,0,0,12,16.3a1,1,0,0,0,.43-.1,3.87,3.87,0,0,0,.06-7Z"/>
  <path fill="#1d1d1d" class="icon__shape" d="M20.43,5.29a1,1,0,0,0-1.57,1.23,10,10,0,0,1,0,12.37,1,1,0,1,0,1.57,1.24,12,12,0,0,0,0-14.84Z"/>
</svg>
