<svg viewBox="0 0 26 26">
  <path fill="#1d1d1d" class="icon__shape" d="M22,9.14a6.89,6.89,0,0,0-.44-2.28,4.8,4.8,0,0,0-2.75-2.75,6.89,6.89,0,0,0-2.28-.44c-1,0-1.32-.06-3.87-.06s-2.87,0-3.87.06a6.89,6.89,0,0,0-2.28.44A4.8,4.8,0,0,0,3.77,6.86a6.89,6.89,0,0,0-.44,2.28c0,1-.06,1.32-.06,3.87s0,2.87.06,3.87a6.89,6.89,0,0,0,.44,2.28,4.8,4.8,0,0,0,2.75,2.75,6.89,6.89,0,0,0,2.28.44c1,0,1.32.06,3.87.06s2.87,0,3.87-.06a6.89,6.89,0,0,0,2.28-.44,4.8,4.8,0,0,0,2.75-2.75A6.89,6.89,0,0,0,22,16.88c0-1,.06-1.32.06-3.87S22,10.14,22,9.14Zm-1.69,7.66A5.2,5.2,0,0,1,20,18.55a3.11,3.11,0,0,1-1.78,1.78,5.19,5.19,0,0,1-1.74.32c-1,0-1.29.05-3.79.05s-2.8,0-3.79-.05a5.19,5.19,0,0,1-1.74-.32,3.11,3.11,0,0,1-1.78-1.78A5.2,5.2,0,0,1,5,16.81C5,15.82,5,15.52,5,13s0-2.8.05-3.79a5.2,5.2,0,0,1,.32-1.74A3.11,3.11,0,0,1,7.13,5.69a5.19,5.19,0,0,1,1.74-.32c1,0,1.29-.05,3.79-.05s2.8,0,3.79.05a5.19,5.19,0,0,1,1.74.32A3.11,3.11,0,0,1,20,7.48a5.2,5.2,0,0,1,.32,1.74c0,1,.05,1.29.05,3.79S20.35,15.82,20.31,16.81Z"/>
  <path fill="#1d1d1d" class="icon__shape" d="M12.66,8.19A4.82,4.82,0,1,0,17.49,13,4.82,4.82,0,0,0,12.66,8.19Zm0,8A3.13,3.13,0,1,1,15.79,13,3.13,3.13,0,0,1,12.66,16.14Z"/>
  <circle fill="#1d1d1d" class="icon__shape" cx="17.68" cy="8" r="1.13"/>
</svg>
