<svg viewBox="0 0 19 19"><path class="icon__shape" fill="#1d1d1d" d="M17.95 6a6.24 6.24 0 0 0-.4-2.06 4.17 4.17 0 0 0-1-1.51 4.17 4.17 0 0 0-1.51-1A6.24 6.24 0 0 0 13 1.05C12.1 1 11.81 1 9.5 1S6.9 1 6 1.05a6.24 6.24 0 0 0-2.06.4 4.17 4.17 0 0 0-1.51 1 4.17 4.17 0 0 0-1 1.51A6.24 6.24 0 0 0 1.05 6C1 6.9 1 7.19 1 9.5s0 2.6.05 3.5a6.24 6.24 0 0 0 .4 2.06 4.35 4.35 0 0 0 2.49 2.49 6.24 6.24 0 0 0 2.06.4c.91 0 1.2.05 3.5.05s2.6 0 3.5-.05a6.24 6.24 0 0 0 2.06-.4 4.35 4.35 0 0 0 2.49-2.49 6.24 6.24 0 0 0 .4-2.06c0-.91.05-1.2.05-3.5s0-2.6-.05-3.5zm-1.53 6.94a4.7 4.7 0 0 1-.29 1.58 2.81 2.81 0 0 1-1.61 1.61 4.7 4.7 0 0 1-1.58.29H6.08a4.7 4.7 0 0 1-1.58-.29 2.81 2.81 0 0 1-1.61-1.61 4.7 4.7 0 0 1-.29-1.58V6.08a4.7 4.7 0 0 1 .29-1.58 2.63 2.63 0 0 1 .64-1 2.63 2.63 0 0 1 1-.64 4.7 4.7 0 0 1 1.58-.29h6.86a4.7 4.7 0 0 1 1.58.29 2.82 2.82 0 0 1 1.61 1.61 4.7 4.7 0 0 1 .29 1.58v3.43c0 2.26.01 2.52-.03 3.45z"/><path class="icon__shape" fill="#1d1d1d" d="M9.5 5.14a4.36 4.36 0 1 0 4.36 4.36A4.36 4.36 0 0 0 9.5 5.14zm0 7.2a2.83 2.83 0 1 1 2.83-2.84 2.83 2.83 0 0 1-2.83 2.83z"/><circle class="icon__shape" fill="#1d1d1d" cx="14.04" cy="4.96" r="1.02"/></svg>