<svg viewBox="0 0 20.42 20.38"><circle fill="#1d1d1d" class="icon__shape" cx="5.31" cy="14.72" r=".4"/><path fill="#1d1d1d" class="icon__shape" d="M16.21.17h-12a4 4 0 0 0-4 4v12a4 4 0 0 0 4 4h12a4 4 0 0 0 4-4v-12a4 4 0 0 0-4-4zM5.31 16a1.3 1.3 0 1 1 1.3-1.3 1.3 1.3 0 0 1-1.3 1.3zm5.75-.89a.85.85 0 0 1-.85-.85 4 4 0 0 0-4-4 .85.85 0 1 1 0-1.7 5.72 5.72 0 0 1 5.71 5.71.85.85 0 0 1-.86.86zm4.52 0a.85.85 0 0 1-.85-.85 8.54 8.54 0 0 0-8.54-8.52.85.85 0 0 1 0-1.7 10.24 10.24 0 0 1 10.24 10.24.85.85 0 0 1-.85.85z"/></svg>