<svg viewBox="0 0 26 26">
  <path fill="#1d1d1d" class="icon__shape" d="M.74,13.3c-.13,0-.24,0-.25.1L.12,15.25.49,17c0,.06.12.1.25.1S1,17.1,1,17l.42-1.79L1,13.39C1,13.34.87,13.3.74,13.3Z"/>
  <path fill="#1d1d1d" class="icon__shape" d="M5.87,9.32c-.2,0-.35.11-.36.24l-.26,5.71L5.51,18c0,.13.17.24.36.24s.35-.11.36-.24l.3-2.73-.3-5.71C6.22,9.42,6.06,9.32,5.87,9.32Z"/>
  <path fill="#1d1d1d" class="icon__shape" d="M3.3,10.78c-.16,0-.3.09-.31.2l-.32,4.29L3,18c0,.11.14.19.31.19s.29-.09.31-.19L4,15.26,3.61,11C3.6,10.87,3.46,10.78,3.3,10.78Z"/>
  <path fill="#1d1d1d" class="icon__shape" d="M8.44,9.23c-.23,0-.41.13-.41.28l-.22,5.75L8,18c0,.16.19.28.41.28s.4-.12.41-.28l.24-2.68L8.84,9.51C8.84,9.36,8.66,9.23,8.44,9.23Z"/>
  <path fill="#1d1d1d" class="icon__shape" d="M22.44,11.86a3.4,3.4,0,0,0-1.28.25A5.75,5.75,0,0,0,15.36,7a6.07,6.07,0,0,0-2.11.38c-.25.09-.32.19-.32.38V17.87a.39.39,0,0,0,.36.38h9.15a3.2,3.2,0,1,0,0-6.39Z"/>
  <path fill="#1d1d1d" class="icon__shape" d="M11,8.34c-.25,0-.45.15-.46.33l-.17,6.59.17,2.65c0,.18.21.33.46.33s.45-.15.46-.33l.19-2.65-.19-6.59C11.45,8.49,11.25,8.34,11,8.34Z"/>
</svg>
