<svg viewBox="0 0 31 19"><path class="icon__shape" fill="#1d1d1d" d="M2.15,14.6l.49-2.09-.49-2.16c0-.06-.14-.11-.29-.11s-.27,0-.29.11l-.43,2.16.43,2.09c0,.06.13.11.29.11s.27,0,.29-.11Zm3.06,1.16.41-3.23-.41-5c0-.13-.17-.23-.36-.23s-.35.1-.36.23l-.37,5,.37,3.23c0,.13.17.23.36.23s.34-.1.36-.23Zm3.05-.05.35-3.17L8.26,5.88c0-.16-.19-.28-.42-.28s-.41.12-.42.28l-.31,6.65.31,3.18c0,.15.19.28.42.28s.41-.12.42-.28Zm3,0,.28-3.13-.28-6.7c0-.19-.22-.33-.48-.33s-.47.15-.48.33l-.25,6.7.25,3.13c0,.18.22.33.48.33s.47-.14.48-.33Zm3,0,.22-3.09-.22-7.68c0-.21-.24-.38-.53-.38s-.53.17-.53.38l-.2,7.68.2,3.09c0,.21.24.38.53.38s.53-.17.53-.38Zm2.13.38H27.15A3.78,3.78,0,0,0,31,12.29a3.78,3.78,0,0,0-3.85-3.72,4,4,0,0,0-1.49.29,6.7,6.7,0,0,0-6.76-6,7.07,7.07,0,0,0-2.46.44c-.29.11-.37.22-.37.44V15.56a.45.45,0,0,0,.42.44Zm0,0"/></svg>
