<svg viewBox="0 0 28 19"><circle class="icon__shape" fill="#1d1d1d" cx="7.7" cy="10.6" r="1"/><circle class="icon__shape" fill="#1d1d1d" cx="19.9" cy="10.6" r="1"/><path class="icon__shape" fill="#1d1d1d" d="M7.9 7.6c-1.6 0-2.9 1.3-2.9 3 0 1.6 1.3 2.9 2.9 2.9 1.6 0 2.9-1.3 2.9-2.9 0-1.7-1.3-3-2.9-3zm0 5c-1.1 0-2-.9-2-2s.9-2 2-2 2 .9 2 2-.9 2-2 2zm18.2-8h-4C20 3.2 17.2 2.4 14 2.4c-3.2 0-6.2.9-8.3 2.3H1.9C2.5 5.4 3 6.4 3.1 7c-.7 1-1.2 2.2-1.2 3.5 0 3.3 2.7 6 6 6 1.9 0 3.6-.9 4.7-2.2.5.5 1.2 1.6 1.4 1.9 0 0 .9-1.3 1.4-1.9 1.1 1.4 2.8 2.2 4.7 2.2 3.3 0 6-2.7 6-6 0-1.3-.4-2.6-1.2-3.5.1-.6.6-1.6 1.2-2.4zM8 15.4c-2.7 0-4.9-2.2-4.9-4.9S5.3 5.6 8 5.6s4.9 2.2 4.9 4.9c-.1 2.8-2.3 4.9-4.9 4.9zM8 4.5c1.7-.8 3.9-1.2 6-1.2 2.2 0 4.1.4 5.9 1.2-3.3.1-5.9 2.8-5.9 6 0-3.3-2.7-6-6-6zm12 10.9c-2.7 0-4.9-2.2-4.9-4.9s2.2-4.9 4.9-4.9 4.9 2.2 4.9 4.9c0 2.8-2.2 4.9-4.9 4.9zm0-7.8c-1.6 0-2.9 1.3-2.9 2.9 0 1.6 1.3 2.9 2.9 2.9 1.6 0 2.9-1.3 2.9-2.9.1-1.6-1.2-2.9-2.9-2.9zm0 5c-1.1 0-2-.9-2-2s.9-2 2-2 2 .9 2 2c.1 1.1-.8 2-2 2z"/></svg>