<svg viewBox="0 0 26 26">
  <circle fill="#1d1d1d" class="icon__shape" cx="6.3" cy="14.9" r="1.05"/>
  <circle fill="#1d1d1d" class="icon__shape" cx="19.24" cy="14.88" r="1.05"/>
  <path fill="#1d1d1d" class="icon__shape" d="M6.46,11.77A3.12,3.12,0,1,0,9.58,14.9,3.12,3.12,0,0,0,6.46,11.77Zm0,5.29A2.16,2.16,0,1,1,8.62,14.9,2.16,2.16,0,0,1,6.46,17.06Z"/>
  <path fill="#1d1d1d" class="icon__shape" d="M25.89,8.57h-4.3A15.48,15.48,0,0,0,13,6.17a16.2,16.2,0,0,0-8.83,2.4H0a6,6,0,0,1,1.29,2.57A6.43,6.43,0,0,0,11.53,19,16.21,16.21,0,0,1,13,21s.92-1.38,1.44-2a6.43,6.43,0,0,0,10.2-7.84A6,6,0,0,1,25.89,8.57ZM6.53,20.09a5.18,5.18,0,1,1,5.18-5.18A5.18,5.18,0,0,1,6.53,20.09Zm0-11.61A16.48,16.48,0,0,1,13,7.24,15.46,15.46,0,0,1,19.2,8.48,6.43,6.43,0,0,0,13,14.91,6.43,6.43,0,0,0,6.54,8.48ZM19.4,20.09a5.18,5.18,0,1,1,5.18-5.18A5.18,5.18,0,0,1,19.4,20.09Z"/>
  <path fill="#1d1d1d" class="icon__shape" d="M19.4,11.76a3.12,3.12,0,1,0,3.12,3.12A3.12,3.12,0,0,0,19.4,11.76Zm0,5.29a2.16,2.16,0,1,1,2.16-2.16A2.16,2.16,0,0,1,19.4,17Z"/>
</svg>
