<svg viewBox="0 0 24 19"><path class="icon__shape" fill="#1d1d1d" d="M22.78,5.05a4.76,4.76,0,0,0-.87-2.18,3.15,3.15,0,0,0-2.2-.93c-3.08-.22-7.7-.22-7.7-.22h0s-4.62,0-7.7.22a3.15,3.15,0,0,0-2.2.93,4.76,4.76,0,0,0-.87,2.18A33.27,33.27,0,0,0,1,8.62v1.67a33.27,33.27,0,0,0,.22,3.56A4.76,4.76,0,0,0,2.09,16,3.73,3.73,0,0,0,4.52,17c1.76.17,7.48.22,7.48.22s4.62,0,7.7-.23a3.15,3.15,0,0,0,2.2-.93,4.76,4.76,0,0,0,.87-2.18A33.32,33.32,0,0,0,23,10.28V8.62A33.32,33.32,0,0,0,22.78,5.05ZM9.73,12.31V6.13l5.94,3.1Z"/></svg>
