<svg viewBox="0 0 26 26">
  <path fill="#1d1d1d" class="icon__shape" d="M22.85,9.58A4.51,4.51,0,0,0,22,7.51a3,3,0,0,0-2.09-.88c-2.92-.21-7.29-.21-7.29-.21h0s-4.38,0-7.29.21a3,3,0,0,0-2.09.88,4.51,4.51,0,0,0-.83,2.07A31.52,31.52,0,0,0,2.21,13v1.58a31.52,31.52,0,0,0,.21,3.37A4.51,4.51,0,0,0,3.25,20a3.53,3.53,0,0,0,2.3.89c1.67.16,7.09.21,7.09.21s4.38,0,7.3-.22A3,3,0,0,0,22,20a4.51,4.51,0,0,0,.83-2.07,31.57,31.57,0,0,0,.21-3.37V13A31.57,31.57,0,0,0,22.85,9.58ZM10.48,16.45V10.59l5.63,2.94Z"/>
</svg>
