<svg xmlns="http://www.w3.org/2000/svg" viewBox="0 0 33.75 28.5" height="36"><polyline fill="none" stroke="#1d1d1d" stroke-linecap="round" stroke-linejoin="round" stroke-width="2px" points="25.42 20.2 25.23 26.82 10.91 26.82 10.36 7.95"/><line fill="none" stroke="#1d1d1d" stroke-linecap="round" stroke-linejoin="round" stroke-width="2px" x1="25.78" y1="7.95" x2="25.56" y2="15.39"/>
<polyline fill="none" stroke="#1d1d1d" stroke-linecap="round" stroke-linejoin="round" stroke-width="2px" points="10.36 9.74 7.54 14.06 4.97 23.37 1.29 22.55 3.79 10.59 8.84 2.58 12.97 1.21 18.07 9.62"/><polyline fill="none" stroke="#1d1d1d" stroke-linecap="round" stroke-linejoin="round" stroke-width="2px" points="27.88 14.13 20.74 18.11 21.79 21.5 32.41 17.71 32.5 12.46 27.45 2.58 23.33 1.21 15.71 14.23 15.71 26.82"/><circle fill="none" stroke="#1d1d1d" stroke-linecap="round" stroke-linejoin="round" stroke-width="2px" cx="18.73" cy="15.57" r="0.17"/><circle fill="none" stroke="#1d1d1d" stroke-linecap="round" stroke-linejoin="round" stroke-width="2px" cx="18.73" cy="21.81" r="0.17"/><path fill="none" stroke="#1d1d1d" stroke-linecap="round" stroke-linejoin="round" stroke-width="2px" d="M12.72,1.21a15.84,15.84,0,0,0,5.35.94,15.84,15.84,0,0,0,5.35-.94"/></svg>
