<svg version="1" xmlns="http://www.w3.org/2000/svg" width="933.333" height="933.333" viewBox="0 0 700.000000 700.000000"><path d="M327.9.4c-.2.2-4.8.7-10.2 1-5.3.4-10.3.8-11 1.1-.6.2-3.7.6-6.7 1-15.4 1.6-46.5 9.2-66.2 16.2-52.4 18.3-102 51-139.8 92-10.4 11.3-12.6 13.8-19.7 22.8-8.4 10.8-20.4 28.5-28 41.4-6.1 10.3-17.8 34.2-21.3 43.6-6.6 17.8-8.5 23.2-12 35.9-5.8 20.1-10.2 44.5-11.8 64.1-.9 11.5-.9 49.3 0 61 1.5 19.3 6 44 12 65C44.4 556.3 129.6 645.5 239 682c8 2.7 15.6 5.1 17 5.4 1.4.4 9 2.1 17 4 27.2 6.3 44.6 8.1 77.5 8.1 34.4 0 49.5-1.8 84.5-10 13.7-3.2 38.9-11.8 54.9-18.7 12.1-5.3 30.8-14.8 35.3-17.9 1.4-1.1 2.9-1.9 3.3-1.9 1.3 0 28.3-18.5 37-25.3 64.4-50.7 107.8-119.2 126-198.5 3-13.4 6.2-33.1 7.2-45.7 1.5-17.7.8-61.6-1.2-75-6.5-43.2-15.4-73.6-31.5-107.1-42.8-89.5-120.6-156-216-184.8-18.4-5.5-30.8-8.1-52-11.1-6.3-.9-12.8-1.8-14.5-2.1-3.6-.7-55-1.6-55.6-1z"/></svg>